<?xml version="1.0" encoding="utf-8"?>
<!-- Generator: Adobe Illustrator 20.1.0, SVG Export Plug-In . SVG Version: 6.00 Build 0)  -->
<svg version="1.1" id="Layer_1" xmlns="http://www.w3.org/2000/svg" xmlns:xlink="http://www.w3.org/1999/xlink" x="0px" y="0px"
	 viewBox="0 0 1280 800" style="enable-background:new 0 0 1280 800;" xml:space="preserve">
<style type="text/css">
	.st0{fill:#D3D3D3;}
	.st1{fill:none;stroke:#FFFFFF;stroke-width:2;stroke-miterlimit:10;}
</style>
<rect class="st0" width="1280" height="800"/>
<polyline class="st1" points="0,436.8 25.7,437.9 29.4,436.8 34,434.2 39,430.1 47.7,422.3 54,418.4 58.1,417.5 60.7,418.1 
	64.8,421.6 75.3,436.2 79.4,439.2 83.3,439.7 106.6,439.9 132.5,439.2 148.3,437.7 151.2,436 154.2,432.3 157.5,426.4 160.1,424.2 
	162.5,423.1 165.9,423.6 168.8,425.5 171.4,429 174.2,434.4 176.8,436.4 182.3,437.1 186.8,437.1 189.2,437.5 191.8,441.4 
	195.5,450.5 205.5,329.4 211.3,469 212.8,450.7 214.1,444.8 216.6,439.4 220.6,436.8 225.2,435.8 234.7,436.9 245.2,437.7 
	252.9,437.9 258,437.9 262.6,437 267.5,433.9 273.6,428.6 278.5,423.8 284.4,419.9 289.5,417.7 292.6,417.7 295.8,419.4 299.4,424 
	305.1,432.2 309.7,436.8 311.2,438.5 312.8,439.6 325.1,440.5 357,438.1 372.4,438.1 379.2,433.3 386.1,423.8 390.3,423.8 
	395.6,427.5 399.3,430.9 400.2,434.2 403.2,436.9 412.1,437.1 415.6,437.9 418.4,441.2 422.1,449.9 431.9,329.7 437.3,468.8 
	438.6,451.9 441.7,441.6 445.2,437.3 450.2,436.2 459.1,436.9 484.7,437.9 488.4,436.9 493,434.2 498,430.1 506.7,422.3 513,418.4 
	517.1,417.5 519.8,418.2 523.9,421.6 534.3,436.2 538.5,439.2 542.4,439.7 565.6,439.9 591.5,439.2 607.4,437.7 610.2,436 
	613.3,432.3 616.5,426.4 619.1,424.2 621.5,423.2 625,423.6 627.8,425.5 630.4,429 633.3,434.5 635.9,436.4 641.3,437.1 
	645.9,437.1 648.3,437.5 650.9,441.4 654.6,450.6 664.6,329.4 670.3,469.1 671.8,450.7 673.2,444.8 675.7,439.4 679.7,436.8 
	684.2,435.8 693.8,437 704.3,437.7 711.9,437.9 717.1,437.9 721.6,437 726.6,433.9 732.6,428.6 737.6,423.8 743.4,420 748.6,417.7 
	751.7,417.7 754.8,419.4 758.5,424 764.2,432.2 768.8,436.8 770.2,438.5 771.9,439.6 784.2,440.5 818.7,439.6 834,439.6 
	840.9,434.8 847.7,425.3 852,425.3 857.2,429 860.9,432.4 861.8,435.8 864.8,438.4 873.8,438.6 877.2,439.5 880.1,442.7 
	883.8,451.4 893.5,331.2 899,470.3 900.3,453.4 903.3,443.2 906.8,438.8 911.8,437.7 920.7,438.4 946.4,439.5 950.1,438.4 
	954.6,435.8 959.6,431.6 968.3,423.8 974.6,419.9 978.8,419 981.4,419.7 985.5,423.2 996,437.7 1000.1,440.8 1004,441.2 
	1027.3,441.4 1053.1,440.8 1069,439.2 1071.8,437.5 1074.9,433.8 1078.1,427.9 1080.8,425.8 1083.1,424.7 1086.6,425.1 
	1089.5,427.1 1092.1,430.5 1094.9,436 1097.5,437.9 1102.9,438.6 1107.5,438.6 1109.9,439 1112.5,442.9 1116.2,452.1 1126.2,331 
	1132,470.6 1133.5,452.2 1134.8,446.3 1137.3,441 1141.3,438.3 1145.9,437.3 1155.4,438.5 1165.9,439.2 1173.6,439.4 1178.7,439.4 
	1183.2,438.5 1188.2,435.4 1194.2,430.1 1199.2,425.3 1205.1,421.5 1210.2,419.3 1213.3,419.3 1216.4,420.9 1220.1,425.5 
	1225.8,433.8 1230.4,438.4 1231.9,440 1233.5,441.1 1245.8,442 1280.3,441.1 "/>
</svg>
