<?xml version="1.0" encoding="utf-8"?>
<!-- Generator: Adobe Illustrator 20.1.0, SVG Export Plug-In . SVG Version: 6.00 Build 0)  -->
<svg version="1.1" id="Layer_1" xmlns="http://www.w3.org/2000/svg" xmlns:xlink="http://www.w3.org/1999/xlink" x="0px" y="0px"
	 viewBox="0 0 160 100" style="enable-background:new 0 0 160 100;" xml:space="preserve">
<style type="text/css">
	.st0{fill:none;stroke:url(#SVGID_1_);stroke-miterlimit:10;}
	.st1{fill:none;}
	.st2{fill:none;stroke:url(#SVGID_2_);stroke-miterlimit:10;}
	.st3{fill:none;stroke:url(#SVGID_3_);stroke-miterlimit:10;}
	.st4{fill:none;stroke:url(#SVGID_4_);stroke-miterlimit:10;}
	.st5{fill:none;stroke:url(#SVGID_5_);stroke-miterlimit:10;}
	.st6{fill:none;stroke:url(#SVGID_6_);stroke-miterlimit:10;}
	.st7{display:none;}
	.st8{fill:none;stroke:url(#SVGID_7_);stroke-miterlimit:10;}
	.st9{fill:none;stroke:url(#SVGID_8_);stroke-miterlimit:10;}
	.st10{fill:none;stroke:url(#SVGID_9_);stroke-miterlimit:10;}
	.st11{fill:none;stroke:url(#SVGID_10_);stroke-miterlimit:10;}
	.st12{fill:none;stroke:url(#SVGID_11_);stroke-miterlimit:10;}
	.st13{fill:none;stroke:url(#SVGID_12_);stroke-miterlimit:10;}
	.st14{fill:none;stroke:url(#SVGID_13_);stroke-miterlimit:10;}
	.st15{fill:none;stroke:url(#SVGID_14_);stroke-miterlimit:10;}
	.st16{fill:none;stroke:url(#SVGID_15_);stroke-miterlimit:10;}
</style>
<g>
	<g>
		<linearGradient id="SVGID_1_" gradientUnits="userSpaceOnUse" x1="12.4967" y1="56.8492" x2="38.4638" y2="56.8492">
			<stop  offset="0" style="stop-color:#EF32D9"/>
			<stop  offset="4.382038e-02" style="stop-color:#E644DC"/>
			<stop  offset="0.1725" style="stop-color:#CD76E5"/>
			<stop  offset="0.3045" style="stop-color:#B8A0EC"/>
			<stop  offset="0.4378" style="stop-color:#A7C2F2"/>
			<stop  offset="0.5727" style="stop-color:#9ADDF7"/>
			<stop  offset="0.7097" style="stop-color:#90F0FA"/>
			<stop  offset="0.8503" style="stop-color:#8BFBFC"/>
			<stop  offset="1" style="stop-color:#89FFFD"/>
		</linearGradient>
		<path class="st0" d="M37.5,63.9c-6.2,4.6-14.7,4.6-20.9,0c-0.7-0.5-1.3-1-1.9-1.6s-1.1-1.2-1.6-1.9c0.9-2.1,2-4.1,3.2-6.1
			c0.4-0.6,0.7-1.1,1.1-1.7c0.6-0.9,1.3-1.8,1.9-2.6c1.1-1.3,2.2-2.6,3.4-3.9c-2,2.2-2,5.6,0,7.8c0.1,0.1,0.1,0.1,0.2,0.2
			s0.1,0.1,0.2,0.2c1.2,1.2,2.5,2.4,3.9,3.4c1.4,1.1,2.8,2.1,4.3,3C33.4,62,35.4,63,37.5,63.9z"/>
		<path class="st1" d="M39.4,62.3c-0.6,0.6-1.2,1.1-1.9,1.6c-2.1-0.9-4.1-2-6.1-3.2c-1.5-0.9-2.9-1.9-4.3-3s-2.7-2.2-3.9-3.4
			c2.2,2,5.6,2,7.8,0c0.1-0.1,0.1-0.1,0.2-0.2s0.1-0.1,0.2-0.2c1.2-1.3,2.4-2.6,3.5-3.9c1.1-1.4,2.1-2.8,3-4.3c1.2-2,2.3-4,3.2-6.1
			c4.6,6.1,4.6,14.6,0.1,20.7C40.6,60.9,40,61.6,39.4,62.3z"/>
		<linearGradient id="SVGID_2_" gradientUnits="userSpaceOnUse" x1="41.5248" y1="43.1517" x2="15.48" y2="43.1519">
			<stop  offset="0" style="stop-color:#EF32D9"/>
			<stop  offset="4.382038e-02" style="stop-color:#E644DC"/>
			<stop  offset="0.1725" style="stop-color:#CD76E5"/>
			<stop  offset="0.3045" style="stop-color:#B8A0EC"/>
			<stop  offset="0.4378" style="stop-color:#A7C2F2"/>
			<stop  offset="0.5727" style="stop-color:#9ADDF7"/>
			<stop  offset="0.7097" style="stop-color:#90F0FA"/>
			<stop  offset="0.8503" style="stop-color:#8BFBFC"/>
			<stop  offset="1" style="stop-color:#89FFFD"/>
		</linearGradient>
		<path class="st2" d="M31.4,53.8c2-2.2,2-5.7-0.1-7.9l-0.1-0.1c-0.1-0.1-0.2-0.2-0.3-0.2c-1.2-1.2-2.5-2.3-3.9-3.4
			c-1.4-1.1-2.9-2.1-4.4-3c-2-1.2-4-2.2-6.1-3.1c6.2-4.7,14.8-4.7,21-0.1c0.7,0.5,1.3,1,1.9,1.6s1.2,1.2,1.6,1.9
			c-0.9,2.1-2,4.1-3.2,6.1c-0.9,1.5-1.9,2.9-3,4.3C33.8,51.3,32.6,52.6,31.4,53.8z"/>
		<linearGradient id="SVGID_3_" gradientUnits="userSpaceOnUse" x1="9.1171" y1="48.509" x2="31.2063" y2="48.509">
			<stop  offset="0" style="stop-color:#EF32D9"/>
			<stop  offset="4.382038e-02" style="stop-color:#E644DC"/>
			<stop  offset="0.1725" style="stop-color:#CD76E5"/>
			<stop  offset="0.3045" style="stop-color:#B8A0EC"/>
			<stop  offset="0.4378" style="stop-color:#A7C2F2"/>
			<stop  offset="0.5727" style="stop-color:#9ADDF7"/>
			<stop  offset="0.7097" style="stop-color:#90F0FA"/>
			<stop  offset="0.8503" style="stop-color:#8BFBFC"/>
			<stop  offset="1" style="stop-color:#89FFFD"/>
		</linearGradient>
		<path class="st3" d="M16.3,54.3c-1.2,2-2.3,4-3.2,6.1c-4.6-6.2-4.6-14.7,0-20.9c0.5-0.7,1-1.3,1.6-1.9c0.6-0.6,1.2-1.1,1.8-1.5
			c2.1,0.9,4.2,1.9,6.1,3.1c1.5,0.9,3,1.9,4.4,3c1.3,1,2.6,2.2,3.9,3.4c-2.2-2-5.6-2-7.7,0c-0.1,0.1-0.1,0.1-0.2,0.2
			c-0.1,0.1-0.1,0.1-0.2,0.2c-1.2,1.2-2.4,2.5-3.4,3.9c-0.7,0.9-1.3,1.7-1.9,2.6C17,53.1,16.6,53.7,16.3,54.3z"/>
	</g>
	<g>
		<linearGradient id="SVGID_4_" gradientUnits="userSpaceOnUse" x1="86.5861" y1="63.7903" x2="137.5744" y2="63.7903">
			<stop  offset="0" style="stop-color:#EF32D9"/>
			<stop  offset="4.382038e-02" style="stop-color:#E644DC"/>
			<stop  offset="0.1725" style="stop-color:#CD76E5"/>
			<stop  offset="0.3045" style="stop-color:#B8A0EC"/>
			<stop  offset="0.4378" style="stop-color:#A7C2F2"/>
			<stop  offset="0.5727" style="stop-color:#9ADDF7"/>
			<stop  offset="0.7097" style="stop-color:#90F0FA"/>
			<stop  offset="0.8503" style="stop-color:#8BFBFC"/>
			<stop  offset="1" style="stop-color:#89FFFD"/>
		</linearGradient>
		<path class="st4" d="M136.6,78.2c-12.6,9.3-29.8,9.3-42.3,0c-1.4-1-2.6-2-3.8-3.2c-1.2-1.2-2.2-2.4-3.2-3.8
			c1.8-4.3,4.1-8.3,6.5-12.4c0.8-1.2,1.4-2.2,2.2-3.4c1.2-1.8,2.6-3.6,3.8-5.3c2.2-2.6,4.5-5.3,6.9-7.9c-4.1,4.5-4.1,11.3,0,15.8
			c0.2,0.2,0.2,0.2,0.4,0.4c0.2,0.2,0.2,0.2,0.4,0.4c2.4,2.4,5.1,4.9,7.9,6.9c2.8,2.2,5.7,4.3,8.7,6.1
			C128.3,74.4,132.3,76.4,136.6,78.2z"/>
		<path class="st1" d="M140.4,75c-1.2,1.2-2.4,2.2-3.8,3.2c-4.3-1.8-8.3-4.1-12.4-6.5c-3-1.8-5.9-3.8-8.7-6.1s-5.5-4.5-7.9-6.9
			c4.5,4.1,11.3,4.1,15.8,0c0.2-0.2,0.2-0.2,0.4-0.4c0.2-0.2,0.2-0.2,0.4-0.4c2.4-2.6,4.9-5.3,7.1-7.9c2.2-2.8,4.3-5.7,6.1-8.7
			c2.4-4.1,4.7-8.1,6.5-12.4c9.3,12.4,9.3,29.6,0.2,41.9C142.9,72.2,141.6,73.6,140.4,75z"/>
		<linearGradient id="SVGID_5_" gradientUnits="userSpaceOnUse" x1="144.2246" y1="36.2042" x2="93.056" y2="36.2044">
			<stop  offset="0" style="stop-color:#EF32D9"/>
			<stop  offset="4.382038e-02" style="stop-color:#E644DC"/>
			<stop  offset="0.1725" style="stop-color:#CD76E5"/>
			<stop  offset="0.3045" style="stop-color:#B8A0EC"/>
			<stop  offset="0.4378" style="stop-color:#A7C2F2"/>
			<stop  offset="0.5727" style="stop-color:#9ADDF7"/>
			<stop  offset="0.7097" style="stop-color:#90F0FA"/>
			<stop  offset="0.8503" style="stop-color:#8BFBFC"/>
			<stop  offset="1" style="stop-color:#89FFFD"/>
		</linearGradient>
		<path class="st5" d="M124.2,57.8c4.1-4.5,4.1-11.5-0.2-16l-0.2-0.2c-0.2-0.2-0.4-0.4-0.6-0.4c-2.4-2.4-5.1-4.7-7.9-6.9
			c-2.8-2.2-5.9-4.3-8.9-6.1c-4.1-2.4-8.1-4.5-12.4-6.3c12.6-9.5,30-9.5,42.5-0.2c1.4,1,2.6,2,3.8,3.2c1.2,1.2,2.4,2.4,3.2,3.8
			c-1.8,4.3-4.1,8.3-6.5,12.4c-1.8,3-3.8,5.9-6.1,8.7C129.1,52.7,126.7,55.4,124.2,57.8z"/>
		<linearGradient id="SVGID_6_" gradientUnits="userSpaceOnUse" x1="79.6687" y1="46.7594" x2="123.5488" y2="46.7594">
			<stop  offset="0" style="stop-color:#EF32D9"/>
			<stop  offset="4.382038e-02" style="stop-color:#E644DC"/>
			<stop  offset="0.1725" style="stop-color:#CD76E5"/>
			<stop  offset="0.3045" style="stop-color:#B8A0EC"/>
			<stop  offset="0.4378" style="stop-color:#A7C2F2"/>
			<stop  offset="0.5727" style="stop-color:#9ADDF7"/>
			<stop  offset="0.7097" style="stop-color:#90F0FA"/>
			<stop  offset="0.8503" style="stop-color:#8BFBFC"/>
			<stop  offset="1" style="stop-color:#89FFFD"/>
		</linearGradient>
		<path class="st6" d="M93.6,58.8c-2.4,4.1-4.7,8.1-6.5,12.4c-9.3-12.6-9.3-29.8,0-42.3c1-1.4,2-2.6,3.2-3.8c1.2-1.2,2.4-2.2,3.6-3
			c4.3,1.8,8.5,3.8,12.4,6.3c3,1.8,6.1,3.8,8.9,6.1c2.6,2,5.3,4.5,7.9,6.9c-4.5-4.1-11.3-4.1-15.6,0c-0.2,0.2-0.2,0.2-0.4,0.4
			c-0.2,0.2-0.2,0.2-0.4,0.4c-2.4,2.4-4.9,5.1-6.9,7.9c-1.4,1.8-2.6,3.4-3.8,5.3C95.1,56.4,94.2,57.6,93.6,58.8z"/>
	</g>
</g>
<g id="drgmhw.tif" class="st7">
	
		<image style="display:inline;overflow:visible;" width="538" height="269" id="Layer_0_1_" xlink:href="C85022F76275FADA.png"  transform="matrix(0.403 0 0 0.403 -208.4191 -9.2099)">
	</image>
</g>
</svg>
