<?xml version="1.0" encoding="utf-8"?>
<!-- Generator: Adobe Illustrator 20.1.0, SVG Export Plug-In . SVG Version: 6.00 Build 0)  -->
<svg version="1.1" id="Layer_1" xmlns="http://www.w3.org/2000/svg" xmlns:xlink="http://www.w3.org/1999/xlink" x="0px" y="0px"
	 viewBox="0 0 160 100" style="enable-background:new 0 0 160 100;" xml:space="preserve">
<style type="text/css">
	.st0{fill:none;stroke:url(#SVGID_1_);stroke-miterlimit:10;}
	.st1{fill:none;}
	.st2{fill:none;stroke:url(#SVGID_2_);stroke-miterlimit:10;}
	.st3{fill:none;stroke:url(#SVGID_3_);stroke-miterlimit:10;}
	.st4{fill:none;stroke:url(#SVGID_4_);stroke-miterlimit:10;}
	.st5{fill:none;stroke:url(#SVGID_5_);stroke-miterlimit:10;}
	.st6{fill:none;stroke:url(#SVGID_6_);stroke-miterlimit:10;}
	.st7{display:none;}
	.st8{fill:none;stroke:url(#SVGID_7_);stroke-miterlimit:10;}
	.st9{fill:none;stroke:url(#SVGID_8_);stroke-miterlimit:10;}
	.st10{fill:none;stroke:url(#SVGID_9_);stroke-miterlimit:10;}
	.st11{fill:none;stroke:url(#SVGID_10_);stroke-miterlimit:10;}
	.st12{fill:none;stroke:url(#SVGID_11_);stroke-miterlimit:10;}
	.st13{fill:none;stroke:url(#SVGID_12_);stroke-miterlimit:10;}
	.st14{fill:none;stroke:url(#SVGID_13_);stroke-miterlimit:10;}
	.st15{fill:none;stroke:url(#SVGID_14_);stroke-miterlimit:10;}
	.st16{fill:none;stroke:url(#SVGID_15_);stroke-miterlimit:10;}
</style>
<g id="drgmhw.tif" class="st7">
	
		<image style="display:inline;overflow:visible;" width="538" height="269" id="Layer_0_1_" xlink:href="C847B7EAA867A693.png"  transform="matrix(0.403 0 0 0.403 -28.4191 -9.2099)">
	</image>
</g>
<linearGradient id="SVGID_1_" gradientUnits="userSpaceOnUse" x1="53.405" y1="22.1373" x2="109.8951" y2="22.1373">
	<stop  offset="0" style="stop-color:#EF32D9"/>
	<stop  offset="4.382038e-02" style="stop-color:#E644DC"/>
	<stop  offset="0.1725" style="stop-color:#CD76E5"/>
	<stop  offset="0.3045" style="stop-color:#B8A0EC"/>
	<stop  offset="0.4378" style="stop-color:#A7C2F2"/>
	<stop  offset="0.5727" style="stop-color:#9ADDF7"/>
	<stop  offset="0.7097" style="stop-color:#90F0FA"/>
	<stop  offset="0.8503" style="stop-color:#8BFBFC"/>
	<stop  offset="1" style="stop-color:#89FFFD"/>
</linearGradient>
<path class="st0" d="M97.2,0.5c-0.7,1-1.6,2.4-1.9,4.4c-0.2,1.2-0.1,2.3,0,2.8c0.2,1.3,0.5,2.2,0.8,2.9c0.4,1,0.6,1.5,1.1,2
	c0.2,0.2,0.8,0.8,1.8,1c0.6,0.2,1.1,0.1,1.9,0c0.8-0.1,1.1-0.2,2.5-0.6c2.1-0.6,2.4-0.6,2.7-0.5c1.1,0.1,1.8,0.7,2,0.9
	c0.3,0.3,0.8,0.9,1.2,1.9c0.6,1.8-0.1,2.8-0.5,6.1c-0.4,3.1-0.7,4.7-0.5,5.6c0.1,0.5,0.3,1.9-0.5,2.6c-0.4,0.3-0.9,0.5-0.9,0.5
	c-0.6,0.1-1,0-1.2-0.1c-1.7-0.6-3.6-0.6-5.4-1c-2.9-0.7-5-0.9-6.8-1c-1.6-0.1-2.7,0-3.6,0.7c-1,0.8-1.3,2-1.4,2.3
	c-0.2,0.8,0,1.5,0.3,2.9c0.4,1.7,0.6,2,0.9,3.5c0.3,1.3,0.4,1.9,0.2,2.6c-0.4,1.7-1.9,2.6-2.3,2.9c-1.3,0.8-2.6,0.9-4.1,0.9
	c-1.1,0-2.2-0.2-4.4-0.5c-1.5-0.3-1.9-0.4-2.3-0.7c-1.1-0.8-1.5-2.2-1.6-2.6c-0.2-0.9-0.2-1.6-0.2-2.2c0.1-1.8,0.7-2.2,1-4.2
	c0.2-1.3,0.4-2.3-0.1-3.2c-0.6-1.2-1.9-1.7-2.4-1.9c-0.6-0.2-2.2-0.7-8.9,1.2c-3.9,1.1-5.8,1.7-6.1,1.9c-0.4,0.3-1.4,1-2.1,0.7
	c-0.4-0.2-0.6-0.7-0.6-0.9c-1.4-5.3-1.7-9.6-1.7-9.6c-0.2-3.8-0.4-4.9,0.2-6.7c0.4-1.1,0.9-2.5,2-2.9c1.4-0.5,2.3,0.8,5.5,1.3
	c1.5,0.2,2.2,0.4,3,0c2.2-1,2.4-4.7,2.5-5.9c0.2-3-0.8-5-1.6-7H97.2z"/>
<linearGradient id="SVGID_2_" gradientUnits="userSpaceOnUse" x1="39.9802" y1="80.8549" x2="114.3585" y2="80.8549">
	<stop  offset="0" style="stop-color:#EF32D9"/>
	<stop  offset="4.382038e-02" style="stop-color:#E644DC"/>
	<stop  offset="0.1725" style="stop-color:#CD76E5"/>
	<stop  offset="0.3045" style="stop-color:#B8A0EC"/>
	<stop  offset="0.4378" style="stop-color:#A7C2F2"/>
	<stop  offset="0.5727" style="stop-color:#9ADDF7"/>
	<stop  offset="0.7097" style="stop-color:#90F0FA"/>
	<stop  offset="0.8503" style="stop-color:#8BFBFC"/>
	<stop  offset="1" style="stop-color:#89FFFD"/>
</linearGradient>
<path class="st2" d="M54.8,99.5c0.1-1,0.2-1.2,0.1-2c-0.1-0.4-0.2-1.4-0.9-2c-0.5-0.4-1-0.6-2.2-0.8c-0.8-0.1-1.4-0.3-2.3-0.3
	c-2.3,0.1-2.7,1-4.5,0.7c-0.4-0.1-1.1-0.2-1.8-0.7c-1.3-0.8-1.8-2-2.1-2.7c-0.9-2.2-0.5-4.2-0.2-5.8c0.4-1.9,0.7-3.6,2.2-4.8
	c0.3-0.2,1.3-1.1,2.8-1.2c0.9-0.1,1.7,0.2,3.2,0.7c1.3,0.5,1.8,0.8,3.5,1.4c1.1,0.4,1.6,0.5,2.2,0.3c0.7-0.2,1.2-0.7,1.6-1.2
	c0.9-1,1.2-2,1.2-2.3c0.4-1.4,0.1-2.5-0.2-3.8c-0.8-4.1,0.2-3.9-0.6-7.2c-0.5-2.1-1.2-3.8-0.4-4.7c0.3-0.3,0.8-0.5,0.9-0.6
	c1-0.4,1.9-0.3,2.2-0.2c1.9,0.2,3.8-0.2,5.7-0.2c4.9,0,5.3-0.1,6.3,0.2c1.4,0.4,2.3,1,3.2,1.7c1.2,0.8,1.3,1.2,1.4,1.4
	c0.2,0.6-0.1,0.9-0.9,2.8c-0.8,1.9-0.5,1.5-1,2.5c-0.5,1-0.8,1.4-0.8,2.2c0,0.1,0,0.7,0.2,1.4c0.1,0.2,0.5,1.2,1.8,2.1
	c1.3,0.9,2.5,1.1,4.1,1.3c1.8,0.3,3.1,0.5,4.6,0c0.7-0.2,2.2-0.7,2.8-2c0.3-0.6,0.3-1.2,0.3-2.2c0-1.1-0.1-1.4-0.3-3.2
	c-0.2-2.2-0.1-2.6,0-2.8c0.4-1.1,1.4-1.7,1.6-1.8c0.5-0.3,1.3-0.7,1.3-0.7l0,0c2,0.4,3.8,0.7,5.1,1c9.9,2.1,9.4,2.8,10,2.8
	c0.1,0,0.3,0,0.4,0.2c0,0,0.1,0.2,0.2,0.4c0.1,0.6-0.4,1.3-0.6,1.7c-0.3,0.5-0.4,1.1-0.7,1.7c-0.8,2.1-0.9,3.6-2,6.8
	c-0.4,1.2-0.8,2.1-1.1,3.7c-0.2,0.6-0.3,1.5-0.2,2.7c0.2,1.3,0.6,1.9,0.8,2c0.4,0.4,0.8,0.6,1,0.7c0.3,0.1,0.8,0.3,2,0.2
	c0.8-0.1,1.1-0.2,1.9-0.3c0.9-0.2,2-0.3,3.3,0c0.5,0.1,1.4,0.4,2.3,1.2c1,0.9,1.3,2,1.4,2.4c0.4,1.4,0.1,2.8-0.2,4.2
	c-0.3,1.2-0.6,2.1-0.9,3.1H54.8z"/>
</svg>
