<?xml version="1.0" encoding="utf-8"?>
<!-- Generator: Adobe Illustrator 20.1.0, SVG Export Plug-In . SVG Version: 6.00 Build 0)  -->
<svg version="1.1" id="Layer_1" xmlns="http://www.w3.org/2000/svg" xmlns:xlink="http://www.w3.org/1999/xlink" x="0px" y="0px"
	 viewBox="0 0 160 100" style="enable-background:new 0 0 160 100;" xml:space="preserve">
<style type="text/css">
	.st0{display:none;}
	.st1{fill:none;stroke:url(#SVGID_1_);stroke-width:2;stroke-miterlimit:10;}
	.st2{fill:none;stroke:url(#SVGID_2_);stroke-width:2;stroke-miterlimit:10;}
</style>
<g id="drgmhw.tif" class="st0">
	
		<image style="display:inline;overflow:visible;enable-background:new    ;" width="542" height="273" id="Layer_0_1_" xlink:href="C847B7EAA867A690.png"  transform="matrix(0.3994 0 0 0.3994 -28.2589 -9.5292)">
	</image>
</g>
<linearGradient id="SVGID_1_" gradientUnits="userSpaceOnUse" x1="52.9" y1="78.6362" x2="110.3901" y2="78.6362" gradientTransform="matrix(0 1 1 0 27.1699 -27.1699)">
	<stop  offset="0" style="stop-color:#EF32D9"/>
	<stop  offset="4.382038e-02" style="stop-color:#E644DC"/>
	<stop  offset="0.1725" style="stop-color:#CD76E5"/>
	<stop  offset="0.3045" style="stop-color:#B8A0EC"/>
	<stop  offset="0.4378" style="stop-color:#A7C2F2"/>
	<stop  offset="0.5727" style="stop-color:#9ADDF7"/>
	<stop  offset="0.7097" style="stop-color:#90F0FA"/>
	<stop  offset="0.8503" style="stop-color:#8BFBFC"/>
	<stop  offset="1" style="stop-color:#89FFFD"/>
</linearGradient>
<path class="st1" d="M126.2,70c-1-0.7-2.1-1.6-4.1-1.9c-1.2-0.2-2.2-0.1-2.7,0c-1.3,0.2-2.1,0.5-2.9,0.8c-1,0.4-1.5,0.6-2,1.1
	c-0.2,0.2-0.8,0.8-1,1.8c-0.2,0.6-0.1,1.1,0,1.9s0.2,1.1,0.6,2.5c0.6,2.1,0.6,2.4,0.5,2.7c-0.1,1.1-0.7,1.8-0.9,2
	c-0.3,0.3-0.9,0.8-1.9,1.2c-1.8,0.6-2.8-0.1-6.1-0.5c-3.1-0.4-4.7-0.7-5.6-0.5c-0.5,0.1-1.9,0.3-2.6-0.5c-0.3-0.4-0.5-0.9-0.5-0.9
	c-0.1-0.6,0-1,0.1-1.2c0.6-1.7,0.6-3.6,1-5.4c0.7-2.9,0.9-5,1-6.8c0.1-1.6,0-2.7-0.7-3.6c-0.8-1-2-1.3-2.3-1.4
	c-0.8-0.2-1.5,0-2.9,0.3c-1.7,0.4-2,0.6-3.5,0.9c-1.3,0.3-1.9,0.4-2.6,0.2c-1.7-0.4-2.6-1.9-2.9-2.3c-0.8-1.3-0.9-2.6-0.9-4.1
	c0-1.1,0.2-2.2,0.5-4.4c0.3-1.5,0.4-1.9,0.7-2.3c0.8-1.1,2.2-1.5,2.6-1.6c0.9-0.2,1.6-0.2,2.2-0.2c1.8,0.1,2.2,0.7,4.2,1
	c1.3,0.2,2.3,0.4,3.2-0.1c1.2-0.6,1.7-1.9,1.9-2.4c0.2-0.6,0.7-2.2-1.2-8.9c-1.1-3.9-1.7-5.8-1.9-6.1c-0.3-0.4-1-1.4-0.7-2.1
	c0.2-0.4,0.7-0.6,0.9-0.6c5.3-1.4,9.6-1.7,9.6-1.7c3.8-0.2,4.9-0.4,6.7,0.2c1.1,0.4,2.5,0.9,2.9,2c0.5,1.4-0.8,2.3-1.3,5.5
	c-0.2,1.5-0.4,2.2,0,3c1,2.2,4.5,2.4,5.7,2.5c3,0.2,4.8-0.8,6.8-1.6L126.2,70L126.2,70z"/>
<linearGradient id="SVGID_2_" gradientUnits="userSpaceOnUse" x1="39.547" y1="19.958" x2="114.9253" y2="19.958" gradientTransform="matrix(0 1 1 0 27.1699 -27.1699)">
	<stop  offset="0" style="stop-color:#EF32D9"/>
	<stop  offset="4.382038e-02" style="stop-color:#E644DC"/>
	<stop  offset="0.1725" style="stop-color:#CD76E5"/>
	<stop  offset="0.3045" style="stop-color:#B8A0EC"/>
	<stop  offset="0.4378" style="stop-color:#A7C2F2"/>
	<stop  offset="0.5727" style="stop-color:#9ADDF7"/>
	<stop  offset="0.7097" style="stop-color:#90F0FA"/>
	<stop  offset="0.8503" style="stop-color:#8BFBFC"/>
	<stop  offset="1" style="stop-color:#89FFFD"/>
</linearGradient>
<path class="st2" d="M28.2,27.6c1,0.1,1.5,0.2,2.2,0.1c0.4-0.1,1.5-0.2,2.2-0.9c0.4-0.5,0.7-1,0.9-2.2c0.1-0.8,0.3-1.4,0.3-2.3
	c-0.1-2.3-1-2.7-0.7-4.5c0.1-0.4,0.2-1.1,0.7-1.8c0.8-1.3,2-1.8,2.7-2.1c2.2-0.9,4.2-0.5,5.8-0.2c1.9,0.4,3.6,0.7,4.8,2.2
	c0.2,0.3,1.1,1.3,1.2,2.8c0.1,0.9-0.2,1.7-0.7,3.2c-0.5,1.3-0.8,1.8-1.4,3.5c-0.4,1.1-0.5,1.6-0.3,2.2c0.2,0.7,0.7,1.2,1.2,1.6
	c1,0.9,2,1.2,2.3,1.2c1.4,0.4,2.5,0.1,3.8-0.2c4.1-0.8,3.9,0.2,7.2-0.6c2.1-0.5,3.8-1.2,4.7-0.4c0.3,0.3,0.5,0.8,0.6,0.9
	c0.4,1,0.3,1.9,0.2,2.2c-0.2,1.9,0.2,3.8,0.2,5.7c0,4.9,0.1,5.3-0.2,6.3c-0.4,1.4-1,2.3-1.7,3.2c-0.8,1.2-1.2,1.3-1.4,1.4
	c-0.6,0.2-0.9-0.1-2.8-0.9s-1.5-0.5-2.5-1s-1.4-0.8-2.2-0.8c-0.1,0-0.7,0-1.4,0.2c-0.2,0.1-1.2,0.5-2.1,1.8s-1.1,2.5-1.3,4.1
	c-0.3,1.8-0.5,3.1,0,4.6c0.2,0.7,0.7,2.2,2,2.8c0.6,0.3,1.2,0.3,2.2,0.3c1.1,0,1.4-0.1,3.2-0.3c2.2-0.2,2.6-0.1,2.8,0
	c1.1,0.4,1.7,1.4,1.8,1.6c0.3,0.5,0.7,1.3,0.7,1.3l0,0c-0.4,2-0.7,3.8-1,5.1c-2.1,9.9-2.8,9.4-2.8,10c0,0.1,0,0.3-0.2,0.4
	c0,0-0.2,0.1-0.4,0.2c-0.6,0.1-1.3-0.4-1.7-0.6c-0.5-0.3-1.1-0.4-1.7-0.7c-2.1-0.8-3.6-0.9-6.8-2c-1.2-0.4-2.1-0.8-3.7-1.1
	c-0.6-0.2-1.5-0.3-2.7-0.2c-1.3,0.2-1.9,0.6-2,0.8c-0.4,0.4-0.6,0.8-0.7,1c-0.1,0.3-0.3,0.8-0.2,2c0.1,0.8,0.2,1.1,0.3,1.9
	c0.2,0.9,0.3,2,0,3.3c-0.1,0.5-0.4,1.4-1.2,2.3c-0.9,1-2,1.3-2.4,1.4c-1.4,0.4-3,0.1-4.5-0.2c-1.2-0.3-2.3-0.6-3.3-0.9
	C28.2,85.3,28.2,27.6,28.2,27.6z"/>
</svg>
