<?xml version="1.0" encoding="utf-8"?>
<!-- Generator: Adobe Illustrator 20.1.0, SVG Export Plug-In . SVG Version: 6.00 Build 0)  -->
<svg version="1.1" id="Layer_1" xmlns="http://www.w3.org/2000/svg" xmlns:xlink="http://www.w3.org/1999/xlink" x="0px" y="0px"
	 viewBox="0 0 239.1 91" style="enable-background:new 0 0 239.1 91;" xml:space="preserve">
<style type="text/css">
	.st0{fill:url(#SVGID_1_);}
	.st1{fill:none;}
	.st2{fill:url(#SVGID_2_);}
	.st3{fill:url(#SVGID_3_);}
	.st4{fill:url(#SVGID_4_);}
	.st5{fill:url(#SVGID_5_);}
	.st6{fill:url(#SVGID_6_);}
	.st7{fill:url(#SVGID_7_);}
</style>
<g>
	
		<linearGradient id="SVGID_1_" gradientUnits="userSpaceOnUse" x1="49.8" y1="57.975" x2="74.2" y2="57.975" gradientTransform="matrix(1 0 0 -1 0 93.6)">
		<stop  offset="0" style="stop-color:#EF32D9"/>
		<stop  offset="4.382038e-02" style="stop-color:#E644DC"/>
		<stop  offset="0.1725" style="stop-color:#CD76E5"/>
		<stop  offset="0.3045" style="stop-color:#B8A0EC"/>
		<stop  offset="0.4378" style="stop-color:#A7C2F2"/>
		<stop  offset="0.5727" style="stop-color:#9ADDF7"/>
		<stop  offset="0.7097" style="stop-color:#90F0FA"/>
		<stop  offset="0.8503" style="stop-color:#8BFBFC"/>
		<stop  offset="1" style="stop-color:#89FFFD"/>
	</linearGradient>
	<path class="st0" d="M74.2,42.8c-6.2,4.6-14.7,4.6-20.9,0c-0.7-0.5-1.3-1-1.9-1.6c-0.6-0.6-1.1-1.2-1.6-1.9c0.9-2.1,2-4.1,3.2-6.1
		c0.4-0.6,0.7-1.1,1.1-1.7c0.6-0.9,1.3-1.8,1.9-2.6c1.1-1.3,2.2-2.6,3.4-3.9c-2,2.2-2,5.6,0,7.8c0.1,0.1,0.1,0.1,0.2,0.2
		s0.1,0.1,0.2,0.2c1.2,1.2,2.5,2.4,3.9,3.4c1.4,1.1,2.8,2.1,4.3,3C70,40.9,72.1,41.9,74.2,42.8z"/>
	<path class="st1" d="M76.1,41.2c-0.6,0.6-1.2,1.1-1.9,1.6c-2.1-0.9-4.1-2-6.1-3.2c-1.5-0.9-2.9-1.9-4.3-3c-1.4-1.1-2.7-2.2-3.9-3.4
		c2.2,2,5.6,2,7.8,0c0.1-0.1,0.1-0.1,0.2-0.2c0.1-0.1,0.1-0.1,0.2-0.2c1.2-1.3,2.4-2.6,3.5-3.9c1.1-1.4,2.1-2.8,3-4.3
		c1.2-2,2.3-4,3.2-6.1c4.6,6.1,4.6,14.6,0.1,20.7C77.3,39.9,76.7,40.6,76.1,41.2z"/>
	
		<linearGradient id="SVGID_2_" gradientUnits="userSpaceOnUse" x1="-625.2745" y1="1158.1685" x2="-642.6223" y2="1175.516" gradientTransform="matrix(0.7071 0.7071 -0.7071 0.7071 1338.7725 -354.628)">
		<stop  offset="0" style="stop-color:#EF32D9"/>
		<stop  offset="4.382038e-02" style="stop-color:#E644DC"/>
		<stop  offset="0.1725" style="stop-color:#CD76E5"/>
		<stop  offset="0.3045" style="stop-color:#B8A0EC"/>
		<stop  offset="0.4378" style="stop-color:#A7C2F2"/>
		<stop  offset="0.5727" style="stop-color:#9ADDF7"/>
		<stop  offset="0.7097" style="stop-color:#90F0FA"/>
		<stop  offset="0.8503" style="stop-color:#8BFBFC"/>
		<stop  offset="1" style="stop-color:#89FFFD"/>
	</linearGradient>
	<path class="st2" d="M68.1,32.8c2-2.2,2-5.7-0.1-7.9l-0.1-0.1c-0.1-0.1-0.2-0.2-0.3-0.2c-1.2-1.2-2.5-2.3-3.9-3.4s-2.9-2.1-4.4-3
		c-2-1.2-4-2.2-6.1-3.1c6.2-4.7,14.8-4.7,21-0.1c0.7,0.5,1.3,1,1.9,1.6c0.6,0.6,1.2,1.2,1.6,1.9c-0.9,2.1-2,4.1-3.2,6.1
		c-0.9,1.5-1.9,2.9-3,4.3C70.5,30.2,69.3,31.5,68.1,32.8z"/>
	
		<linearGradient id="SVGID_3_" gradientUnits="userSpaceOnUse" x1="-645.0781" y1="1167.816" x2="-627.8953" y2="1184.9989" gradientTransform="matrix(0.7071 0.7071 -0.7071 0.7071 1338.7725 -354.628)">
		<stop  offset="0" style="stop-color:#EF32D9"/>
		<stop  offset="4.382038e-02" style="stop-color:#E644DC"/>
		<stop  offset="0.1725" style="stop-color:#CD76E5"/>
		<stop  offset="0.3045" style="stop-color:#B8A0EC"/>
		<stop  offset="0.4378" style="stop-color:#A7C2F2"/>
		<stop  offset="0.5727" style="stop-color:#9ADDF7"/>
		<stop  offset="0.7097" style="stop-color:#90F0FA"/>
		<stop  offset="0.8503" style="stop-color:#8BFBFC"/>
		<stop  offset="1" style="stop-color:#89FFFD"/>
	</linearGradient>
	<path class="st3" d="M52.9,33.2c-1.2,2-2.3,4-3.2,6.1c-4.6-6.2-4.6-14.7,0-20.9c0.5-0.7,1-1.3,1.6-1.9s1.2-1.1,1.8-1.5
		c2.1,0.9,4.2,1.9,6.1,3.1c1.5,0.9,3,1.9,4.4,3c1.3,1,2.6,2.2,3.9,3.4c-2.2-2-5.6-2-7.7,0c-0.1,0.1-0.1,0.1-0.2,0.2
		c-0.1,0.1-0.1,0.1-0.2,0.2c-1.2,1.2-2.4,2.5-3.4,3.9c-0.7,0.9-1.3,1.7-1.9,2.6C53.7,32.1,53.3,32.6,52.9,33.2z"/>
</g>
<g>
	
		<linearGradient id="SVGID_4_" gradientUnits="userSpaceOnUse" x1="-546.9131" y1="1092.3494" x2="-523.8612" y2="1092.3494" gradientTransform="matrix(0.7071 0.7071 -0.7071 0.7071 1338.7725 -354.628)">
		<stop  offset="0" style="stop-color:#EF32D9"/>
		<stop  offset="4.382038e-02" style="stop-color:#E644DC"/>
		<stop  offset="0.1725" style="stop-color:#CD76E5"/>
		<stop  offset="0.3045" style="stop-color:#B8A0EC"/>
		<stop  offset="0.4378" style="stop-color:#A7C2F2"/>
		<stop  offset="0.5727" style="stop-color:#9ADDF7"/>
		<stop  offset="0.7097" style="stop-color:#90F0FA"/>
		<stop  offset="0.8503" style="stop-color:#8BFBFC"/>
		<stop  offset="1" style="stop-color:#89FFFD"/>
	</linearGradient>
	<path class="st4" d="M200.5,42.8c-6.2,4.6-14.7,4.6-20.9,0c-0.7-0.5-1.3-1-1.9-1.6s-1.1-1.2-1.6-1.9c0.9-2.1,2-4.1,3.2-6.1
		c0.4-0.6,0.7-1.1,1.1-1.7c0.6-0.9,1.3-1.8,1.9-2.6c1.1-1.3,2.2-2.6,3.4-3.9c-2,2.2-2,5.6,0,7.8c0.1,0.1,0.1,0.1,0.2,0.2
		s0.1,0.1,0.2,0.2c1.2,1.2,2.5,2.4,3.9,3.4c1.4,1.1,2.8,2.1,4.3,3C196.4,40.9,198.4,41.9,200.5,42.8z"/>
	<path class="st1" d="M202.4,41.2c-0.6,0.6-1.2,1.1-1.9,1.6c-2.1-0.9-4.1-2-6.1-3.2c-1.5-0.9-2.9-1.9-4.3-3s-2.7-2.2-3.9-3.4
		c2.2,2,5.6,2,7.8,0c0.1-0.1,0.1-0.1,0.2-0.2s0.1-0.1,0.2-0.2c1.2-1.3,2.4-2.6,3.5-3.9c1.1-1.4,2.1-2.8,3-4.3c1.2-2,2.3-4,3.2-6.1
		c4.6,6.1,4.6,14.6,0.1,20.7C203.6,39.9,203,40.6,202.4,41.2z"/>
	
		<linearGradient id="SVGID_5_" gradientUnits="userSpaceOnUse" x1="-535.9489" y1="1068.8458" x2="-553.2967" y2="1086.1937" gradientTransform="matrix(0.7071 0.7071 -0.7071 0.7071 1338.7725 -354.628)">
		<stop  offset="0" style="stop-color:#EF32D9"/>
		<stop  offset="4.382038e-02" style="stop-color:#E644DC"/>
		<stop  offset="0.1725" style="stop-color:#CD76E5"/>
		<stop  offset="0.3045" style="stop-color:#B8A0EC"/>
		<stop  offset="0.4378" style="stop-color:#A7C2F2"/>
		<stop  offset="0.5727" style="stop-color:#9ADDF7"/>
		<stop  offset="0.7097" style="stop-color:#90F0FA"/>
		<stop  offset="0.8503" style="stop-color:#8BFBFC"/>
		<stop  offset="1" style="stop-color:#89FFFD"/>
	</linearGradient>
	<path class="st5" d="M194.4,32.8c2-2.2,2-5.7-0.1-7.9l-0.1-0.1c-0.1-0.1-0.2-0.2-0.3-0.2c-1.2-1.2-2.5-2.3-3.9-3.4s-2.9-2.1-4.4-3
		c-2-1.2-4-2.2-6.1-3.1c6.2-4.7,14.8-4.7,21-0.1c0.7,0.5,1.3,1,1.9,1.6s1.2,1.2,1.6,1.9c-0.9,2.1-2,4.1-3.2,6.1
		c-0.9,1.5-1.9,2.9-3,4.3C196.8,30.2,195.6,31.5,194.4,32.8z"/>
	
		<linearGradient id="SVGID_6_" gradientUnits="userSpaceOnUse" x1="-555.699" y1="1078.4369" x2="-538.5161" y2="1095.6198" gradientTransform="matrix(0.7071 0.7071 -0.7071 0.7071 1338.7725 -354.628)">
		<stop  offset="0" style="stop-color:#EF32D9"/>
		<stop  offset="4.382038e-02" style="stop-color:#E644DC"/>
		<stop  offset="0.1725" style="stop-color:#CD76E5"/>
		<stop  offset="0.3045" style="stop-color:#B8A0EC"/>
		<stop  offset="0.4378" style="stop-color:#A7C2F2"/>
		<stop  offset="0.5727" style="stop-color:#9ADDF7"/>
		<stop  offset="0.7097" style="stop-color:#90F0FA"/>
		<stop  offset="0.8503" style="stop-color:#8BFBFC"/>
		<stop  offset="1" style="stop-color:#89FFFD"/>
	</linearGradient>
	<path class="st6" d="M179.3,33.2c-1.2,2-2.3,4-3.2,6.1c-4.6-6.2-4.6-14.7,0-20.9c0.5-0.7,1-1.3,1.6-1.9s1.2-1.1,1.8-1.5
		c2.1,0.9,4.2,1.9,6.1,3.1c1.5,0.9,3,1.9,4.4,3c1.3,1,2.6,2.2,3.9,3.4c-2.2-2-5.6-2-7.7,0c-0.1,0.1-0.1,0.1-0.2,0.2
		s-0.1,0.1-0.2,0.2c-1.2,1.2-2.4,2.5-3.4,3.9c-0.7,0.9-1.3,1.7-1.9,2.6C180,32.1,179.6,32.6,179.3,33.2z"/>
</g>
<g>
	<g>
		<path d="M0,0h1.5L20,44.7L38.4,0H40L20.7,46.2h-1.5L0,0z"/>
		<path d="M101.6,13.3c-2.8,0-5.1,0.6-6.9,1.7c-1.8,1.1-2.7,2.8-2.7,5c0,1.5,0.4,2.8,1.3,3.8c0.9,1,1.9,1.7,3.2,2.2s3,1.1,5.3,1.9
			c2.4,0.7,4.3,1.4,5.7,2s2.6,1.6,3.6,2.7c1,1.2,1.5,2.7,1.5,4.6c0,2.9-1.1,5.1-3.3,6.6s-4.9,2.2-8.2,2.2c-2.4,0-4.6-0.4-6.8-1.3
			c-2.1-0.8-4-2-5.5-3.5l0.9-1c1.5,1.4,3.2,2.5,5.1,3.3c1.9,0.8,4,1.2,6.3,1.2c2.9,0,5.3-0.6,7.3-1.9c1.9-1.3,2.9-3.1,2.9-5.6
			c0-1.5-0.4-2.8-1.3-3.8c-0.9-1-2-1.8-3.3-2.3c-1.3-0.6-3.1-1.2-5.3-1.9c-2.3-0.7-4.2-1.4-5.7-2.1c-1.4-0.6-2.6-1.5-3.6-2.7
			c-1-1.1-1.5-2.6-1.5-4.4c0-2.7,1-4.7,3.1-6.1s4.6-2.1,7.8-2.1c3.3,0,6.3,0.8,9.1,2.4l-0.7,1.1C107.7,14.1,104.9,13.3,101.6,13.3z"
			/>
		<path d="M152.8,14.2c2.5,1.5,4.5,3.5,5.9,6.1s2.1,5.5,2.1,8.8s-0.7,6.2-2.1,8.8s-3.4,4.6-5.9,6.1s-5.4,2.2-8.5,2.2
			c-3.5,0-6.6-0.9-9.4-2.7c-2.7-1.8-4.7-4.3-5.9-7.3v22.9h-1.3v-47h1.3v10c1.2-3.1,3.2-5.5,5.9-7.3c2.7-1.8,5.8-2.7,9.4-2.7
			C147.4,12,150.3,12.7,152.8,14.2z M152.1,42.8c2.3-1.3,4.1-3.2,5.5-5.6s2-5.1,2-8.1c0-3-0.7-5.7-2-8.1s-3.1-4.3-5.5-5.7
			c-2.3-1.4-4.9-2-7.8-2c-2.9,0-5.5,0.7-7.8,2c-2.3,1.4-4.1,3.3-5.5,5.7c-1.3,2.4-2,5.1-2,8.1c0,3,0.7,5.7,2,8.1
			c1.3,2.4,3.1,4.3,5.5,5.6s4.9,2,7.8,2C147.2,44.8,149.8,44.2,152.1,42.8z"/>
		<path d="M226.6,14.5c2.2-1.6,5-2.5,8.2-2.5v1.3c-3.9,0.1-7,1.4-9.2,3.9c-2.3,2.5-3.6,5.9-3.9,10.3v18.7h-1.3V12h1.3v9.3
			C222.8,18.4,224.4,16.1,226.6,14.5z"/>
	</g>
	
		<linearGradient id="SVGID_7_" gradientUnits="userSpaceOnUse" x1="21.1" y1="397.9" x2="218.7" y2="397.9" gradientTransform="matrix(1 0 0 1 0 -316)">
		<stop  offset="0" style="stop-color:#89FFFD"/>
		<stop  offset="0.1497" style="stop-color:#8BFBFC"/>
		<stop  offset="0.2903" style="stop-color:#90F0FA"/>
		<stop  offset="0.4273" style="stop-color:#9ADDF7"/>
		<stop  offset="0.5622" style="stop-color:#A7C2F2"/>
		<stop  offset="0.6955" style="stop-color:#B8A0EC"/>
		<stop  offset="0.8275" style="stop-color:#CD76E5"/>
		<stop  offset="0.9562" style="stop-color:#E644DC"/>
		<stop  offset="1" style="stop-color:#EF32D9"/>
	</linearGradient>
	<path class="st7" d="M30.2,72.9v13.2h-1.4v-4.3h-6.4v4.3h-1.3V72.9h1.4v7.7h6.4v-7.7H30.2z M41.3,83.2c-0.9,2-2.7,3.1-4.5,3.1
		c-2.7,0-4.8-2.2-4.8-4.9c0-2.6,2.2-4.8,4.8-4.8s4.8,2.2,4.8,4.8c0,0.2,0,0.4,0,0.5h-1.7H39h-5.6c0,1.5,1.7,3.1,3.5,3.1
		c1.4,0,2.5-1,3-1.9C40.1,83.2,40.8,83.2,41.3,83.2z M33.3,80.8h0.3h6h0.6c0-0.1-0.1-0.4-0.1-0.6c-0.6-1.5-1.7-2.4-3.3-2.4
		c-1.5,0-2.9,1.1-3.4,2.5C33.3,80.5,33.3,80.7,33.3,80.8z M52.3,76.7v9.4h-1.2v-1v-0.3c-0.2,0.2-0.5,0.5-0.7,0.6
		c-0.8,0.6-1.8,0.9-3,0.9c-2.7,0-4.8-2.2-4.8-4.8c0-2.7,2.2-4.9,4.8-4.9c1.1,0,2.4,0.6,3,1.2c0.2,0.3,0.4,0.4,0.6,0.5v-0.5v-1.1
		H52.3z M51.1,81.5c0-1.9-1.8-3.7-3.7-3.7c-2,0-3.6,1.7-3.6,3.7c0,1.9,1.6,3.6,3.5,3.6C49.2,85.1,51.1,83.5,51.1,81.5z M56,86.1
		h-1.4V72.9H56V86.1z M64.4,78h-2.7v8.1h-1.4V78h-2.6v-1.3h2.6v-3.8h1.4v3.8h2.7V78z M67.5,86.1h-1.4V72.9h1.4v4.4v0.6
		c0.1-0.2,0.3-0.3,0.5-0.4c0.7-0.6,2-0.8,2.8-0.8c2.5,0,4.4,1.5,4.4,4.2v5.3h-1.3v-1.1v-4.3c0-1.6-1-2.8-3-2.8
		c-1.7,0-3.2,1.2-3.3,2.8L67.5,86.1L67.5,86.1z M80.2,74.2h2v3h3V79h-3v3h-2v-3h-3v-1.8h3V74.2z M99.5,83.2
		c-1.2,1.9-3.3,3.2-5.7,3.2c-3.7,0-6.3-3.1-6.3-6.8c0-3.8,2.6-6.8,6.3-6.8c2.3,0,4.2,1.1,5.5,2.9l-1.2,0.6c-0.9-1.3-2.6-2.2-4.3-2.2
		c-2.9,0-4.9,3-4.9,5.5c0,3.2,2.5,5.5,4.9,5.5c2,0,3.4-1.1,4.2-2.4L99.5,83.2z M110.5,76.7v9.4h-1.3v-1v-0.3
		c-0.2,0.2-0.5,0.5-0.7,0.6c-0.8,0.6-1.8,0.9-3,0.9c-2.7,0-4.8-2.2-4.8-4.8c0-2.7,2.2-4.9,4.8-4.9c1.1,0,2.4,0.6,3,1.2
		c0.2,0.3,0.4,0.4,0.6,0.5v-0.5v-1.1H110.5z M109.2,81.5c0-1.9-1.8-3.7-3.7-3.7c-2,0-3.6,1.7-3.6,3.7c0,1.9,1.6,3.6,3.5,3.6
		C107.4,85.1,109.2,83.5,109.2,81.5z M117,76.6c0,0.9,0,1.4,0,1.4c0.1,0-2.5-0.3-2.9,2v6.2h-1.3v-9.4h1.3v0.8
		C114.9,76.9,115.1,76.6,117,76.6z M127.4,83.2c-0.9,2-2.7,3.1-4.5,3.1c-2.7,0-4.8-2.2-4.8-4.9c0-2.6,2.2-4.8,4.8-4.8
		s4.8,2.2,4.8,4.8c0,0.2,0,0.4,0,0.5H126h-0.9h-5.6c0,1.5,1.7,3.1,3.5,3.1c1.4,0,2.5-1,3-1.9C126.2,83.2,126.9,83.2,127.4,83.2z
		 M119.4,80.8h0.3h6h0.6c0-0.1-0.1-0.4-0.1-0.6c-0.6-1.5-1.7-2.4-3.3-2.4c-1.5,0-2.9,1.1-3.4,2.5C119.4,80.5,119.4,80.7,119.4,80.8z
		 M148.3,86.1H147v-8.2V76l-1.1,1.3l-3.8,4.1l-3.5-3.4l-1.5-1.8l0.1,1.8v8.2h-1.4V72.8l6.3,6.7l6.2-6.7V86.1z M159.9,76.7v9.4h-1.3
		v-1v-0.3c-0.2,0.2-0.5,0.5-0.7,0.6c-0.8,0.6-1.8,0.9-3,0.9c-2.7,0-4.8-2.2-4.8-4.8c0-2.7,2.2-4.9,4.8-4.9c1.1,0,2.4,0.6,3,1.2
		c0.2,0.3,0.4,0.4,0.6,0.5v-0.5v-1.1H159.9z M158.6,81.5c0-1.9-1.8-3.7-3.7-3.7c-2,0-3.6,1.7-3.6,3.7c0,1.9,1.6,3.6,3.5,3.6
		C156.8,85.1,158.6,83.5,158.6,81.5z M166.4,76.6c0,0.9,0,1.4,0,1.4c0.1,0-2.5-0.3-2.9,2v6.2h-1.3v-9.4h1.3v0.8
		C164.3,76.9,164.5,76.6,166.4,76.6z M171,81.2l3.8,4.9h-1.6l-2.9-3.8l-0.4-0.5l-0.2,0.2l-0.1,0.1v4h-1.3V72.9h1.3v6.8v0.6l0.7-0.7
		l2.9-3h1.6l-3.1,3.3l-0.8,0.9L171,81.2z M185,83.2c-0.9,2-2.7,3.1-4.5,3.1c-2.7,0-4.8-2.2-4.8-4.9c0-2.6,2.2-4.8,4.8-4.8
		c2.6,0,4.8,2.2,4.8,4.8c0,0.2,0,0.4,0,0.5h-1.7h-0.9h-5.6c0,1.5,1.7,3.1,3.5,3.1c1.4,0,2.5-1,3-1.9C183.8,83.2,184.5,83.2,185,83.2
		z M177,80.8h0.3h6h0.6c0-0.1-0.1-0.4-0.1-0.6c-0.6-1.5-1.7-2.4-3.3-2.4c-1.5,0-2.9,1.1-3.4,2.5C177,80.5,177,80.7,177,80.8z
		 M193,78h-2.7v8.1h-1.4V78h-2.6v-1.3h2.6v-3.8h1.4v3.8h2.7V78z M196.1,74.3h-1.4V73h1.4V74.3z M196.1,76.7v9.4h-1.4v-9.4H196.1z
		 M199.7,86.1h-1.4v-9.4h1.4v0.7v0.5c0.1-0.1,0.3-0.4,0.4-0.5c0.7-0.6,1.8-0.8,2.8-0.8c3.3,0,4.6,1.8,4.6,4.4v5.1h-1.4V85v-4.4
		c0-1.7-1.3-2.7-3.2-2.7c-1.7,0-3.2,0.9-3.3,2.6v5.6L199.7,86.1L199.7,86.1z M217.4,84.9c-0.9,0.8-2.4,1.3-3.7,1.3
		c-2.7,0-4.8-2.2-4.8-4.8c0-2.7,2.2-4.9,4.8-4.9c1.6,0,2.9,0.7,3.4,1.1c0.1,0.1,0.2,0.2,0.3,0.3v-0.4v-1h1.3V86c0,2.8-2.3,5-4.8,5
		c-2.3,0-3.8-1.1-4.6-3.2l1.5-0.4c0.4,1.2,1.4,2.1,3,2.1c2.1,0,3.6-1.8,3.6-3.7L217.4,84.9L217.4,84.9z M217.5,81.5
		c0-2-1.8-3.6-3.8-3.6c-2.1,0-3.6,1.6-3.6,3.6s1.5,3.5,3.6,3.5C215.8,84.9,217.5,83.5,217.5,81.5z"/>
</g>
</svg>
