<?xml version="1.0" encoding="utf-8"?>
<!-- Generator: Adobe Illustrator 20.1.0, SVG Export Plug-In . SVG Version: 6.00 Build 0)  -->
<svg version="1.1" id="Layer_1" xmlns="http://www.w3.org/2000/svg" xmlns:xlink="http://www.w3.org/1999/xlink" x="0px" y="0px"
	 viewBox="0 0 453.5 283.5" style="enable-background:new 0 0 453.5 283.5;" xml:space="preserve">
<style type="text/css">
	.st0{fill:url(#SVGID_1_);}
	.st1{fill:none;}
	.st2{fill:url(#SVGID_2_);}
	.st3{fill:url(#SVGID_3_);}
	.st4{fill:url(#SVGID_4_);}
	.st5{fill:url(#SVGID_5_);}
	.st6{fill:url(#SVGID_6_);}
	.st7{fill:url(#SVGID_7_);}
</style>
<g>
	<path d="M106.9,112.8h1.5l18.5,44.7l18.4-44.7h1.6L127.6,159h-1.5L106.9,112.8z"/>
	<path d="M208.5,126.2c-2.8,0-5.1,0.6-6.9,1.7c-1.8,1.1-2.7,2.8-2.7,5c0,1.5,0.4,2.8,1.3,3.8c0.9,1,1.9,1.7,3.2,2.2
		c1.3,0.5,3,1.1,5.3,1.9c2.4,0.7,4.3,1.4,5.7,2c1.4,0.6,2.6,1.6,3.6,2.7c1,1.2,1.5,2.7,1.5,4.6c0,2.9-1.1,5.1-3.3,6.6
		c-2.2,1.5-4.9,2.2-8.2,2.2c-2.4,0-4.6-0.4-6.8-1.3c-2.1-0.8-4-2-5.5-3.5l0.9-1c1.5,1.4,3.2,2.5,5.1,3.3c1.9,0.8,4,1.2,6.3,1.2
		c2.9,0,5.3-0.6,7.3-1.9c1.9-1.3,2.9-3.1,2.9-5.6c0-1.5-0.4-2.8-1.3-3.8c-0.9-1-2-1.8-3.3-2.3c-1.3-0.6-3.1-1.2-5.3-1.9
		c-2.3-0.7-4.2-1.4-5.7-2.1c-1.4-0.6-2.6-1.5-3.6-2.7c-1-1.1-1.5-2.6-1.5-4.4c0-2.7,1-4.7,3.1-6.1s4.6-2.1,7.8-2.1
		c3.3,0,6.3,0.8,9.1,2.4l-0.7,1.1C214.6,126.9,211.8,126.2,208.5,126.2z"/>
	<path d="M259.7,127.1c2.5,1.5,4.5,3.5,5.9,6.1c1.4,2.6,2.1,5.5,2.1,8.8c0,3.3-0.7,6.2-2.1,8.8c-1.4,2.6-3.4,4.6-5.9,6.1
		c-2.5,1.5-5.4,2.2-8.5,2.2c-3.5,0-6.6-0.9-9.4-2.7c-2.7-1.8-4.7-4.3-5.9-7.3v22.9h-1.3v-47h1.3v10c1.2-3.1,3.2-5.5,5.9-7.3
		c2.7-1.8,5.8-2.7,9.4-2.7C254.3,124.9,257.2,125.6,259.7,127.1z M259,155.7c2.3-1.3,4.1-3.2,5.5-5.6s2-5.1,2-8.1c0-3-0.7-5.7-2-8.1
		c-1.3-2.4-3.1-4.3-5.5-5.7c-2.3-1.4-4.9-2-7.8-2c-2.9,0-5.5,0.7-7.8,2c-2.3,1.4-4.1,3.3-5.5,5.7c-1.3,2.4-2,5.1-2,8.1
		c0,3,0.7,5.7,2,8.1s3.1,4.3,5.5,5.6s4.9,2,7.8,2C254.1,157.7,256.7,157,259,155.7z"/>
	<path d="M333.5,127.4c2.2-1.6,5-2.5,8.2-2.5v1.3c-3.9,0.1-7,1.4-9.2,3.9c-2.3,2.5-3.6,5.9-3.9,10.3V159h-1.3v-34.2h1.3v9.3
		C329.7,131.3,331.3,129,333.5,127.4z"/>
</g>
<g>
	
		<linearGradient id="SVGID_1_" gradientUnits="userSpaceOnUse" x1="-556.1794" y1="1010.3321" x2="-533.1161" y2="1010.3321" gradientTransform="matrix(0.7071 0.7071 -0.7071 0.7071 1267.9469 -177.2354)">
		<stop  offset="0" style="stop-color:#C1529F"/>
		<stop  offset="5.139399e-02" style="stop-color:#BE64A5"/>
		<stop  offset="0.179" style="stop-color:#B985B5"/>
		<stop  offset="0.31" style="stop-color:#B39FC3"/>
		<stop  offset="0.4422" style="stop-color:#ACB4CF"/>
		<stop  offset="0.576" style="stop-color:#A7C4D8"/>
		<stop  offset="0.712" style="stop-color:#A3CFDF"/>
		<stop  offset="0.8515" style="stop-color:#A0D6E3"/>
		<stop  offset="1" style="stop-color:#9FDAE5"/>
	</linearGradient>
	<path class="st0" d="M181.1,155.7c-6.2,4.6-14.7,4.6-20.9,0c-0.7-0.5-1.3-1-1.9-1.6c-0.6-0.6-1.1-1.2-1.6-1.9
		c0.9-2.1,2-4.1,3.2-6.1c0.4-0.6,0.7-1.1,1.1-1.7c0.6-0.9,1.3-1.8,1.9-2.6c1.1-1.3,2.2-2.6,3.4-3.9c-2,2.2-2,5.6,0,7.8
		c0.1,0.1,0.1,0.1,0.2,0.2s0.1,0.1,0.2,0.2c1.2,1.2,2.5,2.4,3.9,3.4c1.4,1.1,2.8,2.1,4.3,3C176.9,153.8,179,154.8,181.1,155.7z"/>
	<path class="st1" d="M183,154.1c-0.6,0.6-1.2,1.1-1.9,1.6c-2.1-0.9-4.1-2-6.1-3.2c-1.5-0.9-2.9-1.9-4.3-3c-1.4-1.1-2.7-2.2-3.9-3.4
		c2.2,2,5.6,2,7.8,0c0.1-0.1,0.1-0.1,0.2-0.2c0.1-0.1,0.1-0.1,0.2-0.2c1.2-1.3,2.4-2.6,3.5-3.9c1.1-1.4,2.1-2.8,3-4.3
		c1.2-2,2.3-4,3.2-6.1c4.6,6.1,4.6,14.6,0.1,20.7C184.2,152.7,183.6,153.4,183,154.1z"/>
	
		<linearGradient id="SVGID_2_" gradientUnits="userSpaceOnUse" x1="-545.2803" y1="986.7997" x2="-562.6281" y2="1004.1474" gradientTransform="matrix(0.7071 0.7071 -0.7071 0.7071 1267.9469 -177.2354)">
		<stop  offset="0" style="stop-color:#C1529F"/>
		<stop  offset="5.139399e-02" style="stop-color:#BE64A5"/>
		<stop  offset="0.179" style="stop-color:#B985B5"/>
		<stop  offset="0.31" style="stop-color:#B39FC3"/>
		<stop  offset="0.4422" style="stop-color:#ACB4CF"/>
		<stop  offset="0.576" style="stop-color:#A7C4D8"/>
		<stop  offset="0.712" style="stop-color:#A3CFDF"/>
		<stop  offset="0.8515" style="stop-color:#A0D6E3"/>
		<stop  offset="1" style="stop-color:#9FDAE5"/>
	</linearGradient>
	<path class="st2" d="M175,145.6c2-2.2,2-5.7-0.1-7.9c0,0-0.1-0.1-0.1-0.1c-0.1-0.1-0.2-0.2-0.3-0.2c-1.2-1.2-2.5-2.3-3.9-3.4
		c-1.4-1.1-2.9-2.1-4.4-3c-2-1.2-4-2.2-6.1-3.1c6.2-4.7,14.8-4.7,21-0.1c0.7,0.5,1.3,1,1.9,1.6c0.6,0.6,1.2,1.2,1.6,1.9
		c-0.9,2.1-2,4.1-3.2,6.1c-0.9,1.5-1.9,2.9-3,4.3C177.4,143.1,176.2,144.4,175,145.6z"/>
	
		<linearGradient id="SVGID_3_" gradientUnits="userSpaceOnUse" x1="-564.9808" y1="996.4595" x2="-547.7936" y2="1013.6467" gradientTransform="matrix(0.7071 0.7071 -0.7071 0.7071 1267.9469 -177.2354)">
		<stop  offset="0" style="stop-color:#C1529F"/>
		<stop  offset="5.139399e-02" style="stop-color:#BE64A5"/>
		<stop  offset="0.179" style="stop-color:#B985B5"/>
		<stop  offset="0.31" style="stop-color:#B39FC3"/>
		<stop  offset="0.4422" style="stop-color:#ACB4CF"/>
		<stop  offset="0.576" style="stop-color:#A7C4D8"/>
		<stop  offset="0.712" style="stop-color:#A3CFDF"/>
		<stop  offset="0.8515" style="stop-color:#A0D6E3"/>
		<stop  offset="1" style="stop-color:#9FDAE5"/>
	</linearGradient>
	<path class="st3" d="M159.8,146.1c-1.2,2-2.3,4-3.2,6.1c-4.6-6.2-4.6-14.7,0-20.9c0.5-0.7,1-1.3,1.6-1.9c0.6-0.6,1.2-1.1,1.8-1.5
		c2.1,0.9,4.2,1.9,6.1,3.1c1.5,0.9,3,1.9,4.4,3c1.3,1,2.6,2.2,3.9,3.4c-2.2-2-5.6-2-7.7,0c-0.1,0.1-0.1,0.1-0.2,0.2
		c-0.1,0.1-0.1,0.1-0.2,0.2c-1.2,1.2-2.4,2.5-3.4,3.9c-0.7,0.9-1.3,1.7-1.9,2.6C160.6,144.9,160.2,145.5,159.8,146.1z"/>
</g>
<g>
	
		<linearGradient id="SVGID_4_" gradientUnits="userSpaceOnUse" x1="-466.8501" y1="921.0028" x2="-443.7869" y2="921.0028" gradientTransform="matrix(0.7071 0.7071 -0.7071 0.7071 1267.9469 -177.2354)">
		<stop  offset="0" style="stop-color:#C1529F"/>
		<stop  offset="5.139399e-02" style="stop-color:#BE64A5"/>
		<stop  offset="0.179" style="stop-color:#B985B5"/>
		<stop  offset="0.31" style="stop-color:#B39FC3"/>
		<stop  offset="0.4422" style="stop-color:#ACB4CF"/>
		<stop  offset="0.576" style="stop-color:#A7C4D8"/>
		<stop  offset="0.712" style="stop-color:#A3CFDF"/>
		<stop  offset="0.8515" style="stop-color:#A0D6E3"/>
		<stop  offset="1" style="stop-color:#9FDAE5"/>
	</linearGradient>
	<path class="st4" d="M307.4,155.7c-6.2,4.6-14.7,4.6-20.9,0c-0.7-0.5-1.3-1-1.9-1.6c-0.6-0.6-1.1-1.2-1.6-1.9
		c0.9-2.1,2-4.1,3.2-6.1c0.4-0.6,0.7-1.1,1.1-1.7c0.6-0.9,1.3-1.8,1.9-2.6c1.1-1.3,2.2-2.6,3.4-3.9c-2,2.2-2,5.6,0,7.8
		c0.1,0.1,0.1,0.1,0.2,0.2s0.1,0.1,0.2,0.2c1.2,1.2,2.5,2.4,3.9,3.4c1.4,1.1,2.8,2.1,4.3,3C303.3,153.8,305.3,154.8,307.4,155.7z"/>
	<path class="st1" d="M309.3,154.1c-0.6,0.6-1.2,1.1-1.9,1.6c-2.1-0.9-4.1-2-6.1-3.2c-1.5-0.9-2.9-1.9-4.3-3
		c-1.4-1.1-2.7-2.2-3.9-3.4c2.2,2,5.6,2,7.8,0c0.1-0.1,0.1-0.1,0.2-0.2s0.1-0.1,0.2-0.2c1.2-1.3,2.4-2.6,3.5-3.9
		c1.1-1.4,2.1-2.8,3-4.3c1.2-2,2.3-4,3.2-6.1c4.6,6.1,4.6,14.6,0.1,20.7C310.5,152.7,309.9,153.4,309.3,154.1z"/>
	
		<linearGradient id="SVGID_5_" gradientUnits="userSpaceOnUse" x1="-455.951" y1="897.4704" x2="-473.2988" y2="914.8182" gradientTransform="matrix(0.7071 0.7071 -0.7071 0.7071 1267.9469 -177.2354)">
		<stop  offset="0" style="stop-color:#C1529F"/>
		<stop  offset="5.139399e-02" style="stop-color:#BE64A5"/>
		<stop  offset="0.179" style="stop-color:#B985B5"/>
		<stop  offset="0.31" style="stop-color:#B39FC3"/>
		<stop  offset="0.4422" style="stop-color:#ACB4CF"/>
		<stop  offset="0.576" style="stop-color:#A7C4D8"/>
		<stop  offset="0.712" style="stop-color:#A3CFDF"/>
		<stop  offset="0.8515" style="stop-color:#A0D6E3"/>
		<stop  offset="1" style="stop-color:#9FDAE5"/>
	</linearGradient>
	<path class="st5" d="M301.3,145.6c2-2.2,2-5.7-0.1-7.9c0,0-0.1-0.1-0.1-0.1c-0.1-0.1-0.2-0.2-0.3-0.2c-1.2-1.2-2.5-2.3-3.9-3.4
		c-1.4-1.1-2.9-2.1-4.4-3c-2-1.2-4-2.2-6.1-3.1c6.2-4.7,14.8-4.7,21-0.1c0.7,0.5,1.3,1,1.9,1.6c0.6,0.6,1.2,1.2,1.6,1.9
		c-0.9,2.1-2,4.1-3.2,6.1c-0.9,1.5-1.9,2.9-3,4.3C303.7,143.1,302.5,144.4,301.3,145.6z"/>
	
		<linearGradient id="SVGID_6_" gradientUnits="userSpaceOnUse" x1="-475.6516" y1="907.1302" x2="-458.4644" y2="924.3174" gradientTransform="matrix(0.7071 0.7071 -0.7071 0.7071 1267.9469 -177.2354)">
		<stop  offset="0" style="stop-color:#C1529F"/>
		<stop  offset="5.139399e-02" style="stop-color:#BE64A5"/>
		<stop  offset="0.179" style="stop-color:#B985B5"/>
		<stop  offset="0.31" style="stop-color:#B39FC3"/>
		<stop  offset="0.4422" style="stop-color:#ACB4CF"/>
		<stop  offset="0.576" style="stop-color:#A7C4D8"/>
		<stop  offset="0.712" style="stop-color:#A3CFDF"/>
		<stop  offset="0.8515" style="stop-color:#A0D6E3"/>
		<stop  offset="1" style="stop-color:#9FDAE5"/>
	</linearGradient>
	<path class="st6" d="M286.2,146.1c-1.2,2-2.3,4-3.2,6.1c-4.6-6.2-4.6-14.7,0-20.9c0.5-0.7,1-1.3,1.6-1.9c0.6-0.6,1.2-1.1,1.8-1.5
		c2.1,0.9,4.2,1.9,6.1,3.1c1.5,0.9,3,1.9,4.4,3c1.3,1,2.6,2.2,3.9,3.4c-2.2-2-5.6-2-7.7,0c-0.1,0.1-0.1,0.1-0.2,0.2
		c-0.1,0.1-0.1,0.1-0.2,0.2c-1.2,1.2-2.4,2.5-3.4,3.9c-0.7,0.9-1.3,1.7-1.9,2.6C286.9,144.9,286.5,145.5,286.2,146.1z"/>
</g>
<linearGradient id="SVGID_7_" gradientUnits="userSpaceOnUse" x1="234.5362" y1="194.7778" x2="432.1434" y2="194.7778">
	<stop  offset="0" style="stop-color:#9FDAE5"/>
	<stop  offset="0.1485" style="stop-color:#A0D6E3"/>
	<stop  offset="0.288" style="stop-color:#A3CFDF"/>
	<stop  offset="0.424" style="stop-color:#A7C4D8"/>
	<stop  offset="0.5578" style="stop-color:#ACB4CF"/>
	<stop  offset="0.69" style="stop-color:#B39FC3"/>
	<stop  offset="0.821" style="stop-color:#B985B5"/>
	<stop  offset="0.9486" style="stop-color:#BE64A5"/>
	<stop  offset="1" style="stop-color:#C1529F"/>
</linearGradient>
<path class="st7" d="M243.6,185.8V199h-1.4v-4.3h-6.4v4.3h-1.4v-13.2h1.4v7.7h6.4v-7.7H243.6z M254.8,196c-0.9,2-2.7,3.1-4.5,3.1
	c-2.7,0-4.8-2.2-4.8-4.9c0-2.6,2.2-4.8,4.8-4.8c2.6,0,4.8,2.2,4.8,4.8c0,0.2,0,0.4,0,0.5h-1.7h-0.9h-5.6c0,1.5,1.7,3.1,3.5,3.1
	c1.4,0,2.5-1,3-1.9C253.5,196,254.3,196,254.8,196z M246.8,193.7l0.3,0h6l0.6,0c0-0.1-0.1-0.4-0.1-0.6c-0.6-1.5-1.7-2.4-3.3-2.4
	c-1.5,0-2.9,1.1-3.4,2.5C246.8,193.3,246.8,193.6,246.8,193.7z M265.8,189.6v9.4h-1.3v-1v-0.4c-0.2,0.2-0.5,0.5-0.7,0.6
	c-0.8,0.6-1.8,0.9-3,0.9c-2.7,0-4.8-2.2-4.8-4.8c0-2.7,2.2-4.9,4.8-4.9c1.1,0,2.4,0.6,3,1.2c0.2,0.3,0.4,0.4,0.6,0.5v-0.6v-1.1
	H265.8z M264.5,194.4c0-1.9-1.8-3.7-3.7-3.7c-2,0-3.6,1.7-3.6,3.7c0,1.9,1.6,3.6,3.5,3.6C262.7,198,264.5,196.4,264.5,194.4z
	 M269.4,199H268v-13.2h1.4V199z M277.9,190.9h-2.7v8.1h-1.4v-8.1h-2.6v-1.3h2.6v-3.8h1.4v3.8h2.7V190.9z M281,199h-1.4v-13.2h1.4
	v4.4v0.6c0.1-0.2,0.3-0.3,0.5-0.4c0.7-0.6,2-0.8,2.8-0.8c2.5,0,4.4,1.5,4.4,4.2v5.3h-1.3v-1.1v-4.1c0-1.6-1-2.8-3-2.8
	c-1.7,0-3.2,1.2-3.3,2.8V199z M293.6,187.1h2v3h3v1.8h-3v3h-2v-3h-3v-1.8h3V187.1z M312.9,196c-1.2,1.9-3.3,3.2-5.7,3.2
	c-3.7,0-6.3-3.1-6.3-6.8c0-3.8,2.6-6.8,6.3-6.8c2.3,0,4.2,1.1,5.5,2.9l-1.2,0.6c-0.9-1.3-2.6-2.2-4.3-2.2c-2.9,0-4.9,3-4.9,5.5
	c0,3.2,2.5,5.5,4.9,5.5c2,0,3.4-1.1,4.2-2.4L312.9,196z M324,189.6v9.4h-1.3v-1v-0.4c-0.2,0.2-0.5,0.5-0.7,0.6
	c-0.8,0.6-1.8,0.9-3,0.9c-2.7,0-4.8-2.2-4.8-4.8c0-2.7,2.2-4.9,4.8-4.9c1.1,0,2.4,0.6,3,1.2c0.2,0.3,0.4,0.4,0.6,0.5v-0.6v-1.1H324z
	 M322.7,194.4c0-1.9-1.8-3.7-3.7-3.7c-2,0-3.6,1.7-3.6,3.7c0,1.9,1.6,3.6,3.5,3.6C320.9,198,322.7,196.4,322.7,194.4z M330.5,189.5
	c0,0.9,0,1.4,0,1.4c0.1,0-2.5-0.3-2.9,2v6.2h-1.3v-9.4h1.3v0.8C328.3,189.8,328.5,189.5,330.5,189.5z M340.9,196
	c-0.9,2-2.7,3.1-4.5,3.1c-2.7,0-4.8-2.2-4.8-4.9c0-2.6,2.2-4.8,4.8-4.8c2.6,0,4.8,2.2,4.8,4.8c0,0.2,0,0.4,0,0.5h-1.7h-0.9h-5.6
	c0,1.5,1.7,3.1,3.5,3.1c1.4,0,2.5-1,3-1.9C339.7,196,340.4,196,340.9,196z M332.9,193.7l0.3,0h6l0.6,0c0-0.1-0.1-0.4-0.1-0.6
	c-0.6-1.5-1.7-2.4-3.3-2.4c-1.5,0-2.9,1.1-3.4,2.5C332.9,193.3,332.9,193.6,332.9,193.7z M361.8,199h-1.3v-8.2l0-1.9l-1.1,1.3
	l-3.8,4.1l-3.5-3.4l-1.5-1.8l0.1,1.8l0,8.2h-1.4v-13.4l6.3,6.7l6.2-6.7V199z M373.4,189.6v9.4h-1.3v-1v-0.4
	c-0.2,0.2-0.5,0.5-0.7,0.6c-0.8,0.6-1.8,0.9-3,0.9c-2.7,0-4.8-2.2-4.8-4.8c0-2.7,2.2-4.9,4.8-4.9c1.1,0,2.4,0.6,3,1.2
	c0.2,0.3,0.4,0.4,0.6,0.5v-0.6v-1.1H373.4z M372.1,194.4c0-1.9-1.8-3.7-3.7-3.7c-2,0-3.6,1.7-3.6,3.7c0,1.9,1.6,3.6,3.5,3.6
	C370.3,198,372.1,196.4,372.1,194.4z M379.8,189.5c0,0.9,0,1.4,0,1.4c0.1,0-2.5-0.3-2.9,2v6.2h-1.3v-9.4h1.3v0.8
	C377.7,189.8,377.9,189.5,379.8,189.5z M384.4,194.1l3.8,4.9h-1.6l-2.9-3.8l-0.4-0.5l-0.2,0.2L383,195v4h-1.3v-13.2h1.3v6.8l0,0.6
	l0.7-0.7l2.9-3l1.6,0l-3.1,3.3l-0.8,0.9L384.4,194.1z M398.5,196c-0.9,2-2.7,3.1-4.5,3.1c-2.7,0-4.8-2.2-4.8-4.9
	c0-2.6,2.2-4.8,4.8-4.8c2.6,0,4.8,2.2,4.8,4.8c0,0.2,0,0.4,0,0.5H397h-0.9h-5.6c0,1.5,1.7,3.1,3.5,3.1c1.4,0,2.5-1,3-1.9
	C397.3,196,398,196,398.5,196z M390.5,193.7l0.3,0h6l0.6,0c0-0.1-0.1-0.4-0.1-0.6c-0.6-1.5-1.7-2.4-3.3-2.4c-1.5,0-2.9,1.1-3.4,2.5
	C390.5,193.3,390.5,193.6,390.5,193.7z M406.5,190.9h-2.7v8.1h-1.4v-8.1h-2.6v-1.3h2.6v-3.8h1.4v3.8h2.7V190.9z M409.5,187.1h-1.4
	v-1.3h1.4V187.1z M409.5,189.6v9.4h-1.4v-9.4H409.5z M413.1,199h-1.4v-9.4h1.4v0.7v0.5c0.1-0.1,0.3-0.4,0.4-0.5
	c0.7-0.6,1.8-0.8,2.8-0.8c3.3,0,4.6,1.8,4.6,4.4v5.1h-1.3v-1.1v-4.4c0-1.7-1.3-2.7-3.2-2.7c-1.7,0-3.2,0.9-3.3,2.6V199z
	 M430.8,197.8c-0.9,0.8-2.4,1.3-3.7,1.3c-2.7,0-4.8-2.2-4.8-4.8c0-2.7,2.2-4.9,4.8-4.9c1.6,0,2.9,0.7,3.4,1.1
	c0.1,0.1,0.2,0.2,0.3,0.3v-0.4v-1h1.3v9.5c0,2.8-2.3,5-4.8,5c-2.3,0-3.8-1.1-4.6-3.2l1.5-0.4c0.4,1.2,1.4,2.1,3,2.1
	c2.1,0,3.6-1.8,3.6-3.7V197.8z M431,194.3c0-2-1.8-3.6-3.8-3.6c-2.1,0-3.6,1.6-3.6,3.6c0,2,1.5,3.5,3.6,3.5
	C429.2,197.8,431,196.3,431,194.3z"/>
</svg>
