<?xml version="1.0" encoding="utf-8"?>
<!-- Generator: Adobe Illustrator 20.1.0, SVG Export Plug-In . SVG Version: 6.00 Build 0)  -->
<svg version="1.1" id="Layer_1" xmlns="http://www.w3.org/2000/svg" xmlns:xlink="http://www.w3.org/1999/xlink" x="0px" y="0px"
	 viewBox="0 0 800 600" style="enable-background:new 0 0 800 600;" xml:space="preserve">
<style type="text/css">
	.st0{fill:#191719;stroke:#191719;stroke-width:0.5;stroke-miterlimit:10;}
	.st1{fill:#191719;stroke:#191719;stroke-width:0.5;stroke-miterlimit:10;}
	.st2{fill:url(#SVGID_1_);}
	.st3{fill:none;}
	.st4{fill:url(#SVGID_2_);}
	.st5{fill:url(#SVGID_3_);}
	.st6{fill:url(#SVGID_4_);}
	.st7{fill:url(#SVGID_5_);}
	.st8{fill:url(#SVGID_6_);}

	#Vspr {
		stroke-dasharray: 1000;
    stroke-dashoffset: 1000;
    -webkit-animation: dash 3s linear forwards;
    -o-animation: dash 3s linear forwards;
    -moz-animation: dash 3s linear forwards;
    animation: dash 3s linear forwards, FillIn 2.1s ease-out;
	}
	@-webkit-keyframes dash {

    to {
      stroke-dashoffset: 0;
    }
  }
  @keyframes FillIn {
	  0% { fill-opacity: 0; }
	  80% { fill-opacity: 0; }
	  90% { fill-opacity: .1; }
	  100% { fill-opacity: 1; }
	}
</style>
<g id="Vspr">
	<path id="V" class="st0" d="M67,216h4.3l52.5,126.8L175.9,216h4.5l-54.7,131.1h-4.3L67,216z"/>
	<path id="s" class="st1" d="M355.2,254c-7.9,0-14.5,1.7-19.6,4.8c-5.1,3.1-7.7,7.9-7.7,14.2c0,4.3,1.1,7.9,3.7,10.8
		c2.6,2.8,5.4,4.8,9.1,6.2c3.7,1.4,8.5,3.1,15,5.4c6.8,2,12.2,4,16.2,5.7c4,1.7,7.4,4.5,10.2,7.7c2.8,3.4,4.3,7.7,4.3,13
		c0,8.2-3.1,14.5-9.4,18.7c-6.2,4.3-13.9,6.2-23.3,6.2c-6.8,0-13-1.1-19.3-3.7c-6-2.3-11.3-5.7-15.6-9.9l2.6-2.8
		c4.3,4,9.1,7.1,14.5,9.4c5.4,2.3,11.3,3.4,17.9,3.4c8.2,0,15-1.7,20.7-5.4c5.4-3.7,8.2-8.8,8.2-15.9c0-4.3-1.1-7.9-3.7-10.8
		c-2.6-2.8-5.7-5.1-9.4-6.5c-3.7-1.7-8.8-3.4-15-5.4c-6.5-2-11.9-4-16.2-6c-4-1.7-7.4-4.3-10.2-7.7c-2.8-3.1-4.3-7.4-4.3-12.5
		c0-7.7,2.8-13.3,8.8-17.3c6-4,13-6,22.1-6c9.4,0,17.9,2.3,25.8,6.8l-2,3.1C372.5,256,364.5,254,355.2,254z"/>
	<path id="p" class="st1" d="M500.4,256.6c7.1,4.3,12.8,9.9,16.7,17.3c4,7.4,6,15.6,6,25s-2,17.6-6,25c-4,7.4-9.6,13-16.7,17.3
		c-7.1,4.3-15.3,6.2-24.1,6.2c-9.9,0-18.7-2.6-26.7-7.7c-7.7-5.1-13.3-12.2-16.7-20.7v65h-3.7V250.6h3.7V279
		c3.4-8.8,9.1-15.6,16.7-20.7c7.7-5.1,16.5-7.7,26.7-7.7C485.1,250.4,493.3,252.3,500.4,256.6z M498.4,337.7
		c6.5-3.7,11.6-9.1,15.6-15.9s5.7-14.5,5.7-23c0-8.5-2-16.2-5.7-23c-3.7-6.8-8.8-12.2-15.6-16.2c-6.5-4-13.9-5.7-22.1-5.7
		c-8.2,0-15.6,2-22.1,5.7c-6.5,4-11.6,9.4-15.6,16.2c-3.7,6.8-5.7,14.5-5.7,23c0,8.5,2,16.2,5.7,23c3.7,6.8,8.8,12.2,15.6,15.9
		c6.8,3.7,13.9,5.7,22.1,5.7C484.5,343.4,491.9,341.4,498.4,337.7z"/>
	<path id="r" class="st0" d="M709.8,257.5c6.2-4.5,14.2-7.1,23.3-7.1v3.7c-11.1,0.3-19.9,4-26.1,11.1c-6.5,7.1-10.2,16.7-11.1,29.2
		v52.8h-3.7v-97h3.7v26.4C699,268.5,703.5,262,709.8,257.5z"/>
</g>
<g>

		<linearGradient id="SVGID_1_" gradientUnits="userSpaceOnUse" x1="-419.5935" y1="1545.9802" x2="-370.6508" y2="1497.0377" gradientTransform="matrix(0.7071 0.7071 -0.7071 0.7071 1600.9139 -479.0961)">
		<stop  offset="0" style="stop-color:#EF32D9"/>
		<stop  offset="4.382038e-02" style="stop-color:#E644DC"/>
		<stop  offset="0.1725" style="stop-color:#CD76E5"/>
		<stop  offset="0.3045" style="stop-color:#B8A0EC"/>
		<stop  offset="0.4378" style="stop-color:#A7C2F2"/>
		<stop  offset="0.5727" style="stop-color:#9ADDF7"/>
		<stop  offset="0.7097" style="stop-color:#90F0FA"/>
		<stop  offset="0.8503" style="stop-color:#8BFBFC"/>
		<stop  offset="1" style="stop-color:#89FFFD"/>
	</linearGradient>
	<path class="st2" d="M280.3,337.7c-17.6,13-41.7,13-59.3,0c-2-1.4-3.7-2.8-5.4-4.5c-1.7-1.7-3.1-3.4-4.5-5.4
		c2.6-6,5.7-11.6,9.1-17.3c1.1-1.7,2-3.1,3.1-4.8c1.7-2.6,3.7-5.1,5.4-7.4c3.1-3.7,6.2-7.4,9.6-11.1c-5.7,6.2-5.7,15.9,0,22.1
		c0.3,0.3,0.3,0.3,0.6,0.6c0.3,0.3,0.3,0.3,0.6,0.6c3.4,3.4,7.1,6.8,11.1,9.6c4,3.1,7.9,6,12.2,8.5
		C268.4,332.3,274.3,335.2,280.3,337.7z"/>
	<path class="st3" d="M285.7,333.2c-1.7,1.7-3.4,3.1-5.4,4.5c-6-2.6-11.6-5.7-17.3-9.1c-4.3-2.6-8.2-5.4-12.2-8.5
		c-4-3.1-7.7-6.2-11.1-9.6c6.2,5.7,15.9,5.7,22.1,0c0.3-0.3,0.3-0.3,0.6-0.6c0.3-0.3,0.3-0.3,0.6-0.6c3.4-3.7,6.8-7.4,9.9-11.1
		c3.1-4,6-7.9,8.5-12.2c3.4-5.7,6.5-11.3,9.1-17.3c13,17.3,13,41.4,0.3,58.7C289.1,329.2,287.4,331.2,285.7,333.2z"/>

		<linearGradient id="SVGID_2_" gradientUnits="userSpaceOnUse" x1="-390.7802" y1="1462.8375" x2="-439.9901" y2="1512.0468" gradientTransform="matrix(0.7071 0.7071 -0.7071 0.7071 1600.9139 -479.0961)">
		<stop  offset="0" style="stop-color:#EF32D9"/>
		<stop  offset="4.382038e-02" style="stop-color:#E644DC"/>
		<stop  offset="0.1725" style="stop-color:#CD76E5"/>
		<stop  offset="0.3045" style="stop-color:#B8A0EC"/>
		<stop  offset="0.4378" style="stop-color:#A7C2F2"/>
		<stop  offset="0.5727" style="stop-color:#9ADDF7"/>
		<stop  offset="0.7097" style="stop-color:#90F0FA"/>
		<stop  offset="0.8503" style="stop-color:#8BFBFC"/>
		<stop  offset="1" style="stop-color:#89FFFD"/>
	</linearGradient>
	<path class="st4" d="M263,309.1c5.7-6.2,5.7-16.2-0.3-22.4l-0.3-0.3c-0.3-0.3-0.6-0.6-0.9-0.6c-3.4-3.4-7.1-6.5-11.1-9.6
		c-4-3.1-8.2-6-12.5-8.5c-5.7-3.4-11.3-6.2-17.3-8.8c17.6-13.3,42-13.3,59.6-0.3c2,1.4,3.7,2.8,5.4,4.5c1.7,1.7,3.4,3.4,4.5,5.4
		c-2.6,6-5.7,11.6-9.1,17.3c-2.6,4.3-5.4,8.2-8.5,12.2C269.8,302,266.4,305.7,263,309.1z"/>

		<linearGradient id="SVGID_3_" gradientUnits="userSpaceOnUse" x1="-446.8297" y1="1490.3312" x2="-398.0877" y2="1539.0731" gradientTransform="matrix(0.7071 0.7071 -0.7071 0.7071 1600.9139 -479.0961)">
		<stop  offset="0" style="stop-color:#EF32D9"/>
		<stop  offset="4.382038e-02" style="stop-color:#E644DC"/>
		<stop  offset="0.1725" style="stop-color:#CD76E5"/>
		<stop  offset="0.3045" style="stop-color:#B8A0EC"/>
		<stop  offset="0.4378" style="stop-color:#A7C2F2"/>
		<stop  offset="0.5727" style="stop-color:#9ADDF7"/>
		<stop  offset="0.7097" style="stop-color:#90F0FA"/>
		<stop  offset="0.8503" style="stop-color:#8BFBFC"/>
		<stop  offset="1" style="stop-color:#89FFFD"/>
	</linearGradient>
	<path class="st5" d="M219.9,310.5c-3.4,5.7-6.5,11.3-9.1,17.3c-13-17.6-13-41.7,0-59.3c1.4-2,2.8-3.7,4.5-5.4
		c1.7-1.7,3.4-3.1,5.1-4.3c6,2.6,11.9,5.4,17.3,8.8c4.3,2.6,8.5,5.4,12.5,8.5c3.7,2.8,7.4,6.2,11.1,9.6c-6.2-5.7-15.9-5.7-21.8,0
		c-0.3,0.3-0.3,0.3-0.6,0.6c-0.3,0.3-0.3,0.3-0.6,0.6c-3.4,3.4-6.8,7.1-9.6,11.1c-2,2.6-3.7,4.8-5.4,7.4
		C222.1,307.1,221,308.8,219.9,310.5z"/>
</g>
<g>

		<linearGradient id="SVGID_4_" gradientUnits="userSpaceOnUse" x1="-168.2945" y1="1276.3314" x2="-102.904" y2="1276.3314" gradientTransform="matrix(0.7071 0.7071 -0.7071 0.7071 1600.9139 -479.0961)">
		<stop  offset="0" style="stop-color:#EF32D9"/>
		<stop  offset="4.382038e-02" style="stop-color:#E644DC"/>
		<stop  offset="0.1725" style="stop-color:#CD76E5"/>
		<stop  offset="0.3045" style="stop-color:#B8A0EC"/>
		<stop  offset="0.4378" style="stop-color:#A7C2F2"/>
		<stop  offset="0.5727" style="stop-color:#9ADDF7"/>
		<stop  offset="0.7097" style="stop-color:#90F0FA"/>
		<stop  offset="0.8503" style="stop-color:#8BFBFC"/>
		<stop  offset="1" style="stop-color:#89FFFD"/>
	</linearGradient>
	<path class="st6" d="M638.6,337.7c-17.6,13-41.7,13-59.3,0c-2-1.4-3.7-2.8-5.4-4.5c-1.7-1.7-3.1-3.4-4.5-5.4
		c2.6-6,5.7-11.6,9.1-17.3c1.1-1.7,2-3.1,3.1-4.8c1.7-2.6,3.7-5.1,5.4-7.4c3.1-3.7,6.2-7.4,9.6-11.1c-5.7,6.2-5.7,15.9,0,22.1
		c0.3,0.3,0.3,0.3,0.6,0.6c0.3,0.3,0.3,0.3,0.6,0.6c3.4,3.4,7.1,6.8,11.1,9.6c4,3.1,7.9,6,12.2,8.5
		C626.9,332.3,632.6,335.2,638.6,337.7z"/>
	<path class="st3" d="M644,333.2c-1.7,1.7-3.4,3.1-5.4,4.5c-6-2.6-11.6-5.7-17.3-9.1c-4.3-2.6-8.2-5.4-12.2-8.5
		c-4-3.1-7.7-6.2-11.1-9.6c6.2,5.7,15.9,5.7,22.1,0c0.3-0.3,0.3-0.3,0.6-0.6c0.3-0.3,0.3-0.3,0.6-0.6c3.4-3.7,6.8-7.4,9.9-11.1
		c3.1-4,6-7.9,8.5-12.2c3.4-5.7,6.5-11.3,9.1-17.3c13,17.3,13,41.4,0.3,58.7C647.4,329.2,645.7,331.2,644,333.2z"/>

		<linearGradient id="SVGID_5_" gradientUnits="userSpaceOnUse" x1="-137.3573" y1="1209.4141" x2="-186.5669" y2="1258.6243" gradientTransform="matrix(0.7071 0.7071 -0.7071 0.7071 1600.9139 -479.0961)">
		<stop  offset="0" style="stop-color:#EF32D9"/>
		<stop  offset="4.382038e-02" style="stop-color:#E644DC"/>
		<stop  offset="0.1725" style="stop-color:#CD76E5"/>
		<stop  offset="0.3045" style="stop-color:#B8A0EC"/>
		<stop  offset="0.4378" style="stop-color:#A7C2F2"/>
		<stop  offset="0.5727" style="stop-color:#9ADDF7"/>
		<stop  offset="0.7097" style="stop-color:#90F0FA"/>
		<stop  offset="0.8503" style="stop-color:#8BFBFC"/>
		<stop  offset="1" style="stop-color:#89FFFD"/>
	</linearGradient>
	<path class="st7" d="M621.3,309.1c5.7-6.2,5.7-16.2-0.3-22.4l-0.3-0.3c-0.3-0.3-0.6-0.6-0.9-0.6c-3.4-3.4-7.1-6.5-11.1-9.6
		c-4-3.1-8.2-6-12.5-8.5c-5.7-3.4-11.3-6.2-17.3-8.8c17.6-13.3,42-13.3,59.6-0.3c2,1.4,3.7,2.8,5.4,4.5c1.7,1.7,3.4,3.4,4.5,5.4
		c-2.6,6-5.7,11.6-9.1,17.3c-2.6,4.3-5.4,8.2-8.5,12.2C628.1,302,624.7,305.7,621.3,309.1z"/>

		<linearGradient id="SVGID_6_" gradientUnits="userSpaceOnUse" x1="-193.2911" y1="1236.7927" x2="-144.549" y2="1285.5345" gradientTransform="matrix(0.7071 0.7071 -0.7071 0.7071 1600.9139 -479.0961)">
		<stop  offset="0" style="stop-color:#EF32D9"/>
		<stop  offset="4.382038e-02" style="stop-color:#E644DC"/>
		<stop  offset="0.1725" style="stop-color:#CD76E5"/>
		<stop  offset="0.3045" style="stop-color:#B8A0EC"/>
		<stop  offset="0.4378" style="stop-color:#A7C2F2"/>
		<stop  offset="0.5727" style="stop-color:#9ADDF7"/>
		<stop  offset="0.7097" style="stop-color:#90F0FA"/>
		<stop  offset="0.8503" style="stop-color:#8BFBFC"/>
		<stop  offset="1" style="stop-color:#89FFFD"/>
	</linearGradient>
	<path class="st8" d="M578.4,310.5c-3.4,5.7-6.5,11.3-9.1,17.3c-13-17.6-13-41.7,0-59.3c1.4-2,2.8-3.7,4.5-5.4
		c1.7-1.7,3.4-3.1,5.1-4.3c6,2.6,11.9,5.4,17.3,8.8c4.3,2.6,8.5,5.4,12.5,8.5c3.7,2.8,7.4,6.2,11.1,9.6c-6.2-5.7-15.9-5.7-21.8,0
		c-0.3,0.3-0.3,0.3-0.6,0.6c-0.3,0.3-0.3,0.3-0.6,0.6c-3.4,3.4-6.8,7.1-9.6,11.1c-2,2.6-3.7,4.8-5.4,7.4
		C580.4,307.1,579.3,308.8,578.4,310.5z"/>
</g>
</svg>
