<?xml version="1.0" encoding="utf-8"?>
<!-- Generator: Adobe Illustrator 20.1.0, SVG Export Plug-In . SVG Version: 6.00 Build 0)  -->
<svg version="1.1" id="Layer_1" xmlns="http://www.w3.org/2000/svg" xmlns:xlink="http://www.w3.org/1999/xlink" x="0px" y="0px"
	 viewBox="0 0 453.5 283.5" style="enable-background:new 0 0 453.5 283.5;" xml:space="preserve">
<style type="text/css">
	.st0{fill:url(#SVGID_1_);}
	.st1{fill:none;}
	.st2{fill:url(#SVGID_2_);}
	.st3{fill:url(#SVGID_3_);}
	.st4{fill:url(#SVGID_4_);}
	.st5{fill:url(#SVGID_5_);}
	.st6{fill:url(#SVGID_6_);}
	.st7{fill:url(#SVGID_7_);}
</style>
<g>
	<g>
		
			<linearGradient id="SVGID_1_" gradientUnits="userSpaceOnUse" x1="-567.9688" y1="998.5427" x2="-544.9056" y2="998.5427" gradientTransform="matrix(0.7071 0.7071 -0.7071 0.7071 1267.9469 -177.2354)">
			<stop  offset="0" style="stop-color:#C1529F"/>
			<stop  offset="5.139399e-02" style="stop-color:#BE64A5"/>
			<stop  offset="0.179" style="stop-color:#B985B5"/>
			<stop  offset="0.31" style="stop-color:#B39FC3"/>
			<stop  offset="0.4422" style="stop-color:#ACB4CF"/>
			<stop  offset="0.576" style="stop-color:#A7C4D8"/>
			<stop  offset="0.712" style="stop-color:#A3CFDF"/>
			<stop  offset="0.8515" style="stop-color:#A0D6E3"/>
			<stop  offset="1" style="stop-color:#9FDAE5"/>
		</linearGradient>
		<path class="st0" d="M181.1,139c-6.2,4.6-14.7,4.6-20.9,0c-0.7-0.5-1.3-1-1.9-1.6c-0.6-0.6-1.1-1.2-1.6-1.9c0.9-2.1,2-4.1,3.2-6.1
			c0.4-0.6,0.7-1.1,1.1-1.7c0.6-0.9,1.3-1.8,1.9-2.6c1.1-1.3,2.2-2.6,3.4-3.9c-2,2.2-2,5.6,0,7.8c0.1,0.1,0.1,0.1,0.2,0.2
			s0.1,0.1,0.2,0.2c1.2,1.2,2.5,2.4,3.9,3.4c1.4,1.1,2.8,2.1,4.3,3C176.9,137.1,179,138.1,181.1,139z"/>
		<path class="st1" d="M183,137.4c-0.6,0.6-1.2,1.1-1.9,1.6c-2.1-0.9-4.1-2-6.1-3.2c-1.5-0.9-2.9-1.9-4.3-3
			c-1.4-1.1-2.7-2.2-3.9-3.4c2.2,2,5.6,2,7.8,0c0.1-0.1,0.1-0.1,0.2-0.2c0.1-0.1,0.1-0.1,0.2-0.2c1.2-1.3,2.4-2.6,3.5-3.9
			c1.1-1.4,2.1-2.8,3-4.3c1.2-2,2.3-4,3.2-6.1c4.6,6.1,4.6,14.6,0.1,20.7C184.2,136.1,183.6,136.8,183,137.4z"/>
		
			<linearGradient id="SVGID_2_" gradientUnits="userSpaceOnUse" x1="-557.0696" y1="975.0103" x2="-574.4174" y2="992.358" gradientTransform="matrix(0.7071 0.7071 -0.7071 0.7071 1267.9469 -177.2354)">
			<stop  offset="0" style="stop-color:#C1529F"/>
			<stop  offset="5.139399e-02" style="stop-color:#BE64A5"/>
			<stop  offset="0.179" style="stop-color:#B985B5"/>
			<stop  offset="0.31" style="stop-color:#B39FC3"/>
			<stop  offset="0.4422" style="stop-color:#ACB4CF"/>
			<stop  offset="0.576" style="stop-color:#A7C4D8"/>
			<stop  offset="0.712" style="stop-color:#A3CFDF"/>
			<stop  offset="0.8515" style="stop-color:#A0D6E3"/>
			<stop  offset="1" style="stop-color:#9FDAE5"/>
		</linearGradient>
		<path class="st2" d="M175,129c2-2.2,2-5.7-0.1-7.9c0,0-0.1-0.1-0.1-0.1c-0.1-0.1-0.2-0.2-0.3-0.2c-1.2-1.2-2.5-2.3-3.9-3.4
			c-1.4-1.1-2.9-2.1-4.4-3c-2-1.2-4-2.2-6.1-3.1c6.2-4.7,14.8-4.7,21-0.1c0.7,0.5,1.3,1,1.9,1.6c0.6,0.6,1.2,1.2,1.6,1.9
			c-0.9,2.1-2,4.1-3.2,6.1c-0.9,1.5-1.9,2.9-3,4.3C177.4,126.4,176.2,127.7,175,129z"/>
		
			<linearGradient id="SVGID_3_" gradientUnits="userSpaceOnUse" x1="-576.7702" y1="984.6701" x2="-559.583" y2="1001.8573" gradientTransform="matrix(0.7071 0.7071 -0.7071 0.7071 1267.9469 -177.2354)">
			<stop  offset="0" style="stop-color:#C1529F"/>
			<stop  offset="5.139399e-02" style="stop-color:#BE64A5"/>
			<stop  offset="0.179" style="stop-color:#B985B5"/>
			<stop  offset="0.31" style="stop-color:#B39FC3"/>
			<stop  offset="0.4422" style="stop-color:#ACB4CF"/>
			<stop  offset="0.576" style="stop-color:#A7C4D8"/>
			<stop  offset="0.712" style="stop-color:#A3CFDF"/>
			<stop  offset="0.8515" style="stop-color:#A0D6E3"/>
			<stop  offset="1" style="stop-color:#9FDAE5"/>
		</linearGradient>
		<path class="st3" d="M159.8,129.4c-1.2,2-2.3,4-3.2,6.1c-4.6-6.2-4.6-14.7,0-20.9c0.5-0.7,1-1.3,1.6-1.9c0.6-0.6,1.2-1.1,1.8-1.5
			c2.1,0.9,4.2,1.9,6.1,3.1c1.5,0.9,3,1.9,4.4,3c1.3,1,2.6,2.2,3.9,3.4c-2.2-2-5.6-2-7.7,0c-0.1,0.1-0.1,0.1-0.2,0.2
			c-0.1,0.1-0.1,0.1-0.2,0.2c-1.2,1.2-2.4,2.5-3.4,3.9c-0.7,0.9-1.3,1.7-1.9,2.6C160.6,128.3,160.2,128.8,159.8,129.4z"/>
	</g>
	<g>
		
			<linearGradient id="SVGID_4_" gradientUnits="userSpaceOnUse" x1="-478.6395" y1="909.2134" x2="-455.5763" y2="909.2134" gradientTransform="matrix(0.7071 0.7071 -0.7071 0.7071 1267.9469 -177.2354)">
			<stop  offset="0" style="stop-color:#C1529F"/>
			<stop  offset="5.139399e-02" style="stop-color:#BE64A5"/>
			<stop  offset="0.179" style="stop-color:#B985B5"/>
			<stop  offset="0.31" style="stop-color:#B39FC3"/>
			<stop  offset="0.4422" style="stop-color:#ACB4CF"/>
			<stop  offset="0.576" style="stop-color:#A7C4D8"/>
			<stop  offset="0.712" style="stop-color:#A3CFDF"/>
			<stop  offset="0.8515" style="stop-color:#A0D6E3"/>
			<stop  offset="1" style="stop-color:#9FDAE5"/>
		</linearGradient>
		<path class="st4" d="M307.4,139c-6.2,4.6-14.7,4.6-20.9,0c-0.7-0.5-1.3-1-1.9-1.6c-0.6-0.6-1.1-1.2-1.6-1.9c0.9-2.1,2-4.1,3.2-6.1
			c0.4-0.6,0.7-1.1,1.1-1.7c0.6-0.9,1.3-1.8,1.9-2.6c1.1-1.3,2.2-2.6,3.4-3.9c-2,2.2-2,5.6,0,7.8c0.1,0.1,0.1,0.1,0.2,0.2
			s0.1,0.1,0.2,0.2c1.2,1.2,2.5,2.4,3.9,3.4c1.4,1.1,2.8,2.1,4.3,3C303.3,137.1,305.3,138.1,307.4,139z"/>
		<path class="st1" d="M309.3,137.4c-0.6,0.6-1.2,1.1-1.9,1.6c-2.1-0.9-4.1-2-6.1-3.2c-1.5-0.9-2.9-1.9-4.3-3
			c-1.4-1.1-2.7-2.2-3.9-3.4c2.2,2,5.6,2,7.8,0c0.1-0.1,0.1-0.1,0.2-0.2s0.1-0.1,0.2-0.2c1.2-1.3,2.4-2.6,3.5-3.9
			c1.1-1.4,2.1-2.8,3-4.3c1.2-2,2.3-4,3.2-6.1c4.6,6.1,4.6,14.6,0.1,20.7C310.5,136.1,309.9,136.8,309.3,137.4z"/>
		
			<linearGradient id="SVGID_5_" gradientUnits="userSpaceOnUse" x1="-467.7404" y1="885.681" x2="-485.0882" y2="903.0288" gradientTransform="matrix(0.7071 0.7071 -0.7071 0.7071 1267.9469 -177.2354)">
			<stop  offset="0" style="stop-color:#C1529F"/>
			<stop  offset="5.139399e-02" style="stop-color:#BE64A5"/>
			<stop  offset="0.179" style="stop-color:#B985B5"/>
			<stop  offset="0.31" style="stop-color:#B39FC3"/>
			<stop  offset="0.4422" style="stop-color:#ACB4CF"/>
			<stop  offset="0.576" style="stop-color:#A7C4D8"/>
			<stop  offset="0.712" style="stop-color:#A3CFDF"/>
			<stop  offset="0.8515" style="stop-color:#A0D6E3"/>
			<stop  offset="1" style="stop-color:#9FDAE5"/>
		</linearGradient>
		<path class="st5" d="M301.3,129c2-2.2,2-5.7-0.1-7.9c0,0-0.1-0.1-0.1-0.1c-0.1-0.1-0.2-0.2-0.3-0.2c-1.2-1.2-2.5-2.3-3.9-3.4
			c-1.4-1.1-2.9-2.1-4.4-3c-2-1.2-4-2.2-6.1-3.1c6.2-4.7,14.8-4.7,21-0.1c0.7,0.5,1.3,1,1.9,1.6s1.2,1.2,1.6,1.9
			c-0.9,2.1-2,4.1-3.2,6.1c-0.9,1.5-1.9,2.9-3,4.3C303.7,126.4,302.5,127.7,301.3,129z"/>
		
			<linearGradient id="SVGID_6_" gradientUnits="userSpaceOnUse" x1="-487.441" y1="895.3409" x2="-470.2538" y2="912.5281" gradientTransform="matrix(0.7071 0.7071 -0.7071 0.7071 1267.9469 -177.2354)">
			<stop  offset="0" style="stop-color:#C1529F"/>
			<stop  offset="5.139399e-02" style="stop-color:#BE64A5"/>
			<stop  offset="0.179" style="stop-color:#B985B5"/>
			<stop  offset="0.31" style="stop-color:#B39FC3"/>
			<stop  offset="0.4422" style="stop-color:#ACB4CF"/>
			<stop  offset="0.576" style="stop-color:#A7C4D8"/>
			<stop  offset="0.712" style="stop-color:#A3CFDF"/>
			<stop  offset="0.8515" style="stop-color:#A0D6E3"/>
			<stop  offset="1" style="stop-color:#9FDAE5"/>
		</linearGradient>
		<path class="st6" d="M286.2,129.4c-1.2,2-2.3,4-3.2,6.1c-4.6-6.2-4.6-14.7,0-20.9c0.5-0.7,1-1.3,1.6-1.9c0.6-0.6,1.2-1.1,1.8-1.5
			c2.1,0.9,4.2,1.9,6.1,3.1c1.5,0.9,3,1.9,4.4,3c1.3,1,2.6,2.2,3.9,3.4c-2.2-2-5.6-2-7.7,0c-0.1,0.1-0.1,0.1-0.2,0.2
			c-0.1,0.1-0.1,0.1-0.2,0.2c-1.2,1.2-2.4,2.5-3.4,3.9c-0.7,0.9-1.3,1.7-1.9,2.6C286.9,128.3,286.5,128.8,286.2,129.4z"/>
	</g>
	<g>
		<path d="M106.9,96.2h1.5l18.5,44.7l18.4-44.7h1.6l-19.3,46.2h-1.5L106.9,96.2z"/>
		<path d="M208.5,109.5c-2.8,0-5.1,0.6-6.9,1.7c-1.8,1.1-2.7,2.8-2.7,5c0,1.5,0.4,2.8,1.3,3.8c0.9,1,1.9,1.7,3.2,2.2
			c1.3,0.5,3,1.1,5.3,1.9c2.4,0.7,4.3,1.4,5.7,2c1.4,0.6,2.6,1.6,3.6,2.7c1,1.2,1.5,2.7,1.5,4.6c0,2.9-1.1,5.1-3.3,6.6
			c-2.2,1.5-4.9,2.2-8.2,2.2c-2.4,0-4.6-0.4-6.8-1.3c-2.1-0.8-4-2-5.5-3.5l0.9-1c1.5,1.4,3.2,2.5,5.1,3.3c1.9,0.8,4,1.2,6.3,1.2
			c2.9,0,5.3-0.6,7.3-1.9c1.9-1.3,2.9-3.1,2.9-5.6c0-1.5-0.4-2.8-1.3-3.8c-0.9-1-2-1.8-3.3-2.3c-1.3-0.6-3.1-1.2-5.3-1.9
			c-2.3-0.7-4.2-1.4-5.7-2.1c-1.4-0.6-2.6-1.5-3.6-2.7c-1-1.1-1.5-2.6-1.5-4.4c0-2.7,1-4.7,3.1-6.1s4.6-2.1,7.8-2.1
			c3.3,0,6.3,0.8,9.1,2.4l-0.7,1.1C214.6,110.3,211.8,109.5,208.5,109.5z"/>
		<path d="M259.7,110.4c2.5,1.5,4.5,3.5,5.9,6.1c1.4,2.6,2.1,5.5,2.1,8.8c0,3.3-0.7,6.2-2.1,8.8c-1.4,2.6-3.4,4.6-5.9,6.1
			c-2.5,1.5-5.4,2.2-8.5,2.2c-3.5,0-6.6-0.9-9.4-2.7c-2.7-1.8-4.7-4.3-5.9-7.3v22.9h-1.3v-47h1.3v10c1.2-3.1,3.2-5.5,5.9-7.3
			c2.7-1.8,5.8-2.7,9.4-2.7C254.3,108.2,257.2,108.9,259.7,110.4z M259,139c2.3-1.3,4.1-3.2,5.5-5.6s2-5.1,2-8.1c0-3-0.7-5.7-2-8.1
			c-1.3-2.4-3.1-4.3-5.5-5.7c-2.3-1.4-4.9-2-7.8-2c-2.9,0-5.5,0.7-7.8,2c-2.3,1.4-4.1,3.3-5.5,5.7c-1.3,2.4-2,5.1-2,8.1
			c0,3,0.7,5.7,2,8.1s3.1,4.3,5.5,5.6s4.9,2,7.8,2C254.1,141,256.7,140.4,259,139z"/>
		<path d="M333.5,110.7c2.2-1.6,5-2.5,8.2-2.5v1.3c-3.9,0.1-7,1.4-9.2,3.9c-2.3,2.5-3.6,5.9-3.9,10.3v18.7h-1.3v-34.2h1.3v9.3
			C329.7,114.6,331.3,112.3,333.5,110.7z"/>
	</g>
	<linearGradient id="SVGID_7_" gradientUnits="userSpaceOnUse" x1="127.9664" y1="178.1051" x2="325.5736" y2="178.1051">
		<stop  offset="0" style="stop-color:#9FDAE5"/>
		<stop  offset="0.1485" style="stop-color:#A0D6E3"/>
		<stop  offset="0.288" style="stop-color:#A3CFDF"/>
		<stop  offset="0.424" style="stop-color:#A7C4D8"/>
		<stop  offset="0.5578" style="stop-color:#ACB4CF"/>
		<stop  offset="0.69" style="stop-color:#B39FC3"/>
		<stop  offset="0.821" style="stop-color:#B985B5"/>
		<stop  offset="0.9486" style="stop-color:#BE64A5"/>
		<stop  offset="1" style="stop-color:#C1529F"/>
	</linearGradient>
	<path class="st7" d="M137.1,169.1v13.2h-1.4V178h-6.4v4.3H128v-13.2h1.4v7.7h6.4v-7.7H137.1z M148.2,179.4c-0.9,2-2.7,3.1-4.5,3.1
		c-2.7,0-4.8-2.2-4.8-4.9c0-2.6,2.2-4.8,4.8-4.8c2.6,0,4.8,2.2,4.8,4.8c0,0.2,0,0.4,0,0.5h-1.7h-0.9h-5.6c0,1.5,1.7,3.1,3.5,3.1
		c1.4,0,2.5-1,3-1.9C147,179.4,147.7,179.4,148.2,179.4z M140.2,177l0.3,0h6l0.6,0c0-0.1-0.1-0.4-0.1-0.6c-0.6-1.5-1.7-2.4-3.3-2.4
		c-1.5,0-2.9,1.1-3.4,2.5C140.2,176.7,140.2,176.9,140.2,177z M159.2,172.9v9.4H158v-1V181c-0.2,0.2-0.5,0.5-0.7,0.6
		c-0.8,0.6-1.8,0.9-3,0.9c-2.7,0-4.8-2.2-4.8-4.8c0-2.7,2.2-4.9,4.8-4.9c1.1,0,2.4,0.6,3,1.2c0.2,0.3,0.4,0.4,0.6,0.5V174v-1.1
		H159.2z M158,177.7c0-1.9-1.8-3.7-3.7-3.7c-2,0-3.6,1.7-3.6,3.7c0,1.9,1.6,3.6,3.5,3.6C156.1,181.3,158,179.7,158,177.7z
		 M162.9,182.3h-1.4v-13.2h1.4V182.3z M171.3,174.2h-2.7v8.1h-1.4v-8.1h-2.6v-1.3h2.6v-3.8h1.4v3.8h2.7V174.2z M174.4,182.3h-1.4
		v-13.2h1.4v4.4v0.6c0.1-0.2,0.3-0.3,0.5-0.4c0.7-0.6,2-0.8,2.8-0.8c2.5,0,4.4,1.5,4.4,4.2v5.3h-1.3v-1.1V177c0-1.6-1-2.8-3-2.8
		c-1.7,0-3.2,1.2-3.3,2.8V182.3z M187.1,170.4h2v3h3v1.8h-3v3h-2v-3h-3v-1.8h3V170.4z M206.4,179.4c-1.2,1.9-3.3,3.2-5.7,3.2
		c-3.7,0-6.3-3.1-6.3-6.8c0-3.8,2.6-6.8,6.3-6.8c2.3,0,4.2,1.1,5.5,2.9l-1.2,0.6c-0.9-1.3-2.6-2.2-4.3-2.2c-2.9,0-4.9,3-4.9,5.5
		c0,3.2,2.5,5.5,4.9,5.5c2,0,3.4-1.1,4.2-2.4L206.4,179.4z M217.4,172.9v9.4h-1.3v-1V181c-0.2,0.2-0.5,0.5-0.7,0.6
		c-0.8,0.6-1.8,0.9-3,0.9c-2.7,0-4.8-2.2-4.8-4.8c0-2.7,2.2-4.9,4.8-4.9c1.1,0,2.4,0.6,3,1.2c0.2,0.3,0.4,0.4,0.6,0.5V174v-1.1
		H217.4z M216.1,177.7c0-1.9-1.8-3.7-3.7-3.7c-2,0-3.6,1.7-3.6,3.7c0,1.9,1.6,3.6,3.5,3.6C214.3,181.3,216.1,179.7,216.1,177.7z
		 M223.9,172.8c0,0.9,0,1.4,0,1.4c0.1,0-2.5-0.3-2.9,2v6.2h-1.3v-9.4h1.3v0.8C221.8,173.1,222,172.8,223.9,172.8z M234.3,179.4
		c-0.9,2-2.7,3.1-4.5,3.1c-2.7,0-4.8-2.2-4.8-4.9c0-2.6,2.2-4.8,4.8-4.8c2.6,0,4.8,2.2,4.8,4.8c0,0.2,0,0.4,0,0.5h-1.7h-0.9h-5.6
		c0,1.5,1.7,3.1,3.5,3.1c1.4,0,2.5-1,3-1.9C233.1,179.4,233.8,179.4,234.3,179.4z M226.3,177l0.3,0h6l0.6,0c0-0.1-0.1-0.4-0.1-0.6
		c-0.6-1.5-1.7-2.4-3.3-2.4c-1.5,0-2.9,1.1-3.4,2.5C226.3,176.7,226.3,176.9,226.3,177z M255.2,182.3h-1.3v-8.2l0-1.9l-1.1,1.3
		l-3.8,4.1l-3.5-3.4l-1.5-1.8l0.1,1.8l0,8.2h-1.4v-13.4l6.3,6.7l6.2-6.7V182.3z M266.8,172.9v9.4h-1.3v-1V181
		c-0.2,0.2-0.5,0.5-0.7,0.6c-0.8,0.6-1.8,0.9-3,0.9c-2.7,0-4.8-2.2-4.8-4.8c0-2.7,2.2-4.9,4.8-4.9c1.1,0,2.4,0.6,3,1.2
		c0.2,0.3,0.4,0.4,0.6,0.5V174v-1.1H266.8z M265.5,177.7c0-1.9-1.8-3.7-3.7-3.7c-2,0-3.6,1.7-3.6,3.7c0,1.9,1.6,3.6,3.5,3.6
		C263.7,181.3,265.5,179.7,265.5,177.7z M273.3,172.8c0,0.9,0,1.4,0,1.4c0.1,0-2.5-0.3-2.9,2v6.2h-1.3v-9.4h1.3v0.8
		C271.2,173.1,271.4,172.8,273.3,172.8z M277.9,177.4l3.8,4.9h-1.6l-2.9-3.8l-0.4-0.5l-0.2,0.2l-0.1,0.1v4h-1.3v-13.2h1.3v6.8l0,0.6
		l0.7-0.7l2.9-3l1.6,0l-3.1,3.3l-0.8,0.9L277.9,177.4z M291.9,179.4c-0.9,2-2.7,3.1-4.5,3.1c-2.7,0-4.8-2.2-4.8-4.9
		c0-2.6,2.2-4.8,4.8-4.8c2.6,0,4.8,2.2,4.8,4.8c0,0.2,0,0.4,0,0.5h-1.7h-0.9h-5.6c0,1.5,1.7,3.1,3.5,3.1c1.4,0,2.5-1,3-1.9
		C290.7,179.4,291.4,179.4,291.9,179.4z M283.9,177l0.3,0h6l0.6,0c0-0.1-0.1-0.4-0.1-0.6c-0.6-1.5-1.7-2.4-3.3-2.4
		c-1.5,0-2.9,1.1-3.4,2.5C283.9,176.7,283.9,176.9,283.9,177z M299.9,174.2h-2.7v8.1h-1.4v-8.1h-2.6v-1.3h2.6v-3.8h1.4v3.8h2.7
		V174.2z M303,170.5h-1.4v-1.3h1.4V170.5z M303,172.9v9.4h-1.4v-9.4H303z M306.6,182.3h-1.4v-9.4h1.4v0.7v0.5
		c0.1-0.1,0.3-0.4,0.4-0.5c0.7-0.6,1.8-0.8,2.8-0.8c3.3,0,4.6,1.8,4.6,4.4v5.1H313v-1.1v-4.4c0-1.7-1.3-2.7-3.2-2.7
		c-1.7,0-3.2,0.9-3.3,2.6V182.3z M324.3,181.1c-0.9,0.8-2.4,1.3-3.7,1.3c-2.7,0-4.8-2.2-4.8-4.8c0-2.7,2.2-4.9,4.8-4.9
		c1.6,0,2.9,0.7,3.4,1.1c0.1,0.1,0.2,0.2,0.3,0.3v-0.4v-1h1.3v9.5c0,2.8-2.3,5-4.8,5c-2.3,0-3.8-1.1-4.6-3.2l1.5-0.4
		c0.4,1.2,1.4,2.1,3,2.1c2.1,0,3.6-1.8,3.6-3.7V181.1z M324.4,177.7c0-2-1.8-3.6-3.8-3.6c-2.1,0-3.6,1.6-3.6,3.6
		c0,2,1.5,3.5,3.6,3.5C322.7,181.1,324.4,179.7,324.4,177.7z"/>
</g>
</svg>
