<?xml version="1.0" encoding="utf-8"?>
<!-- Generator: Adobe Illustrator 20.1.0, SVG Export Plug-In . SVG Version: 6.00 Build 0)  -->
<svg version="1.1" id="Layer_1" xmlns="http://www.w3.org/2000/svg" xmlns:xlink="http://www.w3.org/1999/xlink" x="0px" y="0px"
	 viewBox="0 0 453.5 91.1" style="enable-background:new 0 0 453.5 91.1;" xml:space="preserve">
<style type="text/css">
	.st0{fill:#38363D;stroke:#38363D;stroke-width:0.5;stroke-miterlimit:10;}
	.st1{fill:url(#SVGID_1_);}
	.st2{fill:none;}
	.st3{fill:url(#SVGID_2_);}
	.st4{fill:url(#SVGID_3_);}
	.st5{fill:url(#SVGID_4_);}
	.st6{fill:url(#SVGID_5_);}
	.st7{fill:url(#SVGID_6_);}
	.st8{fill:url(#SVGID_7_);}

	#Vspr {
		stroke-dasharray: 500;
    stroke-dashoffset: 500;
    -webkit-animation: dash 2.4s linear forwards;
    -o-animation: dash 2.4s linear forwards;
    -moz-animation: dash 2.4s linear forwards;
    animation: dash 2.4s linear forwards, FillIn 2.1s ease-in;
	}
	#loveKnot,
	#loveKnot2,
	#tagLine {
		animation: FillIn 2.1s ease-out;
	}
	@-webkit-keyframes dash {

    to {
      stroke-dashoffset: 0;
    }
  }
  @keyframes FillIn {
	  0% { fill-opacity: 0; }
	  80% { fill-opacity: 0; }
	  90% { fill-opacity: .1; }
	  100% { fill-opacity: 1; }
	}
</style>
<g id="Vspr">
	<path id="V" class="st0" d="M106.9,0h1.5l18.5,44.7L145.3,0h1.6l-19.3,46.2h-1.5L106.9,0z"/>
	<path id="s" class="st0" d="M208.5,13.4c-2.8,0-5.1,0.6-6.9,1.7c-1.8,1.1-2.7,2.8-2.7,5c0,1.5,0.4,2.8,1.3,3.8
		c0.9,1,1.9,1.7,3.2,2.2s3,1.1,5.3,1.9c2.4,0.7,4.3,1.4,5.7,2s2.6,1.6,3.6,2.7c1,1.2,1.5,2.7,1.5,4.6c0,2.9-1.1,5.1-3.3,6.6
		s-4.9,2.2-8.2,2.2c-2.4,0-4.6-0.4-6.8-1.3c-2.1-0.8-4-2-5.5-3.5l0.9-1c1.5,1.4,3.2,2.5,5.1,3.3c1.9,0.8,4,1.2,6.3,1.2
		c2.9,0,5.3-0.6,7.3-1.9c1.9-1.3,2.9-3.1,2.9-5.6c0-1.5-0.4-2.8-1.3-3.8c-0.9-1-2-1.8-3.3-2.3c-1.3-0.6-3.1-1.2-5.3-1.9
		c-2.3-0.7-4.2-1.4-5.7-2.1c-1.4-0.6-2.6-1.5-3.6-2.7c-1-1.1-1.5-2.6-1.5-4.4c0-2.7,1-4.7,3.1-6.1s4.6-2.1,7.8-2.1
		c3.3,0,6.3,0.8,9.1,2.4l-0.7,1.1C214.6,14.1,211.8,13.4,208.5,13.4z"/>
	<path id="p" class="st0" d="M259.7,14.3c2.5,1.5,4.5,3.5,5.9,6.1c1.4,2.6,2.1,5.5,2.1,8.8s-0.7,6.2-2.1,8.8s-3.4,4.6-5.9,6.1
		s-5.4,2.2-8.5,2.2c-3.5,0-6.6-0.9-9.4-2.7c-2.7-1.8-4.7-4.3-5.9-7.3v22.9h-1.3v-47h1.3v10c1.2-3.1,3.2-5.5,5.9-7.3s5.8-2.7,9.4-2.7
		C254.3,12.1,257.2,12.8,259.7,14.3z M259,42.9c2.3-1.3,4.1-3.2,5.5-5.6s2-5.1,2-8.1s-0.7-5.7-2-8.1c-1.3-2.4-3.1-4.3-5.5-5.7
		c-2.3-1.4-4.9-2-7.8-2c-2.9,0-5.5,0.7-7.8,2c-2.3,1.4-4.1,3.3-5.5,5.7c-1.3,2.4-2,5.1-2,8.1s0.7,5.7,2,8.1s3.1,4.3,5.5,5.6
		s4.9,2,7.8,2S256.7,44.2,259,42.9z"/>
	<path id="r" class="st0" d="M333.5,14.6c2.2-1.6,5-2.5,8.2-2.5v1.3c-3.9,0.1-7,1.4-9.2,3.9c-2.3,2.5-3.6,5.9-3.9,10.3v18.6h-1.3V12
		h1.3v9.3C329.7,18.5,331.3,16.2,333.5,14.6z"/>
</g>
<g id="loveKnot">

		<linearGradient id="SVGID_1_" gradientUnits="userSpaceOnUse" x1="-455.0089" y1="-954.9157" x2="-437.7553" y2="-937.6622" gradientTransform="matrix(0.7071 0.7071 0.7071 -0.7071 1154.6573 -317.7404)">
		<stop  offset="0" style="stop-color:#EF32D9"/>
		<stop  offset="4.382038e-02" style="stop-color:#E644DC"/>
		<stop  offset="0.1725" style="stop-color:#CD76E5"/>
		<stop  offset="0.3045" style="stop-color:#B8A0EC"/>
		<stop  offset="0.4378" style="stop-color:#A7C2F2"/>
		<stop  offset="0.5727" style="stop-color:#9ADDF7"/>
		<stop  offset="0.7097" style="stop-color:#90F0FA"/>
		<stop  offset="0.8503" style="stop-color:#8BFBFC"/>
		<stop  offset="1" style="stop-color:#89FFFD"/>
	</linearGradient>
	<path class="st1" d="M182.1,42.9c-6.2,4.6-14.7,4.6-20.9,0c-0.7-0.5-1.3-1-1.9-1.6c-0.6-0.6-1.1-1.2-1.6-1.9c0.9-2.1,2-4.1,3.2-6.1
		c0.4-0.6,0.7-1.1,1.1-1.7c0.6-0.9,1.3-1.8,1.9-2.6c1.1-1.3,2.2-2.6,3.4-3.9c-2,2.2-2,5.6,0,7.8c0.1,0.1,0.1,0.1,0.2,0.2
		s0.1,0.1,0.2,0.2c1.2,1.2,2.5,2.4,3.9,3.4c1.4,1.1,2.8,2.1,4.3,3C177.9,41,180,42,182.1,42.9z"/>
	<path class="st2" d="M184,41.3c-0.6,0.6-1.2,1.1-1.9,1.6c-2.1-0.9-4.1-2-6.1-3.2c-1.5-0.9-2.9-1.9-4.3-3c-1.4-1.1-2.7-2.2-3.9-3.4
		c2.2,2,5.6,2,7.8,0c0.1-0.1,0.1-0.1,0.2-0.2c0.1-0.1,0.1-0.1,0.2-0.2c1.2-1.3,2.4-2.6,3.5-3.9c1.1-1.4,2.1-2.8,3-4.3
		c1.2-2,2.3-4,3.2-6.1c4.6,6.1,4.6,14.6,0.1,20.7C185.2,39.9,184.6,40.6,184,41.3z"/>

		<linearGradient id="SVGID_2_" gradientUnits="userSpaceOnUse" x1="-444.8704" y1="-925.5969" x2="-462.2182" y2="-942.9444" gradientTransform="matrix(0.7071 0.7071 0.7071 -0.7071 1154.6573 -317.7404)">
		<stop  offset="0" style="stop-color:#EF32D9"/>
		<stop  offset="4.382038e-02" style="stop-color:#E644DC"/>
		<stop  offset="0.1725" style="stop-color:#CD76E5"/>
		<stop  offset="0.3045" style="stop-color:#B8A0EC"/>
		<stop  offset="0.4378" style="stop-color:#A7C2F2"/>
		<stop  offset="0.5727" style="stop-color:#9ADDF7"/>
		<stop  offset="0.7097" style="stop-color:#90F0FA"/>
		<stop  offset="0.8503" style="stop-color:#8BFBFC"/>
		<stop  offset="1" style="stop-color:#89FFFD"/>
	</linearGradient>
	<path class="st3" d="M176,32.8c2-2.2,2-5.7-0.1-7.9l-0.1-0.1c-0.1-0.1-0.2-0.2-0.3-0.2c-1.2-1.2-2.5-2.3-3.9-3.4
		c-1.4-1.1-2.9-2.1-4.4-3c-2-1.2-4-2.2-6.1-3.1c6.2-4.7,14.8-4.7,21-0.1c0.7,0.5,1.3,1,1.9,1.6c0.6,0.6,1.2,1.2,1.6,1.9
		c-0.9,2.1-2,4.1-3.2,6.1c-0.9,1.5-1.9,2.9-3,4.3C178.4,30.3,177.2,31.6,176,32.8z"/>

		<linearGradient id="SVGID_3_" gradientUnits="userSpaceOnUse" x1="-464.6293" y1="-935.2891" x2="-447.4465" y2="-952.4719" gradientTransform="matrix(0.7071 0.7071 0.7071 -0.7071 1154.6573 -317.7404)">
		<stop  offset="0" style="stop-color:#EF32D9"/>
		<stop  offset="4.382038e-02" style="stop-color:#E644DC"/>
		<stop  offset="0.1725" style="stop-color:#CD76E5"/>
		<stop  offset="0.3045" style="stop-color:#B8A0EC"/>
		<stop  offset="0.4378" style="stop-color:#A7C2F2"/>
		<stop  offset="0.5727" style="stop-color:#9ADDF7"/>
		<stop  offset="0.7097" style="stop-color:#90F0FA"/>
		<stop  offset="0.8503" style="stop-color:#8BFBFC"/>
		<stop  offset="1" style="stop-color:#89FFFD"/>
	</linearGradient>
	<path class="st4" d="M160.8,33.3c-1.2,2-2.3,4-3.2,6.1c-4.6-6.2-4.6-14.7,0-20.9c0.5-0.7,1-1.3,1.6-1.9c0.6-0.6,1.2-1.1,1.8-1.5
		c2.1,0.9,4.2,1.9,6.1,3.1c1.5,0.9,3,1.9,4.4,3c1.3,1,2.6,2.2,3.9,3.4c-2.2-2-5.6-2-7.7,0c-0.1,0.1-0.1,0.1-0.2,0.2
		c-0.1,0.1-0.1,0.1-0.2,0.2c-1.2,1.2-2.4,2.5-3.4,3.9c-0.7,0.9-1.3,1.7-1.9,2.6C161.6,32.1,161.2,32.7,160.8,33.3z"/>
</g>
<g id="loveKnot2">

		<linearGradient id="SVGID_4_" gradientUnits="userSpaceOnUse" x1="-366.4382" y1="-859.8484" x2="-343.3863" y2="-859.8484" gradientTransform="matrix(0.7071 0.7071 0.7071 -0.7071 1154.6573 -317.7404)">
		<stop  offset="0" style="stop-color:#EF32D9"/>
		<stop  offset="4.382038e-02" style="stop-color:#E644DC"/>
		<stop  offset="0.1725" style="stop-color:#CD76E5"/>
		<stop  offset="0.3045" style="stop-color:#B8A0EC"/>
		<stop  offset="0.4378" style="stop-color:#A7C2F2"/>
		<stop  offset="0.5727" style="stop-color:#9ADDF7"/>
		<stop  offset="0.7097" style="stop-color:#90F0FA"/>
		<stop  offset="0.8503" style="stop-color:#8BFBFC"/>
		<stop  offset="1" style="stop-color:#89FFFD"/>
	</linearGradient>
	<path class="st5" d="M308.4,42.9c-6.2,4.6-14.7,4.6-20.9,0c-0.7-0.5-1.3-1-1.9-1.6s-1.1-1.2-1.6-1.9c0.9-2.1,2-4.1,3.2-6.1
		c0.4-0.6,0.7-1.1,1.1-1.7c0.6-0.9,1.3-1.8,1.9-2.6c1.1-1.3,2.2-2.6,3.4-3.9c-2,2.2-2,5.6,0,7.8c0.1,0.1,0.1,0.1,0.2,0.2
		s0.1,0.1,0.2,0.2c1.2,1.2,2.5,2.4,3.9,3.4c1.4,1.1,2.8,2.1,4.3,3C304.3,41,306.3,42,308.4,42.9z"/>
	<path class="st2" d="M310.3,41.3c-0.6,0.6-1.2,1.1-1.9,1.6c-2.1-0.9-4.1-2-6.1-3.2c-1.5-0.9-2.9-1.9-4.3-3s-2.7-2.2-3.9-3.4
		c2.2,2,5.6,2,7.8,0c0.1-0.1,0.1-0.1,0.2-0.2s0.1-0.1,0.2-0.2c1.2-1.3,2.4-2.6,3.5-3.9c1.1-1.4,2.1-2.8,3-4.3c1.2-2,2.3-4,3.2-6.1
		c4.6,6.1,4.6,14.6,0.1,20.7C311.5,39.9,310.9,40.6,310.3,41.3z"/>

		<linearGradient id="SVGID_5_" gradientUnits="userSpaceOnUse" x1="-355.532" y1="-836.2582" x2="-372.8797" y2="-853.6061" gradientTransform="matrix(0.7071 0.7071 0.7071 -0.7071 1154.6573 -317.7404)">
		<stop  offset="0" style="stop-color:#EF32D9"/>
		<stop  offset="4.382038e-02" style="stop-color:#E644DC"/>
		<stop  offset="0.1725" style="stop-color:#CD76E5"/>
		<stop  offset="0.3045" style="stop-color:#B8A0EC"/>
		<stop  offset="0.4378" style="stop-color:#A7C2F2"/>
		<stop  offset="0.5727" style="stop-color:#9ADDF7"/>
		<stop  offset="0.7097" style="stop-color:#90F0FA"/>
		<stop  offset="0.8503" style="stop-color:#8BFBFC"/>
		<stop  offset="1" style="stop-color:#89FFFD"/>
	</linearGradient>
	<path class="st6" d="M302.3,32.8c2-2.2,2-5.7-0.1-7.9l-0.1-0.1c-0.1-0.1-0.2-0.2-0.3-0.2c-1.2-1.2-2.5-2.3-3.9-3.4
		c-1.4-1.1-2.9-2.1-4.4-3c-2-1.2-4-2.2-6.1-3.1c6.2-4.7,14.8-4.7,21-0.1c0.7,0.5,1.3,1,1.9,1.6s1.2,1.2,1.6,1.9
		c-0.9,2.1-2,4.1-3.2,6.1c-0.9,1.5-1.9,2.9-3,4.3C304.7,30.3,303.5,31.6,302.3,32.8z"/>

		<linearGradient id="SVGID_6_" gradientUnits="userSpaceOnUse" x1="-375.2502" y1="-845.91" x2="-358.0673" y2="-863.0928" gradientTransform="matrix(0.7071 0.7071 0.7071 -0.7071 1154.6573 -317.7404)">
		<stop  offset="0" style="stop-color:#EF32D9"/>
		<stop  offset="4.382038e-02" style="stop-color:#E644DC"/>
		<stop  offset="0.1725" style="stop-color:#CD76E5"/>
		<stop  offset="0.3045" style="stop-color:#B8A0EC"/>
		<stop  offset="0.4378" style="stop-color:#A7C2F2"/>
		<stop  offset="0.5727" style="stop-color:#9ADDF7"/>
		<stop  offset="0.7097" style="stop-color:#90F0FA"/>
		<stop  offset="0.8503" style="stop-color:#8BFBFC"/>
		<stop  offset="1" style="stop-color:#89FFFD"/>
	</linearGradient>
	<path class="st7" d="M287.2,33.3c-1.2,2-2.3,4-3.2,6.1c-4.6-6.2-4.6-14.7,0-20.9c0.5-0.7,1-1.3,1.6-1.9c0.6-0.6,1.2-1.1,1.8-1.5
		c2.1,0.9,4.2,1.9,6.1,3.1c1.5,0.9,3,1.9,4.4,3c1.3,1,2.6,2.2,3.9,3.4c-2.2-2-5.6-2-7.7,0c-0.1,0.1-0.1,0.1-0.2,0.2
		c-0.1,0.1-0.1,0.1-0.2,0.2c-1.2,1.2-2.4,2.5-3.4,3.9c-0.7,0.9-1.3,1.7-1.9,2.6C287.9,32.1,287.5,32.7,287.2,33.3z"/>
</g>
<g id="tagLine">

		<linearGradient id="SVGID_7_" gradientUnits="userSpaceOnUse" x1="234.4" y1="-537.55" x2="432.0999" y2="-537.55" gradientTransform="matrix(1 0 0 -1 0 -455.6)">
		<stop  offset="0" style="stop-color:#89FFFD"/>
		<stop  offset="0.1497" style="stop-color:#8BFBFC"/>
		<stop  offset="0.2903" style="stop-color:#90F0FA"/>
		<stop  offset="0.4273" style="stop-color:#9ADDF7"/>
		<stop  offset="0.5622" style="stop-color:#A7C2F2"/>
		<stop  offset="0.6955" style="stop-color:#B8A0EC"/>
		<stop  offset="0.8275" style="stop-color:#CD76E5"/>
		<stop  offset="0.9562" style="stop-color:#E644DC"/>
		<stop  offset="1" style="stop-color:#EF32D9"/>
	</linearGradient>
	<path class="st8" d="M243.6,73v13.2h-1.4v-4.3h-6.4v4.3h-1.4V73h1.4v7.7h6.4V73H243.6z M254.8,83.2c-0.9,2-2.7,3.1-4.5,3.1
		c-2.7,0-4.8-2.2-4.8-4.9c0-2.6,2.2-4.8,4.8-4.8s4.8,2.2,4.8,4.8c0,0.2,0,0.4,0,0.5h-1.7h-0.9h-5.6c0,1.5,1.7,3.1,3.5,3.1
		c1.4,0,2.5-1,3-1.9C253.5,83.2,254.3,83.2,254.8,83.2z M246.8,80.9h0.3h6h0.6c0-0.1-0.1-0.4-0.1-0.6c-0.6-1.5-1.7-2.4-3.3-2.4
		c-1.5,0-2.9,1.1-3.4,2.5C246.8,80.5,246.8,80.8,246.8,80.9z M265.8,76.8v9.4h-1.3v-1v-0.4c-0.2,0.2-0.5,0.5-0.7,0.6
		c-0.8,0.6-1.8,0.9-3,0.9c-2.7,0-4.8-2.2-4.8-4.8c0-2.7,2.2-4.9,4.8-4.9c1.1,0,2.4,0.6,3,1.2c0.2,0.3,0.4,0.4,0.6,0.5v-0.6v-1.1h1.4
		V76.8z M264.5,81.6c0-1.9-1.8-3.7-3.7-3.7c-2,0-3.6,1.7-3.6,3.7c0,1.9,1.6,3.6,3.5,3.6C262.7,85.2,264.5,83.6,264.5,81.6z
		 M269.4,86.2H268V73h1.4V86.2z M277.9,78.1h-2.7v8.1h-1.4v-8.1h-2.6v-1.3h2.6V73h1.4v3.8h2.7V78.1z M281,86.2h-1.4V73h1.4v4.4V78
		c0.1-0.2,0.3-0.3,0.5-0.4c0.7-0.6,2-0.8,2.8-0.8c2.5,0,4.4,1.5,4.4,4.2v5.3h-1.3v-1.1v-4.1c0-1.6-1-2.8-3-2.8
		c-1.7,0-3.2,1.2-3.3,2.8v5.1H281z M293.6,74.3h2v3h3v1.8h-3v3h-2v-3h-3v-1.8h3V74.3z M312.9,83.2c-1.2,1.9-3.3,3.2-5.7,3.2
		c-3.7,0-6.3-3.1-6.3-6.8c0-3.8,2.6-6.8,6.3-6.8c2.3,0,4.2,1.1,5.5,2.9l-1.2,0.6c-0.9-1.3-2.6-2.2-4.3-2.2c-2.9,0-4.9,3-4.9,5.5
		c0,3.2,2.5,5.5,4.9,5.5c2,0,3.4-1.1,4.2-2.4L312.9,83.2z M324,76.8v9.4h-1.3v-1v-0.4c-0.2,0.2-0.5,0.5-0.7,0.6
		c-0.8,0.6-1.8,0.9-3,0.9c-2.7,0-4.8-2.2-4.8-4.8c0-2.7,2.2-4.9,4.8-4.9c1.1,0,2.4,0.6,3,1.2c0.2,0.3,0.4,0.4,0.6,0.5v-0.6v-1.1h1.4
		V76.8z M322.7,81.6c0-1.9-1.8-3.7-3.7-3.7c-2,0-3.6,1.7-3.6,3.7c0,1.9,1.6,3.6,3.5,3.6C320.9,85.2,322.7,83.6,322.7,81.6z
		 M330.5,76.7c0,0.9,0,1.4,0,1.4c0.1,0-2.5-0.3-2.9,2v6.2h-1.3v-9.4h1.3v0.8C328.3,77,328.5,76.7,330.5,76.7z M340.9,83.2
		c-0.9,2-2.7,3.1-4.5,3.1c-2.7,0-4.8-2.2-4.8-4.9c0-2.6,2.2-4.8,4.8-4.8c2.6,0,4.8,2.2,4.8,4.8c0,0.2,0,0.4,0,0.5h-1.7h-0.9H333
		c0,1.5,1.7,3.1,3.5,3.1c1.4,0,2.5-1,3-1.9C339.7,83.2,340.4,83.2,340.9,83.2z M332.9,80.9h0.3h6h0.6c0-0.1-0.1-0.4-0.1-0.6
		c-0.6-1.5-1.7-2.4-3.3-2.4c-1.5,0-2.9,1.1-3.4,2.5C332.9,80.5,332.9,80.8,332.9,80.9z M361.8,86.2h-1.3V78v-1.9l-1.1,1.3l-3.8,4.1
		l-3.5-3.4l-1.5-1.8l0.1,1.8v8.2h-1.4V72.9l6.3,6.7l6.2-6.7L361.8,86.2L361.8,86.2z M373.4,76.8v9.4h-1.3v-1v-0.4
		c-0.2,0.2-0.5,0.5-0.7,0.6c-0.8,0.6-1.8,0.9-3,0.9c-2.7,0-4.8-2.2-4.8-4.8c0-2.7,2.2-4.9,4.8-4.9c1.1,0,2.4,0.6,3,1.2
		c0.2,0.3,0.4,0.4,0.6,0.5v-0.6v-1.1h1.4V76.8z M372.1,81.6c0-1.9-1.8-3.7-3.7-3.7c-2,0-3.6,1.7-3.6,3.7c0,1.9,1.6,3.6,3.5,3.6
		C370.3,85.2,372.1,83.6,372.1,81.6z M379.8,76.7c0,0.9,0,1.4,0,1.4c0.1,0-2.5-0.3-2.9,2v6.2h-1.3v-9.4h1.3v0.8
		C377.7,77,377.9,76.7,379.8,76.7z M384.4,81.3l3.8,4.9h-1.6l-2.9-3.8l-0.4-0.5l-0.2,0.2l-0.1,0.1v4h-1.3V73h1.3v6.8v0.6l0.7-0.7
		l2.9-3h1.6l-3.1,3.3l-0.8,0.9L384.4,81.3z M398.5,83.2c-0.9,2-2.7,3.1-4.5,3.1c-2.7,0-4.8-2.2-4.8-4.9c0-2.6,2.2-4.8,4.8-4.8
		c2.6,0,4.8,2.2,4.8,4.8c0,0.2,0,0.4,0,0.5H397h-0.9h-5.6c0,1.5,1.7,3.1,3.5,3.1c1.4,0,2.5-1,3-1.9C397.3,83.2,398,83.2,398.5,83.2z
		 M390.5,80.9h0.3h6h0.6c0-0.1-0.1-0.4-0.1-0.6c-0.6-1.5-1.7-2.4-3.3-2.4c-1.5,0-2.9,1.1-3.4,2.5C390.5,80.5,390.5,80.8,390.5,80.9z
		 M406.5,78.1h-2.7v8.1h-1.4v-8.1h-2.6v-1.3h2.6V73h1.4v3.8h2.7V78.1z M409.5,74.3h-1.4V73h1.4V74.3z M409.5,76.8v9.4h-1.4v-9.4
		H409.5z M413.1,86.2h-1.4v-9.4h1.4v0.7V78c0.1-0.1,0.3-0.4,0.4-0.5c0.7-0.6,1.8-0.8,2.8-0.8c3.3,0,4.6,1.8,4.6,4.4v5.1h-1.3v-1.1
		v-4.4c0-1.7-1.3-2.7-3.2-2.7c-1.7,0-3.2,0.9-3.3,2.6V86.2z M430.8,85c-0.9,0.8-2.4,1.3-3.7,1.3c-2.7,0-4.8-2.2-4.8-4.8
		c0-2.7,2.2-4.9,4.8-4.9c1.6,0,2.9,0.7,3.4,1.1c0.1,0.1,0.2,0.2,0.3,0.3v-0.4v-1h1.3v9.5c0,2.8-2.3,5-4.8,5c-2.3,0-3.8-1.1-4.6-3.2
		l1.5-0.4c0.4,1.2,1.4,2.1,3,2.1c2.1,0,3.6-1.8,3.6-3.7L430.8,85L430.8,85z M431,81.5c0-2-1.8-3.6-3.8-3.6c-2.1,0-3.6,1.6-3.6,3.6
		s1.5,3.5,3.6,3.5C429.2,85,431,83.5,431,81.5z"/>
</g>
</svg>
