<?xml version="1.0" encoding="utf-8"?>
<!-- Generator: Adobe Illustrator 20.1.0, SVG Export Plug-In . SVG Version: 6.00 Build 0)  -->
<svg version="1.1" id="Layer_1" xmlns="http://www.w3.org/2000/svg" xmlns:xlink="http://www.w3.org/1999/xlink" x="0px" y="0px"
	 viewBox="0 0 800 600" style="enable-background:new 0 0 800 600;" xml:space="preserve">
<g id="Vspr">
	<path id="V" d="M67,216h4.3l52.5,126.8L175.9,216h4.5l-54.7,131.1h-4.3L67,216z"/>
	<path id="s" d="M355.2,254c-7.9,0-14.5,1.7-19.6,4.8c-5.1,3.1-7.7,7.9-7.7,14.2c0,4.3,1.1,7.9,3.7,10.8c2.6,2.8,5.4,4.8,9.1,6.2
		c3.7,1.4,8.5,3.1,15,5.4c6.8,2,12.2,4,16.2,5.7s7.4,4.5,10.2,7.7c2.8,3.4,4.3,7.7,4.3,13c0,8.2-3.1,14.5-9.4,18.7
		c-6.2,4.3-13.9,6.2-23.3,6.2c-6.8,0-13-1.1-19.3-3.7c-6-2.3-11.3-5.7-15.6-9.9l2.6-2.8c4.3,4,9.1,7.1,14.5,9.4s11.3,3.4,17.9,3.4
		c8.2,0,15-1.7,20.7-5.4c5.4-3.7,8.2-8.8,8.2-15.9c0-4.3-1.1-7.9-3.7-10.8c-2.6-2.8-5.7-5.1-9.4-6.5c-3.7-1.7-8.8-3.4-15-5.4
		c-6.5-2-11.9-4-16.2-6c-4-1.7-7.4-4.3-10.2-7.7c-2.8-3.1-4.3-7.4-4.3-12.5c0-7.7,2.8-13.3,8.8-17.3c6-4,13-6,22.1-6
		c9.4,0,17.9,2.3,25.8,6.8l-2,3.1C372.5,256,364.5,254,355.2,254z"/>
	<path id="p" d="M500.4,256.6c7.1,4.3,12.8,9.9,16.7,17.3c4,7.4,6,15.6,6,25s-2,17.6-6,25s-9.6,13-16.7,17.3s-15.3,6.2-24.1,6.2
		c-9.9,0-18.7-2.6-26.7-7.7c-7.7-5.1-13.3-12.2-16.7-20.7v65h-3.7V250.6h3.7V279c3.4-8.8,9.1-15.6,16.7-20.7
		c7.7-5.1,16.5-7.7,26.7-7.7C485.1,250.4,493.3,252.3,500.4,256.6z M498.4,337.7c6.5-3.7,11.6-9.1,15.6-15.9s5.7-14.5,5.7-23
		s-2-16.2-5.7-23s-8.8-12.2-15.6-16.2c-6.5-4-13.9-5.7-22.1-5.7s-15.6,2-22.1,5.7c-6.5,4-11.6,9.4-15.6,16.2
		c-3.7,6.8-5.7,14.5-5.7,23s2,16.2,5.7,23s8.8,12.2,15.6,15.9c6.8,3.7,13.9,5.7,22.1,5.7C484.5,343.4,491.9,341.4,498.4,337.7z"/>
	<path id="r" d="M709.8,257.5c6.2-4.5,14.2-7.1,23.3-7.1v3.7c-11.1,0.3-19.9,4-26.1,11.1c-6.5,7.1-10.2,16.7-11.1,29.2v52.8h-3.7
		v-97h3.7v26.4C699,268.5,703.5,262,709.8,257.5z"/>
</g>
<g>
	<path d="M280.3,337.7c-17.6,13-41.7,13-59.3,0c-2-1.4-3.7-2.8-5.4-4.5s-3.1-3.4-4.5-5.4c2.6-6,5.7-11.6,9.1-17.3
		c1.1-1.7,2-3.1,3.1-4.8c1.7-2.6,3.7-5.1,5.4-7.4c3.1-3.7,6.2-7.4,9.6-11.1c-5.7,6.2-5.7,15.9,0,22.1c0.3,0.3,0.3,0.3,0.6,0.6
		c0.3,0.3,0.3,0.3,0.6,0.6c3.4,3.4,7.1,6.8,11.1,9.6c4,3.1,7.9,6,12.2,8.5C268.4,332.3,274.3,335.2,280.3,337.7z"/>
	<path d="M285.7,333.2c-1.7,1.7-3.4,3.1-5.4,4.5c-6-2.6-11.6-5.7-17.3-9.1c-4.3-2.6-8.2-5.4-12.2-8.5s-7.7-6.2-11.1-9.6
		c6.2,5.7,15.9,5.7,22.1,0c0.3-0.3,0.3-0.3,0.6-0.6c0.3-0.3,0.3-0.3,0.6-0.6c3.4-3.7,6.8-7.4,9.9-11.1c3.1-4,6-7.9,8.5-12.2
		c3.4-5.7,6.5-11.3,9.1-17.3c13,17.3,13,41.4,0.3,58.7C289.1,329.2,287.4,331.2,285.7,333.2z"/>
	<path d="M263,309.1c5.7-6.2,5.7-16.2-0.3-22.4l-0.3-0.3c-0.3-0.3-0.6-0.6-0.9-0.6c-3.4-3.4-7.1-6.5-11.1-9.6s-8.2-6-12.5-8.5
		c-5.7-3.4-11.3-6.2-17.3-8.8c17.6-13.3,42-13.3,59.6-0.3c2,1.4,3.7,2.8,5.4,4.5c1.7,1.7,3.4,3.4,4.5,5.4c-2.6,6-5.7,11.6-9.1,17.3
		c-2.6,4.3-5.4,8.2-8.5,12.2C269.8,302,266.4,305.7,263,309.1z"/>
	<path d="M219.9,310.5c-3.4,5.7-6.5,11.3-9.1,17.3c-13-17.6-13-41.7,0-59.3c1.4-2,2.8-3.7,4.5-5.4c1.7-1.7,3.4-3.1,5.1-4.3
		c6,2.6,11.9,5.4,17.3,8.8c4.3,2.6,8.5,5.4,12.5,8.5c3.7,2.8,7.4,6.2,11.1,9.6c-6.2-5.7-15.9-5.7-21.8,0c-0.3,0.3-0.3,0.3-0.6,0.6
		c-0.3,0.3-0.3,0.3-0.6,0.6c-3.4,3.4-6.8,7.1-9.6,11.1c-2,2.6-3.7,4.8-5.4,7.4C222.1,307.1,221,308.8,219.9,310.5z"/>
</g>
<g>
	<path d="M638.6,337.7c-17.6,13-41.7,13-59.3,0c-2-1.4-3.7-2.8-5.4-4.5s-3.1-3.4-4.5-5.4c2.6-6,5.7-11.6,9.1-17.3
		c1.1-1.7,2-3.1,3.1-4.8c1.7-2.6,3.7-5.1,5.4-7.4c3.1-3.7,6.2-7.4,9.6-11.1c-5.7,6.2-5.7,15.9,0,22.1c0.3,0.3,0.3,0.3,0.6,0.6
		c0.3,0.3,0.3,0.3,0.6,0.6c3.4,3.4,7.1,6.8,11.1,9.6c4,3.1,7.9,6,12.2,8.5C626.9,332.3,632.6,335.2,638.6,337.7z"/>
	<path d="M644,333.2c-1.7,1.7-3.4,3.1-5.4,4.5c-6-2.6-11.6-5.7-17.3-9.1c-4.3-2.6-8.2-5.4-12.2-8.5s-7.7-6.2-11.1-9.6
		c6.2,5.7,15.9,5.7,22.1,0c0.3-0.3,0.3-0.3,0.6-0.6c0.3-0.3,0.3-0.3,0.6-0.6c3.4-3.7,6.8-7.4,9.9-11.1c3.1-4,6-7.9,8.5-12.2
		c3.4-5.7,6.5-11.3,9.1-17.3c13,17.3,13,41.4,0.3,58.7C647.4,329.2,645.7,331.2,644,333.2z"/>
	<path d="M621.3,309.1c5.7-6.2,5.7-16.2-0.3-22.4l-0.3-0.3c-0.3-0.3-0.6-0.6-0.9-0.6c-3.4-3.4-7.1-6.5-11.1-9.6s-8.2-6-12.5-8.5
		c-5.7-3.4-11.3-6.2-17.3-8.8c17.6-13.3,42-13.3,59.6-0.3c2,1.4,3.7,2.8,5.4,4.5s3.4,3.4,4.5,5.4c-2.6,6-5.7,11.6-9.1,17.3
		c-2.6,4.3-5.4,8.2-8.5,12.2C628.1,302,624.7,305.7,621.3,309.1z"/>
	<path d="M578.4,310.5c-3.4,5.7-6.5,11.3-9.1,17.3c-13-17.6-13-41.7,0-59.3c1.4-2,2.8-3.7,4.5-5.4c1.7-1.7,3.4-3.1,5.1-4.3
		c6,2.6,11.9,5.4,17.3,8.8c4.3,2.6,8.5,5.4,12.5,8.5c3.7,2.8,7.4,6.2,11.1,9.6c-6.2-5.7-15.9-5.7-21.8,0c-0.3,0.3-0.3,0.3-0.6,0.6
		c-0.3,0.3-0.3,0.3-0.6,0.6c-3.4,3.4-6.8,7.1-9.6,11.1c-2,2.6-3.7,4.8-5.4,7.4C580.4,307.1,579.3,308.8,578.4,310.5z"/>
</g>
</svg>
