<?xml version="1.0" encoding="utf-8"?>
<!-- Generator: Adobe Illustrator 20.1.0, SVG Export Plug-In . SVG Version: 6.00 Build 0)  -->
<svg version="1.1" id="Layer_1" xmlns="http://www.w3.org/2000/svg" xmlns:xlink="http://www.w3.org/1999/xlink" x="0px" y="0px"
	 viewBox="0 0 453.5 91.1" style="enable-background:new 0 0 453.5 91.1;" xml:space="preserve">
<style type="text/css">
	.st0{fill:#FFFFFF;}
	.st1{fill:none;}
	.st2{fill-rule:evenodd;clip-rule:evenodd;fill:#FF66CC;}
	.st3{fill:none;stroke:#38363D;stroke-width:0.75;stroke-miterlimit:10;}
	.st4{fill:url(#SVGID_1_);}
	.st5{fill:url(#SVGID_2_);}
	.st6{fill:url(#SVGID_3_);}
	.st7{fill:url(#SVGID_4_);}
	.st8{fill:url(#SVGID_5_);}
	.st9{fill:url(#SVGID_6_);}
	.st10{fill:url(#SVGID_7_);}
	#Vspr {
		stroke-dasharray: 500;
    stroke-dashoffset: 500;
    -webkit-animation: dash 2.4s linear forwards;
    -o-animation: dash 2.4s linear forwards;
    -moz-animation: dash 2.4s linear forwards;
    animation: dash 2.4s linear forwards, FillIn 2.1s ease-in;
	}
	#loveKnot,
	#loveKnot2,
	#tagLine {
		animation: FillIn 2.1s ease-out;
	}
	@-webkit-keyframes dash {

    to {
      stroke-dashoffset: 0;
    }
  }
  @keyframes FillIn {
	  0% { fill-opacity: 0; }
	  80% { fill-opacity: 0; }
	  90% { fill-opacity: .1; }
	  100% { fill-opacity: 1; }
	}
</style>
<g>
	<line class="st0" x1="52.6" y1="27.8" x2="386.4" y2="26.7"/>
	<g>
		<g>

				<rect x="52.6" y="6.6" transform="matrix(1 -3.305877e-03 3.305877e-03 1 -8.888569e-02 0.7258)" class="st1" width="333.8" height="41.2"/>
			<path class="st2" d="M57.5,30.2c0.3,0.3,0.6,0.3,0.9,0.1C58.1,30.4,57.9,30,57.5,30.2z"/>
			<path class="st2" d="M58.4,29.4c0.3-0.1,0.6,0.4,0.9,0.1C59,29.4,58.7,29,58.4,29.4z"/>
			<path class="st2" d="M60.7,31c0.3,0.2,0.3-0.1,0.8-0.1c-0.2-0.2-0.3-0.2-0.5-0.3C60.8,30.8,60.9,30.9,60.7,31z"/>
			<path class="st2" d="M69.6,38.7c0.1,0.1,0.3,0.2,0.4,0.4c0.2-0.3,0.4-0.1,0.6-0.3C70.3,38.4,69.9,38.4,69.6,38.7z"/>
			<path class="st2" d="M60.1,29.6c-0.2,0.2,0.5,0.5,0.7,0.3c0-0.3-0.2-0.1-0.5-0.4C60.3,29.5,60.2,29.7,60.1,29.6z"/>
			<path class="st2" d="M71,38.9c0.4,0,0.4,0.3,0.6,0.5c0.2-0.3,0.1-0.6-0.2-0.9C71.3,38.7,71.1,38.8,71,38.9z"/>
			<path class="st2" d="M66,32c-0.1,0.3,0.6,0.4,0.8,0C66.6,31.6,66.3,32.3,66,32z"/>
			<path class="st2" d="M74.8,39.7c0.2,0,0.4-0.1,0.3,0.1c0.2,0.2,0.4-0.2,0.6-0.3c0.1,0.3,0.5,0.5,0.9,0.6c0-0.7,0.7-0.6,1.3-0.8
				c-0.3,0-0.6,0.1-0.9-0.3c0,0.5-0.2,0.3-0.6,0.5c0-0.1,0-0.2-0.2-0.3c-0.3,0.2-0.5,0.2-0.8,0C75,39.3,74.8,39.5,74.8,39.7z"/>
			<path class="st2" d="M67.3,32.3c0.1,0.1,0.3,0.2,0.4,0.4c0-0.1,0.1-0.4,0.3-0.2C68.2,32.2,67.5,31.9,67.3,32.3z"/>
			<path class="st2" d="M68.6,30c0.3,0.1,0.6,0,0.9-0.2C69.2,29.7,68.7,29.5,68.6,30z"/>
			<path class="st2" d="M83.1,41.9c0.3,0.3,0.8,0.2,0.8-0.1C83.7,41.8,83.4,41.7,83.1,41.9z"/>
			<path class="st2" d="M71.6,30.3c0.3,0.1,0.6,0.5,1,0C72.3,30.2,72,30,71.6,30.3z"/>
			<path class="st2" d="M81.9,36.2c0.4,0.2,0.4-0.2,0.9-0.4c-0.1,0-0.3-0.1-0.4-0.2C82.3,36.1,81.8,35.7,81.9,36.2z"/>
			<path class="st2" d="M75.1,29.2c0.1-0.3-0.6-0.3-0.8-0.7C74,28.9,74.8,29,75.1,29.2z"/>
			<path class="st2" d="M78.6,29.9c0.3,0,0.7,0.1,1-0.1c-0.4-0.1-0.8-0.1-1.2-0.4C78.1,29.6,79,29.8,78.6,29.9z"/>
			<path class="st2" d="M89.6,39.8c-0.1,0.5,0.6,0.1,0.8,0.2C90.5,39.6,89.8,39.9,89.6,39.8z"/>
			<path class="st2" d="M90.4,38.1c-0.2-0.3-0.5,0.2-0.7-0.3c-0.2,0.2-0.2,0.4,0,0.7C89.9,38.1,90.4,38.5,90.4,38.1z"/>
			<path class="st2" d="M95.9,43.2c0.4,0.2,0.7,0.4,1.1,0.1C96.7,43.3,96.3,43.1,95.9,43.2z"/>
			<path class="st2" d="M76.4,25c0.2,0.3,0.4,0.1,0.6,0.4c0.4-0.2,0.1-0.4-0.2-0.7C76.6,24.8,76.5,24.9,76.4,25z"/>
			<path class="st2" d="M79,27.2c0.2,0.4,0.5,0.3,0.8,0.4C79.9,27.3,79.2,26.8,79,27.2z"/>
			<path class="st2" d="M78.5,25.3c0.1,0.1,0.1,0.1,0.2,0c0.8,0.5,1.6,0.1,2.4,0.4c0.5-0.3,0.2-0.6,0.4-0.8
				c-0.4-0.3-0.4,0.3-0.7,0.2c-0.4-0.2-0.1-0.4-0.5-0.4c0,0.5-0.6,0.3-0.9,0.6c-0.2-0.3-0.5-0.2-0.7-0.4
				C78.2,25,78.9,25.2,78.5,25.3z"/>
			<path class="st2" d="M95.2,39c-0.2-0.1,0.4-0.3,0.5-0.2c0.2-0.4-0.4,0.1-0.5-0.3c-0.4,0.2-0.2,0.4-0.3,0.6
				c0.3,0.2,0.5,0.3,0.8,0.4C95.9,39.1,95.4,39,95.2,39z"/>
			<path class="st2" d="M71.8,17.4c0.3,0.2,0.6,0.6,1,0.2C72.5,17.5,72.2,17.2,71.8,17.4z"/>
			<path class="st2" d="M71.8,16.8c-0.2,0.3,0.5,0.3,0.7,0.1C72.3,16.5,72,17,71.8,16.8z"/>
			<path class="st2" d="M73.1,17.6c0.3-0.2,0.2-0.4,0.3-0.6c-0.2-0.1-0.3,0-0.5-0.1C72.8,17.1,73,17.3,73.1,17.6z"/>
			<path class="st2" d="M96.4,38.8c-0.1,0.5,0.8,0.2,1.1,0.5C97.8,38.7,96.7,38.8,96.4,38.8z"/>
			<path class="st2" d="M69.7,11.9c0.3,0.1,0.8-0.1,1.3-0.5C70.6,11.5,70.2,11.5,69.7,11.9z"/>
			<path class="st2" d="M100.2,39.5c0-0.3-0.5-0.7-0.8-0.4C99.4,39.4,99.8,39.9,100.2,39.5z"/>
			<path class="st2" d="M79.1,20.3c0.3,0.3,1.5,0.1,0.9-0.4C79.7,20.3,79.5,20.1,79.1,20.3z"/>
			<path class="st2" d="M85.9,26c0,0.5,1,0.5,1.4,0.1c-0.2-0.1-0.1-0.2,0-0.3C86.9,25.2,86.3,26.2,85.9,26z"/>
			<path class="st2" d="M75,14.8c0.4,0.4,0.8,0.4,1.2,0.2C75.8,15.1,75.4,14.5,75,14.8z"/>
			<path class="st2" d="M102.1,39.8c0.2,0,0.3,0.1,0.2,0.2c0.7-0.4,1.3,0.2,1.9-0.2C103.2,39.8,102.8,38.8,102.1,39.8z"/>
			<path class="st2" d="M83.5,20.8c0.2,0.4,0.5-0.1,0.7-0.2c-0.1,0-0.3-0.1-0.4-0.2C83.9,20.5,83.7,20.6,83.5,20.8z"/>
			<path class="st2" d="M104.4,39.8c-0.3,0.3,0.3,0.1,0.4,0.4c-0.2-0.5,0.4,0,0.7-0.4c-0.2-0.5-0.5,0.3-0.7-0.1
				C104.6,39.8,104.5,39.9,104.4,39.8z"/>
			<path class="st2" d="M105.6,40c0.6,0.2,0.7,0.8,1.3,0.5c-0.6-0.3,0.2-0.6-0.4-0.9C106.5,40.2,105.9,39.7,105.6,40z"/>
			<path class="st2" d="M84,17.1c0.5,0.1,1.1-0.1,0.7-0.6C84.4,16.8,84.2,16.7,84,17.1z"/>
			<path class="st2" d="M109,40.2c0.4,0.4,0.8,0.1,1.2,0.2c0.2,0.2-0.1,0.4-0.3,0.6c0.7,0.3,0.7-0.6,1.6-0.4
				c-0.2-0.4-0.2-0.2-0.6-0.5c-0.5,0.3,0.2,0.1,0.3,0.4C110.5,40.4,109.7,39.9,109,40.2z"/>
			<path class="st2" d="M99.4,28.1c0.4,0.3,0.9-0.1,1.1-0.4C100.1,27.6,99.6,27.6,99.4,28.1z"/>
			<path class="st2" d="M93.2,21.8c0.4,0,0.1,0.1,0.4,0.4c0.2-0.2,0.1-0.4,0.1-0.6C93.5,21.5,93.3,21.7,93.2,21.8z"/>
			<path class="st2" d="M102.4,23.2c0.4,0.1,0.9,0.2,1.3-0.2C103.3,23.1,102.5,22.7,102.4,23.2z"/>
			<path class="st2" d="M96.6,13c0.2,0.2,0.5,0.1,0.7,0.3c0.4-0.2-0.5-0.4-0.2-0.5C96.9,12.7,96.7,12.9,96.6,13z"/>
			<path class="st2" d="M91.6,8.2c0.4,0.2,0.8,0,1.2-0.3C92.4,8,91.7,7.9,91.6,8.2z"/>
			<path class="st2" d="M112.7,26.1c0.1,0.1,0.3,0.2,0.4,0.4c0-0.1,0.1-0.3,0.2-0.2C113.5,26,112.8,25.8,112.7,26.1z"/>
			<path class="st2" d="M99.1,11.2c0.4,0.3,0.9,0,1.3,0.5c0.2-0.2,0-0.4-0.1-0.6c0.3-0.1,0.7,0.2,0.7-0.2c-0.2-0.1-0.5,0.2-0.7-0.1
				C100.1,11.4,99.6,10.9,99.1,11.2z"/>
			<path class="st2" d="M114.7,24.2c0.2,0,0.3,0.2,0.5,0.1c0.3-0.2,0-0.6-0.3-0.6C114.5,23.9,115.2,24.1,114.7,24.2z"/>
			<path class="st2" d="M104.9,11.1c0,0.4,1.3,0.6,1.4,0.1C105.9,11.2,105.4,11.4,104.9,11.1z"/>
			<path class="st2" d="M104.2,8.1c0.3,0.3,0.7,0.2,1-0.1C104.9,8.1,104.5,7.9,104.2,8.1z"/>
			<path class="st2" d="M109.9,12.7c0.3,0.1,0.7,0.3,1,0C110.6,12.6,110.2,12.5,109.9,12.7z"/>
			<path class="st2" d="M113.5,13.5c0.2,0.2,0.5,0,0.7,0.1c0.1-0.1-0.2-0.3-0.3-0.4C113.7,13.3,113.6,13.4,113.5,13.5z"/>
			<path class="st2" d="M115,13.3c0.3,0.3,0.5,0,0.8,0.2C115.9,13.3,115.2,12.9,115,13.3z"/>
			<path class="st2" d="M129,25.5c0.1-0.1,0.1-0.1,0-0.2c0.1-0.1,0.3,0.1,0.4,0.2c0.2-0.1,0.2-0.6,0.5-0.4c0.4-0.3-0.5-0.1-0.2-0.3
				C129.5,24.8,128.5,25.1,129,25.5z"/>
			<path class="st2" d="M130.2,25c0.1,0.2,0.3,0.1,0.4,0c0.1,0.1,0.3,0.2,0.2,0.3c0.2,0.1,0.3-0.1,0.5-0.2c-0.2-0.1-0.3-0.3-0.5-0.4
				C130.6,25,130.4,24.8,130.2,25z"/>
			<path class="st2" d="M132.4,26.7c0.3,0.1,0.5,0,0.8-0.1C133,26.2,132.7,26.4,132.4,26.7z"/>
			<path class="st2" d="M120.5,14.6c0.4,0.1,0.4-0.5,0.2-0.7C120.2,13.9,120.5,14.3,120.5,14.6z"/>
			<path class="st2" d="M119.7,13.5c0.5,0.2,1.3,0.4,1.5-0.2C120.7,13.5,120.2,13,119.7,13.5z"/>
			<path class="st2" d="M121.2,14.5c0.3-0.1,0.7,0.1,1-0.1c-0.3-0.1-0.7,0-1-0.2C121.1,14.3,121.3,14.4,121.2,14.5z"/>
			<path class="st2" d="M122.8,16c0.9-0.1,1.1,0.2,0.5-0.7C122.9,15.5,122.9,15.8,122.8,16z"/>
			<path class="st2" d="M135.4,26.6c0.3,0.3,0.7,0.3,1,0C136.1,26.6,135.8,26.3,135.4,26.6z"/>
			<path class="st2" d="M140.3,27.6c1-0.4,1.8,0,2.4-0.7c-0.7,0-1.5,0-2.2,0.3c-0.1-0.1,0.1-0.2,0.2-0.3
				C140,26.5,139.9,27.2,140.3,27.6z"/>
			<path class="st2" d="M128.9,15.4c0.5,0.3,0.2-0.6,0.5-0.4C129.5,14.5,128.7,15.2,128.9,15.4z"/>
			<path class="st2" d="M129.4,15.2c0.3,0.1,0.6,0.1,0.9-0.2C130,14.9,129.7,14.9,129.4,15.2z"/>
			<path class="st2" d="M145,27.1c0.1,0.1,0.3,0.2,0.4,0.4c0.2-0.1,0.1-0.3,0.3-0.4C145.4,27.1,145.2,26.8,145,27.1z"/>
			<path class="st2" d="M136,17.6c0.2-0.2-0.1-0.4,0.3-0.6C135.9,16.9,135.3,17.5,136,17.6z"/>
			<path class="st2" d="M150.3,10.4c0.5,0.5,0.9-0.1,0.9-0.4C150.9,10.1,150.6,10.3,150.3,10.4z"/>
			<path class="st2" d="M160.4,11.1c0.4,0.3,0.4-0.4,0.9-0.1c0.2,0.3-0.4,0.2-0.5,0.4c0.4,0.2,0.7,0,0.9-0.4c-0.3,0-0.4-0.1-0.4-0.4
				c0.5-0.4,0.9,0.3,1.3-0.2c-0.2,0-0.5,0.1-0.7-0.3c-0.6,0.4-1.1,0.2-1.4-0.1C160.6,10.5,161,10.8,160.4,11.1z"/>
			<path class="st2" d="M164.3,11.1c0.1,0.1,0.3,0.2,0.4,0.4c0.4-0.3,0.4-0.1,0.6-0.5c-0.3-0.3-0.9,0.4-0.6-0.2
				C164.4,10.5,164.3,11,164.3,11.1z"/>
			<path class="st2" d="M165.8,11.5c0-0.2,0.4-0.4,0.6-0.7c-0.1-0.1-0.2-0.2-0.3-0.3c-0.1,0.1-0.2,0.1-0.3,0.1
				c0,0.3,0.1,0.2-0.3,0.4C165.7,11.3,165.6,11.4,165.8,11.5z"/>
			<path class="st2" d="M167.3,11.9c0.4-0.3,0.7,0,1-0.3c-0.4-0.2-0.9,0.2-1.3-0.3C166.9,11.7,167.2,11.6,167.3,11.9z"/>
			<path class="st2" d="M169,11.2c-0.3,0.2-0.4,0.4-0.1,0.6c0.1,0,0.3,0,0.4-0.2C169.3,11.4,169.2,11.3,169,11.2z"/>
			<path class="st2" d="M169.3,11.4c0.2,0.1,0.1,0.3,0.3,0.4c0.2-0.1,0.1-0.4,0.3-0.2c0.1-0.1-0.2-0.3-0.3-0.4
				C169.5,11.3,169.4,11.3,169.3,11.4z"/>
			<path class="st2" d="M169.9,10.8c-0.1,0.2,0.7,0.7,1,0.4C170.6,11,170.3,10.7,169.9,10.8z"/>
			<path class="st2" d="M175.7,11.8c0.3-0.3,0.5-0.2,0.7-0.4c-0.2-0.3-0.5,0.1-0.7-0.3C175.5,11.4,175.3,11.6,175.7,11.8z"/>
			<path class="st2" d="M178.8,11.7c0.3,0.2,0.5,0.2,0.8,0c-0.1-0.1-0.3-0.2-0.4-0.4C179.1,11.5,179,11.6,178.8,11.7z"/>
			<path class="st2" d="M180.8,11.8c0.4,0.1,0.8,0.1,1.2,0.2c0.3-0.2-0.6-0.4-0.3-0.6c-0.2-0.1-0.2,0.1-0.3,0.2
				C181.2,11.8,181,11.5,180.8,11.8z"/>
			<path class="st2" d="M182.1,11c0.2,0.2,0.5-0.2,0.7-0.1c0-0.3-0.3-0.4-0.7-0.5C182,10.6,182.4,10.8,182.1,11z"/>
			<path class="st2" d="M184.4,12.3c0.6-0.5,1.2,0,1.8,0.1c0.4-0.5-0.7-0.6-0.9-1.1c-0.1,0.5,0,0.5-0.6,0.7
				c-0.4-0.4-0.3-0.6-0.9-0.6C183.6,11.8,183.8,11.9,184.4,12.3z"/>
			<path class="st2" d="M184.5,11.2c0.4,0.1,0.9-0.1,1.3,0.1C185.8,11.1,184.9,10.7,184.5,11.2z"/>
			<path class="st2" d="M186.6,10.9c0.2,0.2,0.3,0.1,0.5,0.3c0.3-0.2-0.2-0.5,0.1-0.8c-0.2-0.1-0.4,0-0.6,0.1
				C187.1,10.8,187.1,10.6,186.6,10.9z"/>
			<path class="st2" d="M189.6,10.9c0.2,0.2,0.3,0.2,0.5,0.3c-0.1-0.2,0.2-0.4-0.1-0.6C189.9,10.9,189.8,10.7,189.6,10.9z"/>
			<path class="st2" d="M224.3,13.9c0.5,0.3,1,0.1,1.5-0.2c-0.4-0.2-0.9-0.4-1.3-0.5C224.3,13.5,224.4,13.7,224.3,13.9z"/>
			<path class="st2" d="M234.1,12.7c0.2,0.4,0.5,0,0.7,0.1C235,12.5,234.3,12.3,234.1,12.7z"/>
			<path class="st2" d="M244.3,13.4c0,0.3,0.8,0.4,1.2,0C245.2,13.3,244.7,13.4,244.3,13.4z"/>
			<path class="st2" d="M249.3,13.7c0.5-0.2,1.4-0.2,1.5-0.5C250.3,13.1,249.4,13.2,249.3,13.7z"/>
			<path class="st2" d="M259.2,13.2c0.4,0.2,0.7,0,1.1,0.1C260.3,13,259.5,12.8,259.2,13.2z"/>
			<path class="st2" d="M269.6,14.6c0-0.2,0.3-0.4,0.3-0.6c-0.2-0.1-0.4,0-0.6,0.1C269.5,14.3,269.4,14.4,269.6,14.6z"/>
			<path class="st2" d="M303.5,43.7c0.8,0.2,1.6-0.5,2.4-0.3C305.5,42.8,304.2,43.5,303.5,43.7z"/>
			<path class="st2" d="M306,43.2c0.3,0.3,0.7,0.2,1-0.1C306.7,43,306.3,43.1,306,43.2z"/>
			<path class="st2" d="M288.5,13.4c0.1-0.1,0.1-0.3-0.1-0.4c0.7,0,0.8,0.1,1.6-0.1c-0.7-0.2-1.3-0.3-2-0.1
				C288.4,13,288.2,13.1,288.5,13.4z"/>
			<path class="st2" d="M291.6,14.7c0-0.3,0.5-0.5,0.1-0.8C291.4,13.9,291.3,14.4,291.6,14.7z"/>
			<path class="st2" d="M290.8,13c-0.1,0.1,0.2,0.3,0.3,0.4c0.3-0.2,0.4-0.3,0.4-0.5C291.3,12.8,291,13.3,290.8,13z"/>
			<path class="st2" d="M314.9,11.7c0.4,0.2,0.5-0.2,0.7-0.4c-0.2-0.1-0.4,0-0.6,0.1C315.1,11.5,314.9,11.6,314.9,11.7z"/>
			<path class="st2" d="M316.4,10.7c0.3,0.2,0.6-0.4,0.6-0.5C316.6,10.2,316.4,10.4,316.4,10.7z"/>
			<path class="st2" d="M318.2,11.2c0.9,0.2,1.7,0,2.6-0.1c-0.2-0.4,0.4-0.3,0.7-0.6C320.4,10.6,319.5,11.1,318.2,11.2z"/>
			<path class="st2" d="M321.2,11c0.4,0.2,0.7-0.1,1.1-0.2C322,10.6,321.6,10.6,321.2,11z"/>
			<path class="st2" d="M322.8,10.8c0.4,0,0.8,0.2,1.2,0C323.9,10.6,323.2,10.4,322.8,10.8z"/>
			<path class="st2" d="M323.8,11.5c0.5,0,0.7,0.2,1,0.4c0.3-0.4,0.5-0.4,0.2-0.8C325,11.6,324.2,11.2,323.8,11.5z"/>
			<path class="st2" d="M324.7,6.7c-0.1,0.4,0.6,0.2,0.8,0c-0.2-0.2-0.3-0.2-0.5-0.3C324.8,6.6,324.9,6.8,324.7,6.7z"/>
			<path class="st2" d="M329.3,10c-0.1,0.1-0.1,0.1,0,0.2c0.1,0.1,0.1,0.1,0.2,0.2c0.3-0.4,1.3,0,1.9-0.5c-0.1-0.1-0.1-0.2-0.1-0.3
				c-0.5,0.2-0.9,0.2-1.4,0.5c-0.5-0.4,0.2-0.3,0.2-0.7c-0.2-0.3-0.5,0.5-0.7,0.2C329.2,9.7,329.8,10.2,329.3,10z"/>
			<path class="st2" d="M326.5,6.6c0.6,0.1,1.3,0,1.9-0.4C327.8,6.3,327.2,6.4,326.5,6.6z"/>
			<path class="st2" d="M331.9,9.8c0.3,0,0.3,0.6,0.8,0.5c-0.2-0.3-0.1-0.5,0.4-0.7C332.7,9.5,332.3,9.7,331.9,9.8z"/>
			<path class="st2" d="M332.6,9.2c0.5,0.2,0.9-0.1,1.4-0.3C333.4,8.8,333.2,9.1,332.6,9.2z"/>
			<path class="st2" d="M337.2,9.3c0.1-0.1-0.3-0.3-0.1-0.4c-0.7,0-1.4,0.8-2,0.3C335,10.1,336.5,9,337.2,9.3z"/>
			<path class="st2" d="M334.9,8.8c0.7,0.3,1.4-0.2,2.1-0.5C336.3,8,335.6,8.6,334.9,8.8z"/>
			<path class="st2" d="M336.5,7.5c-0.1,0.5,0.7,0,1-0.1C337.2,7.1,336.9,7.7,336.5,7.5z"/>
			<path class="st2" d="M336.9,8c0.6,0.1,1.1,0.4,1.7-0.2C338.1,8.2,337.5,7.6,336.9,8z"/>
			<path class="st2" d="M339.8,8.7c-0.6-0.4,0.1-0.8,0.5-0.6C340.6,8.5,340.1,8.6,339.8,8.7c0.2,0.4,0.5-0.2,0.8,0.2
				c0.2-0.8,1.6-1.6,2.2-1.9c0-0.6-1.4,0.4-1.5,0.8c0-0.5-0.8-0.1-0.5-0.6c-0.8,0.5-1.4,1.1-2.5,1.9C338.8,9.5,339.3,9.2,339.8,8.7z
				"/>
			<path class="st2" d="M342.6,7.9c-0.1,0.1,0.2,0.3,0.3,0.4c0.3-0.1,0.6-0.4,0.8-0.3c0-0.1-0.1-0.3,0.1-0.4
				c-0.2-0.1-0.4-0.1-0.6-0.2C342.9,7.6,343.1,8.2,342.6,7.9z"/>
			<path class="st2" d="M343.7,8.6c0.3,0,1-0.2,0.5-0.6C343.9,8.2,344,8.4,343.7,8.6z"/>
			<path class="st2" d="M344.4,7.6c-0.2,0.4,0.5,0,0.6,0.4c0.1-0.3,0-0.3,0.4-0.5C345.1,7.2,344.7,7.7,344.4,7.6z"/>
			<path class="st2" d="M53.2,28.9c-0.1-0.2,0.3-0.4-0.1-0.6c-0.2,0.2-0.3,0.1-0.5,0.2c0.8,0.1-0.4,1.5,0.5,0.4
				c0.9,0.1,1.7,0,2.6,0.4c0.4-0.4,0.5-0.2,0.7,0.1c0.1-0.1-0.1-0.2,0-0.3c0.4-0.2,0.1,0.3,0.5,0.4c0.1-0.4,0.3-0.3,0.9-1
				c-0.4-0.2-0.7,0.2-1.1,0.4c-0.3-0.5-0.6-0.2-0.9-0.1c-0.6-0.8-1.6-0.4-2-0.8c-0.5,0.3,0.5,0.6,0.7,0.6
				C54,29.1,53.6,28.5,53.2,28.9z"/>
			<path class="st2" d="M61.8,32.3c0.5,0.2,1.1,0.2,1.6,0.1c-0.4-0.2-0.1-0.3-0.4-0.5C62.8,32.6,62.2,32.1,61.8,32.3z"/>
			<path class="st2" d="M64.3,32.5c0.3,0,0.4-0.2,0.1-0.4c0.1-0.1,0.3,0.1,0.4,0.2c0.4-0.2,0.3-0.4,0.5-0.6c0.6,0,1.2,0.2,1.8-0.1
				c0.7,0.9,1.5,0.2,2.2,0.4c-0.1,0.7-1.1,0.2-1.3,0.8c1.1-0.2,1.8,0.4,3-0.2c0.3,0.4,0.5,0.7,1,0.2c0.3,0.4,0.1,0.8-0.4,0.9
				c0.2,0.2,0.3,0,0.5,0.1c-0.2-0.3,0.5-0.5,0-0.8c0.7,0.5,1.4-0.1,2.1,0c-0.9,0.3-1.5,0.7-1.8,0.7c0.3,0.6,1.5-0.2,2.1-0.3
				c0,0.4,0.7,0.3,1.1,0.3c0.1-0.1-0.1-0.2,0-0.3c0.1,0,0.2,0,0.3-0.1c0,0.1-0.1,0.3,0.1,0.4c0.8,0,1.7-0.3,2.5-0.3
				c0.1,0.1,0,0.2,0.1,0.3c-0.9,0.1-1.2,0.4-2,0.6c0.7,0.4,1.4,0.1,2.1,0.3c0.3-0.3-0.3-0.1-0.4-0.4c0.2-0.2,0.3-0.2,0.5-0.2
				c0.5,0.3,0.1,0.7,0.6,0.7c0.2-0.1,0.1-0.3,0.3-0.4c-0.1-0.1-0.2,0-0.3,0.1c-0.2-0.2-0.1-0.9-0.4-0.4c-0.6-0.5,0.1-0.7,0.5-0.6
				c-0.5,0.2,0.6,0.3,0.2,0.7c0.3,0.2,0.6-0.4,0.8-0.3c0.3,0.3-0.5,0.5-0.7,0.6c-0.3,0.2,0.2,0.5,0,0.7c0.4,0.2,0.7-0.1,1.1,0.1
				c0,0.4-0.4,0.2-0.6,0.7c0.3,0.5,0.7-0.1,1.1,0.3c0.2-0.3-0.4-0.2-0.6-0.5c0.3,0,0.6,0,0.9,0.1c-0.4-0.4-0.2-0.6,0-0.9
				c0.1,0,0.2,0,0.3-0.1c0.4,0.2-0.3,0.3,0.2,0.5c0.5-0.5,2.8,0,2.6,0.6c0.3-0.3,0.6-0.1,0.6-0.5c0.5,0.3,0.2,0.5,0.5,0.8
				c-0.5-0.1-1,0.2-1.5,0c0.3,0.4,1.5,0.5,2.1,0.3c0.2,0.2-0.2,0.3,0.2,0.5c0.4-0.2,0.9-0.5,1.5,0c0.1-0.4,0.5-0.4,0.2-0.8
				c0.3,0.4,0.7-0.2,1.2,0.2c-0.3-0.6,0.8-0.2,0.8-0.6c0.7,0.3-0.4,0.5,0.1,0.8c0.3-0.3,0.6-0.3,0.9-0.2c0,0.2-0.1,0.4-0.1,0.6
				c-1,0.2-2-0.2-2.8,0.2c0.2,0.3,0.5-0.2,0.7,0.3c1.4-0.9,2.6,0.6,3.9-0.1c1.2,0.9,3.6,0.1,4.2,1c0.4,0.1,0.8,0.1,1.2,0.2
				c0.2-0.6,0.9-0.1,1.4-0.3c0,0.1-0.1,0.3,0.1,0.4c0.1-0.4,0.8-0.4,0.7-0.1c1.1-0.5,2.2,0.3,3.3,0c-0.3-0.3,0.3-0.4,0.4-0.5
				c0.2,0.2-0.4,0.4-0.3,0.6c0.9,0.5,1.9-0.1,2.8-0.1c-0.1,0.6,1.1,0.7,1.3,0.3c0.2,0.3,0.4,0.1,0.6,0.4c0.5-0.9,2.5,0.5,3.7-0.3
				c0.8,1,2.5-0.5,3.2,0.5c-0.3-0.1-0.6,0-0.9,0.1c0.2,0.5,1.2-0.2,2,0.1c0.3,0.1,1.4,0.7,1.5,0.1c0.2-0.2,0.4,0.3,0.6,0.4
				c0.7-0.3,1.4,0,2.1-0.3c0.8,0.4,2.6,0.3,3.9,0.4c33.8,3.2,67.8,2.6,101.9,2c0.3,0.2,0,0.4-0.1,0.6c-2.5-0.6-5.1,0.4-7.7-0.1
				c-0.2,0.3-0.3,0.3-0.7,0.4c-0.1-0.2,0.2-0.1,0.3-0.2c-0.4-0.2-0.8,0.4-1.2,0c-0.3,0.2,0,0.5-0.2,0.7c-1.1-0.8-2.8-0.6-4.2-0.2
				c-1.1-0.1-2.3-0.4-3.4,0c-0.1-0.1-0.1-0.2-0.1-0.3c-1.8,0.5-4.3-0.2-5.5,0.5c-0.3-0.2,0-0.3-0.4-0.4c-0.1,0.1,0.1,0.2,0.2,0.3
				c-2.3-0.6-4.1,0.5-6.4-0.2c-0.2,0.6-1.4,0-1.9,0c-0.9,0-1.6,0.6-2,0.1c-0.8,0.4-1.6,0.4-2.4-0.1c-0.5,0.2,0.2,0.3-0.2,0.5
				c-0.1,0.2-0.6-0.3-0.4-0.4c-0.6,0.4-1.1,0-1.6,0.3c-0.2-0.1-0.1-0.2,0-0.3c-0.7,0.4-1.4,0.1-2.1,0.3c-0.1-0.6-0.1-0.1-0.6-0.4
				c0,0.2-0.3,0.4-0.5,0.4c0-0.1-0.1-0.3-0.3-0.4c-0.5,0.6-1.5-0.3-2.4,0.4c-0.2-0.1-0.2-0.3-0.1-0.4c-1.2,0.2-3.9,0-4.3,0.4
				c-0.6,0.1-1.2-0.5-1.8,0.1c-0.5-0.4-1.5-0.7-1.8-0.2c-3.8-0.4-7.3,0-11.2-0.3c-0.2,0.1-0.1,0.2-0.2,0.3c-0.3-0.3-0.4-0.2-0.9-0.5
				c-2.1,0.5-5-0.5-7.5,0.2c-0.2-0.1-0.1-0.3-0.3-0.4c-0.9,0.1-1.9,0.3-2.8,0.1c0,0.2,0.2,1-0.7,1.2c-0.3-0.3,0-0.5-0.6-0.7
				c-0.1-0.3,0.6-0.6,0.7-0.2c0.4-0.4-0.7-0.6-0.6-0.2c-1.2-0.7-2.6,0.2-3.8-0.5c-0.3,0.6-1.2,0.4-1.7-0.2c-0.2,0.1-0.1,0.2,0,0.3
				c-1.1-0.3-2.3-0.1-3.4-0.5c-0.1,0.1,0,0.3-0.1,0.4c-1.6-0.3-3.9,0.2-5.1-0.6c-0.1,0.1,0,0.2,0.1,0.3c-1.8-0.2-3.6,0-5.4-0.5
				c-1.3,0.3-3.4-0.1-5-0.2c-0.4,0.2,0.1,0.4-0.3,0.6c-0.1,0-0.3,0.1-0.4,0c0.4-0.9-1.2-0.5-1.8-0.7c-0.2,0.5,0.4,0.1,0.6,0.4
				c0.2,0.4-0.5,0.2-0.6,0.3c-0.6-1.1-2-0.5-3-1c-0.4,0.2,0.1,0.4-0.3,0.6c-0.1,0.1-0.3-0.1-0.4,0c-0.1-0.1,0.2-0.3,0.3-0.4
				c-0.3-0.2-0.6-0.2-0.9,0.1c0,0.2,0.3,0.4,0,0.5c0.2,0.2,0.4-0.1,0.6,0.2c-0.4,0.3-0.7-0.1-1,0.3c-0.3-0.5-0.7-0.3-1-0.4
				c-0.1-0.4,0.7,0.1,0.9-0.2c-0.6-0.6,0.3-0.2,0.5-0.4c-0.9-0.6-0.9,0.1-1.8-0.4c-0.2,0.2,0.3,0.3,0.2,0.5c-0.1,0.1-0.2,0-0.3-0.1
				c-0.2,0.2-0.1,0.3,0.2,0.3c-0.5,0.5-1,0.3-1.5,0.7c-0.3-0.2-0.5-0.2-0.4-0.5c-0.4,0-0.9,0.7-1.3,0.4c-0.2-0.2,0.3-0.3,0.4-0.5
				c-0.3-0.2-0.6,0.2-0.5,0.4c-0.3,0.2-0.6-0.4-0.9-0.1c-0.1-0.2,0.2-0.3-0.2-0.5c-0.5,0.6-2,0.7-2,0.1c-0.4,0-0.9-0.3-1.3,0.2
				c-0.5-0.7-1.4,0.1-1.6-0.6c-0.6,1-1.8-0.6-2.7,0.2c-0.8-0.3-1.7,0-2.5-0.4c-0.3-0.2,0.5,0,0-0.3c-1.4,0.7-2.7-0.4-4,0
				c0.2,0.2,0.3,0.1,0.5,0.3c0.1,0.1-0.1,0.2,0,0.3c-0.6-0.1-1.2-0.5-1.8-0.6c-0.1,0.2,0.2,0.2,0.3,0.3c0.2,0.3-0.4-0.1-0.6,0.3
				c0-0.2-0.1-0.3-0.4-0.4c-0.6,0.9-1.6-0.4-2.4,0.2c-0.4-0.2-0.3-0.5,0-0.7c-0.3-0.3-0.5,0-0.8-0.2c-0.1,0.1,0.2,0.3,0.3,0.4
				c-0.3,0.3-0.6,0.2-0.8,0.3c-0.1-0.2,0-0.3,0.2-0.5c-0.7,0.3-1.4,0-2.1,0c-0.1-0.2,0.2-0.3-0.2-0.5c-0.4,0.9-2.6,0.2-3.3,0.6
				c-0.2-0.4-1-0.3-0.4-0.7c-0.4-0.1-0.5,0.1-0.5,0.4c-0.4,0-0.5-0.8-1.1-0.5c0.2,0.3,0.4,0,0.6,0.2c-0.1,0.1-0.2,0.2-0.1,0.3
				c-1-0.1-2-0.6-3,0.1c0-0.5,0-0.4-0.4-0.9c-0.3,0.2,0.1,0.5,0.3,0.8c-0.6,0.7-1-0.5-1.6,0.1c-0.6-0.3,0.3-0.6-0.1-0.9
				c-0.4,0.3-0.2,0.6-0.4,0.9c-0.4,0.3-0.4-0.3-0.6-0.2c-0.1-0.1,0.2-0.3,0.3-0.4c-0.3-0.1-0.9,0.1-0.7,0.4
				c-0.7-0.6-0.7-0.1-1.2-0.7c-0.7,0.3-0.7,0.2-1.4-0.1c-0.1,0.2,0.3,0.5-0.2,0.7c0.2,0.1,0.3,0.3,0.5,0.4c0.4,0,0.2-0.4,0.6,0
				c0.2-0.1,0.1-0.2,0-0.3c0.6,0,2.6-0.1,2.2,0.8c0.2,0.2,0.4-0.2,0.6-0.3c0.3,0.4,0,0.6-0.3,0.8c0.2,0.1,1.2,0.1,0.8-0.3
				c0.4-0.1,0.9,0.3,1.3-0.2c0.2,0.2-0.4,0.4-0.3,0.6c0.3,0.4,1.4-0.3,1.1,0.5c0.2,0.2,0.4-0.2,0.2-0.3c0.4,0,0.7,0,1.1,0.3
				c0.1-0.1,0-0.3,0.1-0.4c0.2-0.1,0.5,0.1,0.7-0.1c0,0.1,0,0.3-0.1,0.4c0.9-0.3,1.8-0.2,2.6-0.1c0.2,0.2-0.3,0-0.4,0.3
				c0.3,0.3,0.6-0.1,0.9,0.3c-0.4,0.2-0.8,0.2-1.2-0.2c-0.3,0.7-1.4-0.2-2,0.3c1.3,0.3,2.5,0.1,3.6,0.3c0.3-0.3-0.3-0.1-0.4-0.4
				c0.7-0.5,0.6,0.8,1.3,0.3c-0.2-0.1-0.4-0.1-0.6-0.2c0.3-0.4,0.5,0.1,0.8-0.3c0.3,0.2,0,0.3-0.1,0.4c0.2,0,0.3-0.1,0.5,0.1
				c0.2-0.6,1.9-0.2,2.7,0c0.2,0.4-0.4-0.2-0.6,0.1c1.4-0.1,2.8-0.1,4.1,0.2c0.1,0.1-0.2,0.3-0.3,0.4c0.4,0.4,0.8-0.1,0.7-0.4
				c0.6-0.1,0,0.5,0.6,0.7c0.6-0.2-0.4-0.4-0.1-0.6c0.8,0.1,1.7-0.4,2.5,0.2c0.3-0.6,0.7-0.3,1.2-0.5c0.4,0.2,0.1,0.3,0.4,0.5
				c0.7-0.3,1.3-0.2,1.9-0.2c0.1,0.3-0.5,0.2-0.7,0.2c0.4,0.4,1.2,0.1,1.7-0.2c0.4,0.2-0.1,0.4,0.3,0.6c-0.3,0.3-0.7,0-0.7,0.4
				c1.3,0.1,2.1-0.1,3.3-0.6c0.6,0.3-0.4,0.5,0.1,0.8c1.1,0,2.2-0.1,3.2,0.5c0.6-0.5,0.9-0.1,1.2,0c0.2-0.2-0.1-0.3,0.2-0.5
				c0.8,0.6,2.6-0.3,2.7,0.5c1.3-0.1,3,0.5,3.9,0.1c0.6,0.5,1.3,0,1.9,0.7c0.5-0.5,0.9,0,1.3-0.5c0.4,0.2,0.1,0.3,0.4,0.5
				c2.3,0.1,4.7,0,7,0.6c0.1-0.2,0.3-0.4-0.1-0.4c1.9,0.4,3.9,0.7,5.8,0.4c0.5-0.2,0.9,0.4,1.4,0.4c0.1-0.1-0.1-0.2,0-0.3
				c0.6,0.2,1.3,0.4,2.2,0.1c0.2,0.2,0.4,0.4,0.6,0.5c2.1-0.4,4.1,0,6.1,0.3c0.1-0.1,0-0.2,0.1-0.3c3.5,0.5,7.1,0.2,10.6,0.6
				c0.6-0.5,3,0,4.5,0.1c0.8,0,1.5-0.3,2.1,0.2c0.1-0.1,0.3-0.2,0.4-0.3c0.4,0.6,1.3-0.2,2,0.4c1.7-0.5,4.1,0.2,6.2-0.2
				c0.1,0.1,0.3,0.2,0.4,0.4c2.6-0.5,5.2,0.3,7.8-0.3c1.1,0.6,2.3-0.2,3.4,0.3c0.7-0.5,1.3,0.1,2-0.3c1.9,0.4,3.7,0.2,5.6,0
				c4.2,0.3,8.3-0.3,12.5,0c0.1-0.1,0.3-0.2,0.4-0.3c0.2-0.1,0.2,0.1,0.1,0.3c2.2-0.2,3.8-0.2,6.1-0.5c0.1,0.1,0.3,0.2,0.4,0.4
				c0.4,0,0.2-0.6,0.8-0.3c0.1,0.2-0.2,0.1-0.3,0.2c0.3,0.1,0.7,0,0.7-0.2c16.4,0.1,32.3-1.5,48.6-2c0.1-0.1,0.2-0.2,0.3-0.2
				c2.2,0.3,4.5-0.6,6.7-0.1c0.4-0.1,0.7-0.7,0.8-0.1c0.3-0.2,1.2-0.4,1.8-0.1c0.1-0.1,0.3-0.2,0.4-0.3c0.8,0,1.5,0.2,2.3-0.2
				c3.7,0.4,7.5-0.7,11.2,0.2c0.1-0.1,0.3-0.2,0.4-0.3c0.6,0.4,1.7,0.3,2-0.1c0.2,0.1,0.1,0.3,0.3,0.4c0.3-0.6,0.6-0.2,0.9-0.1
				c1-0.5,2.1-0.4,3.4-0.4c0.2,0.1,0.2,0.3,0.1,0.4c0.3,0.1,0.4-0.6,0.9-0.2c0.1-0.1,0-0.2-0.1-0.3c0.3-0.1,0.6,0.2,0.9-0.2
				c0.2,0.1,0.1,0.2,0,0.3c0.4-0.2,1-0.5,1.6-0.4c0.3,0.4-0.3,0.2-0.6,0.5c1.2-0.4,2.5-0.6,3.7-0.9c0.2,0.1,0.3,0.3,0.5,0.4
				c-0.1,0.4,0.3-0.2-0.2-0.3c0.6-0.4,1.1-0.3,1.8-0.6c0.1,0.4,0.8,0.2,0.4,0.5c0.3,0.1,0.3-0.5,1,0c0.5-0.3-0.2-0.3-0.4-0.4
				c0.7-0.4,1.4,0,2.1-0.5c0.1,0.1-0.1,0.2-0.2,0.3c0.2,0.1,0.4-0.2,0.6,0.2c-0.2-0.5,0.4-0.2,0.7-0.6c1.7,0.7,3.7-1.1,5.2-0.1
				c0.3-0.8,1.4-0.6,2.1-0.8c0,0.5-0.9,0.1-1.2,0.5c0.2,0.2,0.3,0.1,0.5,0.3c-0.6,0.2-1.2,0.7-1.8,0.9c0.1-0.9-1.5,0-1.8,0.1
				c1.2,0.4,3.1,0.1,4.2-0.6c0.1,0.1-0.2,0.3-0.3,0.4c0.6-0.1,1.9-0.1,2-0.9c0.4-0.2,0.2,0.3,0.5,0.4c1.2-0.5,1.9-0.5,3.2-1.2
				c1.5,0,3.1,0,4.7-0.8c0.9,0.1,2.4-0.3,3-0.8c2,0.4,5.4-1.8,7.9-0.6c-0.6-1.1,1.5-0.6,1.4-1.6c0.5,0.1,1.1-0.9,1.6-0.3
				c2.2-0.9,4.3-1,6.4-0.2c0.3-0.3,0.6-0.5,0.4-0.8c0.3-0.1,0.7,0,1,0.4c0.3-0.4,0.6-0.2,0.9-0.2c0.1-0.5,0.4-0.4,0.6-0.8
				c-0.2-0.2-0.4,0.1-0.6,0c1.3-0.6,3.5-0.6,5.1,0.3c0.2-0.6,0.8-0.8,1.4-0.6c1.3-1.3,2.9-1.9,4.6-2.4c0.2,0.2,0.4,0.4,0.6,0.5
				c-0.2-0.5,0.9-0.4,1.3-0.7c0,0.1,0.1,0.2,0,0.3c1.5-0.2,2.8-0.4,4-1.1c1.5-0.2,3.6-0.4,4.8-1.4c1,0.1,3-0.9,3.8-1.3
				c1.4-0.7,2.7-1.2,3.7-2.1c-0.4,0-0.4-0.3-0.6-0.5c0.3-0.3,0.5,0,0.8-0.3c-0.5-0.2-0.7,0.1-1-0.2c-0.5,0.6-1.3-0.2-1.5,0.4
				c-0.2,0.2-0.5-0.3-0.7-0.5c-0.6,0.1-1.3,0.2-1.9,0.2c0.6-0.4,0.9-0.4,1.7-1.1c-2.4,0.2-5.7,0.3-8.4,1.5c-0.3,0.1-0.5,0-0.8-0.2
				c0,0.1,0,0.3,0.1,0.4c-0.3,0-0.6,0.1-0.9,0.2c-0.4-0.8-1.6,0.5-2.2,1c-0.3-0.3,0.2-0.6,0.4-0.8c-0.3,0.1-0.7-0.1-0.7-0.5
				c0.5-0.4,0.6,0,0.9-0.6c-0.2-0.3-0.5,0.5-0.7,0.1c-0.4,0.2-0.1,0.3-0.4,0.5c-0.1,0-0.3,0.1-0.4,0c0-0.3,0.5-0.6,0.4-0.8
				c0.1-0.1,0.2,0,0.3-0.1c-0.2,0.5,0.6,0.1,1,0c0.2,0.1,0.1,0.3,0.3,0.4c0.9-0.3,1.1-1.1,1.9-1.3c0.1,0.3-0.7,0.6-1,0.9
				c0.4,0,1.1-0.2,0.9-0.6c1,0.3,2-0.4,3-0.8c-0.6-0.3-1.2,0.4-1.8,0.6c0.4-0.8,1.6-1.1,2.2-0.6c0.8-0.4,1.6-0.8,2.3-0.5
				c2.4-1.1,4.8-0.8,7.2-1.7c-0.5-0.4-1.1-0.1-1.6-0.7c-0.6,0.2-1.1,0.1-1.7-0.3c-0.2,0.1-0.1,0.2-0.2,0.3c-0.4-0.6-0.9,0-1.3-0.3
				c-0.2-0.2,0.1-0.4,0.3-0.6c-0.5-0.4-1.1,0.1-1.6-0.1c-0.4-0.2,0.2-0.4-0.1-0.6c-0.8-0.3-1.2,0.4-2.1,0.5
				c-0.2-0.5,0.8-0.8,1.2-1.1c-0.2,0-0.3-0.1-0.5-0.3c-0.1,0.1,0,0.2,0.1,0.3c-0.4,0.2-0.6-0.2-0.8,0.3c-0.2-0.1-0.1-0.3-0.3-0.4
				c-0.7,0.3-1.4,0.2-2,0.1c-0.3,0.2-0.3,0.4,0,0.7c-0.2,0.2-0.4,0.3-0.6,0.3c-0.2-0.3-0.3-0.7-0.3-1c0.8-0.1,2-0.7,2.3-1.4
				c1.3-0.2,2.5-0.4,3.7-0.1c-0.3-0.7,0.6-0.4,1.1-0.4c0.1,0.4-0.5,0-0.7,0.2c0.5,0.4,1.1-0.3,1.6-0.4c0.4,0.2-0.2,0.4,0.3,0.4
				c0.1-0.6,1.5-0.6,2.2-0.4c0.6-0.5,1.3-0.3,2.1-0.5c0.1-0.6-0.7-0.1-1-0.2c0.7-0.3,2.4-1,3.6-0.4c0.9-0.7,3.7,0,4-1.5
				c0.7,0.2,1-0.5,1.6-0.3c0,0.3-0.4,0.2-0.3,0.6c1.6-0.6,3.2-1.4,3.4-2.6c-0.4-0.3-1-0.5-0.9-1c-0.9-0.4-2.2-0.3-2.4-1.4
				c-0.4,0.5-1.1,0.3-1.3,0.8c0.1,0.1,0.3-0.1,0.4-0.2c0.2,0.3-0.1,0.2-0.3,0.4c-0.3-0.3-0.5-0.4-0.8-0.4c-0.3-0.2-0.2-0.4,0.1-0.6
				c-0.3-0.1-0.5,0-0.5,0.2c-0.6-0.6-2-0.1-3,0.2c-1.1-0.8-2.3,0.3-3.5,0.9c-0.1-0.1-0.1-0.1-0.2-0.2c0.5-0.9,1.6-0.9,2.2-1.5
				c-0.2-0.2-0.4,0-0.6-0.4c-1.7,0.9-2.8,0.6-4.5,1.2c-0.1-0.1,0-0.2-0.1-0.3c0.6-0.1,1.5-0.5,1.9-0.9c-0.3-0.3-0.5,0-0.8-0.2
				c0.1,0.4-0.2,0.4-0.5,0.2c0.1,0.2,0.1,0.5,0,0.7c-0.6-0.2-1.9,0.1-1.7,0.8c-0.3,0.3-0.1-0.5-0.5-0.3c-0.1-0.2,0.4-0.2,0.2-0.5
				c-0.4-0.1-0.8,0.6-0.6,0.8c-0.3,0.1-0.2-0.5-0.5-0.6c-0.5,0.2-0.2,0.5-0.5,0.7c-0.3,0.2-0.3-0.3-0.2-0.3
				c-0.4-0.2-0.3,0.4-0.4,0.5c-0.1,0-0.5-0.3-0.6-0.5c0.3-0.3,0.5-0.2,0.7-0.4c-0.6-0.3-0.9,0.3-0.8,0.6c-0.7,0.1-1.4,0.1-1.9,0.8
				c-0.5-0.2,0.1-0.4-0.2-0.7c0.4-0.1,0.8-0.2,1.2-0.3c-0.4-0.4-0.4-0.7,0.1-1c-0.3-0.2-0.5,0-0.5,0.2c0-0.4-0.5,0-0.6-0.5
				c-0.6,0.5-1.1,0.4-1.8,0.4c-0.1-0.2,0.5-0.4,0.7-0.1c0.1-0.1,0.1-0.1,0-0.2c0.1-0.1,0.1-0.1,0.2-0.2c-0.4-0.3-0.8,0-1.2,0.1
				c-0.2-0.3,0-0.7-0.1-1c-0.2,0.4-0.2,0.2-0.6,0.5c-0.4-0.2-0.2-0.4-0.5-0.6c-0.3,0.1-0.2,0.3-0.3,0.4c-0.3-0.2,0-0.3-0.4-0.5
				c-0.6,0.2-1.2,0.1-1.8,0.1c-0.3-0.4,0.2-0.2,0.5-0.6c-0.3-0.2-0.6,0.3-0.9-0.1c0,0.1-0.2,0.3-0.1,0.4c-1.5-0.3-3,0.4-4.4,0.2
				c-0.1,0.1,0.1,0.2,0.2,0.3c-0.2,0.2-0.5,0.4-0.7,0.4c-0.3-1.4-2,0.3-2.8,0.1c0.3-1.2,1.4-0.9,2.2-1.4c-0.4-0.3-1,0.3-1.1-0.3
				c-0.2,0.2-0.4,0.3-0.6,0.5c-0.2-0.2-0.2-0.3-0.3-0.4c0.3,0,0.6-0.4,0.8-0.1c-0.1-0.4,0.3-0.2,0.3-0.6c-0.4-0.7-1,0.8-1.4,0.1
				c-0.5,0.5-1,0.9-1.4,1.4c-0.4-0.2-0.2-0.5,0-0.7c-0.3-0.4-0.7-0.1-1-0.2c0.1,0.2,0,0.5-0.4,0.7c0.2,0.1,0.4-0.2,0.6,0.2
				c-0.3,0.2-0.7,0.2-1,0c-0.3,0.2-0.6,0.5-0.9,0.7c-0.1-0.5,0.2-0.4-0.5-0.4c-0.5-0.2,0.2-0.4-0.2-0.7c-0.2,0.8-0.7,0.6-1.4,1.2
				c-0.6-0.2-1.2-0.2-1.8-0.4c-0.5,0.8-1.1,0.9-1.8,1.4c-0.4-0.2,0.4-0.4,0.2-0.7c-0.9,0.1-1.9,1.2-2.3,1.8c0.9,0.2,1.3-0.9,1.9-1.1
				c0.2,0.1,0.2,0.3,0.1,0.4c0.3,0.2,0.7-0.4,0.4-0.5c0.8,0.7,2.5-1.3,3.6-0.4c-0.7,1-2.3,1-3.3,0.9c-0.7,1.2-2.1,1.1-3.4,1.1
				c0.4-0.5,0.6-0.9,0.7-1.5c-0.3,0.4-0.5,0.2-0.8,0.5c-0.9-0.9-1.3,0.5-2.1-0.3c-1,0.4-0.6,0.3-1.5,0.5c0.3,0.2-0.1,0.3,0.1,0.4
				c-0.3,0.1-0.5,0-0.8,0.3c-0.4-0.3,0.1-0.5,0.4-0.5c-0.1-0.4-1.3,0.1-1.2,0.5c-0.4,0-0.8,0.3-1.2-0.2c-0.6-0.1-1.2,0.8-1.7,0.5
				c-0.4-0.5,0.3-1,0.6-1.4c-0.7,0-1.1,0.7-2,0.6c-0.3-0.3-0.2-0.4-0.6-0.4c-0.3,0.3,0.6,0.1,0.3,0.4c0.3,0,0.6,0.1,0.9-0.1
				c0.1,0.4,0,0.4,0.6,0.4c0.1,0.1-0.1,0.2-0.2,0.3c-0.3,0.1-0.5-0.5-0.8-0.4c0,0.1-0.2,0.3-0.1,0.4c-0.3,0.1-0.7-0.1-1,0
				c-0.1-0.2,0-0.3,0.2-0.3c0.2-0.1,0.1,0.1,0.3,0.3c0.1-0.3,0.2-0.5-0.1-0.8c-1.4,1.3-2.8,1.3-4.1,1.9c-0.1-0.1-0.3-0.2-0.2-0.3
				c-0.1,0.3-1.2,0.7-1.9,0.8c-0.1-0.4,1-0.6,1-0.9c0.3,0.4,0.5,0.2,0.1-0.1c-1.1,0.4-2.2,0.6-3.1,0.6c-0.3-0.6,1.1-0.4,1.1-1
				c-0.4,0-0.5-0.2-0.7,0.2c-1.3-0.5-3.7,0.8-5.1,1c-0.3-0.2,0.8-0.4,0.2-0.7c-0.2,0.5-0.7,0.6-1.1,0.7c0.3,0.1,0.6,0.2,0.9,0.1
				c0.1,0.1,0,0.2,0.1,0.3c-0.6,0.3-1.2-0.3-1.8,0.3c-0.2-0.1-0.1-0.3-0.3-0.4c-0.5,0.4-0.9,0.1-1.4,0.3c-0.2-0.1-0.2-0.3-0.1-0.4
				c-0.2-0.1-0.5,0.2-0.7-0.1c-0.2,0.1-0.1,0.2,0,0.3c-1.9-0.1-3.1,0-5,0.2c-0.1-0.2,0-0.3,0.2-0.5c-0.3,0-0.6,0.1-0.9,0
				c-0.5,0.2,0.2,0.5-0.2,0.7c-0.5-0.4-0.9-0.2-1.4,0.1c-0.3-0.2,0-0.3-0.4-0.5c-0.2,0.2,0.1,0.4-0.1,0.6c-0.5-0.5-0.5,0-1.2,0.1
				c-0.3-0.2,0-0.3-0.4-0.5c-0.1,0.1-0.1,0.3,0.1,0.4c-0.6,0.2-2-0.4-2-0.9c-1,0.3,0.7,0.5,0.1,1c-0.3,0-0.2-0.2-0.7-0.4
				c-0.5,0.3-1,0-1.2,0.6c-0.4,0-0.9,0-1.1-0.5c-0.2,0.1-0.4,0.3-0.5,0.4c0.4,0.5,0.1-0.4,0.5,0.1c-0.3,0.6-1.8,0.2-2.7,0.6
				c0.2-0.3,0.1-0.6,0.5-0.7c-0.7-0.5-0.8,0.6-1.5,0.7c-0.4-0.6-0.9-0.1-1.4,0.1c-0.5-0.5-1.1-0.3-1.7-0.1c-0.1-0.4,0.5-0.1,0.7-0.4
				c-0.2-0.3,0.3-0.5,0.1-0.8c-0.6,0.5-1.4,0.6-1.9,1.1c-0.2-0.2-0.4,0-0.8-0.2c-0.2-0.5,1.2-0.1,0.4-0.7c0.3-0.3,0.6,0.1,0.9-0.2
				c-0.3-0.4-1.1,0.3-1.1-0.3c-0.3,0.3-0.7,0.2-1.2,0.5c0-0.7-0.6,0-1.1-0.5c-0.6,0.5-1.2,0.3-1.8,0.6c0,0.3,0.5,0.6,0.8,0.4
				c-0.1,0.6-0.9,0.2-1.3,0.2c-0.1-0.3,0.2-0.5,0.3-0.6c-0.1-0.3-0.4-0.3-0.4-0.7c-0.1,0.8-0.6,0.2-1.1,0.7c0.2,0.5,0.5-0.1,0.7,0.3
				c-0.3,0-0.7,0.3-1,0c-0.1-0.2,0.2-0.1,0.3-0.2c-0.1-0.2-0.4-0.1-0.3-0.3c-0.4-0.3-0.2,0.5-0.5,0.1c0.1,0.3,0.3,0.6,0,0.8
				c-0.5,0,0-0.3-0.4-0.5c-0.3,0.2-0.2,0.4-0.1,0.6c-0.2,0-0.3-0.1-0.5,0.1c-0.5-0.4,0.3-0.7,0-1.1c-0.1,0.2-0.3,0.4-0.2,0.7
				c-0.4,0.4-0.7-0.4-1,0.1c-0.4-0.2-0.2-0.4-0.5-0.6c-0.5,0.3-0.9,0.1-1.3,0c-0.3,0.6-1,0.4-1.5,0.4c-0.3-0.2,0.5-0.3,0-0.5
				c-0.5,0.5-1,0.2-1.6,0.3c-0.4,0.2,0.2,0.4-0.1,0.6c-0.6,0.1-0.1-0.5-0.6-0.7c-0.3,0-0.4,0.1-0.4,0.3c-1-1-2,0.5-3-0.1
				c-0.4,0.6-0.6,0.5-1.3,0.8c-0.2,0-0.3-0.3-0.7-0.3c-0.1-0.4,0.6-0.2,0.8-0.5c-0.6-0.3-1.1,0.1-1.5,0.4c-0.5-0.2-0.3-0.4-0.6-0.7
				c-0.4,0.1-0.6-0.1-0.8,0.3c-0.1-0.1-0.3-0.2-0.4-0.4c0.2,0.5-0.9,0.6-1.3,0c-0.3,0.6-0.6,0.3-1.1,0.2c-0.4,0.3,0,0.1,0.2,0.3
				c-0.2,0.2-0.5,0-0.7,0.1c-0.4-0.4-0.1-0.4,0-0.7c-0.4,0-0.9-0.1-1.3-0.6c0.1-0.1,0.2-0.1,0.3-0.1c-0.1-0.3-1-0.2-1.4-0.2
				c1,0.3,0.8,0.8,1.9,1c-1,0.7-1.1-0.5-1.8-0.4c0,0.4,0.8,0.8,0.6,1.1c-0.3-0.3-1-0.3-1.2-0.7c-0.3,0.4-0.3,0.7-0.6,1.1
				c0.1-0.6-0.4-0.6-0.8-0.9c-0.2-0.2,0.4-0.4,0-0.7c-0.2,0.3-0.3,0.3-0.2,0.7c-0.3,0-0.6-0.3-0.4,0.2c-0.3,0-0.6-0.3-0.9-0.5
				c0-0.3,0.9,0,0.7-0.6c-0.5,0.3-3,1-2.5,0c-0.3,0-0.6,0.4-0.9,0.1c-0.4,0.8-1.5,0.1-2.3,0.9c-0.2-0.6-0.8-0.2-0.6-0.7
				c-0.3-0.1-0.3,0.4-0.7,0.6c-0.8-0.1-1.5-0.3-2.3,0.2c-0.1-0.5-0.7-0.4-0.8,0c-0.3-0.5-0.6-0.2-0.9-0.5c0.1,0.3,0.2,0.3,0.4,0.7
				c-0.4,0-0.8-0.3-1-0.5c-0.5-0.1-0.3,0.5-1,0c0,0.1,0.1,0.3-0.1,0.4c0.4-0.1,0.9,0,1.3,0.3c-0.7,0-1.5-0.1-2.2-0.1
				c-0.1-0.1,0-0.2-0.1-0.3c0.3-0.2,1,0.2,1-0.3c-0.5-0.3-1,0.4-1.7-0.1c-0.1,0.1-0.3,0.2-0.4,0.2c-0.1,0.1-0.1,0.3,0.1,0.4
				c-0.5,0.3-0.9,0-1.3,0.2c-0.4-0.2-0.1-0.3-0.4-0.5c-0.4,0.2,0.2,0.4-0.3,0.4c-0.4-0.2,0.2-0.4-0.3-0.4c-0.3,0.1,0,0.3-0.1,0.4
				c-1.5-1.1-3.4-0.1-4.7-0.6c-0.2-0.2,0.3-0.3,0.2-0.5c-0.6-0.2-1.2,0.6-1.7-0.1c-0.1,0.1-0.1,0.3,0.1,0.4
				c-0.2,0.3-0.4,0.1-0.6,0.3c-0.3-0.2,0-0.3,0.1-0.4c-0.3-0.2-0.6,0-0.9-0.1c-0.1,0.1,0.1,0.2,0.2,0.3c-0.2,0.3-0.4,0-0.6,0.1
				c0-0.1,0.1-0.3-0.1-0.4c-0.1,0.1-0.3,0.2-0.4,0.3c-0.3-0.2,0-0.3-0.4-0.5c-1,0.1-2,0.2-2.9,0.1c0.1,0.1,0.2,0.2,0.3,0.3
				c-0.3,0-0.6,0.4-0.8,0.1c-0.3-0.2,0-0.3,0.1-0.4c-0.6-0.2-1.7,0.2-1.9,0.4c-0.1-0.4-0.4-0.4-0.8-0.2c0.5,0.3,0,0.3-0.2,0.5
				c0.9-0.1,1.3,0.4,2.3,0.2c0.1-0.2-0.1-0.1-0.2-0.2c0.2-0.4,0.4,0.2,0.6-0.1c0.3,0.4,0.3,0.3,0.8,0.7c-1.2-0.4-2.8,0.3-3.6-0.3
				c-0.1,0.1,0,0.2-0.1,0.3c-0.4,0.2,0.1-0.3-0.3-0.4c-0.6,0.7-1.2,0.2-1.8,0.1c-0.2,0.5-0.6,0.4-1,0.3c0.2-0.3,0.5-0.7,0.3-1
				c0.3-0.1,0.8,0,0.8-0.3c-0.4,0-0.4,0-0.6-0.4c-0.2,0.4-0.4,0.3-0.5,0.6c-0.3,0.1-0.7-0.2-1,0.1c-0.4-0.6-1.3-0.3-2-0.1
				c0-0.5-0.4-0.5-0.9-0.1c-0.1-0.1-0.1-0.3,0.1-0.4c-0.7-0.3-1.4,0.3-2,0.1c-0.2,0.2,0.2,0.3,0,0.5c-0.2,0.2-0.4-0.4-0.6,0
				c-0.2-0.1-0.2-0.3-0.1-0.4c-0.3-0.1,0,0.5-0.5,0.2c-0.2-0.2-0.3-0.4-0.2-0.5c-0.5,0.2-1.4-0.2-1.6,0.3c-0.3-0.2,0-0.3-0.4-0.5
				c0,0.5-0.5,0.1-0.5,0.1c-0.7,0.1-1,0.7-1.7,0.2c-0.2,0.5-1,0.2-1.4,0.3c0-0.1,0.1-0.3-0.1-0.4c-0.3,0.5-0.8,0-1.3,0.5
				c-0.2,0.4,0.5,0.5,0.7,0.3c0.2,0.1-0.5,0.4-0.6,0.3c-0.2,0.4,0.4,0.1,0.6,0.2c0.1,0.1-0.2,0.3-0.3,0.4c-0.2,0-0.6-0.5-1,0
				c-0.3-0.2-0.5-0.4-0.3-0.6c-0.4-0.3-0.7,0.1-1.1-0.3c-0.1,0.2,0,0.5-0.4,0.5c0.2-0.6,1-1,1.8-1.4c-0.3-0.1-0.7-0.3-1-0.4
				c-0.2,0.2-0.2,0.5-0.5,0.2c-0.1,0.1,0,0.3-0.1,0.4c-0.5,0.2-0.2-0.2-0.7-0.5c0.1,0.7-1.7,0.8-1.9,0c0,0.4-0.4,0-0.7,0.4
				c0.3,0.3,0.7-0.1,1,0.2c0,0.3-0.9,0-1.2,0c0,0.2-0.2,0.3-0.4,0.5c-0.2,0.2-0.2-0.3,0-0.3c-0.3-0.1-0.4,0.4-0.1,0.6
				c0.2-0.1,0.5,0.1,0.7-0.2c0.1,0.2,0.1,0.3,0.2,0.5c-0.5,0.2-0.9-0.3-1.4-0.1c-0.1-0.3,0.7-0.9,0.1-1c0.1,0.5-0.1,0.2-0.5,0.4
				c0-0.5,0.3-0.2-0.4-0.5c-0.1,0.3-0.1,0.4-0.5,0.6c-0.1-0.6-0.8,0.2-1.2-0.4c1.2-0.1,2.2-0.6,3.5-0.1c-0.5-0.6,0.9-0.2,0.8-0.9
				c-0.2-0.2-0.3-0.1-0.5-0.3c-0.2,0.6-1,0.1-1.2-0.2c0.3,0.5-0.5,0.4-0.1,0.9c-0.3,0-0.6,0.2-0.8,0c-0.2-0.3,0.8,0.1,0.1-0.4
				c0.2-0.4,0.4,0.2,0.6-0.1c-0.2-0.2-0.1-0.3-0.3-0.4c-0.6,0.5-0.8,0.1-0.9-0.3c0,0.7-1.3,0.2-1.9,0.4c-0.2,0.3,0,0.2,0.3,0.4
				c-0.7,0.6-1.8,0-2.1,0.5c-0.4-0.2,0.1-0.4-0.1-0.6c0.5,0,1.1-0.1,1.6,0.1c0.2-0.2,0.2-0.4,0-0.7c-0.1,0.2-0.3,0.1-0.4,0
				c-0.1,0.1-0.1,0.2,0,0.3c-0.5-0.5-2.1-0.1-2.4,0.4c0.3-0.9-0.7-0.4-0.9-1.1c-0.2,0.1-0.3,0.1-0.5,0.1c-0.2,0.5,0.5,0.1,0.6,0.4
				c0.2,0.4-0.4,0.6-1,1.1c-0.4-0.5,0.4-0.5,0.4-0.8c-0.5-0.3-0.4,0-0.9,0.2c0.2,0.2,0,0.4,0.1,0.6c-0.2,0.1-0.5-0.3-0.7,0.1
				c0.4,0.4,0.9-0.3,1.3,0.3c0.5-0.3,1-0.6,1.5-0.5c0.2,0.2-0.5,0.1-0.6,0.1c-0.2,0.3,0.5,0.3,0.4,0c0.1,1.7-2.9,0.2-4.5,0.7
				c0.1,0.1,0.3,0.2,0.2,0.3c0.2,0.3,0.5-0.2,0.7,0.1c0,0.2-0.8,0.5-1,0.1c0.2,0.4-0.7,0.9-1,0.5c-0.1-0.1,0.6-0.3,0.8-0.1
				c-0.1-0.5,0.2-0.5,0.4-0.9c-0.4-0.2-0.3-0.3-0.8-0.5c0.7-0.2,1.1,0.2,2-0.4c-0.4-0.4,0-0.4-0.6-0.7c0,0.3,0.4,0.6-0.2,0.8
				c-0.7,0-1.3-0.2-2-0.1c0.2,0.2,0.3,0.4,0.2,0.5c0.3,0.1,0.6,0.1,0.9,0.1c0,0.2-0.4,0.4-0.6,0.5c-0.2-0.1-0.1-0.2,0-0.3
				c-0.6-0.2-0.2,0.5-0.8,0.3c0-0.3,0.2-0.5,0.1-0.8c-0.7,0.6-2.1-0.1-2.9,0.6c-0.1-0.2,0.1-0.4-0.3-0.6c-0.4,0.2-0.7-0.1-1.1,0.4
				c0.3,0.2,0.4,0.4,0.4,0.5c-0.5,0.2-0.9,0-1.4,0.3c-0.2-0.3,0.4-1,0.8-0.5c-0.2-0.3,0.2-0.5-0.1-0.8c-0.4,0.6-0.9,0.3-1.8,0.7
				c0.2,0.4,0.5-0.1,0.7,0.1c0,0.4-0.6,0-0.9,0.4c-0.2-0.1-0.1-0.3-0.3-0.4c-0.3,0.9-1.2-0.1-1.7,0.4c-0.3-0.6,0.8-0.4,0.8-0.8
				c-0.1-0.1-0.2,0-0.3,0.1c-0.4-0.2,0.3-0.3-0.2-0.5c-0.4,0.2-0.9-0.1-0.7,0.4c-0.4,0.4-0.7-0.2-1,0c-0.1-0.2,0.1-0.5,0.4-0.3
				c-0.1-0.6-1.3,0.4-1.4-0.4c-0.2,0.2-0.4,0.3-0.6,0.5c0.2,0.2,0.2,0.3,0.3,0.4c-0.4,0.2-0.4-0.1-0.6-0.4c-0.6,0.7-1.2,0-2.3-0.3
				c-0.6,0.5-1.9-0.3-2.8,0.1c0,0.4,0.4,0.1,0.7,0.3c-0.2,0.4-1.2,0.3-1.6,0.3c-0.2-0.4,0.6,0,0.5-0.4c-0.3-0.2-0.5-0.3-0.6-0.5
				c-0.2,0.2-0.7,0.7-1.1,1c-0.5,0.1-0.3-0.5-0.7-0.6c-0.2-0.1-1,0.4-0.9-0.1c-0.8,0.4-1.6,0.3-2.3,0.2c-0.5-0.3,0.4-0.5-0.1-0.8
				c-0.6,0.2,0.1,0.5-0.3,0.8c-0.5,0.2-0.5-0.4-0.8-0.7c-0.3,0.2-0.5-0.1-0.8,0c0.1-0.2,0-0.5-0.4-0.7c0,0.1-0.1,0.4-0.3,0.2
				c-0.2,0.2,0.3,0,0.4,0.4c-0.3,0.3-0.5,0-0.8,0c-0.2,0.2,0.4,0.3,0.5,0.3c0,0.2-0.1,0.4-0.1,0.6c-0.4,0-0.4-0.3-0.6,0.1
				c-0.4-0.4,0.1-0.3,0.1-0.6c-0.4-0.2-0.4,0.2-0.5,0.4c-0.5,0.1-0.9-0.1-1.4-0.1c0-0.3,0.3-0.5,0.3-0.8c-0.4-0.1-0.8-0.8-1.4-0.6
				c-0.4-0.5-0.5-0.8-1.4-0.9c0.3,0.2,0.6,0.2,0.6,0.5c-0.3,0.2-0.6,0.1-0.9,0c-0.2,0.2,0.1,0.3-0.2,0.5c0.4,0,1.1,0.5,1.2,0
				c0,0.2,0.1,0.4-0.1,0.6c-0.3,0-0.2-0.5-0.7,0.1c-0.4-0.2,0.3-0.3-0.2-0.5c0.1,0.5-0.5,0.5-0.9,0.2c-0.3,0.3,0.1,0.4,0.4,0.4
				c-0.2,0.2-0.3,0.1-0.5,0.2c-0.1-0.2-0.7-0.4-0.5-0.6c-0.2-0.1-0.9,0.4-0.7-0.1c-0.3-0.2-0.5,0.7-1,0.5c-0.1-0.1,0.2-0.3,0.3-0.4
				c-0.5-0.1-1.4-0.6-1.6-0.1c-0.2,0.1-0.9-0.1-0.4-0.4c-0.9,0-2.1,0.5-2.4,1.5c-0.2,0-0.5-0.1-0.7,0.1c-0.4-0.3,0.4-0.6-0.2-0.9
				c0.5-0.3,0.5-0.1,0.8,0c0.5-0.3,0.6-0.5,0.2-0.8c-0.1,0.1,0,0.2,0.1,0.3c-0.3,0.1-0.6,0.3-0.9,0.1c-0.2-0.2,0.3,0,0.4-0.3
				c-0.2-0.4-0.6,0.2-0.8-0.2c-0.2,0.8-1.3,0.2-2-0.2c-0.3,0.3-0.6,0.9,0,0.9c-0.1-0.4,0.3-0.3,0.6-0.1c0.1,0.2-0.2,0.2-0.3,0.1
				c0.1,0.4,1.2,0.1,1.7,0.3c-1.6,0.5-4.1,0-6.1,0.3c-0.1-0.1,0.1-0.2,0.2-0.3c-0.3-0.1-0.5-0.2-0.8,0.1c-0.1-0.5-0.4-0.1-0.8-0.4
				c-0.3-0.2,0.7-0.4,0.1-0.6c-0.4,0.5-0.6,0.2-1.3,0c-0.3,0.4-0.7,0.7-1.2,0.1c-0.4,0.4-0.7,0.1-1,0.5c-1-1.2-3-0.4-4.8-1
				c0,0.4-0.4,0.7-0.6,0.1c-0.4,0.2-0.3,0.4-0.3,0.6c-0.1,0-0.3,0.1-0.4,0c0.1-0.3-0.1-0.5,0.3-0.8c-0.6-0.4-0.2,0.7-0.8,0.1
				c-0.2,0.6-0.4,0.4-0.9,0.4c-0.2-0.2,0.1-0.4,0.3-0.6c-1,0.4-2.4,0-3.2,1c-0.5,0.2-0.5-0.1-0.8-0.2c-0.3-0.3,0.3-0.5-0.1-0.8
				c-0.4,0.2-0.3,0.4-0.2,0.7c-0.5-0.1-0.4,0.2-0.8,0.3c-0.3-0.5,0.4-1,0.9-1c-0.2-0.1-0.1-0.3,0-0.2c-0.7-0.5-1.6-1.1-2.7-0.2
				c-0.4-0.2,0.5-0.4,0-0.7c-0.4,0.5-1.3-0.1-2-0.1c-0.2,0.1-0.1,0.3-0.3,0.4c0-0.1,0.1-0.3-0.1-0.4c-0.4,0-0.1,0.1-0.4,0.3
				c-0.1-0.1,0.1-0.2,0-0.3c-0.4-0.4-0.9-0.1-0.8,0.3c-0.1-0.1-0.2-0.1-0.3-0.1c-0.1-0.1,0.1-0.2,0.2-0.3c-0.9-0.1-2.4-0.7-3-0.1
				c-0.9-0.5-0.7,0.1-1.2-0.2c-0.5,0.6-0.9,0.5-1.6,0.9c0.2,0.2,0.5,0.1,0.7,0.3c-0.3,0.3-0.6-0.2-0.9,0.1c-0.1-0.1,0.1-0.2,0.2-0.3
				c-0.6-0.1-1.3-0.4-1.9-0.5c-0.1-0.1,0.1-0.2,0.2-0.3c-0.3,0-0.6-0.2-0.9,0.1c-0.4,0.9-2.3-0.4-3.3,0.1c1.2,0.2,2.3,0.3,3.5,0.6
				c-0.4,0.2-0.8,0-1.2,0c-0.2,0.4,0.5,0.1,0.7,0.3c-0.2,0.2-0.4,0.3-0.6,0.5c-0.2-0.1-0.1-0.3-0.3-0.4c-0.9,0.2-0.8,1-1.8,0.6
				c-0.1-0.3,0.7-0.3,0.9-0.6c0-0.2-0.3-0.4-0.1-0.6c-0.2,0.1-0.8,1.1-1.5,0.7c-0.1-0.2,0-0.3,0.2-0.5c-0.4-0.3-0.8,0.7-1.4,0.5
				c-0.4-0.2,0.3-0.4-0.2-0.7c-0.1,0.1-0.1,0.1,0,0.2c0,0.2-0.5,0-0.4,0.5c-0.2-0.1-0.8-0.2-0.7,0.2c-0.2-0.1-0.5,0.1-0.7-0.1
				c0-0.3,0.7-0.6,0.6-0.9c-0.3,0.1-0.6,0.2-0.9,0.4c-0.3-0.2,0-0.3-0.4-0.5c-0.6,0.1-1.2,0-1.8-0.1c-0.2-0.2,0.4-0.1,0.5-0.4
				c-0.8-0.3-1,0.9-1.7,0.2c-0.2,0.1-0.4,0.5-0.6,0.3c-0.2,0.2,0.3,0,0.4,0.4c-0.1,0.1-0.2,0.2-0.3,0.2c-0.6-0.3-1.2,0-1.8-0.4
				c0-0.4,0.8-0.5,1.1,0c0.3-0.2,0.6-0.3,0.8-0.3c-0.3,0-1.1-0.6-1.6-0.1c-0.4-0.3,0.1-0.5-0.3-0.8c-0.4,0.6-1.6,0.5-2.5,0.5
				c-0.2-0.3,0.3-0.1,0.4-0.3c-0.4,0-0.2-0.3-0.6-0.5c-0.5,0.2-1.1,0-1.6,0.3c-0.7-0.6-0.7,0.1-1.8,0.6c0.4,0,0.9-0.2,1.3,0
				c0.2-0.1,0.1-0.2,0-0.3c0.3-0.1,0.5-0.1,0.8,0c0.2,0.2-0.3,0.2-0.4,0.2c0.1,0.3,1.1,1.1,1.6,0.6c0.3,0.5,1.4,0.5,2.1,0.3
				c0.2,0.3,0.1,0.5,0.5,0.1c1,0.6,2,0.8,3.1,0.5c0,0.6,1.1,0.2,0.8,0.7c0.2-0.2,0.5-0.1,0.9-0.2c-0.2-0.2-0.3-0.1-0.5-0.3
				c0.2-0.1,0.4-0.1,0.6-0.1c0.1,0.1,0.1,0.3-0.1,0.4c0.3,0.3,0.5,0.1,0.8,0.4c0.2-0.1,0.1-0.2,0.2-0.3c0.2,0.3,0.4,0.5,0.7,0.1
				c0.2,0.1,0.3,0.4,0.5,0.3c0.3,0.2-0.5,0.3,0,0.5c0.4-0.6,2.1-0.3,2.5,0.2c0.4,0.2,0.1-0.3,0.4-0.3c0.1,0,0.2,0,0.3-0.1
				c0.4,0.2,0.1,0.4,0.5,0.6c0.7-0.5,2,0,2.9,0.2c0.3-0.3,0.5-0.2,0.7-0.4c-0.5-0.4-0.4,0.3-0.9,0c0.3-0.3,0.2-0.2-0.1-0.6
				c0.7-0.5,1.2-0.2,1.4,0.2c-0.3,0.3-0.5-0.4-0.8,0c0.4,0,0.6,0.5,0.3,0.8c0.6,0,1.3,0.3,1.9,0.3c-0.2,0.5-0.1,0.3,0.4,0.5
				c-0.3,0.1-0.7,0-1-0.4c-0.2,0.2,0.2,0.3,0,0.5c0.4-0.1,0.7,0.2,1.1,0.1c0.3-0.2-0.1-0.5-0.4-0.7c0.6-0.1,1.1,0.2,1.7-0.2
				c0.1-0.2-0.1-0.5,0-0.7c0.6-0.1,0,0.4,0.5,0.6c0.1,0.2-0.2,0.1-0.3,0.2c0.6,0.6,1.9,0.3,2.6,0.9c0.8-0.5,1.6-0.1,2.4-0.1
				c0.3,0.4-0.6,0.4-0.6,0.8c0.6,0.4,0.8-0.5,0.9,0.3c0.2-0.3,0.2-0.6,0-0.8c0.7-0.2,1.4-0.1,2.1,0.2c0.2-0.6,0.9-0.4,1.4-0.3
				c0.1,0.1-0.1,0.2-0.2,0.3c-0.2,0.1-0.3-0.2-0.5-0.3c-0.1,0.1-0.2,0.2-0.1,0.3c-0.1,0.1-0.1,0.1-0.2,0.2c0.4,0.2,0.8-0.3,1.1,0.3
				c-0.2,0.2-0.5,0-0.7,0.1c-0.1,0.5,0.6,0.2,0.8,0.4c-0.7,0.7,0.8,0.2,1.3,0.5c0-0.3,0.1-0.7,0.5-0.7c-0.3,0.4,0.2,0.4,0.3,0.9
				c0.1-0.1,0.2-0.1,0.3-0.1c-0.2-0.5,0.5-0.4,0.7-0.8c0.3,0.1,1.1,0.6,1.7,0.1c0.4,0.2,0,0.5,0,0.7c0.6,0.2,1.1,0.3,1.4,0.6
				c0.1-0.1,0.3-0.2,0.4-0.3c-0.1-0.1-0.3-0.2-0.4-0.4c-0.4,0.5-0.7-0.1-1.1-0.1c0.5-0.3,0.9,0.2,1.4-0.1c-0.1,1,1.1,0.5,1.9,1
				c-0.3-0.1-0.6,0.1-0.9-0.1c0,0.4,0.8,0.3,1.1,0.3c0.1-0.2,0.1-0.5,0.2-0.7c0.6-0.1,0.3,0.5,0.5,0.6c0.1-0.2,0.3-0.1,0.4,0
				c0-0.5,0.5-0.5,1,0c-0.3-0.6,0.2-0.2,0.6-0.7c0.6,0.5-0.7,0.4,0,0.8c0.2-0.6,0.6-0.4,0.9-0.8c0.5,0.4-0.6,0.4-0.4,0.7
				c0.5,0,0.6,0,0.9-0.4c0.4,0.4-0.3,0.2-0.2,0.5c0.9,0.6,1.2-0.1,2-0.3c0.2,0.2,0.1,0.4,0.5,0.6c0.5-0.4,0.9,0,1.3-0.2
				c0.1,0.2-0.1,0.4,0,0.7c-0.1,0.2-0.3,0.1-0.4,0.2c-0.3-0.2,0-0.3,0-0.5c-0.6,0.1-0.8,0.4-1.5,0.2c0.4,0.2,0.8,0.5,1.3,0.3
				c0.3,0.3-0.5,0-0.2,0.3c-0.5-0.2-0.9-0.1-1.4-0.2c-0.1,0.1,0.1,0.2,0,0.3c-0.4,0.2-0.1-0.3-0.5-0.4c-0.2,0.1-0.3,0.1-0.5,0.1
				c-0.1,1.1-1-0.3-1.5,0.4c-0.4-0.2,0.1-0.5-0.4-0.5c-0.3,0.3,0.1,0.7-0.3,1c0.3,0.3,0.5,0,0.8,0.2c0.1-0.1-0.1-0.2-0.2-0.3
				c0.4-0.3,0.7,0,1,0c0,0.3-0.3,0.1-0.4,0.5c-0.4,0-0.8-0.1-1.2,0.1c-0.4-0.2,0.1-0.5-0.4-0.5c-0.7,1.2-2.9,0.2-4.1,0.3
				c-0.1-0.2,0.4-0.4,0.2-0.7c1.2,0.2,2.4,0.5,3.6,0.5c0.2-0.3-0.4-0.3-0.6,0c-0.3-0.3-0.7-0.2-0.3-0.6c-0.3,0.1-0.7,0.1-1,0.1
				c-0.1-0.2,0.3-0.4-0.2-0.7c-0.3,0.5-0.4,0.3-0.9,0.2c-0.4-0.2,0.1-0.4-0.3-0.6c-0.7-0.2-1.6,0.1-2,0.4c0-0.1-0.2-0.3-0.1-0.4
				c0.3-0.2,0,0.4,0.4,0c-0.6-0.4-1.2-0.1-1.8-0.4c-0.2,0.2-0.5,0.4-0.7,0.6c-0.2-0.2-0.2-0.5-0.6-0.7c-0.4,0.6,0.2,0.6,0.4,0.9
				c-0.4,0.3-0.7-0.6-1.1-0.1c-0.5-0.4,0.4-0.7-0.1-1c-0.1,0.1,0,0.2,0.1,0.3c-0.8,0.3-1.5,0-2.3-0.2c-0.4,0.4,0.2,0.7,0.6,0.7
				c-0.4,0.1-0.8,0.9-1.1,0.5c-0.2-0.3,0.4-0.1,0.3-0.4c-0.2-0.4-0.4,0.2-0.6-0.2c-0.2,0.3,0,0.4-0.5,0.6c-0.2-0.2-0.2-0.3,0-0.5
				c-0.5-0.4-0.5,0.7-1,0.3c-0.1-0.3,0.6-0.5,0.1-0.8c-0.4,0.2-0.3,0.4-0.5,0.6c-0.1,0-0.3,0.1-0.4,0c0-0.3,0.6-0.3,0.4-0.7
				c-0.5,0-0.4-0.2-0.9-0.6c-0.9-0.3-1.9,0.1-2.6,0.1c0.6-0.6-1.6-0.4-2.3-0.7c0.1-0.4,0.9,0.1,1.3-0.4c-0.8-0.4-1.6,0.4-2.1-0.2
				c-0.1,0.1,0.1,0.2,0.2,0.3c-0.3,0.4-0.5,0-0.8,0.3c-0.7-0.9-1.7-0.1-2.2-0.8c-0.9,0.4-1.5-0.1-2.2,0.4c0.4,0,0.1,0.1,0.4,0.4
				c-1.1,0.5-1.4-0.5-1.4-1.2c-0.3,0.3-0.1,0.7-0.3,1c-0.4-0.1-0.9-0.1-1.3-0.3c-0.1-0.2,0.5-0.2,0.7-0.4c0.1,0.2-1.5-0.4-1.8-0.2
				c-0.2-0.1-0.2-0.5,0-0.3c0-0.4-0.4,0-0.6,0c-0.1,0.1,0.1,0.2,0.2,0.3c-0.8,0-2.1-1.1-3.2-0.6c-0.2-0.1-0.3-0.3-0.5-0.4
				c-0.2,0.2-0.4-0.1-0.6,0.1c-0.8-0.9-1.7-0.1-2.6-0.9c-0.9,0.4-1.8,0-2.7-0.5c0.6-0.2,0.6-0.4,1-0.6c-1,0-2,0.5-2.5,0
				c0,0.7-0.7,1-0.5,1.8c-0.5-0.1-1-0.4-1.5-0.5c0,0.8,1.8,0.3,1.7,1.3c-0.2,0.2-0.4-0.3-0.6-0.4c-0.1,0.5-0.8,0-1.2,0.5
				c0.1-0.3,0.1-0.6-0.4-0.9c0,0.4-0.3,0.5-0.7,0.7c-0.3-0.3-0.9-0.8-0.9-0.3c-0.4-0.2-0.1-0.5-0.6-0.5c-0.2-0.3,0-0.2,0.3-0.4
				c-0.4-0.1-0.9-0.2-1.3,0c-0.3-0.3,0.4-0.6,0-0.8c-0.2,0.1-0.4,0.8-0.7,0.4c-0.1,0.2-0.3,0.4,0.1,0.6c-0.6,0.2-0.5,0.1-0.7,0.6
				c-0.2,0.3-0.4-0.5-0.6-0.2c-0.5,0.3,0.2,0.3,0.4,0.5c-0.3,0.1-0.5-0.2-0.8,0c-0.2-0.2,0.4-0.4,0-0.7c-0.1,0.4-0.7,0.1-0.5-0.1
				c-0.6,0.6-1.7,0.3-2.5-0.3c0,0.2-0.3,0.4-0.3,0.6c0.4,0.2,0.2,0.2,0.6,0.5c0.3-0.1,0.1-0.3-0.1-0.4c0.8-0.1,1.7,0.4,2.5,0.7
				c-0.7,0.3-1.4-0.4-2.1-0.2c0.4,0.1,0.7,0.2,1.1,0.5c-0.4,0.2-0.8-0.3-1.2,0.3c-0.2-0.2,0.2-0.4-0.2-0.7c-0.2,0.2-0.3,0.1-0.5,0.2
				c-0.3-0.1,0-0.3,0.1-0.4c-0.2-0.2-0.4,0.1-0.6-0.2c-0.1,0.5-0.8,0.2-0.8,0.6c-0.5-0.3,0-0.6-0.4-0.9c-0.4,0.2-1.3-0.1-1.4-0.4
				c-0.6,0.3-0.6-0.2-1.2,0c-0.2-0.3,0.3-0.1,0.4-0.3c-0.6-0.4-1.1,0-1.7-0.3c-0.2,0.3-0.3,0.3-0.3,0.8c-0.3-0.1-1,0-1,0.5
				c-0.4-0.2,0.3-0.3-0.2-0.5c-0.3-0.1-0.6,0.2-0.9-0.1c-0.4,0.2-0.1,0.4-0.5,0.4c-0.3-0.3,0.5-0.5,0.4-0.8c0.2-0.2,0.4,0.6,0.7,0.1
				c-0.1-0.4-0.9-0.4-1.3-0.1c-0.4-0.2-0.1-0.3-0.4-0.5c-0.5,0.3-1.6,0.6-1.7,0.2c-0.2-0.1-0.2,0.1-0.1,0.3c-0.4,0-0.7,0.1-1.1-0.3
				c-0.3,0.3-0.5,0.1-0.7,0.4c0.4-0.3,0.8,0.6,1.3,0.1c0.3,0.4-0.2,0.6,0.6,0.9c-0.6,0.6-0.7-0.1-0.9-0.1c-0.4,0.4,0.4,0.3,0.4,0.7
				c0.2-0.3,0.4-0.3,0.6,0c0.3-0.3,0.5-0.1,0.5-0.4c-0.3-0.2-0.6,0-0.5-0.4c0.2-0.1,0.4,0.4,0.7,0.1c0.2,0.3-0.3,0.4,0.3,0.6
				c-0.2-0.6,0.4,0,0.8,0c0.1,0.1-0.1,0.6-0.3,0.4c0.3,0,0.9,0.6,1.4,0.4c0.3,0.7,1,0.3,1.3,1c0.5-0.1,0.5-0.5,1-0.5
				c0.1,0.1-0.2,0.3-0.3,0.4c0.4,0.6,0.9,0.2,1.3,0.5c0.2-0.2,0.1-0.3-0.2-0.3c0.3-0.4,0.7,0,0.7-0.4c0,0.1,0.1,0.5,0.4,0.4
				c0.2,0.3,0,0.2-0.3,0.4c0.5,0.3,1.1-0.1,1.6,0.6c0.2-0.9,0.7,0.4,1.2-0.3c-0.1,0.5,0.4,0.2,0.5,0.6c-0.4,0-0.7,0.1-1.1-0.3
				c-0.4,0.7-1.3,0.1-1.9-0.3c0,0.3-0.1,0.5-0.5,0.7c1-0.8,2.8,1.3,3.8-0.2c0.6,0.1,1.3,0,1.9,0.3c0.2-0.2,0.1-0.3-0.2-0.3
				c0.2-0.2,0.4-0.3,0.6-0.5c0.2,0,0.4,0,0.6,0.2c-0.3,0.3-0.6,0-0.9,0.4c0.3,0.2,0.6,0.2,0.9,0.5c0.1-0.1,0.3-0.2,0.4-0.3
				c0.2,0,0.3,0,0.5,0.1c0.2,0.2-0.1,0.4-0.3,0.6c0.7,0.2,0.4-0.8,1.2-0.5c0.1-0.1,0.1-0.3-0.1-0.4c0.2-0.1,0.4-0.2,0.6-0.1
				c-0.4,0.7,1.1,1,1.6,1.3c-0.6,0.2-2.1-0.4-2,0.3c-0.6,0-1.2-0.3-1.8-0.2c-0.1,0.5,0.7,0.2,1,0.4c-0.5,0.2-0.5,0-0.8,0.5
				c-0.2-0.7-0.6-0.1-0.8-0.9c-0.5,0.3-0.3,0.6-0.2,0.9c-0.4,0.1-0.4-0.4-0.6-0.5c-0.2,0.2-0.5,0.1-0.7,0.4C84,18,84.3,17.8,84,17.6
				c-0.5,0.4-0.3,0-0.7-0.1c-0.5,0.2-0.9,0-1.4,0.3c-0.4-0.2,0.1-0.4-0.1-0.6c0.5-0.1,1.4,0.3,1.3-0.4c-0.3-0.1-0.6,0.2-0.8,0.3
				c0-0.1,0-0.2-0.2-0.3c-0.5,0.4-0.6,0.4-0.9,0.1c-0.6,0.3,0,0.6-0.6,0.9c-0.1,0-0.2,0-0.3,0.1c-0.4-0.2,0-0.5,0-0.7
				c-0.2-0.4-0.5-0.1-0.8-0.4c-0.2,0.1-0.1,0.2,0,0.3c-0.6,0.2-1.2-0.6-1.8,0.1c-1.1-0.3-1.9,0-2.8-0.6c-0.4,0.4-0.7,0.1-1,0.1
				c-0.1,0.4,0,0.5-0.3,0.8c0.5,0.4,0.5,0.3,0.8,0.7c0.2-0.4,0.1-0.3,0.4-0.7c0.4-0.1,0.9,0.2,1.3-0.2c0.2,0.3-0.5,0.6-0.6,0.9
				c0.2,0.2,1,0,0.9,0.5c0.7,0.2,1.4-0.4,2,0.2c-0.4,0.2-0.8,0.1-1.2,0.3c0.3,0.1,0.5,0,0.8,0.4c0.1-0.4,0.2-0.4,0.4,0
				c0.8-0.6,1.5,0.4,2.3,0.2c0.4,0.2-0.1,0.3-0.2,0.5c0.2,0.3,0.5,0,0.8,0.2c-0.2-0.3-0.2-0.6-0.7-1c0-0.1,0-0.3,0.1-0.4
				c0.2,0,0.5,0.1,0.7,0.1c0.1,0.2-0.2,0.3,0.2,0.5c0.3-0.1,0.2-0.3,0.3-0.4c0.1-0.1,0.3,0.1,0.4,0c0.2,0.4-0.2,0.2-0.2,0.5
				c-0.3,0.2-0.6-0.3-0.9,0.1c3.1,0.5,6.2,0.6,9.3,1.3c0.2-0.7,1.2-0.3,1.4,0.2c0.2-0.4-0.1-0.7,0.2-1.1c0.6-0.2,0.5,0.5,1.1,0.3
				c0.1,0.1-0.1,0.2-0.2,0.3c0.5,0.1,1-0.3,1.5,0c-0.6,0.9,1.2,0.6,1.9,1.3c0.4-0.2,0-0.3-0.2-0.5c0.8,0.1,0.4,0.1,1.2,0.4
				c0.1-0.1-0.3-0.3-0.1-0.4c0.2-0.1,0.4,0,0.6,0.2c0-0.2,0.2-0.3,0.4-0.5c0.5-0.3,0.3,0.5,0.8,0c0.1,0.2,0,0.3-0.2,0.5
				c1.2,0.3,1,0.5,2.5,0.3c0.1,0.1,0.1,0.3-0.1,0.4c1-0.5,1.9,0.1,2.8-0.2c0,0.1,0.1,0.2,0,0.3c0.4,0,0.8-0.2,1.1-0.6
				c0.3,0.2,0.3,0.4,0,0.5c1.2-0.2,2.4,0.8,3.6,0c0.4,0.2-0.1,0.4,0.3,0.6c-0.2,0.2-0.4-0.1-0.6,0.1c0.9-0.1,2.2-0.6,3.3-0.1
				c0.2-0.4-0.8-0.3-0.2-0.7c0.5,0.4,0.9,0.7,1.4,0.6c0.3-0.5-0.4-0.1-0.7-0.3c0.4-0.4,0.7-0.1,1.1-0.2c0,0.3-0.1,0.6-0.2,0.8
				c1-0.1,1.8-0.7,2.9-0.3c0.1,0.1-0.1,0.2,0,0.3c0.2,0.2,0.3,0.1,0.5,0.3c0.4-0.3,0.2-0.3,0.6-0.5c0,0.2,0.1,0.3,0.4,0.5
				c0.5-0.2,1,0,1.5,0c0.2,0.2-0.3,0.3-0.4,0.2c0.4,0.5,1.2,0,1.5-0.5c0.5,0.2,0,0.5-0.2,0.7c0.7,0,1.4-0.7,2.1-0.3
				c0.2,0.1-0.3,0.5-0.4,0.2c0.1,0.4,0.5,0.5,1,0.5c-0.2,0-0.6,0.1-0.2,0.3c-0.2,0.1-0.4-0.2-0.6,0.1c0.3,0.3,0.7,0,1,0.2
				c-0.1-0.2,0.2-0.6,0.5-0.4c0.1-0.2-0.2-0.1-0.3-0.3c0.4-0.1,0.8-0.2,1.2-0.6c0.5,0.2-0.2,0.4,0.2,0.7c0.3-0.3,0.8-0.2,0.8-0.6
				c0.8,0.1,1.8,0.4,2.4,0.3c0-0.2-0.1-0.4,0.3-0.6c0.3,0.5-0.3,0.7,0.6,0.9c-0.3,0.3-0.5,0.1-0.8,0.1c0,0.4,0.9,0,1.3,0.1
				c0-0.1-0.1-0.3,0.1-0.4c0.3,0.2,0.5,0.1,0.8,0.5c0.4-0.2,0.1-0.4,0.5-0.6c0.3,0,0.5,0.8,1.1,0.1c0.3,0.2,0,0.3,0.4,0.5
				c-0.2,0.2-0.5,0.1-0.7,0.1c1.5,0.9,3.9,0.2,5.7,0.5c0,0.2-0.2,0.4-0.4,0.7c0.4,0.1,0.7-0.1,1.1,0.1c0.3-0.2,0.2-0.4,0.1-0.6
				c0.9,0,2.5,0.9,3.4-0.2c0.3,0.4-0.4,0.3-0.3,0.6c0.6,0,0.8,0,1.3,0.1c0.1-0.1,0-0.3,0.1-0.4c0.7-0.1,1.7,0.9,2.1,0.2
				c0.2,0.2,0.1,0.4,0.5,0.6c0.3-0.1,0.6-0.5,0.9,0c0.5-0.9,1.7,0.3,2.5-0.3c-0.1,0.2,0.4,0.4,0.2,0.5c0.5-0.2,1-0.5,1.5,0.1
				c0.2-0.2,0.4-0.3,0.6-0.3c0,0.1,0,0.2,0.2,0.3c0.1-0.3,0.7-0.2,0.4,0c0.3-0.2,0.9-0.2,1.4,0.1c-0.1-0.4,0.2-0.4,0.5-0.4
				c0.1,0.1-0.1,0.2-0.2,0.3c0.5,0.2,1,0,1.5,0.1c-0.4,0.4-0.5-0.1-0.7,0.4c0.3,0.1,0.6,0.2,0.9,0.1c0.1,0.1-0.2,0.3-0.3,0.4
				c-0.4,0-0.7-0.6-1.1-0.1c0.4-0.1,0.2,0.6,0.7,0.4c0.1,0.4-0.3,0.4-0.6,0.5c-0.2-0.2,0.1-0.4,0.1-0.6c-0.4-0.2-0.5,0.2-0.7,0.4
				c-0.3,0-0.7,0.1-1-0.2c0.7,0.1,0.6-0.5,1.1-0.4c0.2-0.3-0.6-0.2,0-0.5c0.4-0.3-0.1,0.5,0.3,0.3c0.5-0.3,0.1-0.2-0.2-0.5
				c0.1,0,0.3-0.1,0.4,0c-0.4-0.3-1.8,0.1-2.5-0.2c0.2,0.5-0.4,0.1-0.4,0.5c0.5,0,0.9,0,1.4-0.3c0.2,1.1-1.4,0.7-2,1
				c-0.7-0.5,0-0.8-0.4-1.3c-0.1,0.6-0.7-0.2-1,0.3c0.3-0.1,1.2,0.2,0.9,0.6c-0.5-0.6-0.5,0.3-1.3-0.1c-0.4-0.3,0.1-0.5-0.3-0.8
				c-0.2,0.1-0.4,0.3-0.5,0.4c0.1,0.1,0.3,0.2,0.2,0.3c-1,0.4-1.9,0.2-2.8,0.4c0.3,0.4,0.6,0.1,0.9,0.3c-0.6,0.3-1.6,0.5-1.8-0.2
				c0.3,0.1,0.5,0,0.8-0.3c0.1-0.3-0.5-0.1-0.3-0.4c-0.6,0.1-1.2,0.7-1.6-0.1c-0.3,0.3-0.5,0.1-0.7,0.1c0,0.1-0.2,0.3-0.1,0.4
				c-0.7-0.3-2,0.2-2.4-0.4c-0.4,0-0.9,0.2-1.3,0.2c0-0.1,0-0.3,0.1-0.4c-0.4-0.2-0.3,0.3-0.5,0.4c-0.4-0.3-0.1-0.6,0-0.8
				c-0.5-0.2-1,0-1.2-0.6c-0.1,0.3,0.2,0.7-0.3,1c0.6,0.3,0.3-0.7,1-0.3c0.1,0.3-0.1,0.5-0.4,0.7c-0.8,0.1-1.5-0.7-2.3-0.5
				c-0.3-0.5,0.3-0.3,0.6-0.5c-0.3-0.3-0.7,0-1,0.1c0,0.1,0,0.2,0.2,0.3c-0.3,0.1-0.4-0.2-0.4,0.2c-0.6-0.4-1.2,0.5-1.7-0.3
				c-0.1,0.4-0.9,0.4-1,0c-0.4,0.7-1.3,0.6-1.9,0.4c-0.2,0.1-0.1,0.2-0.2,0.3c-0.5-0.3-1.1-0.1-1.1-0.6c-0.2,0.2-0.5,0.4-0.7,0.6
				c-0.7-0.3,0.2-0.6-0.2-0.9c-0.5,0.3-0.9,0.2-1.3,0c-0.1,0.3-0.5,0.5-0.6,0.8c-0.3-0.3,0.5-0.7,0.1-1c0,0.8-1.3,0.7-1.9,0.4
				c-0.5,0.1-0.5,0.7-1,0.5c0-0.3,0.4-0.6-0.2-0.5c-0.1-0.3,0.2-0.5,0.5-0.7c-0.1-0.1-0.1-0.1-0.2,0c-0.1-0.1-0.1-0.1-0.2-0.2
				c-0.3,0.2-0.1,0.4-0.4,0.7c-0.5,0.2-0.4-0.4-1-0.7c-0.4,0.3-0.7-0.2-1.1,0c0.4,0.5,0.8,0.4,1.2,0.2c0,0.2,0.2,0.4,0.5,0.6
				c-0.4-0.1-0.4,0.3-0.9-0.1c-0.5,0.2,0.2,0.3-0.2,0.5c-0.4-0.4-1.4-0.4-2.1-0.5c-0.1,0.2,0.6,0.3,0.8,0.2c0.1,0.7-0.9,0.5-1.3,0.4
				c-0.3-0.4,0.7,0,0.4-0.3c-0.5-0.5-0.4,0.3-0.9,0.1c0.6-0.8-1.5,0.1-2.2-0.8c-0.2,0.3-1,0.5-1.6,0.9c0.1-0.7-1.6-0.1-1.8,0.1
				c-0.1-0.1-0.3-0.2-0.2-0.3c-0.2,0.3-0.6-0.1-1,0.3c-0.3-0.6-0.7,0-1.4,0.1c-0.1-0.2,0.1-0.4-0.3-0.6c-1.3,0.4-1.9,0-3.2,0.2
				c-0.1-0.2,0.1-0.4-0.3-0.4c-0.1,0.7-0.7,0.3-1-0.2c0.2,0.5-0.5,0.9-1,0.6c-0.2-0.4,0.6,0,0.5-0.4c-0.2-0.2-0.3-0.1-0.5-0.3
				c-0.2,0.2,0.1,0.4-0.3,0.4c-0.1-0.1,0.3-0.3,0.1-0.4c-0.6-0.2-0.8,0-0.8,0.3c-0.5,0.1,0-0.5-0.5-0.4c0,0.4-0.4,0.5-0.8,0.6
				c-0.2-0.5-0.3,0-0.7-0.4c0,0.4-0.5,0.3-0.8,0.1c0-0.2,0.2-0.1,0.1-0.4c-0.2,0.5-1.7-0.1-1.5,0.7c-0.4-0.3-0.8,0.5-1.1,0.2
				c-0.3-0.4,0.3-0.2,0.6-0.7c-0.4-0.2-0.7,0-1.1-0.1c-0.2,1.1-1.6,0.5-2,0.7c0-0.3,0.5-0.4,0.7-0.6c0.2,0.1,0.1,0.2,0,0.3
				c0.4,0.2,0.3-0.2,0.8-0.3c-0.7-0.1-0.8,0-1.4-0.7c-0.4,0.2,0,0.4-0.1,0.6c-0.6-0.6-2.9-0.1-3.8-0.3c-0.1,0.1-0.8,0.3-0.5,0.6
				c-0.5,0.4-1-0.4-1,0.3c-0.3-0.2,0.1-0.5,0-0.7c0.2-0.1,0.3,0.2,0.5,0.3c0.3-0.3-0.2-0.5,0.4-0.7c-0.5,0-0.6,0.2-1.2,0.5
				c0-0.1,0-0.2-0.2-0.3c-0.3,0.3,0.2,0.2,0.1,0.6c-0.3,0.1-0.6-0.2-0.9,0.2c1.5,0.5,3.1,0.6,4.6,0.7c0.4,0.2-0.3,0.3,0.2,0.5
				c0.4,0,0.3-0.2,0.5-0.4c0.4,0.4-0.3,0.7-0.7,1c-0.9-0.1-1.8-0.9-2.9-0.4c-0.3,0-0.6-0.4-0.9-0.3c0.3,0.4,0.2,0.3-0.4,0.2
				c-0.4,0.2,0,0.3-0.2,0.5c-0.7-0.7-0.9-0.2-1.6-0.2c-0.3-0.2,0-0.3-0.4-0.5c0,0.4-0.3,0.6-0.7,0.4c-0.3-0.2,0.5-0.3,0-0.5
				c-0.1,0.2-0.3,0.1-0.4,0c0,0.1-0.1,0.3-0.3,0.4c-0.9-0.2-1.3-0.3-2-0.8c-0.2,0.7-0.7-0.2-1.1,0.2c-0.2-0.3,0.4-0.1,0.5-0.4
				c-0.4,0-0.7,0.1-1.1-0.1c-0.2,0.1-0.4,0.5-0.6,0.3c0.1,0.4,0,0.4-0.5,0.7c0.8-0.1,1.1,0.5,1.7,0.1c0.4,0.4-0.3,0.3,0.1,0.6
				c0.4-0.2,0.5-0.5,0.3-0.8c0.2-0.1,0.5,0,0.7-0.2c0,0.6,0.7,0.3,1,0.2c0.2,0.4-0.4,0.3-0.5,0.7c0.4,0.1,0.4-0.1,0.6-0.3
				c0.1,0.1,0.4,0.5,1,0.5c0-0.2,0.4-0.4,0.6-0.7c0.1,0.3-0.1,0.6,0.4,0.9c0.3-0.2,0.5,0,0.8,0c-0.1,0.2,0.1,0.4,0.1,0.6
				c1.1-0.1,2.1,0.1,3.2,0.3c0.6-0.5,1.2,0.3,1.8-0.1c1,0.9,2.6-0.4,3.3,0.7c0.2-0.3,0.4-0.1,0.6-0.3c0.3,0.3,0.5,0.4,0.8,0.5
				c-0.4,0.2-0.7-0.2-0.9,0.4c0.2-0.4-0.2-0.2-0.6-0.4c-0.3,0.4,0.1,0.3,0.4,0.4c-0.5,0.4-0.9,0.1-1.4,0.1c-0.2-0.2,0.5-0.3,0.6-0.1
				c-0.1-0.4-1.2,0-1.7-0.1c0.2,0.3,0.5-0.1,0.7,0.3c-0.9-0.1-1.3,0.3-2.1,0.3c-0.3-0.2,0.7-0.4,0.1-0.6c-0.1,0.1-0.3,0.2-0.4,0.3
				c-0.9-0.4-1.9-0.1-2.5,0.2c0.6-0.5-0.4-0.3-0.9-0.5c-0.1,0.2-0.3,0.4,0.1,0.4c-0.7,0.6-0.8-0.4-1.4,0.1c-0.3-0.3-0.1-0.5-0.1-0.8
				c-0.3-0.1-0.7,0.4-0.7,0.6c-0.4,0.2-1.2-0.6-1.3,0c-0.2,0-0.8-0.3-0.7-0.5c-0.4,0.4-1.5,0.5-2.4,0.1c0.5-0.2,0.5-0.1,0.9-0.6
				c-0.3-0.2-0.7-0.3-1-0.5c-0.3,0.1,0.3,0.6-0.1,0.4c-0.2,0.4,0.5,0,0.6,0c0.1,0.6-1.1,0.9-1.6,0.3c-0.7-0.1-1.4,1-2,0.4
				c-0.1,0.1-0.3,0.2-0.4,0.3c-0.3-0.2,0-0.3,0-0.5c-0.4-0.2-0.8,0.5-1.2,0.1c-0.2-0.3,0.4-0.2,0.5-0.4c-1.1,0.2-2.2,0.5-2.9-0.2
				c-0.3,0-0.7-0.1-1,0.3c0.2,0.1,0.3,0.3,0.1,0.4c-0.4-0.4-1.5,0.1-2.2-0.4c0.2-0.2,0.5-0.4,0.7-0.2c-0.2-0.3-1.3-0.3-1.8-0.4
				c-0.5,0.4,0.3,0,0.5,0.4c-0.4,0.3-0.7,0-1,0.3c0.1,0.1,0.1,0.3-0.1,0.4c0.3,0.2,0.4,0,0.4,0.4c-0.1,0-0.3,0-0.4,0.2
				c-0.5-0.7-0.6-0.5-1.3-0.8c0.4-0.4,0.7,0.3,1-0.1c-0.2-0.3-0.5-0.1-0.7-0.4c0.2,0.3-0.7,0.6-1.1,0.6c-0.1-0.1,0.1-0.2,0.2-0.3
				c-0.2-0.4-0.5-0.1-0.8-0.4c-0.2,0.2,0.3,0.3,0.2,0.5c-0.7,0.3-1.4-0.2-2.1,0c0,0.4,0.5-0.1,0.8,0.2c0.1,0.1,0,0.2,0.1,0.3
				c-0.5-0.2-0.7,0.1-1.2,0.3c0,0.5,0.5,0.3,0.7-0.1c0.5,0.2-0.5,0.5,0.2,0.5C64.5,32,63.8,32.1,64.3,32.5z M102.4,38.1
				c0.4-0.3,0.7,0,1.1,0.1C103.1,38.5,102.7,38.3,102.4,38.1z M133,42.3c-0.3,0.4-1,0-0.5,0.6c-0.6,0.2-1.1,0.1-1.7-0.2
				c0.3-0.3,0.3-0.1,0.6-0.7c0.2,0.1,0.3,0.4,0.5,0.3c0.1-0.1-0.1-0.2,0-0.3C132.2,42.2,132.6,41.8,133,42.3z M361.7,20.4
				c0.4-0.2,0.3-0.6,0.7-0.2C362.5,20.5,362,20.7,361.7,20.4z M361.4,11.3c0.6-0.2,0.7-0.3,1.3-0.8c0.2,0.4,0.5,0.2,0.7-0.1
				c0.3,0.4,0.4,0.4,0.6,0.9c0.5-0.3,0.2-0.7,0.1-1c0.8,0.2,0.7,1,0.2,1.5c-0.7-0.6-1.4,0.5-2.1,0.2c-0.3-0.4,0.4-0.2,0.2-0.5
				C362,11.6,361.4,11.6,361.4,11.3z M299,14.2c-0.4,0.3-0.7-0.1-1.1,0C298.3,13.9,298.6,14,299,14.2z M267.3,15
				c-0.2-0.3-0.8-0.2-0.7-0.6C266.9,14.8,267.7,14.5,267.3,15z M243.4,14.3c0.3,0.1,0.6-0.2,0.8,0.2C244,14.7,243.2,14.6,243.4,14.3
				z M103,9.4c-0.4,0-0.9,0-1.3-0.3C102.1,9.1,103,8.9,103,9.4z M111.3,15.2c0,0.4-1.8,0.2-1.5-0.3
				C110.2,15.3,110.8,14.7,111.3,15.2z M75.9,12.7c0.1-0.1,0.1-0.3,0.3-0.4c0.2,0.2,0.3,0.1,0.5,0.3C76.5,12.8,76.2,13,75.9,12.7z
				 M122.2,27.4c-0.9,0-1.3,0-2.1-0.2C120.8,27,121.5,27.1,122.2,27.4z M102.8,26.8c-0.3-0.1-1.1,0-1.1-0.3
				C102,26.5,102.8,26.3,102.8,26.8z M92.8,25.8c0,0.1-0.4,0.7-0.6,0.3C92.1,25.9,92.7,25.6,92.8,25.8z M67.8,31.3
				c-0.2-0.1-0.1,0.1-0.3,0.2c-0.3-0.6-0.6,0.3-0.9-0.3C66.9,30.8,67.8,31,67.8,31.3z M81.8,34c-0.3,0-0.6,0.3-0.8,0
				C81.5,33.5,81.8,33.9,81.8,34z M95.6,37.2c0,0.3-0.7,0.3-1,0C94.9,36.8,95.2,37,95.6,37.2z M98.5,37.4c-0.4,0.2-1.2,0-1.2-0.4
				C97.7,37.2,98.1,36.9,98.5,37.4z M78.6,19.1c0.7,0.1,1.4-0.2,2,0.1C80,19.5,78.9,19.4,78.6,19.1z M107,43.5
				c-0.1,0.4-0.8,0.3-1.1,0C106.3,43.1,106.6,43.2,107,43.5z M94,31.5c-0.3,0-0.7,0.2-1,0C93.3,31.2,94.1,31.1,94,31.5z M78.7,17.5
				c-0.1-0.3-0.8,0.1-0.6-0.4C78.4,17.3,79,17,78.7,17.5z M79.4,17.3c0.2,0.5,0.3,0.1,0.7,0.3c-0.2,0.1,0.2,0.3,0.1,0.4
				c-0.5-0.1-0.3-0.4-0.8,0c-0.1-0.1-0.2-0.2-0.3-0.3C79.2,17.6,79.1,17.4,79.4,17.3z M81.3,18.5c-0.3,0-0.7,0.3-1,0
				C80.6,18,80.9,18.2,81.3,18.5z M93.7,27.4c0.2-0.1,0.4-0.2,0.6-0.1c-0.5,0.3-0.2,1.1-0.8,0.8C93.3,27.7,94,27.7,93.7,27.4z
				 M84.4,18.3c-0.1,0.1-0.3,0.2-0.4,0.3c-0.1-0.1-0.2-0.2-0.3-0.3C83.9,18.1,84.2,18.3,84.4,18.3z M78.5,12.9
				c-0.1-0.6-0.4,0-0.8-0.2C77.7,12.2,79.2,12.5,78.5,12.9z M95.9,27.3c0.6,0.4,1.5-0.4,1.8,0.4c0.1-0.5,0.8-0.5,1.1-0.2
				c-1,0.1-0.8,0.7-1.8,1c-0.4-0.7-0.4,0.1-0.6-0.5c-0.5,0.1-1.6,0.4-1.7,0c0.1,0.1,0.6,0,0.4-0.2c-0.3,0.1-0.7,0-1-0.2
				c0.3-0.3,0.5-0.1,0.8,0.2C95.3,27.7,95.8,27.8,95.9,27.3z M106.4,37.9c0,0.4-0.6,0.3-0.9,0.2C105.5,37.8,106.1,37.7,106.4,37.9z
				 M93.7,26.1c0.1,0.1,0.3,0.2,0.4,0.4c-0.2,0.2-0.4,0.3-0.6,0.1C94,26.4,93.3,26.2,93.7,26.1z M82,13.8c-0.3,0.4-0.6-0.4-0.9,0.1
				c-0.3-0.2,0.1-0.6-0.5-0.6C81.4,12.7,81.4,13.7,82,13.8z M87.7,18.9c-0.3,0.2-0.6,0.6-0.9,0.2C87.1,19.1,87.4,18.6,87.7,18.9z
				 M83.8,15.5c-0.3-0.5,0.7-1.1,1.1-0.7c0,0.3-0.3,0.5-0.5,0.6C84.5,14.9,84.1,15.2,83.8,15.5z M102,28.9c0-0.4-0.4-0.2-0.6,0.1
				c-0.3,0-0.4-0.1-0.4-0.4c-0.7,0.4-1.4-0.2-2.1,0.2c-0.3-0.2,0.1-0.7-0.5-0.3c-0.3-0.3-0.3-0.9,0.2-0.7c-0.1,0.1-0.2,0.2,0,0.3
				c0.1-1,1.3-0.6,2-0.9c0.2,0.1,0.3,0.3,0.5,0.4c0.4,0,0.8-0.5,1.2-0.1c-0.2,0.5-1.1,0.6-1.6,0.4c0.1,0.1-0.1,0.1-0.2,0.2
				c0.3,0,0.7,0.4,1,0.4c0.5-0.5,1.1-0.8,1.5-0.4C102.2,28.3,102.4,28.7,102,28.9z M88.4,18.7c0.2-0.2-0.2-0.4,0-0.5
				c0.2,0.4,0.4-0.2,0.6,0.2c-0.3,0.3-0.2,0.6-0.6,0.8c-0.1-0.1-0.2-0.2-0.3-0.3C88.2,18.8,88.3,18.7,88.4,18.7z M117.1,44.5
				c0.1,0.3-0.6,0.6-0.7,0.2C116.6,44.6,116.9,44.1,117.1,44.5z M112.6,38.7c-0.3,0.6-1.3-0.2-0.9-0.1
				C112,38.7,112.3,38.3,112.6,38.7z M87.5,15.5c-0.1,0.1-0.3,0.2-0.4,0.3c-0.1-0.1-0.3-0.2-0.2-0.3C87.1,15.6,87.1,15.1,87.5,15.5z
				 M91.2,17.5c-0.2,0.1-0.1,0.3,0.1,0.4c-0.2,0.1-0.3,0.3-0.5,0.4c-0.3-0.1-0.6-0.3-0.9-0.5C90.3,17.8,90.7,17.6,91.2,17.5z
				 M87.7,15.3c0.2-0.2,0.1-0.5,0.1-0.8c0.2,0.2,0.4-0.1,0.6,0.2c-0.8,0.6,0.7,0.3,0.5,0.8c-0.4-0.3-1.3,0.3-1.4-0.4
				C87.5,15.2,87.6,15.3,87.7,15.3z M92.9,18.7c-0.1-0.6-0.7-0.1-1.1-0.3C92.1,17.7,93.2,18.1,92.9,18.7z M93.7,18.9
				c0.4,0.1,0.1,0.5,0.4,0.4c0.2-0.2-0.1-0.4,0.1-0.6c0.1,0.1,0.3,0.2,0.4,0.4c-0.2,0.1-0.4,0.3-0.1,0.4c-0.2,0.2-0.5,0.4-0.7,0.2
				c0.1-0.1,0.2-0.2,0-0.3c-0.4,0.2-0.1,0.3-0.4,0.5C92.9,19.5,93.6,19.2,93.7,18.9z M96.4,21.3c-0.5,0.3-0.9,0.3-1.3-0.1
				C95.6,20.9,96,21,96.4,21.3z M89.2,15.3c0.5-0.2,1,0.4,1.5,0.1c-0.4,0.3-0.7,0.3-1.3,0.2C89.5,15.5,89.3,15.4,89.2,15.3z
				 M104.6,28.1c-0.1,0.1-0.3,0.2-0.4,0.3c-0.2-0.4-0.5-0.4-0.8,0c-0.1-0.1-0.2-0.2-0.3-0.3C103.6,27.8,104.1,28,104.6,28.1z
				 M91.4,16c-0.3-0.2-0.6,0-0.9-0.3C90.7,15.5,91.5,15.7,91.4,16z M117.6,39.4c-0.5,0.2-1.1-0.2-1.6-0.1
				C116.2,38.8,117.1,39.2,117.6,39.4z M89.3,13.6c-0.1-0.2,0.2-0.4,0.3-0.6c0.3-0.1,0.5-0.1,0.8,0c0.1,0.3-0.1,0.5-0.1,0.8
				c0.5-0.6,1-0.4,1.4-0.5c0.4,0.6,0.8,0.5,1.5,0.8c-0.3,0.4-1.4,0-2-0.1c0.2,0.1,0.2,0.3,0.1,0.4c-0.6,0-0.8-0.2-0.5-0.4
				c-0.5,0.1-1.9,0.3-2.3-0.5C89,13.8,88.8,13.5,89.3,13.6z M94.4,17.8c-0.2,0.4-0.4,0.7-0.9,0.4C94.1,18.2,93.7,17.7,94.4,17.8z
				 M90.6,14.7c0.2,0.1,0.5,0,0.7,0.3C91,15.2,90.3,15,90.6,14.7z M106,28.2c0.2,0.1,0.3,0.1,0.5-0.1c0.2,0.1,0.3,0.3,0.5,0.4
				c0.7-0.4,0.9,0,1.6-0.3c-0.2,0.2,0.1,0.3-0.2,0.5c-0.4-0.3-0.8-0.2-1.2,0c0.1,0.3,0.2,0.6-0.2,0.8c-0.3-0.1-0.6-0.2-0.9-0.5
				c0.3-0.3,0.6,0,0.9-0.4C106.8,28.3,106.1,28.5,106,28.2z M106.3,28.6c-0.3,0.2-0.7,0.2-1-0.2C105.6,28.2,106,28.5,106.3,28.6z
				 M93.2,15.4c0.4,0.2-0.3,0.3,0.2,0.5c-0.3,0.2-0.5,0.2-0.8,0C92.6,15.7,92.9,15.4,93.2,15.4z M121.8,41.8
				c-0.3,0.2-0.6,0.4-0.8,0.1C121.3,41.7,121.5,41.7,121.8,41.8z M92.6,14.7c0.2,0.1,0.1,0.3,0.3,0.4c-0.2,0.2-0.5,0.1-0.7-0.1
				C92.4,15,92.5,14.8,92.6,14.7z M101.2,21.4c0.2,0.1,0.3,0.3,0.3,0.4c-0.4,0.1-0.9,0.3-1.3-0.1C100.6,21.4,100.9,21.8,101.2,21.4z
				 M94.3,15.6c0.5,0.3,1.1-0.1,1.6,0.2c-0.5-0.1-1.1,0.5-1.6,0.1C94.4,15.8,94.2,15.7,94.3,15.6z M96.6,17.5
				c0.1-0.1,0.3-0.2,0.4-0.3c0.1,0.2,0.3,0.4,0.3,0.6C97.1,17.5,96.8,17.9,96.6,17.5z M93.9,14.6c0.1-0.2-0.6-0.5-0.2-0.7
				c0.5,0,0,0.4,0.5,0.6c-0.2,0.1-0.3,0.3-0.5,0.4c-0.1-0.2-0.7-0.1-0.5-0.4C93.4,14.4,93.6,14.6,93.9,14.6z M109.7,28.7
				c-0.4-0.2-0.4,0.3-0.9,0.1C109.1,28.4,109.8,28.3,109.7,28.7z M99.3,17.9c-0.4,0-0.7,0.2-1.1,0C98.6,17.5,99,17.8,99.3,17.9z
				 M126.1,42.4c-0.2,0.1-0.5,0.3-0.7,0.1C125.4,42.1,125.8,42,126.1,42.4z M102.2,19.7c-0.4-0.1-0.7,0-1.1-0.3
				C101.5,19.1,102.3,19.4,102.2,19.7z M111.9,28.8c0.5,0,0.9,0.1,1.4,0.2C112.9,29.4,111.7,29.4,111.9,28.8z M97.9,12.6
				c-0.4,0.3,0,0.1,0.2,0.3c-0.3,0.3-0.5-0.2-0.7,0.1c0.3,0.5,0.7,0.3,1,0.5c0.1,0.2,0.4,0.7-0.1,0.6c0.2-0.3-0.4-0.1-0.5-0.4
				c-0.4,0.5-0.8-0.1-1.2,0.1c-0.3-0.4-0.5-0.5-1-0.5c-0.2,0.1,0.2,0.3,0.1,0.4c-0.9-0.5-0.3-0.8,0.1-1.5c0.2,0.1,0,0.3,0.1,0.4
				c0.2-0.1,0.3,0.2,0.5,0.1c-0.2-0.1-0.3-0.3-0.3-0.4c0.4-0.3,0.6,0,0.5-0.4c0.2,0,0.5-0.1,0.7,0.3c-0.1,0.2-0.4,0.1-0.3,0.2
				C97.2,12.4,97.6,12.5,97.9,12.6z M100.8,15.6c0-0.3,0.3-0.2,0.6-0.3c0.2,0.5,0.7,0.2,1.2,0.4c-0.5,0.5,0.4,0,0.6,0.5
				c-0.4,0.2-0.9-0.2-1.3-0.1c-0.8,0.5-0.6,1.5-1.5,1.1C101,17,101.7,16,100.8,15.6z M129.5,42c0.1,0.2-0.5,0.4-0.1,0.6
				c0.6-0.2,0.3-0.5,0.5-0.7c0.2,0.2,0.3,0.1,0.5,0.3c-0.3,0.6-0.7,0.8-1.1,1.3c-0.7-0.7-0.8-0.6-1.6-0.9
				C128.2,42.3,128.8,41.9,129.5,42z M114.3,28.9c-0.2,0.3-0.5,0.4-0.9,0.2C113.7,29,114,28.9,114.3,28.9z M95.6,11.6
				c-0.2,0.2,0.2,0.3,0,0.5C95.1,12.2,95.2,11.5,95.6,11.6z M102.6,16.8c-0.3,0.2-0.6,0.4-0.8,0.6c-0.1-0.1-0.3,0-0.4-0.2
				C101.3,16.9,102.1,16.6,102.6,16.8z M115.1,29.1c0.3,0.2,0.5,0.1,0.3,0.4c-0.2-0.2-0.4,0.1-0.6-0.2
				C114.9,29.3,115,29.2,115.1,29.1z M108.6,22c0.5,0.4-0.4,0.6-0.7,0.4C108.1,22,108.3,22.3,108.6,22z M98.7,13.4
				c0.2,0,0.6,0.4,0.3,0.6C98.7,13.7,98.4,13.5,98.7,13.4z M115.8,28.6c-0.1,0.1-0.1,0.1,0,0.2c0.2-0.1,0.3-0.1,0.5-0.1
				c-0.3,0.3-0.7,0.3-1,0.1C115.4,28.7,115.6,28.5,115.8,28.6z M115.6,27c-0.3-0.3-0.7,0.3-1,0C114.8,26.7,115.6,26.5,115.6,27z
				 M95.6,8.1C95.4,8.4,96,8.2,95.9,8c0.3,0.2,0.1,0.4,0.1,0.6c-0.4-0.1-0.4,0.1-1,0C95.1,8.3,95.3,8.1,95.6,8.1z M136.4,42.8
				c-0.3,0.3-0.5,0-0.8,0C135.8,42.5,136.1,42.5,136.4,42.8z M114.8,22.4c-0.2,0.2-0.5,0.1-0.7-0.1C114.3,22,114.6,22.1,114.8,22.4z
				 M123.3,30.1c0.5,0.3-0.1,0.7-0.4,0.3C123.2,30.2,123,30.1,123.3,30.1z M116.5,22.9c0.5-0.3,1.4-0.2,1.5,0.3
				c-0.4-0.5-0.9,0-1.3,0C116.8,23,116.4,23.2,116.5,22.9z M141.5,43.4c-0.4,0.1-0.9,0.2-1.3-0.1C140.6,43.1,141.4,42.9,141.5,43.4z
				 M104.5,9.8c-0.2-0.1-0.9-0.2-0.8-0.5C103.9,9.2,104.6,9.5,104.5,9.8z M112.7,14.9c0.3,0.4,0.7,0.3,1,0.5
				c-0.4,0.3-0.7-0.2-1.1,0.4c-0.2-0.2-0.4,0-0.6-0.4C112.4,15.2,112.3,15.3,112.7,14.9z M126.6,27.2c0.4,0.3,0.5,0.5,0.1,0.8
				c-0.3-0.1-0.4-0.5-0.9-0.5C126.1,27.1,126.3,27.5,126.6,27.2z M111.7,10.8c-0.4,0.3-0.8,0.5-1.1,0.4
				C111,10.9,111.3,10.4,111.7,10.8z M119.9,18.9c-0.2,0.2-0.5,0.1-0.7-0.1C119.5,18.6,119.7,18.7,119.9,18.9z M117.1,15.6
				c-0.4,0.2-0.8,0.4-1.1,0C116.4,15.4,116.7,15.5,117.1,15.6z M119.6,17.2c0.5,0.4,1.1-0.1,1.6,0.1c-0.4,0.6-1,0.3-1.7,0.4
				c-0.1,0.1-0.1,0.3-0.3,0.1C119.2,17.5,119.3,17.4,119.6,17.2z M127.9,23.6c-0.5,0.3-1,0.3-1.5,0.2
				C126.9,23.5,127.4,23.6,127.9,23.6z M114.1,10.1c-0.3,0.2-0.5,0.1-0.8,0.1c0.2-0.3,0-0.6,0.2-0.8C113.9,9.6,113.7,9.9,114.1,10.1
				z M112.4,10.4c-0.1-0.4-0.4-0.3-0.8-0.5c0.7-0.1,1.3-1,1.6-0.3C112.7,9.7,112.7,10,112.4,10.4z M114.1,10.9
				c-0.2-0.4-0.9,0.1-0.8-0.4c0.4,0,0.7-0.1,1.1,0.3c-0.2,0.1-0.1,0.3,0.1,0.4c-0.3,0.2-0.7,0.2-1,0.1
				C113.6,11.2,114.3,11.2,114.1,10.9z M120.9,16.1c-0.3-0.2-0.5,0.1-0.8-0.2C120.3,15.6,121,15.8,120.9,16.1z M119.7,16
				c0.3-0.2-0.3-0.4,0.1-0.6C120.2,15.6,120.1,16.2,119.7,16z M121.9,17.7c0.3-0.3,0.5-0.2,0.8-0.3c0.2,0.4,0.5,0.3,0.8,0.4
				c-0.4,0.2-0.2,0.2-0.6,0.5c-0.2-0.3-0.3-0.5-0.7-0.1C122,18,121.9,17.8,121.9,17.7z M137.3,30.7c-0.3,0.4-0.7,0.2-0.7,0.6
				c-0.1-0.1-0.1-0.1-0.2-0.2c-0.1,0-0.1,0.1-0.2,0C136.4,30.7,136.9,30.4,137.3,30.7z M149.7,43.2c0.3,0.1,0.5-0.1,0.5,0.3
				C149.9,43.8,149.4,43.5,149.7,43.2z M115,10.5c-0.3,0-0.6-0.1-0.9-0.3C114.4,9.8,115.1,10.3,115,10.5z M135.3,27.7
				c-0.4,0.2-0.8,0.2-1.2,0C134.5,27.5,134.9,27.5,135.3,27.7z M118.9,11.2c-0.2-0.1-0.1,0.1-0.3,0.2c-0.4-0.1-0.4-0.6-1-0.2
				c-0.1,0.3,0.6,0.2,0.3,0.6c-0.4,0-0.6-0.2-0.8-0.5C117.7,10.9,118.8,10.7,118.9,11.2z M132.4,24.6c0.4,0.1,0.9-0.3,1.3,0.1
				c-0.4,0.3-0.7,0.2-1.1,0.4C132.3,24.9,132.2,24.7,132.4,24.6z M124.9,16.7c0.2,0,0.4,0.1,0.6,0.4C125.2,17.5,124.6,17,124.9,16.7
				z M120.4,11.4c-0.1,0.1-0.2,0.2-0.2,0.3c-0.2,0-0.4-0.1-0.6-0.4C119.9,11.1,120.2,11.2,120.4,11.4z M126.9,17
				c-0.3,0-0.6,0.5-0.9,0.2C126.3,16.9,126.6,16.8,126.9,17z M129.7,18.5c-0.4,0.4-0.5-0.1-0.7,0.4c-0.2-0.1-0.3-0.3-0.3-0.4
				C129.1,18.2,129.4,18.2,129.7,18.5z M127.5,18.3c0.4,0.4,0.8-0.3,1.2,0.2C128.3,18.9,127.5,18.7,127.5,18.3z M121.8,12.4
				c-0.3,0.4-0.5,0-0.8-0.2C121.3,12,121.5,12.4,121.8,12.4z M128.3,17.4c-0.3,0.3-0.5,0.1-0.8,0.1C127.5,17.1,128,17,128.3,17.4z
				 M129.5,16.7c-0.5,0.3-0.8,0.4-0.9,0.8c-0.4,0-0.2-0.3-0.4-0.5c0.3-0.3,0.5-0.2,0.8-0.3c-0.1-0.1-0.4-0.1-0.3-0.3
				c0.6-0.2,0.9,0.2,1.3,0.5c-0.1,0.1-0.1,0.3-0.3,0.4C129.4,17.1,129.6,16.9,129.5,16.7z M131,17.7c-0.7,0.3-1.4,0.2-2,0.1
				C129.1,17,130.3,17.4,131,17.7z M121.6,9.8c-0.5,0.1-1-0.1-1.5-0.1C120.6,9.5,121.1,9.4,121.6,9.8z M124.5,12.5
				c0,0.2-0.1,0.7-0.5,0.4C124,12.8,124.2,12.3,124.5,12.5z M123.9,10.5c0.5,0.2-0.4,0.4-0.1,0.6c0.3,0.2,0.6-0.3,0.8,0
				c-0.6,0.4-1.1,0.2-1.6,0.1C123.1,10.8,123.6,11,123.9,10.5z M131.7,18.8c0.7-0.5,1.3,0.3,1.1,0.8C132.5,19.2,132.6,19,131.7,18.8
				z M131.9,17.7c-0.2,0.1-0.4,0.3-0.5,0.4c-0.1-0.1-0.3-0.2-0.2-0.3C131.4,18,131.7,17.2,131.9,17.7z M128.1,13.4
				c0.3,0.2,0,0.4-0.1,0.6c-0.1-0.1-0.3,0-0.4-0.2C127.7,13.7,127.9,13.6,128.1,13.4z M126.5,11.4c0.2,0.3,0.2,0.6-0.2,0.9
				C125.9,12,126.1,11.5,126.5,11.4z M131.4,16.7c0.3-0.4,0.8,0.1,0.8,0.4C131.7,17.4,131.9,17,131.4,16.7z M128.2,11.4
				c0.2,0.2,0.3,0.3,0.5,0.3c-0.5,0.2-0.6-0.2-0.9,0.4c-0.1-0.5-0.5-0.1-0.9-0.5C127.3,11.3,127.7,11.7,128.2,11.4z M131,12.4
				c-0.6-0.6-1.8,0.1-2.1-0.5C129.5,11.9,131.1,11.4,131,12.4z M130.3,12.3c-0.2,0.2,0.1,0.3-0.2,0.5c-0.2-0.1-0.3-0.1-0.5-0.3
				C130.1,12.5,129.9,12.2,130.3,12.3z M133.9,12.2c0.2,0.3,0.5-0.1,0.7,0.3c-0.3,0.2-0.6,0.3-0.8,0.1
				C133.9,12.5,133.8,12.3,133.9,12.2z M142.6,18.1c-0.4,0-1.4,0.4-1.1-0.3C141.8,18.2,142.7,17.8,142.6,18.1z M152.4,27.3
				c0.5,0.2-0.1,0.8-0.4,0.5C152.3,27.7,152,27.5,152.4,27.3z M142.3,17.7c-0.2,0.2-0.5,0-0.7-0.1c0.3-0.1,0.3-0.7,0.5-0.6
				C142.1,17.2,142.3,17.5,142.3,17.7z M142.7,17c0.5,0.3,0,0.8-0.3,0.6C142.4,17.3,142.3,17.1,142.7,17z M138.8,12.8
				c0.3,0.5,0.6-0.1,0.9,0.3c-0.5,0.3-1,0.2-1.5,0.2C138.4,13.1,138.6,13,138.8,12.8z M142.7,16.3c-0.1,0.1-0.3,0.2-0.4,0.3
				c-0.1-0.1-0.2-0.2-0.3-0.3C142.3,16,142.5,16.2,142.7,16.3z M144.4,18c0.5-0.4,0.4,0.3,1,0.4C145.1,18.6,144.5,18.4,144.4,18z
				 M145.7,18.5c0.1,0.1,0.3,0.2,0.4,0.4c-0.2,0.3-0.9,0.4-0.8,0C145.6,19,145.7,18.6,145.7,18.5z M155.6,27.3
				c-0.2,0-0.5-0.2-0.7-0.3c1.4-0.1,2.8-0.1,4.2,0.3c-0.4,0.6-0.8-0.3-1.2,0.1c0.3,0.2,0.5,0.1,0.3,0.4c-0.4,0-0.2-0.4-0.7-0.6
				c-0.5,0.4-0.9-0.3-1.3,0.2c0.3,0.1,0.5,0,0.8,0.4c-0.2,0.2-0.4,0-0.6,0.3c-0.4-0.1,0.1-0.7-0.4-0.5c-0.3,0.2,0.3,0.4-0.1,0.6
				c-0.2,0-0.4,0-0.6-0.2C155.3,27.8,155.8,27.6,155.6,27.3z M144.5,16.9c0.4,0.5,0.9,0.1,1.4,0.4c-0.3,0.3,0.1,0.6-0.5,0.7
				c-0.5-0.2-0.1-0.5-0.2-0.7c-0.3,0.1-0.6,0-0.9,0.2C143.9,17.3,144.2,17.1,144.5,16.9z M141.1,13.2c-0.4,0.3-0.7,0.6-1,0.3
				C140.4,13.3,140.8,12.9,141.1,13.2z M148.3,20.3c-0.1,0.1-0.3,0.2-0.4,0.3c-0.1-0.1-0.2-0.2-0.3-0.3
				C147.8,20.1,148,20.1,148.3,20.3z M151.4,18.4c0.2-0.1,0.3-0.1,0.5,0.1c-0.7,0.4-1.1-0.7-1.5-0.8c-0.2,0.1-0.3,0.3-0.5,0.4
				c-0.7-0.5-1.5-0.5-2.3-0.3c-0.1,0.4-0.4,0.7-0.6,0.8c0-0.7-0.4,0.2-0.8-0.2c0.7-0.4,1.2-0.7,1.6-1.2c0.6,0.8,1.8,0,2.6-0.1
				c-0.1,0.2-0.7,0.3-0.4,0.5c0.4-0.2,0.7-0.1,1.1-0.4c-0.1-0.1-0.4-0.1-0.3-0.3c0.4,0.3,1.3-0.2,1.3,0.3c-0.5-0.2-1.3,0.4-0.8,0.8
				c0.1-0.6,1.4-0.2,1.4,0.1C152.2,18.1,151.2,17.8,151.4,18.4z M151.8,17.6c0-0.2,0.4-0.4,0.7-0.4c-0.2,0.3,0.5,0.1,0.6,0.4
				C152.7,17.8,152.3,17.6,151.8,17.6z M141.1,13.3c0.5-0.1,1,0,1.5,0.1C142.1,13.6,141.2,13.8,141.1,13.3z M145,16.5
				c-0.2-0.1-0.4,0.2-0.6-0.2C144.6,15.8,145.2,16.2,145,16.5z M146.9,16.8c-0.3,0.2-1,0.3-0.9-0.1
				C146.3,16.8,146.6,16.6,146.9,16.8z M143.5,13.4c0,0.3-0.5,0.4-0.8,0.1C143,13.3,143.2,13.3,143.5,13.4z M160.2,27.6
				c-0.1,0.4-0.6,0-0.5,0.6C159.2,28,160,27.4,160.2,27.6z M161.4,27.6c0,0.4-0.5,0.2-0.8,0.6c-0.1-0.1-0.2-0.2-0.3-0.3
				C160.6,27.7,161,27.3,161.4,27.6z M149.6,17c-0.2,0.1-1,0.3-0.9-0.1C149,17,149.4,16.7,149.6,17z M147.9,14.3
				c-0.2,0.2-0.5,0.3-0.7,0.1C147.4,14.1,147.7,14,147.9,14.3z M153.7,18.1c0.3,0,0.5,0,0.8,0c-0.3,0.3-0.4,0.6-0.8,0.5
				C153.9,18.4,153.4,18.2,153.7,18.1z M155.8,18.9c0.2,0.2,0.3,0.3,0.5,0.3c-0.1,0.1-0.1,0.1-0.2,0.2c0.1,0.1,0.1,0.1,0,0.2
				c-0.5-0.4-0.2,0.4-0.4,0.5c-0.2-0.1-0.5,0.1-0.7-0.3C155.4,19.4,155.4,19.2,155.8,18.9z M154.7,17.3c0.1,0.1,0.4,0.3,0.3,0.4
				c-0.5-0.2-1,0.3-1.4-0.2C154.1,17.3,154.3,17.7,154.7,17.3z M183.4,43.8c0.3,0.2,0.1,0.5-0.2,0.7c-0.1-0.1-0.3-0.2-0.4-0.2
				C182.7,44.1,183.1,43.8,183.4,43.8z M165.9,27.5c0.3-0.2,0.7-0.1,1,0.2c-0.3,0.3-0.4,0.9-0.9,0.6
				C166.3,27.9,166.5,27.7,165.9,27.5z M158.1,19.2c-0.4,0-0.5-0.3-0.4-0.5c-0.7,0.4-2,0.2-2.3-0.5c0.8,0.4,1.8,0.2,2.4-0.1
				c-0.1,0.2,0,0.5,0.2,0.7c0.1-0.4,0.1-0.4,0.5-0.4c0.2,0.1,0,0.3,0.1,0.4c0.2-0.4,0.2-0.1,0.6-0.1c-0.3-0.4,0.4-0.4,0.6-0.1
				c0,0.3-0.4,0.2-0.7,0.6C158.4,19,158.4,18.7,158.1,19.2z M150.8,11.7c0.5,0.4,0.9-0.4,1.2-0.5c0.4,0.5-0.2,0.4-0.4,0.8
				c-0.2-0.3-0.4,0-0.6,0.1C150.8,12,150.7,11.8,150.8,11.7z M158,17.7c0.4,0.2,0.9,0.2,1.3,0.3c-0.3,0.2-0.6,0.2-0.9,0.2
				C158.5,18.1,157.5,18.1,158,17.7z M154.4,13.2c0,0.2-0.5,0.6-0.7,0.4C153.9,13.5,154.2,13,154.4,13.2z M153.9,11.4
				c-0.3,0.3-0.5,0.1-0.7,0.4c0.3,0.2,0.5,0.1,0.3,0.4c-0.3-0.1-1.1,0-1.1-0.5C152.8,11.6,153.2,11.1,153.9,11.4z M160.3,18.6
				c0.2,0.4,0.9-0.2,0.7,0.3C160.7,19,160,19.1,160.3,18.6z M158.4,15.4c-0.4,0.1-0.8,0-1.2,0.1C157.2,15.3,158.4,15,158.4,15.4z
				 M154.8,12.1c-0.1,0.1-0.2,0.2-0.2,0.3c-0.2-0.2-1-0.1-0.9-0.5C154.1,12.3,154.5,11.8,154.8,12.1z M164.6,18.6
				c-0.6,0.2-1.6,0.2-2.4,0.2c0.1,0.2,0.4,0.4,0.1,0.6c-0.1-0.7-0.4-0.2-1-0.5c0.4-0.3,0.7-0.3,0.6-0.9
				C162.4,19,163.6,18.2,164.6,18.6z M189.9,44c-0.3-0.1-0.7,0.4-1,0C189.2,43.8,190,43.6,189.9,44z M173,27.7
				c0.2,0.3,0.4,0.3,0.6,0c0.4,0.5-0.7,1.1-1.3,0.8C173,28.2,173,28.2,173,27.7z M156.8,12.4c-0.6,0.2-1.2-0.1-1.8-0.1
				c0.1-0.1,0.2-0.2,0.3-0.2C155.8,12.3,156.4,12.2,156.8,12.4z M166.1,21.5c-0.4,0-1.3,0.1-1.4-0.4
				C165.1,21.3,166.1,20.9,166.1,21.5z M165.2,19.8c0.5,0.4,1.1,0.1,1.6,0.4c-0.6,0.4-1.7,0.1-1.9-0.2
				C165.1,20.1,165.2,19.9,165.2,19.8z M157.7,12.3c-0.2,0.1,0.2,0.3,0.1,0.4c-0.3-0.2-0.5,0.1-0.8-0.2
				C157.2,12.3,157.4,12.1,157.7,12.3z M159.6,12.6c-0.4,0.3-0.7,0.3-1,0.1C158.9,12.6,159.2,12.4,159.6,12.6z M165.4,18.7
				c0.6-0.4,0.7,0.1,1.1,0.5c-0.2,0.1-0.3,0.3-0.3,0.4c-0.1-0.1-0.1-0.1-0.2-0.2C166.1,19,165.9,18.8,165.4,18.7z M158.6,11.4
				c0.5,0.1,1.1-0.2,1.6,0.2c-0.5,0.1-0.4,0.6-0.8,0.6c-0.5-0.2,0.1-0.8-0.4-0.7c-0.2,0.2,0.1,0.4-0.3,0.6
				C158.4,11.9,158.6,11.6,158.6,11.4z M161,12.6c0,0.2-0.2,0.3-0.4,0.5c-0.2-0.4-0.5-0.1-0.8-0.4c0.1-0.1,0.1-0.1,0.2-0.2
				C160.2,12.9,160.5,12.5,161,12.6z M168.8,19c-0.5,0-1.8,0.7-1.6-0.1C167.7,19.3,168.3,18.5,168.8,19z M171.7,20.4
				c-0.3,0.2-0.6,0.3-0.8,0.1C170.9,20.3,171.4,20.1,171.7,20.4z M171.9,19.5c-0.6-0.2-2.2,0.4-2.1-0.5
				C170.4,19.5,171.6,19,171.9,19.5z M175.3,21.8c-0.3,0.3-0.6,0.2-0.8,0.1C174.5,21.6,175,21.6,175.3,21.8z M174.6,20.5
				c0.5,0.7,1.1,0.2,1.7,0.5c-0.4,0.5-1.5,0-2.1,0C174.5,20.8,174.3,20.6,174.6,20.5z M174.9,20.1c0.6,0.5,0.7-0.6,1.3-0.2
				c-0.6,0.3-0.3,0.2-0.5,0.6C175.4,20.5,174.5,20.6,174.9,20.1z M178.3,20.4c-0.3,0.3-0.6,0.3-0.9,0.2
				C177.4,20.3,178,20,178.3,20.4z M171.9,13.8c-0.4,0.4-0.7,0.2-1,0.1C171.2,13.9,171.6,13.6,171.9,13.8z M171.7,13.5
				c-0.2,0.3-0.9,0.1-0.8-0.2C171.2,13.5,171.5,13,171.7,13.5z M173.2,14.5c-0.2,0.2,0.3,0.3,0.2,0.5c-0.2,0.2-0.5,0.3-0.7,0.1
				C173,14.9,172.6,14.3,173.2,14.5z M173.2,12.7c-0.1,0.1-0.5,0.4-0.3,0.8c0.2-0.2,0.5,0,0.7,0.3c-0.5,0.2-1,0.7-1.5,0.4
				C172.8,13.7,172.2,12.2,173.2,12.7z M181.9,22c-0.2,0.4-0.9,0.2-0.7-0.1C181.4,22,181.7,21.6,181.9,22z M174.6,14
				c-0.2,0.2-0.5,0.3-0.7,0.1C174.1,13.8,174.4,13.7,174.6,14z M180.8,20.1c0.5-0.1,1.4-0.2,1.5,0.3c0.4-0.3,1,0.2,1.1-0.4
				c0.1,0.1,0.3,0.2,0.4,0.4c-0.3,0.3-0.5,0.1-0.5,0.4c-0.6-0.2-0.9-0.3-1,0.3c-0.4-0.2-0.1-0.3-0.2-0.5c-0.2,0.1-0.4,0.3-0.5,0.4
				C181.1,20.5,181.6,20.2,180.8,20.1z M184.4,20.7c0.5,0.5-0.7,0.8-1,0.5c0.1-0.1,0-0.3,0.1-0.4C184.1,20.8,183.9,21.4,184.4,20.7z
				 M185.5,20.2c0.5,0.3,0,0.6-0.4,0.9c-0.2-0.1-0.3,0.1-0.5-0.1C185.1,20.5,185.3,20.8,185.5,20.2z M187.9,22.2
				c-0.3,0.1-0.6,0.3-0.9,0.1C187.4,22,187.7,22,187.9,22.2z M215.9,43.4c0.3-0.2,1-0.3,0.9,0.1c-0.3-0.2-0.6,0.1-0.6,0.3
				C216,43.7,215.9,43.6,215.9,43.4z M193.5,21.1c0.6,0.5-1,1.1-0.9,0.4C192.9,21.7,192.9,21.1,193.5,21.1z M217.5,43.3
				c0.5-0.1,1.6-0.4,1.8,0.2c-0.7-0.3-0.3,0.4-0.6,0.7c-0.4-0.3-0.2-0.6-0.3-0.9C218.1,43.7,217.5,43.8,217.5,43.3z M220.7,43.3
				c-0.3-0.1-0.5,0.2-0.8,0C219.8,42.8,221,42.9,220.7,43.3z M193.5,14.2c-0.3,0.2-0.7,0.2-1,0C192.9,13.8,193.2,14,193.5,14.2z
				 M195.4,13.8c0.3-0.7,0.5,0,0.8,0c-0.2-0.5,0.3-0.8,0.5-1c0.5,0.4-0.6,0.7-0.2,1.1c0.1-0.1,0.1-0.3,0.3-0.4
				c0.1,0,0.8,0.3,0.6,0.5c-0.6-0.3-2.8,1.2-2.2-0.1c-0.4,0-1.4,0.3-1.4-0.2C194,13.4,195.1,13.3,195.4,13.8z M196,12.9
				c-0.5,0.3-1,0.2-1.5,0.2C195,12.9,195.5,12.6,196,12.9z M227.4,42.2c0.4,0.2,1.4-0.5,1.5,0.1C228.4,42.3,227.5,42.9,227.4,42.2z
				 M197.8,12.7c0.1,0.1,0.4,0.3,0.3,0.4c-0.5-0.3-0.7-0.2-0.9,0.2C196.9,12.8,197.5,12.8,197.8,12.7z M199.7,13.7
				c0.2,0.3,0.5-0.2,0.7,0.3C200.1,14.1,199.4,14,199.7,13.7z M199,11.8c0.2,0.2,0.3,0.4,0.2,0.5c-0.1-0.1-0.3-0.3-0.4-0.2
				c-0.1,0-0.2,0.2-0.3,0.1C198.6,12,198.8,11.9,199,11.8z M232.4,42.2c-0.1,0.1-0.1,0.3-0.3,0.4c-0.2-0.4-0.5-0.1-0.7-0.3
				C231.7,42.1,232.1,42,232.4,42.2z M203.3,13.6c-0.1,0.2,0.4,0.2,0.5,0.3c0.1-0.1,0-0.3,0.1-0.4c0.5-0.1,0.7,0.4,0.3,0.8
				c-0.5-0.1-1.1,0-1.6-0.2C203,13.9,203.1,13.6,203.3,13.6z M234.2,43c-0.1-0.1-0.3-0.2-0.4-0.4C234.1,42.3,234.7,42.8,234.2,43z
				 M205.9,14.1c0.3-0.1,0.6-0.2,0.9,0.1c-0.3,0.3-0.6,0.2-0.9,0.1C206,14.2,206,14.1,205.9,14.1z M238.7,41.8
				c0.2,0.1,0.5,0,0.7,0.3c-0.2,0.1,0.1,0.6-0.3,0.4c0.2-0.2,0-0.4-0.3-0.3c0.1,0.2,0.1,0.3,0,0.5c-0.2-0.2-0.4,0.1-0.6-0.2
				C238.6,42.3,238.2,42,238.7,41.8z M209,13.3c0.4,0.2,1.4-0.1,1.5,0.3c-0.3-0.1-0.6,0.1-0.9,0c0.2,0.2,0.3,0.1,0.5,0.3
				c-0.3,0.1-0.7,0.2-0.7,0.6C209.1,14.1,209,13.7,209,13.3z M240.7,41.9c-0.2,0.2-0.1,0.4-0.3,0.6
				C240.1,42.2,240.2,41.6,240.7,41.9z M211.1,13.8c0.5,0.4,0.4,0.8,0.2,1.1c-0.1-0.1-0.3-0.2-0.4-0.2
				C211.2,14.5,210.6,14.1,211.1,13.8z M241.6,42.3c-0.2,0.2-0.5,0.3-0.7,0.1C241.1,42.2,241.3,42.1,241.6,42.3z M212.4,13.6
				c-0.5,0.1-1.1,0.2-1.6-0.1c0.6-0.1,0.7-0.2,1.1-0.2c-0.1,0.1,0,0.2,0.1,0.3C212.1,13.5,212.3,13.5,212.4,13.6z M213.2,14
				c-0.1,0.1,0.1,0.3,0.1,0.4c-0.6,0.3-1.2,0.2-1.7,0c0.3-0.2,0.1-0.4,0.4-0.7C212.4,13.9,212.8,13.8,213.2,14z M244.1,41.8
				c-0.4,0.2-0.7,0.5-0.5,0.7c-0.3-0.2-0.6,0-0.9-0.1c0.6-0.5-0.3-0.3,0-0.7C243.2,42.1,243.6,41.7,244.1,41.8z M213.9,13.1
				c0.2,0.1,0.1,0.3,0.3,0.4c0.1-0.1,0-0.2,0.1-0.3c0.4,0.2,0.2,0.4-0.1,0.6c-0.1-0.1-0.3-0.3-0.4-0.2c0.1,0.1-0.1,0.2-0.2,0.3
				c-0.1-0.1-0.2-0.2-0.3-0.3C213.8,13.4,213.8,13.5,213.9,13.1z M215.3,14.3c0.3-0.2,0.7,0,1,0C215.9,14.8,215.3,14.8,215.3,14.3z
				 M217.5,13.7c0.3-0.1,0.6-0.2,0.9-0.1C218.1,14.1,217.9,13.8,217.5,13.7c0.1,0.2,0.3,0.3,0.2,0.3C217.6,14,217.5,13.9,217.5,13.7
				z M219.8,14.4c-0.3-0.2-0.7,0.1-1-0.2C219.1,14,219.9,14,219.8,14.4z M219.6,14.6c0.1,0.1,0.2,0,0.3-0.1c0.2,0.2,0.3,0.4,0.2,0.5
				c-0.2-0.1-0.3,0-0.5-0.1C219.7,14.8,219.5,14.7,219.6,14.6z M221.9,14.8c-0.6,0.4-1.1,0.3-1.6,0.1
				C220.8,14.5,221.4,14.9,221.9,14.8z M222.3,13.8c-0.2,0.6-0.9,0.5-1.3,0.4C221.4,13.8,221.8,13.6,222.3,13.8z M224.7,15
				c0.1,0.1,0,0.3,0.3,0.4c-0.5,0.3-0.9,0.5-1.3,0C224.2,15.5,224.7,15.3,224.7,15z M230.7,14c-0.2,0.2,0.3,0,0.4,0.4
				c-0.2,0.3-0.9,0-0.7-0.3C230.6,14.2,230.5,13.9,230.7,14z M272.2,14.4c0.3,0.1,0.5,0.1,0.8,0.4c-0.4,0.4-0.8,0.4-1.2,0.5
				c-0.1-0.1-0.2-0.2-0.3-0.3C272,14.8,271.9,14.8,272.2,14.4z M275.5,14.9c-0.4-0.4-1,0.3-0.9-0.5
				C274.8,14.7,275.6,14.5,275.5,14.9z M313.9,40.7c-1,0.6,1,0.2-0.1,1c-0.3-0.4-0.2-0.4-0.7-0.4C313.2,41.1,313.4,40.5,313.9,40.7z
				 M312.8,41.7c-0.1-0.1-0.3-0.3-0.4-0.2c-0.2,0.2,0,0.8-0.4,0.7c-0.1-0.2,0.2-0.4-0.1-0.6c0.5-0.1,0.5-0.8,1.1-0.8
				C313.1,41.1,313.3,41.4,312.8,41.7z M285.4,14.4c0.3-0.2,0.6-0.1,0.9,0c0,0.3-0.4,0.2-0.7,0.6C285.2,14.8,285.6,14.6,285.4,14.4z
				 M315.4,40.7c0.3,0.3,0.1,0.6,0.2,0.9c-0.3-0.2-0.6,0.3-0.8,0C315.1,41.1,315.1,41.2,315.4,40.7z M287.5,14.8
				c-0.5-0.2-0.4,0.4-0.8,0.1C286.6,14.7,287.6,14.2,287.5,14.8z M315.7,40.8c0.2-0.2,0.4-0.2,0.6,0c-0.1,0.2-0.2,0.3-0.4,0.3
				C316,41,315.8,40.9,315.7,40.8z M317.1,13.2c-0.4-0.3-0.8,0.2-1.1,0C316.3,12.8,317.1,12.8,317.1,13.2z M318.7,13.1
				c-0.5,0-1,0.1-1.5-0.1C317.7,12.7,318.2,12.7,318.7,13.1z M319.4,12.7c-0.1,0.1-0.3,0.2-0.4,0.3c-0.1-0.1-0.2-0.2-0.3-0.3
				C319,12.5,319.2,12.7,319.4,12.7z M351.3,27c0.3,0.3,0.1,0.6-0.2,0.8c-0.5,0.2-1.2,0.2-1.9,0.5c-0.1-0.1-0.3-0.2-0.2-0.3
				C349.4,27.6,350.5,27.3,351.3,27z M354,27c0.2,0.2,0.3,0.3,0.2,0.5c-0.7,0.1-1.4,0.3-2,0.3C352.8,27.5,353.4,27.3,354,27z
				 M337.8,11.6c-0.1,0.3-0.9,0.7-1.2,0.5C337,11.6,337.4,11.6,337.8,11.6z M357.1,26.3c-0.9,0.4-1.6,0.6-2.1,1.3
				c-0.1-0.1-0.3-0.2-0.4-0.4C355.2,27.1,356,25.9,357.1,26.3z M345,9.1c0.2-0.1,0.3-0.2,0.5-0.2c0.5,0.4-0.4,0.8,0.3,1.2
				c-0.4,0.1-0.8,0.4-1.1,0C345.4,10.2,345.6,9.6,345,9.1z M364.5,26.7c0.3,0.2-0.1,0.5,0,0.7c-0.2-0.1-0.5,0.1-0.7-0.3
				C364,27,364.3,27.1,364.5,26.7z M360.8,19.7c0.3,0.1,0.5-0.5,0.6-0.7c0.4,0.2,0.1,0.3,0.2,0.5c0.1,0,0.2,0,0.3,0.1
				c-0.5,0.1-0.9,0-0.7,0.6C360.9,20.2,360.7,19.9,360.8,19.7z M357.1,11.5c-0.2-0.3-0.5,0.2-0.7-0.1
				C356.6,11,357.3,11.2,357.1,11.5z M359.9,11.6c-0.5,0.3-1,0.5-1.5,0.2C358.9,11.8,359.4,11.3,359.9,11.6z M361.9,11.9
				c-0.3,0.2-0.6,0.3-0.8,0C361.4,11.6,361.6,11.7,361.9,11.9z M361.8,10.2c0.3,0.3,0.4,0.3,0.4,0c0.4,0.3-0.5,0.6-0.6,0.3
				C361.7,10.4,361.8,10.3,361.8,10.2z M379.6,13.8c0,0.3-0.5,0.5-0.8,0.5C378.8,14.1,379.3,13.6,379.6,13.8z"/>
			<path class="st2" d="M143.1,11.1c-0.1,0.2,0.3,0.1,0.1,0.3c1.2-0.8,2.2-0.1,3.4-0.5c-0.9-0.3-1.9-0.3-2.8-0.3
				c-0.1,0.1,0.1,0.2,0.2,0.3C143.7,11,143.4,11.2,143.1,11.1z"/>
			<path class="st2" d="M73.8,39.3c0.3,0.2,0.7-0.2,1-0.1C74.5,39.2,74.1,39,73.8,39.3z"/>
			<path class="st2" d="M92,38c-0.3,0.1-0.2,0.3-0.3,0.4c0.2,0.1,0.3-0.1,0.5-0.2c0,0.1,0,0.2,0.2,0.3C92.6,38.2,92.2,38.2,92,38z"
				/>
			<path class="st2" d="M77.5,25c-0.4,0.1,0.6,0.1,0.6,0.5c0.2-0.2,0.1-0.4,0.1-0.6C77.8,24.6,77.9,25.2,77.5,25z"/>
			<path class="st2" d="M83.8,30.3c-0.2,0.2-0.3,0.3,0,0.5c0-0.2,0.3-0.3,0.5-0.2C84.5,30.3,83.9,30.4,83.8,30.3z"/>
			<path class="st2" d="M82.7,28.2c0-0.1,0.1-0.3-0.1-0.4c-0.3,0.2-0.4,0.3-0.4,0.5C82.4,28.4,82.6,28.1,82.7,28.2
				C82.9,28.2,82.8,28.2,82.7,28.2z"/>
			<path class="st2" d="M96.7,40.7c0.3,0.4,0.3-0.2,0.4-0.3c0.3-0.2,0,0.3,0.4,0.4c0.6-0.5,1.1-0.3,1.6-0.1c0.1-0.2,0.1-0.3,0.2-0.5
				c-0.5,0.2-1.4,0.3-2.1,0C97,40.5,96.7,40.4,96.7,40.7z"/>
			<path class="st2" d="M81.8,26.1c1.2-0.1,2,0.1,3.2-0.4c-0.1-0.2-0.4-0.1-0.3-0.3c-0.4-0.2-0.3,0.1-0.7,0.2
				c0.1-0.4-1.5-0.1-1.1-0.5C82.8,24.9,82.1,25.7,81.8,26.1z"/>
			<path class="st2" d="M101.8,43.7c0.3,0.3,1.5,0.3,2.1,0.2C103.3,43.8,102.6,43.7,101.8,43.7z"/>
			<path class="st2" d="M69,11.5c0,0.3-0.3,0.1-0.6,0.5c0.6,0.2,0.6-0.1,0.9-0.2C69.4,11.6,69.2,11.7,69,11.5z"/>
			<path class="st2" d="M84.5,26.2c0.4-0.1,0.7,0.1,1.1-0.2C85.2,25.6,84.8,26.2,84.5,26.2z"/>
			<path class="st2" d="M100.8,39.2c-0.3,0.1,0,0.3-0.1,0.4c0.2,0.2,0.5,0,0.7-0.1C101.6,39.3,100.9,39.6,100.8,39.2z"/>
			<path class="st2" d="M79.2,16.4c0.1-0.1,0-0.2-0.1-0.3c0.2-0.2,0.4,0,0.6-0.3c-0.4-0.1-0.8-0.3-1.2,0.1
				C78.9,16.1,79,15.9,79.2,16.4z"/>
			<path class="st2" d="M90.1,21.7c0.5-0.2,0.4,0.2,1,0.2c0.3-0.4,0.2-0.4,0.4-0.7C91.1,21.5,90.3,21.4,90.1,21.7z"/>
			<path class="st2" d="M112.1,40.9c-0.2-0.3,0.5-0.1,0.4-0.5c-0.2-0.3-0.5,0.2-0.7-0.1c0.1,0.4-0.5,0.5-0.1,1
				c0.3-0.2,0.6-0.3,0.8-0.1C112.8,40.9,112.2,41,112.1,40.9z"/>
			<path class="st2" d="M113.9,41.3c0.5,0.3,1-0.3,1.4,0.2c0.3-0.3-0.3-0.2-0.1-0.4C114.8,41.1,114.3,41.1,113.9,41.3z"/>
			<path class="st2" d="M116,40.9c-0.2-0.1-0.1-0.3-0.3-0.4c-0.6,0.2-1.1,0.1-1.7-0.1c0.1,0.7,1.1,0.2,1.5,0.8
				c0.4-0.4,0.7-0.1,1,0.2c0.6-0.1,0.6-0.3,1.1-0.6c-0.2-0.1-0.4-0.1-0.6-0.2c-0.3,0.1,0,0.3-0.1,0.4c-0.1,0-0.2,0-0.3,0.1
				c-0.1-0.2,0.2-0.3-0.2-0.5C116.2,40.6,116,40.7,116,40.9z"/>
			<path class="st2" d="M89.6,7.5C89.5,7.6,89.6,7.6,89.6,7.5c0.2,0.2,0.4,0.3,0.3,0.4C90,8,90.2,7.8,90.4,7.7
				C90.1,7.6,89.9,7.6,89.6,7.5z"/>
			<path class="st2" d="M99.2,10.1c-0.2,0.2,1.3,0.7,1.8,0.2c-0.1-0.1-0.8,0.2-0.6-0.2C100.1,10,99.6,10.6,99.2,10.1z"/>
			<path class="st2" d="M104.3,11.6c0.4,0.2,0.6,0.8,1.2,0.4c-0.1-0.7-1.1-0.1-1-0.9C104.1,11.3,104.8,11.5,104.3,11.6z"/>
			<path class="st2" d="M123.4,25c-0.2,0.3,0.4,0.1,0.5,0.3c0.2-0.1,0.1-0.4,0.3-0.2c0.1-0.1,0.1-0.1,0-0.2
				c-0.1-0.1-0.1-0.1-0.2-0.2c0.1,0.1-0.5,0.6-0.3,0.2C123.5,24.8,123.6,25.1,123.4,25z"/>
			<path class="st2" d="M115.6,12.8c0,0.3,0.9,0.3,1.2,0.4c-0.1,0.5,0.7,0.9,1,1.1c0-0.5-0.3-1-0.4-1.5c-0.1,0.9-0.6-0.2-1.3-0.1
				C116,12.9,115.9,12.9,115.6,12.8z"/>
			<path class="st2" d="M118.8,14.5c0.1,0.4,1.1,0.2,1.6,0.4c0.3-0.3-0.7-0.2-0.4-0.5C119.9,14.5,119.3,14.8,118.8,14.5z"/>
			<path class="st2" d="M117.9,13.1c-0.4,0.2,0,0.3,0.2,0.2c0.2,0.1,0.2,0.3,0.1,0.4c0.2,0.1,0.3,0,0.5,0.1
				c-0.2-0.2-0.3-0.7,0.3-0.2c0.1-0.1-0.2-0.3-0.3-0.4C118.4,13.4,118.2,13.4,117.9,13.1z"/>
			<path class="st2" d="M123,13.8c-0.2-0.1-0.3,0-0.5-0.1c-0.4,0.2,0.1,0.4-0.3,0.6C122.5,14.2,122.5,14,123,13.8z"/>
			<path class="st2" d="M127.6,10.2c0,0.3-0.1,0.1-0.4,0.3c0.4,0.2-0.2,0.4,0.3,0.6c0.1-0.1,0.2-0.2,0.3-0.2
				c-0.2-0.2-0.3-0.5,0.2-0.3C128.3,10.3,127.7,10.5,127.6,10.2z"/>
			<path class="st2" d="M134.8,16.4C134.5,16.3,134.7,16.6,134.8,16.4c0.2,0.3,0.1,0.4-0.1,0.6c0.3,0.1,0.8-0.5,0.4-0.7
				C135,16.4,134.9,16.5,134.8,16.4z"/>
			<path class="st2" d="M145.9,27.4c0.1,0.1,0.2,0,0.1-0.1c0.3-0.3,0.6,0.5,0.9-0.1c-0.3-0.4-0.7-0.1-1-0.2
				C145.8,27.1,146,27.2,145.9,27.4z"/>
			<path class="st2" d="M138.4,10c-0.4-0.4-0.8-0.4-1.2-0.2c0.4,0.5,0.9,0.4,1.4,0.7c0.2-0.6,0.9-0.2,1.4-0.5
				C139.9,10.1,138.6,9.5,138.4,10z"/>
			<path class="st2" d="M139.7,10.6c0.5,0.1,1.1-0.3,1.6,0.1c0.1-1,1.6,0.3,2.3-0.2c0-0.1-0.2-0.3-0.1-0.4c-0.4,0.1-0.9,0.5-1.3-0.1
				c-0.7,0.3-1.3,0-1.9,0c-0.1,0.1,0.2,0.3,0.3,0.4C140.3,10.6,140,10.3,139.7,10.6z"/>
			<path class="st2" d="M138.7,8.7c0.1,0.9,2.4,0.9,2.9,0.5C140.7,9.1,139.3,9.4,138.7,8.7z"/>
			<path class="st2" d="M146.2,9.9c0.4,0.1,0.8,0.2,1.2,0.2C147.4,9.7,146.5,9.8,146.2,9.9z"/>
			<path class="st2" d="M151.6,10.4c0.6,0.4,2.1,0.4,3.1,0.4c-0.4-0.5-0.8,0-1-0.5c-0.1,0.6-0.8-0.1-1.2,0.3
				c-0.4-0.2,0.3-0.6-0.3-0.6C152.4,10.4,152.1,10.5,151.6,10.4z"/>
			<path class="st2" d="M151.5,9.6c0,0.5,0.9,0.1,1.2,0.2c0.2-0.3-0.4-0.1-0.5-0.4C151.8,9.7,151.9,9.8,151.5,9.6z"/>
			<path class="st2" d="M154.9,10.8c0.7,0.3,1.4,0.4,2.1,0.3C156.7,10.1,155.6,10.6,154.9,10.8z"/>
			<path class="st2" d="M165.7,11.9c0.3,0.1,0.6,0,1.1,0c-0.1-0.1-0.2-0.2-0.3-0.3C166.3,12,166,11.6,165.7,11.9z"/>
			<path class="st2" d="M171.5,10.8c-0.2,0.2-0.4,0.3-0.6,0.5c0.5,0.1,0.5-0.5,1.1-0.2C172.3,10.9,171.7,11,171.5,10.8z"/>
			<path class="st2" d="M177.4,11.4c0.1,0.8,0.6-0.4,1.1,0.5c0-0.1,0.1-0.2,0.2-0.3C178.2,11.1,177.8,11.5,177.4,11.4z"/>
			<path class="st2" d="M186.9,11.5C186.7,11.4,186.9,11.7,186.9,11.5c0.3,0.3,0,0.5,0,0.7c0.3,0,0.7-0.3,1,0c0.5-0.8,1-0.3,1.5-0.4
				c0.5-0.2-0.2-0.3,0.2-0.5c-0.6,0.2-1.1-0.2-1.7,0.2c-0.2-0.1-0.1-0.3-0.3-0.4C187.6,11.4,187.2,11.5,186.9,11.5z"/>
			<path class="st2" d="M203.3,12.4c0.5,0.4,1.1-0.4,1.6,0.1c0.1-0.1-0.2-0.3-0.3-0.4C204.2,12.5,203.8,11.9,203.3,12.4z"/>
			<path class="st2" d="M213.9,12.2c0,0.3,1.3,0.4,1.3,0.1C214.8,12.2,214.3,12.4,213.9,12.2z"/>
			<path class="st2" d="M223.8,14.2c0.2-0.2,0.1-0.4,0.2-0.7c-0.3-0.1-0.5,0-0.8,0.1c0.2,0.3,0.4,0,0.6,0
				C224,13.9,223.2,13.9,223.8,14.2z"/>
			<path class="st2" d="M262.7,13.2c-0.1,0.5,0.7,0.1,1,0.4c0.1-0.1,0.1-0.1,0-0.2c-0.1-0.1-0.1-0.1-0.2-0.2
				C263.2,13.5,263,13.2,262.7,13.2z"/>
			<path class="st2" d="M297.1,44.3c0.6,0.1,1.1,0,1.7,0.1c0.3-0.5,1-0.2,1.5-0.2c0.1-0.1,0-0.2,0.1-0.2c-0.1-0.1,0-0.1,0-0.2
				C299.3,44.1,298.2,43.9,297.1,44.3z"/>
			<path class="st2" d="M321.5,10.3c0.5-0.2-0.1-0.5,0.4-0.7c-0.1-0.1-0.2,0-0.3-0.1c-0.1,0.1-0.1,0.1-0.2,0.2
				C321.9,10,321,10.1,321.5,10.3z"/>
			<path class="st2" d="M326,10.9c0.5,0.5,0-0.7,0.5-0.4c0.2-0.3-0.4-0.3-0.6,0C326.1,10.7,326.2,10.8,326,10.9z"/>
		</g>
	</g>
</g>
<g id="Vspr">
	<path id="V" class="st3" d="M106.9,0h1.5l18.5,44.7L145.3,0h1.6l-19.3,46.2h-1.5L106.9,0z"/>
	<path id="s" class="st3" d="M208.5,13.4c-2.8,0-5.1,0.6-6.9,1.7c-1.8,1.1-2.7,2.8-2.7,5c0,1.5,0.4,2.8,1.3,3.8
		c0.9,1,1.9,1.7,3.2,2.2s3,1.1,5.3,1.9c2.4,0.7,4.3,1.4,5.7,2s2.6,1.6,3.6,2.7c1,1.2,1.5,2.7,1.5,4.6c0,2.9-1.1,5.1-3.3,6.6
		s-4.9,2.2-8.2,2.2c-2.4,0-4.6-0.4-6.8-1.3c-2.1-0.8-4-2-5.5-3.5l0.9-1c1.5,1.4,3.2,2.5,5.1,3.3c1.9,0.8,4,1.2,6.3,1.2
		c2.9,0,5.3-0.6,7.3-1.9c1.9-1.3,2.9-3.1,2.9-5.6c0-1.5-0.4-2.8-1.3-3.8c-0.9-1-2-1.8-3.3-2.3c-1.3-0.6-3.1-1.2-5.3-1.9
		c-2.3-0.7-4.2-1.4-5.7-2.1c-1.4-0.6-2.6-1.5-3.6-2.7c-1-1.1-1.5-2.6-1.5-4.4c0-2.7,1-4.7,3.1-6.1s4.6-2.1,7.8-2.1
		c3.3,0,6.3,0.8,9.1,2.4l-0.7,1.1C214.6,14.1,211.8,13.4,208.5,13.4z"/>
	<path id="p" class="st3" d="M259.7,14.3c2.5,1.5,4.5,3.5,5.9,6.1s2.1,5.5,2.1,8.8s-0.7,6.2-2.1,8.8s-3.4,4.6-5.9,6.1
		s-5.4,2.2-8.5,2.2c-3.5,0-6.6-0.9-9.4-2.7c-2.7-1.8-4.7-4.3-5.9-7.3v22.9h-1.3v-47h1.3v10c1.2-3.1,3.2-5.5,5.9-7.3s5.8-2.7,9.4-2.7
		C254.3,12.1,257.2,12.8,259.7,14.3z M259,42.9c2.3-1.3,4.1-3.2,5.5-5.6s2-5.1,2-8.1s-0.7-5.7-2-8.1s-3.1-4.3-5.5-5.7
		c-2.3-1.4-4.9-2-7.8-2c-2.9,0-5.5,0.7-7.8,2c-2.3,1.4-4.1,3.3-5.5,5.7c-1.3,2.4-2,5.1-2,8.1s0.7,5.7,2,8.1s3.1,4.3,5.5,5.6
		s4.9,2,7.8,2S256.7,44.2,259,42.9z"/>
	<path id="r" class="st3" d="M333.5,14.6c2.2-1.6,5-2.5,8.2-2.5v1.3c-3.9,0.1-7,1.4-9.2,3.9c-2.3,2.5-3.6,5.9-3.9,10.3v18.6h-1.3V12
		h1.3v9.3C329.7,18.5,331.3,16.2,333.5,14.6z"/>
</g>
<g id="loveKnot">

		<linearGradient id="SVGID_1_" gradientUnits="userSpaceOnUse" x1="-409.863" y1="1157.9829" x2="-392.6094" y2="1140.7294" gradientTransform="matrix(0.7071 0.7071 -0.7071 0.7071 1266.3024 -493.2728)">
		<stop  offset="0" style="stop-color:#EF32D9"/>
		<stop  offset="4.382038e-02" style="stop-color:#E644DC"/>
		<stop  offset="0.1725" style="stop-color:#CD76E5"/>
		<stop  offset="0.3045" style="stop-color:#B8A0EC"/>
		<stop  offset="0.4378" style="stop-color:#A7C2F2"/>
		<stop  offset="0.5727" style="stop-color:#9ADDF7"/>
		<stop  offset="0.7097" style="stop-color:#90F0FA"/>
		<stop  offset="0.8503" style="stop-color:#8BFBFC"/>
		<stop  offset="1" style="stop-color:#89FFFD"/>
	</linearGradient>
	<path class="st4" d="M182.1,42.9c-6.2,4.6-14.7,4.6-20.9,0c-0.7-0.5-1.3-1-1.9-1.6c-0.6-0.6-1.1-1.2-1.6-1.9c0.9-2.1,2-4.1,3.2-6.1
		c0.4-0.6,0.7-1.1,1.1-1.7c0.6-0.9,1.3-1.8,1.9-2.6c1.1-1.3,2.2-2.6,3.4-3.9c-2,2.2-2,5.6,0,7.8c0.1,0.1,0.1,0.1,0.2,0.2
		s0.1,0.1,0.2,0.2c1.2,1.2,2.5,2.4,3.9,3.4c1.4,1.1,2.8,2.1,4.3,3C177.9,41,180,42,182.1,42.9z"/>
	<path class="st1" d="M184,41.3c-0.6,0.6-1.2,1.1-1.9,1.6c-2.1-0.9-4.1-2-6.1-3.2c-1.5-0.9-2.9-1.9-4.3-3c-1.4-1.1-2.7-2.2-3.9-3.4
		c2.2,2,5.6,2,7.8,0c0.1-0.1,0.1-0.1,0.2-0.2c0.1-0.1,0.1-0.1,0.2-0.2c1.2-1.3,2.4-2.6,3.5-3.9c1.1-1.4,2.1-2.8,3-4.3
		c1.2-2,2.3-4,3.2-6.1c4.6,6.1,4.6,14.6,0.1,20.7C185.2,39.9,184.6,40.6,184,41.3z"/>

		<linearGradient id="SVGID_2_" gradientUnits="userSpaceOnUse" x1="-399.6948" y1="1128.6639" x2="-417.0426" y2="1146.0115" gradientTransform="matrix(0.7071 0.7071 -0.7071 0.7071 1266.3024 -493.2728)">
		<stop  offset="0" style="stop-color:#EF32D9"/>
		<stop  offset="4.382038e-02" style="stop-color:#E644DC"/>
		<stop  offset="0.1725" style="stop-color:#CD76E5"/>
		<stop  offset="0.3045" style="stop-color:#B8A0EC"/>
		<stop  offset="0.4378" style="stop-color:#A7C2F2"/>
		<stop  offset="0.5727" style="stop-color:#9ADDF7"/>
		<stop  offset="0.7097" style="stop-color:#90F0FA"/>
		<stop  offset="0.8503" style="stop-color:#8BFBFC"/>
		<stop  offset="1" style="stop-color:#89FFFD"/>
	</linearGradient>
	<path class="st5" d="M176,32.8c2-2.2,2-5.7-0.1-7.9l-0.1-0.1c-0.1-0.1-0.2-0.2-0.3-0.2c-1.2-1.2-2.5-2.3-3.9-3.4s-2.9-2.1-4.4-3
		c-2-1.2-4-2.2-6.1-3.1c6.2-4.7,14.8-4.7,21-0.1c0.7,0.5,1.3,1,1.9,1.6c0.6,0.6,1.2,1.2,1.6,1.9c-0.9,2.1-2,4.1-3.2,6.1
		c-0.9,1.5-1.9,2.9-3,4.3C178.4,30.3,177.2,31.6,176,32.8z"/>

		<linearGradient id="SVGID_3_" gradientUnits="userSpaceOnUse" x1="-419.4537" y1="1138.3562" x2="-402.2708" y2="1155.5391" gradientTransform="matrix(0.7071 0.7071 -0.7071 0.7071 1266.3024 -493.2728)">
		<stop  offset="0" style="stop-color:#EF32D9"/>
		<stop  offset="4.382038e-02" style="stop-color:#E644DC"/>
		<stop  offset="0.1725" style="stop-color:#CD76E5"/>
		<stop  offset="0.3045" style="stop-color:#B8A0EC"/>
		<stop  offset="0.4378" style="stop-color:#A7C2F2"/>
		<stop  offset="0.5727" style="stop-color:#9ADDF7"/>
		<stop  offset="0.7097" style="stop-color:#90F0FA"/>
		<stop  offset="0.8503" style="stop-color:#8BFBFC"/>
		<stop  offset="1" style="stop-color:#89FFFD"/>
	</linearGradient>
	<path class="st6" d="M160.8,33.3c-1.2,2-2.3,4-3.2,6.1c-4.6-6.2-4.6-14.7,0-20.9c0.5-0.7,1-1.3,1.6-1.9s1.2-1.1,1.8-1.5
		c2.1,0.9,4.2,1.9,6.1,3.1c1.5,0.9,3,1.9,4.4,3c1.3,1,2.6,2.2,3.9,3.4c-2.2-2-5.6-2-7.7,0c-0.1,0.1-0.1,0.1-0.2,0.2
		c-0.1,0.1-0.1,0.1-0.2,0.2c-1.2,1.2-2.4,2.5-3.4,3.9c-0.7,0.9-1.3,1.7-1.9,2.6C161.6,32.1,161.2,32.7,160.8,33.3z"/>
</g>
<g id="loveKnot2">

		<linearGradient id="SVGID_4_" gradientUnits="userSpaceOnUse" x1="-321.2626" y1="1062.9155" x2="-298.2107" y2="1062.9155" gradientTransform="matrix(0.7071 0.7071 -0.7071 0.7071 1266.3024 -493.2728)">
		<stop  offset="0" style="stop-color:#EF32D9"/>
		<stop  offset="4.382038e-02" style="stop-color:#E644DC"/>
		<stop  offset="0.1725" style="stop-color:#CD76E5"/>
		<stop  offset="0.3045" style="stop-color:#B8A0EC"/>
		<stop  offset="0.4378" style="stop-color:#A7C2F2"/>
		<stop  offset="0.5727" style="stop-color:#9ADDF7"/>
		<stop  offset="0.7097" style="stop-color:#90F0FA"/>
		<stop  offset="0.8503" style="stop-color:#8BFBFC"/>
		<stop  offset="1" style="stop-color:#89FFFD"/>
	</linearGradient>
	<path class="st7" d="M308.4,42.9c-6.2,4.6-14.7,4.6-20.9,0c-0.7-0.5-1.3-1-1.9-1.6s-1.1-1.2-1.6-1.9c0.9-2.1,2-4.1,3.2-6.1
		c0.4-0.6,0.7-1.1,1.1-1.7c0.6-0.9,1.3-1.8,1.9-2.6c1.1-1.3,2.2-2.6,3.4-3.9c-2,2.2-2,5.6,0,7.8c0.1,0.1,0.1,0.1,0.2,0.2
		s0.1,0.1,0.2,0.2c1.2,1.2,2.5,2.4,3.9,3.4c1.4,1.1,2.8,2.1,4.3,3C304.3,41,306.3,42,308.4,42.9z"/>
	<path class="st1" d="M310.3,41.3c-0.6,0.6-1.2,1.1-1.9,1.6c-2.1-0.9-4.1-2-6.1-3.2c-1.5-0.9-2.9-1.9-4.3-3s-2.7-2.2-3.9-3.4
		c2.2,2,5.6,2,7.8,0c0.1-0.1,0.1-0.1,0.2-0.2s0.1-0.1,0.2-0.2c1.2-1.3,2.4-2.6,3.5-3.9c1.1-1.4,2.1-2.8,3-4.3c1.2-2,2.3-4,3.2-6.1
		c4.6,6.1,4.6,14.6,0.1,20.7C311.5,39.9,310.9,40.6,310.3,41.3z"/>

		<linearGradient id="SVGID_5_" gradientUnits="userSpaceOnUse" x1="-310.3563" y1="1039.3252" x2="-327.704" y2="1056.6731" gradientTransform="matrix(0.7071 0.7071 -0.7071 0.7071 1266.3024 -493.2728)">
		<stop  offset="0" style="stop-color:#EF32D9"/>
		<stop  offset="4.382038e-02" style="stop-color:#E644DC"/>
		<stop  offset="0.1725" style="stop-color:#CD76E5"/>
		<stop  offset="0.3045" style="stop-color:#B8A0EC"/>
		<stop  offset="0.4378" style="stop-color:#A7C2F2"/>
		<stop  offset="0.5727" style="stop-color:#9ADDF7"/>
		<stop  offset="0.7097" style="stop-color:#90F0FA"/>
		<stop  offset="0.8503" style="stop-color:#8BFBFC"/>
		<stop  offset="1" style="stop-color:#89FFFD"/>
	</linearGradient>
	<path class="st8" d="M302.3,32.8c2-2.2,2-5.7-0.1-7.9l-0.1-0.1c-0.1-0.1-0.2-0.2-0.3-0.2c-1.2-1.2-2.5-2.3-3.9-3.4s-2.9-2.1-4.4-3
		c-2-1.2-4-2.2-6.1-3.1c6.2-4.7,14.8-4.7,21-0.1c0.7,0.5,1.3,1,1.9,1.6s1.2,1.2,1.6,1.9c-0.9,2.1-2,4.1-3.2,6.1
		c-0.9,1.5-1.9,2.9-3,4.3C304.7,30.3,303.5,31.6,302.3,32.8z"/>

		<linearGradient id="SVGID_6_" gradientUnits="userSpaceOnUse" x1="-330.0746" y1="1048.9771" x2="-312.8917" y2="1066.1598" gradientTransform="matrix(0.7071 0.7071 -0.7071 0.7071 1266.3024 -493.2728)">
		<stop  offset="0" style="stop-color:#EF32D9"/>
		<stop  offset="4.382038e-02" style="stop-color:#E644DC"/>
		<stop  offset="0.1725" style="stop-color:#CD76E5"/>
		<stop  offset="0.3045" style="stop-color:#B8A0EC"/>
		<stop  offset="0.4378" style="stop-color:#A7C2F2"/>
		<stop  offset="0.5727" style="stop-color:#9ADDF7"/>
		<stop  offset="0.7097" style="stop-color:#90F0FA"/>
		<stop  offset="0.8503" style="stop-color:#8BFBFC"/>
		<stop  offset="1" style="stop-color:#89FFFD"/>
	</linearGradient>
	<path class="st9" d="M287.2,33.3c-1.2,2-2.3,4-3.2,6.1c-4.6-6.2-4.6-14.7,0-20.9c0.5-0.7,1-1.3,1.6-1.9s1.2-1.1,1.8-1.5
		c2.1,0.9,4.2,1.9,6.1,3.1c1.5,0.9,3,1.9,4.4,3c1.3,1,2.6,2.2,3.9,3.4c-2.2-2-5.6-2-7.7,0c-0.1,0.1-0.1,0.1-0.2,0.2
		s-0.1,0.1-0.2,0.2c-1.2,1.2-2.4,2.5-3.4,3.9c-0.7,0.9-1.3,1.7-1.9,2.6C287.9,32.1,287.5,32.7,287.2,33.3z"/>
</g>
<g id="tagLine">

		<linearGradient id="SVGID_7_" gradientUnits="userSpaceOnUse" x1="234.4" y1="637.55" x2="432.0999" y2="637.55" gradientTransform="matrix(1 0 0 1 0 -555.6)">
		<stop  offset="0" style="stop-color:#89FFFD"/>
		<stop  offset="0.1497" style="stop-color:#8BFBFC"/>
		<stop  offset="0.2903" style="stop-color:#90F0FA"/>
		<stop  offset="0.4273" style="stop-color:#9ADDF7"/>
		<stop  offset="0.5622" style="stop-color:#A7C2F2"/>
		<stop  offset="0.6955" style="stop-color:#B8A0EC"/>
		<stop  offset="0.8275" style="stop-color:#CD76E5"/>
		<stop  offset="0.9562" style="stop-color:#E644DC"/>
		<stop  offset="1" style="stop-color:#EF32D9"/>
	</linearGradient>
	<path class="st10" d="M243.6,73v13.2h-1.4v-4.3h-6.4v4.3h-1.4V73h1.4v7.7h6.4V73H243.6z M254.8,83.2c-0.9,2-2.7,3.1-4.5,3.1
		c-2.7,0-4.8-2.2-4.8-4.9c0-2.6,2.2-4.8,4.8-4.8s4.8,2.2,4.8,4.8c0,0.2,0,0.4,0,0.5h-1.7h-0.9h-5.6c0,1.5,1.7,3.1,3.5,3.1
		c1.4,0,2.5-1,3-1.9C253.5,83.2,254.3,83.2,254.8,83.2z M246.8,80.9h0.3h6h0.6c0-0.1-0.1-0.4-0.1-0.6c-0.6-1.5-1.7-2.4-3.3-2.4
		c-1.5,0-2.9,1.1-3.4,2.5C246.8,80.5,246.8,80.8,246.8,80.9z M265.8,76.8v9.4h-1.3v-1v-0.4c-0.2,0.2-0.5,0.5-0.7,0.6
		c-0.8,0.6-1.8,0.9-3,0.9c-2.7,0-4.8-2.2-4.8-4.8c0-2.7,2.2-4.9,4.8-4.9c1.1,0,2.4,0.6,3,1.2c0.2,0.3,0.4,0.4,0.6,0.5v-0.6v-1.1h1.4
		V76.8z M264.5,81.6c0-1.9-1.8-3.7-3.7-3.7c-2,0-3.6,1.7-3.6,3.7c0,1.9,1.6,3.6,3.5,3.6C262.7,85.2,264.5,83.6,264.5,81.6z
		 M269.4,86.2H268V73h1.4V86.2z M277.9,78.1h-2.7v8.1h-1.4v-8.1h-2.6v-1.3h2.6V73h1.4v3.8h2.7V78.1z M281,86.2h-1.4V73h1.4v4.4V78
		c0.1-0.2,0.3-0.3,0.5-0.4c0.7-0.6,2-0.8,2.8-0.8c2.5,0,4.4,1.5,4.4,4.2v5.3h-1.3v-1.1v-4.1c0-1.6-1-2.8-3-2.8
		c-1.7,0-3.2,1.2-3.3,2.8v5.1H281z M293.6,74.3h2v3h3v1.8h-3v3h-2v-3h-3v-1.8h3V74.3z M312.9,83.2c-1.2,1.9-3.3,3.2-5.7,3.2
		c-3.7,0-6.3-3.1-6.3-6.8c0-3.8,2.6-6.8,6.3-6.8c2.3,0,4.2,1.1,5.5,2.9l-1.2,0.6c-0.9-1.3-2.6-2.2-4.3-2.2c-2.9,0-4.9,3-4.9,5.5
		c0,3.2,2.5,5.5,4.9,5.5c2,0,3.4-1.1,4.2-2.4L312.9,83.2z M324,76.8v9.4h-1.3v-1v-0.4c-0.2,0.2-0.5,0.5-0.7,0.6
		c-0.8,0.6-1.8,0.9-3,0.9c-2.7,0-4.8-2.2-4.8-4.8c0-2.7,2.2-4.9,4.8-4.9c1.1,0,2.4,0.6,3,1.2c0.2,0.3,0.4,0.4,0.6,0.5v-0.6v-1.1h1.4
		V76.8z M322.7,81.6c0-1.9-1.8-3.7-3.7-3.7c-2,0-3.6,1.7-3.6,3.7c0,1.9,1.6,3.6,3.5,3.6C320.9,85.2,322.7,83.6,322.7,81.6z
		 M330.5,76.7c0,0.9,0,1.4,0,1.4c0.1,0-2.5-0.3-2.9,2v6.2h-1.3v-9.4h1.3v0.8C328.3,77,328.5,76.7,330.5,76.7z M340.9,83.2
		c-0.9,2-2.7,3.1-4.5,3.1c-2.7,0-4.8-2.2-4.8-4.9c0-2.6,2.2-4.8,4.8-4.8c2.6,0,4.8,2.2,4.8,4.8c0,0.2,0,0.4,0,0.5h-1.7h-0.9H333
		c0,1.5,1.7,3.1,3.5,3.1c1.4,0,2.5-1,3-1.9C339.7,83.2,340.4,83.2,340.9,83.2z M332.9,80.9h0.3h6h0.6c0-0.1-0.1-0.4-0.1-0.6
		c-0.6-1.5-1.7-2.4-3.3-2.4c-1.5,0-2.9,1.1-3.4,2.5C332.9,80.5,332.9,80.8,332.9,80.9z M361.8,86.2h-1.3V78v-1.9l-1.1,1.3l-3.8,4.1
		l-3.5-3.4l-1.5-1.8l0.1,1.8v8.2h-1.4V72.9l6.3,6.7l6.2-6.7L361.8,86.2L361.8,86.2z M373.4,76.8v9.4h-1.3v-1v-0.4
		c-0.2,0.2-0.5,0.5-0.7,0.6c-0.8,0.6-1.8,0.9-3,0.9c-2.7,0-4.8-2.2-4.8-4.8c0-2.7,2.2-4.9,4.8-4.9c1.1,0,2.4,0.6,3,1.2
		c0.2,0.3,0.4,0.4,0.6,0.5v-0.6v-1.1h1.4V76.8z M372.1,81.6c0-1.9-1.8-3.7-3.7-3.7c-2,0-3.6,1.7-3.6,3.7c0,1.9,1.6,3.6,3.5,3.6
		C370.3,85.2,372.1,83.6,372.1,81.6z M379.8,76.7c0,0.9,0,1.4,0,1.4c0.1,0-2.5-0.3-2.9,2v6.2h-1.3v-9.4h1.3v0.8
		C377.7,77,377.9,76.7,379.8,76.7z M384.4,81.3l3.8,4.9h-1.6l-2.9-3.8l-0.4-0.5l-0.2,0.2l-0.1,0.1v4h-1.3V73h1.3v6.8v0.6l0.7-0.7
		l2.9-3h1.6l-3.1,3.3l-0.8,0.9L384.4,81.3z M398.5,83.2c-0.9,2-2.7,3.1-4.5,3.1c-2.7,0-4.8-2.2-4.8-4.9c0-2.6,2.2-4.8,4.8-4.8
		c2.6,0,4.8,2.2,4.8,4.8c0,0.2,0,0.4,0,0.5H397h-0.9h-5.6c0,1.5,1.7,3.1,3.5,3.1c1.4,0,2.5-1,3-1.9C397.3,83.2,398,83.2,398.5,83.2z
		 M390.5,80.9h0.3h6h0.6c0-0.1-0.1-0.4-0.1-0.6c-0.6-1.5-1.7-2.4-3.3-2.4c-1.5,0-2.9,1.1-3.4,2.5C390.5,80.5,390.5,80.8,390.5,80.9z
		 M406.5,78.1h-2.7v8.1h-1.4v-8.1h-2.6v-1.3h2.6V73h1.4v3.8h2.7V78.1z M409.5,74.3h-1.4V73h1.4V74.3z M409.5,76.8v9.4h-1.4v-9.4
		H409.5z M413.1,86.2h-1.4v-9.4h1.4v0.7V78c0.1-0.1,0.3-0.4,0.4-0.5c0.7-0.6,1.8-0.8,2.8-0.8c3.3,0,4.6,1.8,4.6,4.4v5.1h-1.3v-1.1
		v-4.4c0-1.7-1.3-2.7-3.2-2.7c-1.7,0-3.2,0.9-3.3,2.6V86.2z M430.8,85c-0.9,0.8-2.4,1.3-3.7,1.3c-2.7,0-4.8-2.2-4.8-4.8
		c0-2.7,2.2-4.9,4.8-4.9c1.6,0,2.9,0.7,3.4,1.1c0.1,0.1,0.2,0.2,0.3,0.3v-0.4v-1h1.3v9.5c0,2.8-2.3,5-4.8,5c-2.3,0-3.8-1.1-4.6-3.2
		l1.5-0.4c0.4,1.2,1.4,2.1,3,2.1c2.1,0,3.6-1.8,3.6-3.7L430.8,85L430.8,85z M431,81.5c0-2-1.8-3.6-3.8-3.6c-2.1,0-3.6,1.6-3.6,3.6
		s1.5,3.5,3.6,3.5C429.2,85,431,83.5,431,81.5z"/>
</g>
</svg>
