<?xml version="1.0" encoding="utf-8"?>
<!-- Generator: Adobe Illustrator 20.1.0, SVG Export Plug-In . SVG Version: 6.00 Build 0)  -->
<svg version="1.1" id="Layer_1" xmlns="http://www.w3.org/2000/svg" xmlns:xlink="http://www.w3.org/1999/xlink" x="0px" y="0px"
	 viewBox="0 0 1280 100" style="enable-background:new 0 0 1280 100;" xml:space="preserve">
<style type="text/css">
	.st0{clip-path:url(#SVGID_2_);fill:#89FFFD;}
	.st1{clip-path:url(#SVGID_2_);fill:#8AFEFD;}
	.st2{clip-path:url(#SVGID_2_);fill:#8AFDFD;}
	.st3{clip-path:url(#SVGID_2_);fill:#8BFCFC;}
	.st4{clip-path:url(#SVGID_2_);fill:#8BFBFC;}
	.st5{clip-path:url(#SVGID_2_);fill:#8CFAFC;}
	.st6{clip-path:url(#SVGID_2_);fill:#8CF9FC;}
	.st7{clip-path:url(#SVGID_2_);fill:#8DF8FC;}
	.st8{clip-path:url(#SVGID_2_);fill:#8EF7FC;}
	.st9{clip-path:url(#SVGID_2_);fill:#8EF6FB;}
	.st10{clip-path:url(#SVGID_2_);fill:#8FF5FB;}
	.st11{clip-path:url(#SVGID_2_);fill:#8FF4FB;}
	.st12{clip-path:url(#SVGID_2_);fill:#90F3FB;}
	.st13{clip-path:url(#SVGID_2_);fill:#90F2FB;}
	.st14{clip-path:url(#SVGID_2_);fill:#91F1FB;}
	.st15{clip-path:url(#SVGID_2_);fill:#92F0FA;}
	.st16{clip-path:url(#SVGID_2_);fill:#92EFFA;}
	.st17{clip-path:url(#SVGID_2_);fill:#93EEFA;}
	.st18{clip-path:url(#SVGID_2_);fill:#93EDFA;}
	.st19{clip-path:url(#SVGID_2_);fill:#94ECFA;}
	.st20{clip-path:url(#SVGID_2_);fill:#94EBF9;}
	.st21{clip-path:url(#SVGID_2_);fill:#95EAF9;}
	.st22{clip-path:url(#SVGID_2_);fill:#96E9F9;}
	.st23{clip-path:url(#SVGID_2_);fill:#96E8F9;}
	.st24{clip-path:url(#SVGID_2_);fill:#97E7F9;}
	.st25{clip-path:url(#SVGID_2_);fill:#97E6F9;}
	.st26{clip-path:url(#SVGID_2_);fill:#98E5F8;}
	.st27{clip-path:url(#SVGID_2_);fill:#98E4F8;}
	.st28{clip-path:url(#SVGID_2_);fill:#99E3F8;}
	.st29{clip-path:url(#SVGID_2_);fill:#9AE2F8;}
	.st30{clip-path:url(#SVGID_2_);fill:#9AE1F8;}
	.st31{clip-path:url(#SVGID_2_);fill:#9BE0F8;}
	.st32{clip-path:url(#SVGID_2_);fill:#9BDFF7;}
	.st33{clip-path:url(#SVGID_2_);fill:#9CDEF7;}
	.st34{clip-path:url(#SVGID_2_);fill:#9CDDF7;}
	.st35{clip-path:url(#SVGID_2_);fill:#9DDCF7;}
	.st36{clip-path:url(#SVGID_2_);fill:#9EDBF7;}
	.st37{clip-path:url(#SVGID_2_);fill:#9EDAF6;}
	.st38{clip-path:url(#SVGID_2_);fill:#9FD9F6;}
	.st39{clip-path:url(#SVGID_2_);fill:#9FD8F6;}
	.st40{clip-path:url(#SVGID_2_);fill:#A0D7F6;}
	.st41{clip-path:url(#SVGID_2_);fill:#A1D6F6;}
	.st42{clip-path:url(#SVGID_2_);fill:#A1D5F6;}
	.st43{clip-path:url(#SVGID_2_);fill:#A2D4F5;}
	.st44{clip-path:url(#SVGID_2_);fill:#A2D3F5;}
	.st45{clip-path:url(#SVGID_2_);fill:#A3D2F5;}
	.st46{clip-path:url(#SVGID_2_);fill:#A3D1F5;}
	.st47{clip-path:url(#SVGID_2_);fill:#A4D0F5;}
	.st48{clip-path:url(#SVGID_2_);fill:#A5CFF5;}
	.st49{clip-path:url(#SVGID_2_);fill:#A5CEF4;}
	.st50{clip-path:url(#SVGID_2_);fill:#A6CDF4;}
	.st51{clip-path:url(#SVGID_2_);fill:#A6CCF4;}
	.st52{clip-path:url(#SVGID_2_);fill:#A7CBF4;}
	.st53{clip-path:url(#SVGID_2_);fill:#A7CAF4;}
	.st54{clip-path:url(#SVGID_2_);fill:#A8C9F3;}
	.st55{clip-path:url(#SVGID_2_);fill:#A9C8F3;}
	.st56{clip-path:url(#SVGID_2_);fill:#A9C7F3;}
	.st57{clip-path:url(#SVGID_2_);fill:#AAC6F3;}
	.st58{clip-path:url(#SVGID_2_);fill:#AAC5F3;}
	.st59{clip-path:url(#SVGID_2_);fill:#ABC4F3;}
	.st60{clip-path:url(#SVGID_2_);fill:#ABC3F2;}
	.st61{clip-path:url(#SVGID_2_);fill:#ACC2F2;}
	.st62{clip-path:url(#SVGID_2_);fill:#ADC1F2;}
	.st63{clip-path:url(#SVGID_2_);fill:#ADC0F2;}
	.st64{clip-path:url(#SVGID_2_);fill:#AEBFF2;}
	.st65{clip-path:url(#SVGID_2_);fill:#AEBEF2;}
	.st66{clip-path:url(#SVGID_2_);fill:#AFBDF1;}
	.st67{clip-path:url(#SVGID_2_);fill:#AFBCF1;}
	.st68{clip-path:url(#SVGID_2_);fill:#B0BBF1;}
	.st69{clip-path:url(#SVGID_2_);fill:#B1BAF1;}
	.st70{clip-path:url(#SVGID_2_);fill:#B1B9F1;}
	.st71{clip-path:url(#SVGID_2_);fill:#B2B8F0;}
	.st72{clip-path:url(#SVGID_2_);fill:#B2B7F0;}
	.st73{clip-path:url(#SVGID_2_);fill:#B3B6F0;}
	.st74{clip-path:url(#SVGID_2_);fill:#B3B5F0;}
	.st75{clip-path:url(#SVGID_2_);fill:#B4B4F0;}
	.st76{clip-path:url(#SVGID_2_);fill:#B5B3F0;}
	.st77{clip-path:url(#SVGID_2_);fill:#B5B2EF;}
	.st78{clip-path:url(#SVGID_2_);fill:#B6B1EF;}
	.st79{clip-path:url(#SVGID_2_);fill:#B6B0EF;}
	.st80{clip-path:url(#SVGID_2_);fill:#B7AFEF;}
	.st81{clip-path:url(#SVGID_2_);fill:#B7AEEF;}
	.st82{clip-path:url(#SVGID_2_);fill:#B8ADEF;}
	.st83{clip-path:url(#SVGID_2_);fill:#B9ACEE;}
	.st84{clip-path:url(#SVGID_2_);fill:#B9ABEE;}
	.st85{clip-path:url(#SVGID_2_);fill:#BAAAEE;}
	.st86{clip-path:url(#SVGID_2_);fill:#BAA9EE;}
	.st87{clip-path:url(#SVGID_2_);fill:#BBA8EE;}
	.st88{clip-path:url(#SVGID_2_);fill:#BBA7ED;}
	.st89{clip-path:url(#SVGID_2_);fill:#BCA6ED;}
	.st90{clip-path:url(#SVGID_2_);fill:#BDA5ED;}
	.st91{clip-path:url(#SVGID_2_);fill:#BDA4ED;}
	.st92{clip-path:url(#SVGID_2_);fill:#BEA3ED;}
	.st93{clip-path:url(#SVGID_2_);fill:#BEA2ED;}
	.st94{clip-path:url(#SVGID_2_);fill:#BFA1EC;}
	.st95{clip-path:url(#SVGID_2_);fill:#BFA0EC;}
	.st96{clip-path:url(#SVGID_2_);fill:#C09FEC;}
	.st97{clip-path:url(#SVGID_2_);fill:#C19EEC;}
	.st98{clip-path:url(#SVGID_2_);fill:#C19DEC;}
	.st99{clip-path:url(#SVGID_2_);fill:#C29CEC;}
	.st100{clip-path:url(#SVGID_2_);fill:#C29BEB;}
	.st101{clip-path:url(#SVGID_2_);fill:#C39AEB;}
	.st102{clip-path:url(#SVGID_2_);fill:#C399EB;}
	.st103{clip-path:url(#SVGID_2_);fill:#C497EB;}
	.st104{clip-path:url(#SVGID_2_);fill:#C596EB;}
	.st105{clip-path:url(#SVGID_2_);fill:#C595EA;}
	.st106{clip-path:url(#SVGID_2_);fill:#C694EA;}
	.st107{clip-path:url(#SVGID_2_);fill:#C693EA;}
	.st108{clip-path:url(#SVGID_2_);fill:#C792EA;}
	.st109{clip-path:url(#SVGID_2_);fill:#C891EA;}
	.st110{clip-path:url(#SVGID_2_);fill:#C890EA;}
	.st111{clip-path:url(#SVGID_2_);fill:#C98FE9;}
	.st112{clip-path:url(#SVGID_2_);fill:#C98EE9;}
	.st113{clip-path:url(#SVGID_2_);fill:#CA8DE9;}
	.st114{clip-path:url(#SVGID_2_);fill:#CA8CE9;}
	.st115{clip-path:url(#SVGID_2_);fill:#CB8BE9;}
	.st116{clip-path:url(#SVGID_2_);fill:#CC8AE9;}
	.st117{clip-path:url(#SVGID_2_);fill:#CC89E8;}
	.st118{clip-path:url(#SVGID_2_);fill:#CD88E8;}
	.st119{clip-path:url(#SVGID_2_);fill:#CD87E8;}
	.st120{clip-path:url(#SVGID_2_);fill:#CE86E8;}
	.st121{clip-path:url(#SVGID_2_);fill:#CE85E8;}
	.st122{clip-path:url(#SVGID_2_);fill:#CF84E7;}
	.st123{clip-path:url(#SVGID_2_);fill:#D083E7;}
	.st124{clip-path:url(#SVGID_2_);fill:#D082E7;}
	.st125{clip-path:url(#SVGID_2_);fill:#D181E7;}
	.st126{clip-path:url(#SVGID_2_);fill:#D180E7;}
	.st127{clip-path:url(#SVGID_2_);fill:#D27FE7;}
	.st128{clip-path:url(#SVGID_2_);fill:#D27EE6;}
	.st129{clip-path:url(#SVGID_2_);fill:#D37DE6;}
	.st130{clip-path:url(#SVGID_2_);fill:#D47CE6;}
	.st131{clip-path:url(#SVGID_2_);fill:#D47BE6;}
	.st132{clip-path:url(#SVGID_2_);fill:#D57AE6;}
	.st133{clip-path:url(#SVGID_2_);fill:#D579E6;}
	.st134{clip-path:url(#SVGID_2_);fill:#D678E5;}
	.st135{clip-path:url(#SVGID_2_);fill:#D677E5;}
	.st136{clip-path:url(#SVGID_2_);fill:#D776E5;}
	.st137{clip-path:url(#SVGID_2_);fill:#D875E5;}
	.st138{clip-path:url(#SVGID_2_);fill:#D874E5;}
	.st139{clip-path:url(#SVGID_2_);fill:#D973E4;}
	.st140{clip-path:url(#SVGID_2_);fill:#D972E4;}
	.st141{clip-path:url(#SVGID_2_);fill:#DA71E4;}
	.st142{clip-path:url(#SVGID_2_);fill:#DA70E4;}
	.st143{clip-path:url(#SVGID_2_);fill:#DB6FE4;}
	.st144{clip-path:url(#SVGID_2_);fill:#DC6EE4;}
	.st145{clip-path:url(#SVGID_2_);fill:#DC6DE3;}
	.st146{clip-path:url(#SVGID_2_);fill:#DD6CE3;}
	.st147{clip-path:url(#SVGID_2_);fill:#DD6BE3;}
	.st148{clip-path:url(#SVGID_2_);fill:#DE6AE3;}
	.st149{clip-path:url(#SVGID_2_);fill:#DE69E3;}
	.st150{clip-path:url(#SVGID_2_);fill:#DF68E3;}
	.st151{clip-path:url(#SVGID_2_);fill:#E067E2;}
	.st152{clip-path:url(#SVGID_2_);fill:#E066E2;}
	.st153{clip-path:url(#SVGID_2_);fill:#E165E2;}
	.st154{clip-path:url(#SVGID_2_);fill:#E164E2;}
	.st155{clip-path:url(#SVGID_2_);fill:#E263E2;}
	.st156{clip-path:url(#SVGID_2_);fill:#E262E1;}
	.st157{clip-path:url(#SVGID_2_);fill:#E361E1;}
	.st158{clip-path:url(#SVGID_2_);fill:#E460E1;}
	.st159{clip-path:url(#SVGID_2_);fill:#E45FE1;}
	.st160{clip-path:url(#SVGID_2_);fill:#E55EE1;}
	.st161{clip-path:url(#SVGID_2_);fill:#E55DE1;}
	.st162{clip-path:url(#SVGID_2_);fill:#E65CE0;}
	.st163{clip-path:url(#SVGID_2_);fill:#E65BE0;}
	.st164{clip-path:url(#SVGID_2_);fill:#E75AE0;}
	.st165{clip-path:url(#SVGID_2_);fill:#E859E0;}
	.st166{clip-path:url(#SVGID_2_);fill:#E858E0;}
	.st167{clip-path:url(#SVGID_2_);fill:#E957E0;}
	.st168{clip-path:url(#SVGID_2_);fill:#E956DF;}
	.st169{clip-path:url(#SVGID_2_);fill:#EA55DF;}
	.st170{clip-path:url(#SVGID_2_);fill:#EB54DF;}
	.st171{clip-path:url(#SVGID_2_);fill:#EB53DF;}
	.st172{clip-path:url(#SVGID_2_);fill:#EC52DF;}
	.st173{clip-path:url(#SVGID_2_);fill:#EC51DE;}
	.st174{clip-path:url(#SVGID_2_);fill:#ED50DE;}
	.st175{clip-path:url(#SVGID_2_);fill:#ED4FDE;}
	.st176{clip-path:url(#SVGID_2_);fill:#EE4EDE;}
	.st177{clip-path:url(#SVGID_2_);fill:#EF4DDE;}
	.st178{clip-path:url(#SVGID_2_);fill:#EF4CDE;}
	.st179{clip-path:url(#SVGID_2_);fill:#F04BDD;}
	.st180{clip-path:url(#SVGID_2_);fill:#F04ADD;}
	.st181{clip-path:url(#SVGID_2_);fill:#F149DD;}
	.st182{clip-path:url(#SVGID_2_);fill:#F148DD;}
	.st183{clip-path:url(#SVGID_2_);fill:#F247DD;}
	.st184{clip-path:url(#SVGID_2_);fill:#F346DD;}
	.st185{clip-path:url(#SVGID_2_);fill:#F345DC;}
	.st186{clip-path:url(#SVGID_2_);fill:#F444DC;}
	.st187{clip-path:url(#SVGID_2_);fill:#F443DC;}
	.st188{clip-path:url(#SVGID_2_);fill:#F542DC;}
	.st189{clip-path:url(#SVGID_2_);fill:#F541DC;}
	.st190{clip-path:url(#SVGID_2_);fill:#F640DB;}
	.st191{clip-path:url(#SVGID_2_);fill:#F73FDB;}
	.st192{clip-path:url(#SVGID_2_);fill:#F73EDB;}
	.st193{clip-path:url(#SVGID_2_);fill:#F83DDB;}
	.st194{clip-path:url(#SVGID_2_);fill:#F83CDB;}
	.st195{clip-path:url(#SVGID_2_);fill:#F93BDB;}
	.st196{clip-path:url(#SVGID_2_);fill:#F93ADA;}
	.st197{clip-path:url(#SVGID_2_);fill:#FA39DA;}
	.st198{clip-path:url(#SVGID_2_);fill:#FB38DA;}
	.st199{clip-path:url(#SVGID_2_);fill:#FB37DA;}
	.st200{clip-path:url(#SVGID_2_);fill:#FC36DA;}
	.st201{clip-path:url(#SVGID_2_);fill:#FC35DA;}
	.st202{clip-path:url(#SVGID_2_);fill:#FD34D9;}
	.st203{clip-path:url(#SVGID_2_);fill:#FD33D9;}
	.st204{clip-path:url(#SVGID_2_);fill:#FE32D9;}
	.st205{fill:none;}
	.st206{fill-rule:evenodd;clip-rule:evenodd;fill:#FE32D9;}
	.st207{fill-rule:evenodd;clip-rule:evenodd;fill:url(#SVGID_3_);}
</style>
<g>
	<g>
		<g>
			<defs>
				<line id="SVGID_1_" x1="0" y1="50" x2="968" y2="50"/>
			</defs>
			<clipPath id="SVGID_2_">
				<use xlink:href="#SVGID_1_"  style="overflow:visible;"/>
			</clipPath>
			<path class="st0" d="M0,50L0,50L0,50z"/>
			<path class="st0" d="M4.7,50L4.7,50L4.7,50z"/>
			<path class="st1" d="M9.4,50L9.4,50L9.4,50z"/>
			<path class="st2" d="M14.2,50L14.2,50L14.2,50z"/>
			<path class="st3" d="M18.9,50L18.9,50L18.9,50z"/>
			<path class="st4" d="M23.6,50L23.6,50L23.6,50z"/>
			<path class="st5" d="M28.3,50L28.3,50L28.3,50z"/>
			<path class="st6" d="M33.1,50L33.1,50L33.1,50z"/>
			<path class="st7" d="M37.8,50L37.8,50L37.8,50z"/>
			<path class="st8" d="M42.5,50L42.5,50L42.5,50z"/>
			<path class="st9" d="M47.2,50L47.2,50L47.2,50z"/>
			<path class="st10" d="M51.9,50L51.9,50L51.9,50z"/>
			<path class="st11" d="M56.7,50L56.7,50L56.7,50z"/>
			<path class="st12" d="M61.4,50L61.4,50L61.4,50z"/>
			<path class="st13" d="M66.1,50L66.1,50L66.1,50z"/>
			<path class="st14" d="M70.8,50L70.8,50L70.8,50z"/>
			<path class="st15" d="M75.6,50L75.6,50L75.6,50z"/>
			<path class="st16" d="M80.3,50L80.3,50L80.3,50z"/>
			<path class="st17" d="M85,50L85,50L85,50z"/>
			<path class="st18" d="M89.7,50L89.7,50L89.7,50z"/>
			<path class="st19" d="M94.4,50L94.4,50L94.4,50z"/>
			<path class="st20" d="M99.2,50L99.2,50L99.2,50z"/>
			<path class="st21" d="M103.9,50L103.9,50L103.9,50z"/>
			<path class="st22" d="M108.6,50L108.6,50L108.6,50z"/>
			<path class="st23" d="M113.3,50L113.3,50L113.3,50z"/>
			<path class="st24" d="M118,50L118,50L118,50z"/>
			<path class="st25" d="M122.8,50L122.8,50L122.8,50z"/>
			<path class="st26" d="M127.5,50L127.5,50L127.5,50z"/>
			<path class="st27" d="M132.2,50L132.2,50L132.2,50z"/>
			<path class="st28" d="M136.9,50L136.9,50L136.9,50z"/>
			<path class="st29" d="M141.7,50L141.7,50L141.7,50z"/>
			<path class="st30" d="M146.4,50L146.4,50L146.4,50z"/>
			<path class="st31" d="M151.1,50L151.1,50L151.1,50z"/>
			<path class="st32" d="M155.8,50L155.8,50L155.8,50z"/>
			<path class="st33" d="M160.5,50L160.5,50L160.5,50z"/>
			<path class="st34" d="M165.3,50L165.3,50L165.3,50z"/>
			<path class="st35" d="M170,50L170,50L170,50z"/>
			<path class="st36" d="M174.7,50L174.7,50L174.7,50z"/>
			<path class="st37" d="M179.4,50L179.4,50L179.4,50z"/>
			<path class="st38" d="M184.2,50L184.2,50L184.2,50z"/>
			<path class="st39" d="M188.9,50L188.9,50L188.9,50z"/>
			<path class="st40" d="M193.6,50L193.6,50L193.6,50z"/>
			<path class="st41" d="M198.3,50L198.3,50L198.3,50z"/>
			<path class="st42" d="M203,50L203,50L203,50z"/>
			<path class="st43" d="M207.8,50L207.8,50L207.8,50z"/>
			<path class="st44" d="M212.5,50L212.5,50L212.5,50z"/>
			<path class="st45" d="M217.2,50L217.2,50L217.2,50z"/>
			<path class="st46" d="M221.9,50L221.9,50L221.9,50z"/>
			<path class="st47" d="M226.7,50L226.7,50L226.7,50z"/>
			<path class="st48" d="M231.4,50L231.4,50L231.4,50z"/>
			<path class="st49" d="M236.1,50L236.1,50L236.1,50z"/>
			<path class="st50" d="M240.8,50L240.8,50L240.8,50z"/>
			<path class="st51" d="M245.5,50L245.5,50L245.5,50z"/>
			<path class="st52" d="M250.3,50L250.3,50L250.3,50z"/>
			<path class="st53" d="M255,50L255,50L255,50z"/>
			<path class="st54" d="M259.7,50L259.7,50L259.7,50z"/>
			<path class="st55" d="M264.4,50L264.4,50L264.4,50z"/>
			<path class="st56" d="M269.2,50L269.2,50L269.2,50z"/>
			<path class="st57" d="M273.9,50L273.9,50L273.9,50z"/>
			<path class="st58" d="M278.6,50L278.6,50L278.6,50z"/>
			<path class="st59" d="M283.3,50L283.3,50L283.3,50z"/>
			<path class="st60" d="M288,50L288,50L288,50z"/>
			<path class="st61" d="M292.8,50L292.8,50L292.8,50z"/>
			<path class="st62" d="M297.5,50L297.5,50L297.5,50z"/>
			<path class="st63" d="M302.2,50L302.2,50L302.2,50z"/>
			<path class="st64" d="M306.9,50L306.9,50L306.9,50z"/>
			<path class="st65" d="M311.6,50L311.6,50L311.6,50z"/>
			<path class="st66" d="M316.4,50L316.4,50L316.4,50z"/>
			<path class="st67" d="M321.1,50L321.1,50L321.1,50z"/>
			<path class="st68" d="M325.8,50L325.8,50L325.8,50z"/>
			<path class="st69" d="M330.5,50L330.5,50L330.5,50z"/>
			<path class="st70" d="M335.3,50L335.3,50L335.3,50z"/>
			<path class="st71" d="M340,50L340,50L340,50z"/>
			<path class="st72" d="M344.7,50L344.7,50L344.7,50z"/>
			<path class="st73" d="M349.4,50L349.4,50L349.4,50z"/>
			<path class="st74" d="M354.1,50L354.1,50L354.1,50z"/>
			<path class="st75" d="M358.9,50L358.9,50L358.9,50z"/>
			<path class="st76" d="M363.6,50L363.6,50L363.6,50z"/>
			<path class="st77" d="M368.3,50L368.3,50L368.3,50z"/>
			<path class="st78" d="M373,50L373,50L373,50z"/>
			<path class="st79" d="M377.8,50L377.8,50L377.8,50z"/>
			<path class="st80" d="M382.5,50L382.5,50L382.5,50z"/>
			<path class="st81" d="M387.2,50L387.2,50L387.2,50z"/>
			<path class="st82" d="M391.9,50L391.9,50L391.9,50z"/>
			<path class="st83" d="M396.6,50L396.6,50L396.6,50z"/>
			<path class="st84" d="M401.4,50L401.4,50L401.4,50z"/>
			<path class="st85" d="M406.1,50L406.1,50L406.1,50z"/>
			<path class="st86" d="M410.8,50L410.8,50L410.8,50z"/>
			<path class="st87" d="M415.5,50L415.5,50L415.5,50z"/>
			<path class="st88" d="M420.3,50L420.3,50L420.3,50z"/>
			<path class="st89" d="M425,50L425,50L425,50z"/>
			<path class="st90" d="M429.7,50L429.7,50L429.7,50z"/>
			<path class="st91" d="M434.4,50L434.4,50L434.4,50z"/>
			<path class="st92" d="M439.1,50L439.1,50L439.1,50z"/>
			<path class="st93" d="M443.9,50L443.9,50L443.9,50z"/>
			<path class="st94" d="M448.6,50L448.6,50L448.6,50z"/>
			<path class="st95" d="M453.3,50L453.3,50L453.3,50z"/>
			<path class="st96" d="M458,50L458,50L458,50z"/>
			<path class="st97" d="M462.8,50L462.8,50L462.8,50z"/>
			<path class="st98" d="M467.5,50L467.5,50L467.5,50z"/>
			<path class="st99" d="M472.2,50L472.2,50L472.2,50z"/>
			<path class="st100" d="M476.9,50L476.9,50L476.9,50z"/>
			<path class="st101" d="M481.6,50L481.6,50L481.6,50z"/>
			<path class="st102" d="M486.4,50L486.4,50L486.4,50z"/>
			<path class="st103" d="M491.1,50L491.1,50L491.1,50z"/>
			<path class="st104" d="M495.8,50L495.8,50L495.8,50z"/>
			<path class="st105" d="M500.5,50L500.5,50L500.5,50z"/>
			<path class="st106" d="M505.2,50L505.2,50L505.2,50z"/>
			<path class="st107" d="M510,50L510,50L510,50z"/>
			<path class="st108" d="M514.7,50L514.7,50L514.7,50z"/>
			<path class="st109" d="M519.4,50L519.4,50L519.4,50z"/>
			<path class="st110" d="M524.1,50L524.1,50L524.1,50z"/>
			<path class="st111" d="M528.9,50L528.9,50L528.9,50z"/>
			<path class="st112" d="M533.6,50L533.6,50L533.6,50z"/>
			<path class="st113" d="M538.3,50L538.3,50L538.3,50z"/>
			<path class="st114" d="M543,50L543,50L543,50z"/>
			<path class="st115" d="M547.7,50L547.7,50L547.7,50z"/>
			<path class="st116" d="M552.5,50L552.5,50L552.5,50z"/>
			<path class="st117" d="M557.2,50L557.2,50L557.2,50z"/>
			<path class="st118" d="M561.9,50L561.9,50L561.9,50z"/>
			<path class="st119" d="M566.6,50L566.6,50L566.6,50z"/>
			<path class="st120" d="M571.4,50L571.4,50L571.4,50z"/>
			<path class="st121" d="M576.1,50L576.1,50L576.1,50z"/>
			<path class="st122" d="M580.8,50L580.8,50L580.8,50z"/>
			<path class="st123" d="M585.5,50L585.5,50L585.5,50z"/>
			<path class="st124" d="M590.2,50L590.2,50L590.2,50z"/>
			<path class="st125" d="M595,50L595,50L595,50z"/>
			<path class="st126" d="M599.7,50L599.7,50L599.7,50z"/>
			<path class="st127" d="M604.4,50L604.4,50L604.4,50z"/>
			<path class="st128" d="M609.1,50L609.1,50L609.1,50z"/>
			<path class="st129" d="M613.9,50L613.9,50L613.9,50z"/>
			<path class="st130" d="M618.6,50L618.6,50L618.6,50z"/>
			<path class="st131" d="M623.3,50L623.3,50L623.3,50z"/>
			<path class="st132" d="M628,50L628,50L628,50z"/>
			<path class="st133" d="M632.7,50L632.7,50L632.7,50z"/>
			<path class="st134" d="M637.5,50L637.5,50L637.5,50z"/>
			<path class="st135" d="M642.2,50L642.2,50L642.2,50z"/>
			<path class="st136" d="M646.9,50L646.9,50L646.9,50z"/>
			<path class="st137" d="M651.6,50L651.6,50L651.6,50z"/>
			<path class="st138" d="M656.4,50L656.4,50L656.4,50z"/>
			<path class="st139" d="M661.1,50L661.1,50L661.1,50z"/>
			<path class="st140" d="M665.8,50L665.8,50L665.8,50z"/>
			<path class="st141" d="M670.5,50L670.5,50L670.5,50z"/>
			<path class="st142" d="M675.2,50L675.2,50L675.2,50z"/>
			<path class="st143" d="M680,50L680,50L680,50z"/>
			<path class="st144" d="M684.7,50L684.7,50L684.7,50z"/>
			<path class="st145" d="M689.4,50L689.4,50L689.4,50z"/>
			<path class="st146" d="M694.1,50L694.1,50L694.1,50z"/>
			<path class="st147" d="M698.8,50L698.8,50L698.8,50z"/>
			<path class="st148" d="M703.6,50L703.6,50L703.6,50z"/>
			<path class="st149" d="M708.3,50L708.3,50L708.3,50z"/>
			<path class="st150" d="M713,50L713,50L713,50z"/>
			<path class="st151" d="M717.7,50L717.7,50L717.7,50z"/>
			<path class="st152" d="M722.5,50L722.5,50L722.5,50z"/>
			<path class="st153" d="M727.2,50L727.2,50L727.2,50z"/>
			<path class="st154" d="M731.9,50L731.9,50L731.9,50z"/>
			<path class="st155" d="M736.6,50L736.6,50L736.6,50z"/>
			<path class="st156" d="M741.3,50L741.3,50L741.3,50z"/>
			<path class="st157" d="M746.1,50L746.1,50L746.1,50z"/>
			<path class="st158" d="M750.8,50L750.8,50L750.8,50z"/>
			<path class="st159" d="M755.5,50L755.5,50L755.5,50z"/>
			<path class="st160" d="M760.2,50L760.2,50L760.2,50z"/>
			<path class="st161" d="M765,50L765,50L765,50z"/>
			<path class="st162" d="M769.7,50L769.7,50L769.7,50z"/>
			<path class="st163" d="M774.4,50L774.4,50L774.4,50z"/>
			<path class="st164" d="M779.1,50L779.1,50L779.1,50z"/>
			<path class="st165" d="M783.8,50L783.8,50L783.8,50z"/>
			<path class="st166" d="M788.6,50L788.6,50L788.6,50z"/>
			<path class="st167" d="M793.3,50L793.3,50L793.3,50z"/>
			<path class="st168" d="M798,50L798,50L798,50z"/>
			<path class="st169" d="M802.7,50L802.7,50L802.7,50z"/>
			<path class="st170" d="M807.5,50L807.5,50L807.5,50z"/>
			<path class="st171" d="M812.2,50L812.2,50L812.2,50z"/>
			<path class="st172" d="M816.9,50L816.9,50L816.9,50z"/>
			<path class="st173" d="M821.6,50L821.6,50L821.6,50z"/>
			<path class="st174" d="M826.3,50L826.3,50L826.3,50z"/>
			<path class="st175" d="M831.1,50L831.1,50L831.1,50z"/>
			<path class="st176" d="M835.8,50L835.8,50L835.8,50z"/>
			<path class="st177" d="M840.5,50L840.5,50L840.5,50z"/>
			<path class="st178" d="M845.2,50L845.2,50L845.2,50z"/>
			<path class="st179" d="M850,50L850,50L850,50z"/>
			<path class="st180" d="M854.7,50L854.7,50L854.7,50z"/>
			<path class="st181" d="M859.4,50L859.4,50L859.4,50z"/>
			<path class="st182" d="M864.1,50L864.1,50L864.1,50z"/>
			<path class="st183" d="M868.8,50L868.8,50L868.8,50z"/>
			<path class="st184" d="M873.6,50L873.6,50L873.6,50z"/>
			<path class="st185" d="M878.3,50L878.3,50L878.3,50z"/>
			<path class="st186" d="M883,50L883,50L883,50z"/>
			<path class="st187" d="M887.7,50L887.7,50L887.7,50z"/>
			<path class="st188" d="M892.4,50L892.4,50L892.4,50z"/>
			<path class="st189" d="M897.2,50L897.2,50L897.2,50z"/>
			<path class="st190" d="M901.9,50L901.9,50L901.9,50z"/>
			<path class="st191" d="M906.6,50L906.6,50L906.6,50z"/>
			<path class="st192" d="M911.3,50L911.3,50L911.3,50z"/>
			<path class="st193" d="M916.1,50L916.1,50L916.1,50z"/>
			<path class="st194" d="M920.8,50L920.8,50L920.8,50z"/>
			<path class="st195" d="M925.5,50L925.5,50L925.5,50z"/>
			<path class="st196" d="M930.2,50L930.2,50L930.2,50z"/>
			<path class="st197" d="M934.9,50L934.9,50L934.9,50z"/>
			<path class="st198" d="M939.7,50L939.7,50L939.7,50z"/>
			<path class="st199" d="M944.4,50L944.4,50L944.4,50z"/>
			<path class="st200" d="M949.1,50L949.1,50L949.1,50z"/>
			<path class="st201" d="M953.8,50L953.8,50L953.8,50z"/>
			<path class="st202" d="M958.6,50L958.6,50L958.6,50z"/>
			<path class="st203" d="M963.3,50L963.3,50L963.3,50z"/>
			<path class="st204" d="M968,50L968,50L968,50z"/>
			<path class="st204" d="M968,50L968,50L968,50z"/>
		</g>
	</g>
	<g>
		<g>
			<rect x="0" y="25" class="st205" width="968" height="50"/>
		</g>
		<g>
			<path class="st206" d="M197,70.3c-0.5,0.2-1.5,0.2-2.6,0.2C194.7,70.3,196.1,70.1,197,70.3z"/>
		</g>
		<g>
			<path class="st206" d="M158.4,37c-0.8,0.1-3.2,0.4-2.9-0.1C156.8,36.8,157.4,37,158.4,37z"/>
		</g>
		<g>
			<path class="st206" d="M154.3,36.3c-0.2,0.3-2.1,0-3,0.1C151.4,36,153.7,36.1,154.3,36.3z"/>
		</g>
		<g>
			<path class="st206" d="M142.4,41.3c-0.6,0.2-2.2,0.3-3,0.1C139.7,41.2,141.5,41.4,142.4,41.3z"/>
		</g>
		<g>
			<path class="st206" d="M137,36c-1,0.3-2.7,0.4-5.1,0.3C132.7,36,135.2,36.1,137,36z"/>
		</g>
		<g>
			<path class="st206" d="M76,49c0.1,0.3-0.2,0.5-1.3,0.5c-0.3-0.1-0.4-0.3-0.4-0.5C74.8,49,75.4,49,76,49z"/>
		</g>
		<g>
			<path class="st206" d="M57.6,47c-0.6,0.2-1.7,0.2-3,0.2C54.9,47,57.1,46.9,57.6,47z"/>
		</g>
		<g>
			<path class="st206" d="M53.6,62.7c-0.5,0.3-2.6,0-3.8,0.1C50.6,62.7,52.6,62.5,53.6,62.7z"/>
		</g>
		<g>
			<path class="st206" d="M54.4,49.1c-1,0.3-3.4,0.2-4.7,0.4C48.6,49,52.8,49.1,54.4,49.1z"/>
		</g>
		<g>
			<path class="st206" d="M49.5,65.6c-0.2,0.4-1.8,0.4-3,0.5C46.8,65.7,48.5,65.7,49.5,65.6z"/>
		</g>
		<g>
			<path class="st206" d="M41,53.3c-0.8,0.2-2.2,0.2-3.4,0.3C37.4,53.1,39.6,53.3,41,53.3z"/>
		</g>
		<g>
			<path class="st206" d="M33.7,50.6c-0.5,0.3-3.6,0.4-2.9-0.3c0.9,0,0.8,0.2,0.8,0.4C32.6,50.7,32.5,50.5,33.7,50.6z"/>
		</g>
		<g>
			<path class="st206" d="M24.8,59.8C26.9,59.3,30.4,60,24.8,59.8L24.8,59.8z"/>
		</g>
		<g>
			<path class="st206" d="M20.2,64.2c-1.7,0.2-3.4,0.2-5.5,0.1C16,64.1,19.3,64.1,20.2,64.2z"/>
		</g>
		<g>
			<path class="st206" d="M18.8,64.9c0.6,0.4-2.8,0.3-2.1,0C17.4,64.9,18.1,64.9,18.8,64.9z"/>
		</g>
		<g>
			<path class="st206" d="M3.1,70.6C-0.4,71.2-1.6,70.6,3.1,70.6L3.1,70.6z"/>
		</g>
		<g>
			<linearGradient id="SVGID_3_" gradientUnits="userSpaceOnUse" x1="-54.8958" y1="19.0004" x2="1281.3475" y2="19.0004">
				<stop  offset="0" style="stop-color:#89FFFD"/>
				<stop  offset="1" style="stop-color:#FE32D9"/>
			</linearGradient>
			<path class="st207" d="M1130.3,43.6c2.7,0,5.6-0.4,8.4-0.4c6.6,0,12.4,0.5,19,0.2c5.8-0.2,11.3-0.8,17.4-1c4.5-0.1,6-0.3,9-0.4
				c8.8-0.4,16-0.2,19.9-1.5c6.2-0.8,13.9-1.3,19.3-2.1c0.8-0.1,2.7-0.1,3-0.1c13.8-1.9,22.2-5,38.4-6.4c1.4-0.7,2.4-1.7,5.1-2.6
				c1.2-0.4,4-0.7,4.9-1.1c3.3-1.5,0.4-3.4,6.6-4.5c0.3-0.4-0.8-0.5-1.1-0.7c0.2-3-2.3-5.5-0.8-7.8c-4.2-1.4-3.3-2.9-6.6-4.2
				c-2-0.8-6-1.6-8.6-2.3c-3-0.9-6.1-1.6-8.6-2.4c0-0.9-3.8-1.1-4.5-1.8c-4.6-0.6-8.1-1.3-12.9-1.9c-0.5-0.3-1.6-0.5-1.7-0.8
				c-9.9-1.5-19.9-3.4-33.4-4c-1.2-0.1-3.8-0.2-5.3-0.1c-10,0-25.5-0.3-30.8-1.5c-1.8-0.1-1.8,0.2-3.6,0.1
				c-1.1-0.6-6.5-1.7-11.1-1.6c-1.6,0-4.4,0.8-7.9,0.9c-5.2,0.2-10.1-0.8-14.8-0.7c-2.2,0.1-4.4,0.8-6.7,0.9
				c-5.9,0.4-17.7,0.1-22.6-0.1c-3.9-0.2-5.3-0.8-8.3-0.6c-2.7,0.1-4.7,0.7-4.4,1.7c-7.6,2-27.2,0.5-38.9,1.3
				c-8.6-0.7-16.8,0.5-25.1,0.3c-1.6,0-3.6-0.3-5.3-0.3c-2.8,0-6.6,0.4-10.2,0.5c-6.2,0.2-11.6,0.2-16.7,0.5
				c-7.9-1.2-13.7,0.2-20.3,0.1c-2.5,0-4.9-0.4-7.7-0.4c-2.3,0-4.6,0.3-7.2,0.3c-2.6,0-5.2-0.4-7.7-0.4c-1.8,0-3.3,0.2-4.8,0.2
				c-2,0-3.2-0.3-5.3-0.3c-2.2,0.1-4.4,0.5-6.6,0.6c-8.1,0.2-16.9-0.3-24.5,0.6C893.4-1,881.4,0.2,865-0.6
				c-4.1,0.2-7.1,0.4-11.3,0.2c-1,0.1-0.9,0.4-2.4,0.3c-8.5-0.4-17.5,0.7-26.2,0.2c-0.3,0.1-0.7,0.3-1.2,0.4
				c-12.1-0.6-27.4-0.7-36.9,0c-7.4-0.6-16,0.1-25,0.1c-4.3,0-8.5-0.3-12.5-0.2c-7.8,0.3-18.1-0.1-25.6,0.1c-2.2,0-4.4,0.4-6.6,0.4
				c-4,0.1-8.2-0.2-12.5-0.1c-16.4,0.7-35.2,0.2-49.5,0.2c-4.4,0-8.2,0.4-13.2,0.5c-8.2,0.2-16.7-0.4-25-0.3c-2.1,0-4.1,0.3-6,0.3
				c-4.9,0.1-9.7-0.1-14.9-0.1c-12.8,0.1-25.6,0.7-37.6,0.2c-15.3,0.8-37.7,0.5-55.5,0.7c-4,0.7-7.8,0.1-11.9,0.2
				c-12.7,0.3-29,1-42.4,0.5c-56.1,1.2-114.6,0.7-170.1,2c-4.3-0.5-11.1-0.2-14.9,0.2c-0.8-0.3-3.4-0.3-5.3-0.4
				c-7,0.8-15.7,0.2-24.5,0.3c-2.2,0.8-7.5,0.2-10.8,0.8c-1.4-0.4,1.9-0.4-0.5-0.6c-5.7,1.4-24.9,0.8-33.5,1.1c0.6,0,0.7,0.2,0,0.2
				c-2.1-0.4-3.1,0.4-5.4,0.3c-15.7,0.2-26.8,1.6-40.2,2.1c-1.7-0.2-6.2-0.8-7.7-0.3c2.4,0.1,5.5,0,5.3,0.6c-4-0.2-9.3,0.1-12,0.5
				c-5,0.1-7.5-0.3-11.9,0.2c-1.1,0,1.1,0.6-1.3,0.6c-7-0.3-10.5,0.2-16.7-0.1c-1.8,0.6-9.1,0.7-11.4,0.4c-2,0.2,2.2,0.5,0.5,0.6
				c-5.6,0.2-10.9,0.4-16.1,0c-1.3,0.3-2.1,0.6-4.3,0.7c-1.4,0,0.4-0.5-1.7-0.4c-2,0.3,1.6,0.6,1.1,1c-2.8,0.2-2.3,0.5-3.7,0.8
				c-3.9-0.3-6.6,0.3-10.2,0.5c-3.7,0.2-7.8,0-11.3,0.2c-3.1,0.2-4.4,0.6-7.8,0.6c-2.8,0-5.2-0.4-8.3-0.4c-1.6,0.1,1.1,0.4-1.3,0.5
				c-10.9,0.1-21.9,0.3-29.9,1c12.4-0.9,21.4,0.1,32.3-0.8c1.6,0.5,4.9-0.3,6.5,0.4c0.7-0.3-1.8-0.5,0.7-0.5c0.8,0,1.1,0.2,2.4,0.1
				c-1.5,0.6,0.8,0.6,1.6,1.1c9.2,0,16.5-0.3,24.5-0.3c1.5-0.2-1-0.4,0.7-0.5c3-0.1,5.4,0,9-0.2c1.1,0.5,3.5,0.7,2.2,1.3
				c-10.8,0-25.4,0.9-38.3,1c-3.9,0-7.9-0.5-10.2,0.3c5.8-0.2,10.4,0.6,15.4,0.7c6.5,0.1,13.4-0.7,19.7-0.5c1.8,0,2.5,0.3,4.1,0.3
				c1.3,0,3.4-0.4,4.8-0.3c1.5,0,1.6,0.3,2.9,0.3c2.7-0.1,4.8-0.5,7.8-0.4c5,0,9.9,0.5,15.5,0.3c1,0.2,0.6,0.7-0.7,0.8
				c-6.5,0-7.6,0-14.3,0c0.7,0.1,1.2,0.2,1.1,0.4c-2.1,0-2.8-0.2-4.2,0.1c5,0,4.5,0.9,2.8,1.3c-12.3-0.2-27.4,0.3-37.5-0.1
				c-1.1,0.3-1.8,0.6-3.7,0.7c-11.4,0.3-24.2,0-36.4,0.3c13.9,0.7,28.5,0.3,44.7,0c0.6,0.1,0.1,0.4,1.7,0.4c6.9-0.3,15-0.2,20.3-0.4
				c2.4,0.5,4.7,1,6.9,1.6c17-0.4,29.4,1.7,45.7,1.7c-0.1,0.4,1.2,0.5,1.7,0.7c-1.3,0.3-2.2,0.7-3.7,0.9c-2.7,0-5.4,0.2-7.7,0
				c-13.7,1.1-33.2,0.3-50.2,0.9c-2.1,0.6-0.4,1.1,1,1.6c8.2,0.3,15.7-0.5,24.4,0.3c3.1,1.4-0.2,2.4-6.9,2.5
				c-11.1,0.1-30.3,0-37.5-0.2c-32.6,0.8-65,0.5-98.5,1.1c18.6,0.3,35.8-0.5,52.4,0c-0.1-0.3,0.5-0.4,1.8-0.3
				C15.8,33,33.9,33,48.3,32.5c6,0.9,17.6-0.2,23.7,0.7c-1.5,1.4-6.5,2-12.8,2.3c6.4-0.1,12.4,0.4,17.8,0.5c4.4,0.1,12.1-0.3,14.3,0
				c0.5,0.1-0.5,0.4,0.5,0.4c-1.8,0,3.2-0.1,3.6-0.1c2.4-0.2,2-0.3,4.8-0.2c3.7,0.1,3.6,0.1,5.9,0.4c12.7,0.2,24.9-0.2,37.5,0.1
				c1.3,0,4,0,4.2,0c1.2,0.1,0.2,0.3,1.7,0.4c0.9,0,0.5-0.3,1.8-0.2c4.9,0.1,10.5,0.2,15.5,0.2c12.3-0.1,26.9,0.3,36.9,0.2
				c2.2,0.1-0.7,0.5,2.3,0.5c17.3,0.3,35.6,0.5,54.1,0.7c1.4,0,0.3,0.6,2.3,0.5c2.6,0.1,1.9-0.5,4.2-0.5c1.4,0.2,2.7,0.3,3.5,0.6
				c21.2,0.4,43.1,0,65-0.2c20.4-0.2,40.9-0.2,60.2-0.3c15.3-0.1,29.9-0.6,43.5-0.2c18.3-0.4,34.2-0.4,51.3-0.4
				c12.4,0,26,0.2,36.4,0c1.8,0,3.9-0.3,6-0.3c3.2,0,6.3,0.4,9.5,0.4c8.5,0,17.2-0.5,25.7-0.5c9.5,0,18.7,0.1,28,0.2
				c5.3,0,10.3-0.4,15.6-0.4c3.5,0,7.1,0.3,10.7,0.3c10.1,0,20.3-0.5,29.9-0.4c12.7,0.1,25.8,0.7,38.7,0.1
				c14.3,0.3,31.6,0.3,45.3,0.1c11.1,1,22.6,0,35.1,0.2c1.3,0,2.2,0.2,3.5,0.3c19,0.7,40-0.6,55.4,0.1c5.8-0.6,10.7,0.1,16.1,0.2
				c5.8,0.2,11.2-0.3,16.7-0.3c1.8,0,3.5,0.2,5.3,0.3c5.6,0.1,11.1-0.3,17.3-0.4c9.3-0.1,19.1,0.9,29.8,0.3c8.2,0.4,20.4,1,29.7,0.4
				c15.9,0.9,31.9-0.1,48.2,0.3c5.5,0.1,10.5,0.8,16.1,0.2c5.7,0.6,12.6,0.3,19.6,0.3c6.9,0.1,14.1,0.5,21.4,0.6
				c10.3,0.2,23.1-0.3,30.9,1c3.5,2.7,10.4-1.3,18.6-0.7c4.4,0.6,3.8,1.3,5.7,2.3c3.9,0.4,7.5,0.2,11.3-0.1
				C1121.2,42.3,1124.4,43.5,1130.3,43.6z M87.1,14.1c0.1-0.1-0.1-0.2-0.6-0.2C87.8,13.3,90.6,14.2,87.1,14.1z M85.9,14.4
				c-5,0-11.9,0.6-15.5,0.2c-1,0,0.9,0.7-0.7,0.8c-2.1-0.3-4.6-0.5-8.3-0.5c-0.2-1,7-0.4,7.3-1.3c2.8,0.1,4.2,0.1,5.4-0.3
				c5.7,0.3,7-0.3,11.3,0.1C84.3,13.9,86.2,13.7,85.9,14.4z"/>
		</g>
	</g>
</g>
</svg>
